%TF.GenerationSoftware,KiCad,Pcbnew,(6.0.5-0)*%
%TF.CreationDate,2022-09-09T17:58:14+08:00*%
%TF.ProjectId,Galaxy ripoff,47616c61-7879-4207-9269-706f66662e6b,rev?*%
%TF.SameCoordinates,Original*%
%TF.FileFunction,Copper,L1,Top*%
%TF.FilePolarity,Positive*%
%FSLAX46Y46*%
G04 Gerber Fmt 4.6, Leading zero omitted, Abs format (unit mm)*
G04 Created by KiCad (PCBNEW (6.0.5-0)) date 2022-09-09 17:58:14*
%MOMM*%
%LPD*%
G01*
G04 APERTURE LIST*
G04 Aperture macros list*
%AMRoundRect*
0 Rectangle with rounded corners*
0 $1 Rounding radius*
0 $2 $3 $4 $5 $6 $7 $8 $9 X,Y pos of 4 corners*
0 Add a 4 corners polygon primitive as box body*
4,1,4,$2,$3,$4,$5,$6,$7,$8,$9,$2,$3,0*
0 Add four circle primitives for the rounded corners*
1,1,$1+$1,$2,$3*
1,1,$1+$1,$4,$5*
1,1,$1+$1,$6,$7*
1,1,$1+$1,$8,$9*
0 Add four rect primitives between the rounded corners*
20,1,$1+$1,$2,$3,$4,$5,0*
20,1,$1+$1,$4,$5,$6,$7,0*
20,1,$1+$1,$6,$7,$8,$9,0*
20,1,$1+$1,$8,$9,$2,$3,0*%
G04 Aperture macros list end*
%TA.AperFunction,SMDPad,CuDef*%
%ADD10R,2.500000X2.500000*%
%TD*%
%TA.AperFunction,SMDPad,CuDef*%
%ADD11R,1.500000X1.500000*%
%TD*%
%TA.AperFunction,SMDPad,CuDef*%
%ADD12RoundRect,0.087500X0.087500X-1.162500X0.087500X1.162500X-0.087500X1.162500X-0.087500X-1.162500X0*%
%TD*%
%TA.AperFunction,ComponentPad*%
%ADD13C,0.600000*%
%TD*%
%TA.AperFunction,SMDPad,CuDef*%
%ADD14R,2.800000X2.300000*%
%TD*%
%TA.AperFunction,SMDPad,CuDef*%
%ADD15RoundRect,0.381000X-0.381000X0.762000X-0.381000X-0.762000X0.381000X-0.762000X0.381000X0.762000X0*%
%TD*%
%TA.AperFunction,ComponentPad*%
%ADD16C,1.560000*%
%TD*%
%TA.AperFunction,ComponentPad*%
%ADD17O,2.200000X1.100000*%
%TD*%
%TA.AperFunction,ComponentPad*%
%ADD18O,2.600000X1.300000*%
%TD*%
%TA.AperFunction,ViaPad*%
%ADD19C,0.450000*%
%TD*%
%TA.AperFunction,Conductor*%
%ADD20C,0.250000*%
%TD*%
%TA.AperFunction,Conductor*%
%ADD21C,0.200000*%
%TD*%
%TA.AperFunction,Conductor*%
%ADD22C,0.400000*%
%TD*%
G04 APERTURE END LIST*
D10*
%TO.P,SDA,1,1*%
%TO.N,SDA*%
X148800000Y-80800000D03*
%TD*%
%TO.P,HES3,1,1*%
%TO.N,HES3*%
X151800000Y-76400000D03*
%TD*%
%TO.P,GAIN,1,1*%
%TO.N,GAIN*%
X139000000Y-95800000D03*
%TD*%
%TO.P,BCLK,1,1*%
%TO.N,BCLK{slash}SCK*%
X146400000Y-92000000D03*
%TD*%
D11*
%TO.P,35,1,1*%
%TO.N,Net-(U4-Pad31)*%
X159000000Y-92800000D03*
%TD*%
D10*
%TO.P,HES2,1,1*%
%TO.N,HES2*%
X155200000Y-76400000D03*
%TD*%
D11*
%TO.P,38,1,1*%
%TO.N,Net-(U4-Pad34)*%
X159000000Y-95100000D03*
%TD*%
%TO.P,39,1,1*%
%TO.N,Net-(U4-Pad35)*%
X161200000Y-95100000D03*
%TD*%
D10*
%TO.P,IN+,1,1*%
%TO.N,VCC_IN*%
X164600000Y-91600000D03*
%TD*%
D11*
%TO.P,46,1,1*%
%TO.N,Net-(U4-Pad44)*%
X162400000Y-99800000D03*
%TD*%
D10*
%TO.P,IO0,1,1*%
%TO.N,IO0*%
X144200000Y-103000000D03*
%TD*%
%TO.P,SD,1,1*%
%TO.N,SD*%
X141800000Y-98800000D03*
%TD*%
D11*
%TO.P,37,1,1*%
%TO.N,Net-(U4-Pad33)*%
X156800000Y-95100000D03*
%TD*%
%TO.P,48,1,1*%
%TO.N,Net-(U4-Pad30)*%
X161200000Y-90400000D03*
%TD*%
D10*
%TO.P,HES1,1,1*%
%TO.N,HES1*%
X158600000Y-76400000D03*
%TD*%
D11*
%TO.P,47,1,1*%
%TO.N,Net-(U4-Pad27)*%
X156800000Y-90400000D03*
%TD*%
%TO.P,42,1,1*%
%TO.N,Net-(U4-Pad38)*%
X164200000Y-95400000D03*
%TD*%
%TO.P,36,1,1*%
%TO.N,Net-(U4-Pad32)*%
X161200000Y-92800000D03*
%TD*%
D10*
%TO.P,EN,1,1*%
%TO.N,EN*%
X161800000Y-102200000D03*
%TD*%
%TO.P,LRCLK,1,1*%
%TO.N,LRCLK{slash}WS*%
X146400000Y-89000000D03*
%TD*%
%TO.P,DIN,1,1*%
%TO.N,DIN{slash}SD*%
X148400000Y-95000000D03*
%TD*%
D11*
%TO.P,34,1,1*%
%TO.N,Net-(U4-Pad29)*%
X159000000Y-90400000D03*
%TD*%
D10*
%TO.P,SCL,1,1*%
%TO.N,SCL*%
X142600000Y-80800000D03*
%TD*%
D11*
%TO.P,33,1,1*%
%TO.N,Net-(U4-Pad28)*%
X156800000Y-92800000D03*
%TD*%
%TO.P,41,1,1*%
%TO.N,Net-(U4-Pad37)*%
X161200000Y-97200000D03*
%TD*%
%TO.P,40,1,1*%
%TO.N,Net-(U4-Pad36)*%
X159000000Y-97200000D03*
%TD*%
D10*
%TO.P,PSU,1,1*%
%TO.N,PSU*%
X169000000Y-81800000D03*
%TD*%
D12*
%TO.P,J2,1,Pin_1*%
%TO.N,GND*%
X159119000Y-101500000D03*
%TO.P,J2,2,Pin_2*%
%TO.N,Net-(J2-Pad2)*%
X158400000Y-101500000D03*
%TO.P,J2,3,Pin_3*%
%TO.N,+3V3*%
X157700000Y-101500000D03*
%TO.P,J2,4,Pin_4*%
X157000000Y-101500000D03*
%TO.P,J2,5,Pin_5*%
%TO.N,GND*%
X156300000Y-101500000D03*
%TO.P,J2,6,Pin_6*%
X155600000Y-101500000D03*
%TO.P,J2,7,Pin_7*%
%TO.N,DC*%
X154900000Y-101500000D03*
%TO.P,J2,8,Pin_8*%
%TO.N,CS*%
X154200000Y-101500000D03*
%TO.P,J2,9,Pin_9*%
%TO.N,SCK*%
X153500000Y-101500000D03*
%TO.P,J2,10,Pin_10*%
%TO.N,MOSI*%
X152800000Y-101500000D03*
%TO.P,J2,11,Pin_11*%
%TO.N,RES*%
X152100000Y-101500000D03*
%TO.P,J2,12,Pin_12*%
%TO.N,GND*%
X151400000Y-101500000D03*
%TD*%
D13*
%TO.P,U7,11,PAD*%
%TO.N,GND*%
X163723586Y-83850003D03*
D14*
X162973586Y-84350003D03*
D13*
X162223586Y-83850003D03*
X162973586Y-84350003D03*
X162223586Y-84850003D03*
X163723586Y-84850003D03*
%TD*%
D15*
%TO.P,LS1,1,1*%
%TO.N,Net-(LS1-Pad1)*%
X140578584Y-88250000D03*
%TO.P,LS1,2,2*%
%TO.N,Net-(LS1-Pad2)*%
X140578584Y-91750000D03*
%TD*%
D16*
%TO.P,U11,5,GND*%
%TO.N,GND*%
X167011273Y-75131533D03*
%TD*%
D17*
%TO.P,J1,S1,SHIELD*%
%TO.N,GND*%
X167740000Y-85680000D03*
%TO.P,J1,S2*%
%TO.N,N/C*%
X167740000Y-94320000D03*
D18*
%TO.P,J1,S3*%
X173100000Y-84350000D03*
%TO.P,J1,S4*%
X173100000Y-95650000D03*
%TD*%
D19*
%TO.N,Net-(J2-Pad2)*%
X149600000Y-101400000D03*
%TO.N,GND*%
X168000000Y-84200000D03*
X165300000Y-83100000D03*
%TO.N,+3V3*%
X142700000Y-96000000D03*
X147825000Y-99775000D03*
X164900000Y-99600000D03*
%TO.N,GND*%
X141100000Y-93600000D03*
X166300000Y-88100000D03*
X146546673Y-82999999D03*
X142600000Y-77100000D03*
X172000000Y-99500000D03*
X144501599Y-77699989D03*
X165400000Y-95900000D03*
X161350553Y-82105500D03*
X150200000Y-100100000D03*
X146900000Y-73400000D03*
X144800000Y-102000000D03*
X144400000Y-91800000D03*
X165500000Y-97600000D03*
X153300000Y-71000000D03*
X149800000Y-75900000D03*
X160200000Y-100400000D03*
X141800000Y-84300000D03*
X167500000Y-103300000D03*
X139400000Y-93900000D03*
X156400000Y-98800000D03*
X163600000Y-96800000D03*
X160400000Y-75500000D03*
X164600000Y-103300000D03*
X167000000Y-102600000D03*
X168100000Y-103900000D03*
X157900000Y-70800000D03*
X139600000Y-80800000D03*
%TO.N,EN*%
X170757021Y-99557021D03*
X164700000Y-101500000D03*
X163375500Y-101600000D03*
%TO.N,IO0*%
X142200000Y-102600000D03*
%TO.N,+BATT*%
X165950000Y-95350000D03*
X164050000Y-93550000D03*
%TO.N,PSU*%
X165226792Y-86426792D03*
X164582732Y-88677268D03*
%TO.N,STAT*%
X167600000Y-96600000D03*
X165600000Y-106200000D03*
%TO.N,VCC_IN*%
X166315489Y-92315489D03*
X168600000Y-88050000D03*
%TO.N,D+*%
X156500000Y-87800000D03*
X166872525Y-89633435D03*
%TO.N,D-*%
X155724511Y-87275489D03*
X168265304Y-89408713D03*
X167280000Y-90300000D03*
%TO.N,Net-(LS1-Pad1)*%
X142734652Y-92665348D03*
%TO.N,Net-(LS1-Pad2)*%
X142275384Y-93124616D03*
%TO.N,HES1*%
X158400000Y-74600000D03*
%TO.N,HES2*%
X153923584Y-74476416D03*
%TO.N,HES3*%
X151293042Y-74706958D03*
%TO.N,Battery*%
X155600000Y-89400000D03*
X167800000Y-99400000D03*
%TO.N,LED*%
X147770764Y-99127766D03*
X147700000Y-97200000D03*
%TO.N,Net-(J2-Pad2)*%
X147211792Y-102688208D03*
X160000000Y-101400000D03*
%TO.N,+3V3*%
X158700000Y-99000000D03*
%TO.N,LRCLK{slash}WS*%
X149400000Y-93000000D03*
X152100000Y-90700000D03*
X166500000Y-76300000D03*
%TO.N,BCLK{slash}SCK*%
X146800000Y-93800000D03*
X152100000Y-91500000D03*
X164900000Y-78700000D03*
%TO.N,GAIN*%
X146500000Y-95500000D03*
%TO.N,DIN{slash}SD*%
X153300000Y-90400000D03*
X165800000Y-77000000D03*
X146950000Y-94650000D03*
%TO.N,SD*%
X145990703Y-96350000D03*
%TO.N,Net-(U4-Pad28)*%
X157400000Y-91900000D03*
%TO.N,INT1*%
X143200000Y-90000000D03*
X150200000Y-89400000D03*
%TO.N,Net-(U4-Pad29)*%
X160700000Y-89038740D03*
%TO.N,Net-(U4-Pad31)*%
X159600000Y-91900000D03*
%TO.N,Net-(U4-Pad32)*%
X161200000Y-91574502D03*
%TO.N,Net-(U4-Pad33)*%
X158300000Y-93974502D03*
%TO.N,Net-(U4-Pad34)*%
X159500000Y-94200000D03*
%TO.N,Net-(U4-Pad35)*%
X160800000Y-94200000D03*
%TO.N,Net-(U4-Pad36)*%
X159600000Y-96300000D03*
%TO.N,Net-(U4-Pad37)*%
X161799082Y-96300000D03*
%TO.N,Net-(U4-Pad38)*%
X163300000Y-95500000D03*
%TO.N,SCL*%
X144740725Y-75759275D03*
X144700000Y-84200000D03*
%TO.N,SDA*%
X145900000Y-84000000D03*
X145400000Y-76700000D03*
X146787500Y-85612500D03*
%TO.N,Net-(U4-Pad44)*%
X161400000Y-100000000D03*
%TO.N,DC*%
X149500000Y-89700000D03*
%TO.N,CS*%
X149400000Y-90400000D03*
%TO.N,SCK*%
X149400000Y-91300000D03*
%TO.N,MOSI*%
X149350000Y-92150000D03*
%TO.N,RES*%
X152100000Y-99800000D03*
%TO.N,Net-(D1-Pad2)*%
X163900000Y-104500000D03*
X163900000Y-99500000D03*
%TO.N,Net-(U4-Pad27)*%
X159000000Y-89000000D03*
%TO.N,Net-(U4-Pad30)*%
X161200000Y-89500000D03*
%TD*%
D20*
%TO.N,Net-(U4-Pad27)*%
X157917154Y-89282839D02*
G75*
G02*
X158600000Y-89000000I682846J-682861D01*
G01*
%TO.N,Net-(U4-Pad38)*%
X163349997Y-95449997D02*
G75*
G02*
X163470710Y-95400000I120703J-120703D01*
G01*
%TO.N,Net-(U4-Pad37)*%
X161200017Y-97049541D02*
G75*
G02*
X161306390Y-96792691I363183J41D01*
G01*
%TO.N,Net-(U4-Pad36)*%
X158999990Y-97050000D02*
G75*
G02*
X159106066Y-96793933I362110J0D01*
G01*
%TO.N,Net-(U4-Pad35)*%
X161199986Y-94850000D02*
G75*
G03*
X161023223Y-94423223I-603586J0D01*
G01*
%TO.N,Net-(U4-Pad34)*%
X158999987Y-94900000D02*
G75*
G02*
X159141421Y-94558578I482813J0D01*
G01*
%TO.N,Net-(U4-Pad33)*%
X157793060Y-94106877D02*
G75*
G02*
X158112749Y-93974502I319640J-319723D01*
G01*
%TO.N,Net-(U4-Pad31)*%
X158999990Y-92650000D02*
G75*
G02*
X159106066Y-92393933I362110J0D01*
G01*
%TO.N,Net-(U4-Pad29)*%
X160241490Y-89158495D02*
G75*
G02*
X160530630Y-89038740I289110J-289105D01*
G01*
%TO.N,Net-(U4-Pad28)*%
X156799990Y-92650000D02*
G75*
G02*
X156906066Y-92393933I362110J0D01*
G01*
D21*
%TO.N,Battery*%
X163591685Y-98406671D02*
G75*
G02*
X163584221Y-98403571I15J10571D01*
G01*
X155541550Y-89623828D02*
G75*
G03*
X155600000Y-89482677I-141150J141128D01*
G01*
X155736016Y-96735962D02*
G75*
G02*
X155266995Y-95603737I1132184J1132262D01*
G01*
X154783497Y-94456981D02*
G75*
G02*
X154300000Y-93289715I1167303J1167281D01*
G01*
X166104267Y-98406688D02*
G75*
G02*
X167303330Y-98903332I33J-1695712D01*
G01*
X154299985Y-91784593D02*
G75*
G02*
X154950001Y-90215356I2219215J-7D01*
G01*
X155266954Y-95603737D02*
G75*
G03*
X154798000Y-94471484I-1601254J37D01*
G01*
X158909081Y-98400494D02*
G75*
G02*
X156333738Y-97333736I19J3642094D01*
G01*
X163576757Y-98400500D02*
G75*
G02*
X163584221Y-98403571I43J-10500D01*
G01*
%TO.N,HES3*%
X151546500Y-76146542D02*
G75*
G02*
X151293042Y-75534568I612000J611942D01*
G01*
D20*
%TO.N,HES2*%
X155199988Y-76076416D02*
G75*
G03*
X154971190Y-75524024I-781188J16D01*
G01*
%TO.N,HES1*%
X158599991Y-74941421D02*
G75*
G03*
X158500000Y-74700000I-341391J21D01*
G01*
D21*
%TO.N,VCC_IN*%
X165100000Y-91599999D02*
G75*
G02*
X165953552Y-91953554I0J-1207101D01*
G01*
D22*
%TO.N,+BATT*%
X165900009Y-95175489D02*
G75*
G03*
X165776601Y-94877581I-421309J-11D01*
G01*
X165925000Y-95350000D02*
G75*
G02*
X165900000Y-95325000I0J25000D01*
G01*
X164249511Y-93550004D02*
G75*
G02*
X164590097Y-93691075I-11J-481696D01*
G01*
D20*
%TO.N,EN*%
X162187750Y-102400037D02*
G75*
G03*
X162849679Y-102125818I-50J936137D01*
G01*
D21*
%TO.N,+3V3*%
X147812500Y-99762500D02*
X147825000Y-99775000D01*
D20*
X157350000Y-101500000D02*
X157000000Y-101500000D01*
D21*
X143300000Y-96000000D02*
X142700000Y-96000000D01*
X164900000Y-99600000D02*
X164820886Y-99600000D01*
X164685829Y-99544057D02*
X164313800Y-99172028D01*
X150608226Y-101608226D02*
X149110875Y-100110875D01*
X147825000Y-99775000D02*
X148300000Y-99775000D01*
X144324264Y-96424264D02*
X147596966Y-99696966D01*
X159236396Y-98800000D02*
X163415644Y-98800000D01*
X151441314Y-103124977D02*
X156658578Y-103124977D01*
X157000000Y-102783555D02*
X157000000Y-101500000D01*
X150925480Y-102609142D02*
X150925480Y-102374144D01*
X157700000Y-101150000D02*
X157700000Y-100336396D01*
X147782322Y-99750000D02*
X147725000Y-99750000D01*
X158150001Y-99250001D02*
G75*
G02*
X159236396Y-98800000I1086399J-1086399D01*
G01*
X147725000Y-99749990D02*
G75*
G02*
X147596966Y-99696966I0J181090D01*
G01*
X164820886Y-99600009D02*
G75*
G02*
X164685829Y-99544057I14J191009D01*
G01*
X151076548Y-102973908D02*
G75*
G03*
X151441314Y-103124977I364752J364808D01*
G01*
X148300000Y-99775015D02*
G75*
G02*
X149110874Y-100110876I0J-1146785D01*
G01*
X151076588Y-102973868D02*
G75*
G02*
X150925480Y-102609142I364712J364768D01*
G01*
X164313781Y-99172047D02*
G75*
G03*
X163415644Y-98800000I-898181J-898153D01*
G01*
X156899968Y-103024945D02*
G75*
G03*
X157000000Y-102783555I-241368J241445D01*
G01*
X150608250Y-101608202D02*
G75*
G02*
X150925480Y-102374144I-765950J-765898D01*
G01*
X147782322Y-99749991D02*
G75*
G02*
X147812500Y-99762500I-22J-42709D01*
G01*
X156658578Y-103124945D02*
G75*
G03*
X156900000Y-103024977I22J341445D01*
G01*
X157700000Y-101150000D02*
G75*
G02*
X157350000Y-101500000I-350000J0D01*
G01*
X143300000Y-95999992D02*
G75*
G02*
X144324264Y-96424264I0J-1448508D01*
G01*
X157699999Y-100336396D02*
G75*
G02*
X158150000Y-99250000I1536401J-4D01*
G01*
D20*
%TO.N,GND*%
X156300000Y-101500000D02*
X155600000Y-101500000D01*
%TO.N,EN*%
X162187750Y-102400000D02*
X161800000Y-102400000D01*
X163375500Y-101600000D02*
X162849680Y-102125819D01*
D21*
X167334753Y-100700239D02*
X167183762Y-100851231D01*
X164700000Y-101500000D02*
X165617497Y-101500000D01*
X170585291Y-99728750D02*
X170757021Y-99557021D01*
X170170699Y-99900480D02*
X169265545Y-99900480D01*
X170170699Y-99900461D02*
G75*
G03*
X170585290Y-99728749I1J586361D01*
G01*
X165617497Y-101500007D02*
G75*
G03*
X167183762Y-100851231I3J2215007D01*
G01*
X169265545Y-99900502D02*
G75*
G03*
X167334753Y-100700239I-45J-2730498D01*
G01*
D20*
%TO.N,IO0*%
X142200000Y-102600000D02*
X142400000Y-102800000D01*
X142882842Y-103000000D02*
X144200000Y-103000000D01*
X142399987Y-102800013D02*
G75*
G03*
X142882842Y-103000000I482813J482813D01*
G01*
D21*
%TO.N,+BATT*%
X165950000Y-95350000D02*
X165925000Y-95350000D01*
D22*
X165776602Y-94877580D02*
X164590097Y-93691075D01*
X165900000Y-95175489D02*
X165900000Y-95325000D01*
X164249511Y-93550000D02*
X164050000Y-93550000D01*
D21*
X165900000Y-95300000D02*
X165800000Y-95300000D01*
D20*
%TO.N,PSU*%
X165528579Y-85271420D02*
X169000000Y-81800000D01*
D21*
X164914762Y-86738822D02*
X165246792Y-86406792D01*
X164582732Y-88677268D02*
X164582732Y-87540413D01*
D20*
X165226792Y-86426792D02*
X165226792Y-86000000D01*
X165226775Y-86000000D02*
G75*
G02*
X165528580Y-85271421I1030325J0D01*
G01*
D21*
X164582726Y-87540413D02*
G75*
G02*
X164914762Y-86738822I1133574J13D01*
G01*
%TO.N,STAT*%
X166731370Y-101868628D02*
X167380761Y-101219238D01*
X168934314Y-96600000D02*
X167600000Y-96600000D01*
X169900000Y-97000000D02*
X171069248Y-98169248D01*
X171475489Y-99150000D02*
X171475489Y-99317578D01*
X165600000Y-106200000D02*
X165600000Y-104600000D01*
X170493067Y-100300000D02*
X169600000Y-100300000D01*
X171475482Y-99317578D02*
G75*
G02*
X171187743Y-100012254I-982382J-22D01*
G01*
X168934314Y-96599994D02*
G75*
G02*
X169900000Y-97000000I-14J-1365706D01*
G01*
X171187756Y-100012267D02*
G75*
G02*
X170493067Y-100300000I-694656J694667D01*
G01*
X165599987Y-104600000D02*
G75*
G02*
X166731370Y-101868628I3862713J0D01*
G01*
X169600000Y-100300006D02*
G75*
G03*
X167380761Y-101219238I0J-3138494D01*
G01*
X171069247Y-98169249D02*
G75*
G02*
X171475489Y-99150000I-980747J-980751D01*
G01*
%TO.N,VCC_IN*%
X168780000Y-88180000D02*
X168600000Y-88000000D01*
X166315489Y-92315489D02*
X166257744Y-92257744D01*
X168960000Y-90055405D02*
X168960000Y-88614558D01*
X166315489Y-92315489D02*
X165953553Y-91953553D01*
X165100000Y-91600000D02*
X164600000Y-91600000D01*
X168285000Y-91685000D02*
X168080226Y-91889773D01*
X166945000Y-92360000D02*
X166280000Y-92360000D01*
X168960017Y-88614558D02*
G75*
G03*
X168780000Y-88180000I-614617J-42D01*
G01*
X168080236Y-91889783D02*
G75*
G02*
X166945000Y-92360000I-1135236J1135283D01*
G01*
X166118336Y-92199988D02*
G75*
G02*
X166257744Y-92257744I-36J-197212D01*
G01*
X168960002Y-90055405D02*
G75*
G02*
X168285000Y-91685000I-2304602J5D01*
G01*
%TO.N,D+*%
X163493502Y-89700000D02*
X166701288Y-89700000D01*
X166792425Y-89662250D02*
X166830175Y-89624500D01*
X156500000Y-87800000D02*
X158906497Y-87800000D01*
X166792434Y-89662259D02*
G75*
G02*
X166701288Y-89700000I-91134J91159D01*
G01*
X158906497Y-87800002D02*
G75*
G02*
X161199999Y-88750001I3J-3243498D01*
G01*
X163493502Y-89699998D02*
G75*
G02*
X161200001Y-88749999I-2J3243498D01*
G01*
%TO.N,D-*%
X168300000Y-89467942D02*
X168300000Y-89787867D01*
X167983825Y-89408713D02*
X168265304Y-89408713D01*
X168282652Y-89426061D02*
X168265304Y-89408713D01*
X167787867Y-90300000D02*
X167280000Y-90300000D01*
X163695338Y-89270000D02*
X166322687Y-89270000D01*
X166733129Y-89099989D02*
X167238500Y-89099989D01*
X158880162Y-87275489D02*
X155724511Y-87275489D01*
X166322687Y-89269998D02*
G75*
G03*
X166527908Y-89184994I13J290198D01*
G01*
X168150009Y-90150009D02*
G75*
G03*
X168300000Y-89787867I-362109J362109D01*
G01*
X163695338Y-89269985D02*
G75*
G02*
X161287750Y-88272744I-38J3404785D01*
G01*
X158880162Y-87275506D02*
G75*
G02*
X161287750Y-88272744I38J-3404794D01*
G01*
X166733129Y-89100005D02*
G75*
G03*
X166527908Y-89184994I-29J-290195D01*
G01*
X168150009Y-90150009D02*
G75*
G02*
X167787867Y-90300000I-362109J362109D01*
G01*
X167611153Y-89254361D02*
G75*
G03*
X167983825Y-89408713I372647J372661D01*
G01*
X167611160Y-89254354D02*
G75*
G03*
X167238500Y-89099989I-372660J-372646D01*
G01*
X168299978Y-89467942D02*
G75*
G03*
X168282652Y-89426061I-59178J42D01*
G01*
%TO.N,Net-(LS1-Pad1)*%
X142417326Y-92348022D02*
X142734652Y-92665348D01*
X141339292Y-89010708D02*
X140578584Y-88250000D01*
X142100000Y-90847219D02*
X142100000Y-91581929D01*
X141339298Y-89010702D02*
G75*
G02*
X142100000Y-90847219I-1836498J-1836498D01*
G01*
X142099974Y-91581929D02*
G75*
G03*
X142417326Y-92348022I1083426J29D01*
G01*
%TO.N,Net-(LS1-Pad2)*%
X142275384Y-93124616D02*
X141014677Y-91863909D01*
D20*
%TO.N,HES1*%
X158600000Y-74941421D02*
X158600000Y-76400000D01*
X158500000Y-74700000D02*
X158400000Y-74600000D01*
%TO.N,HES2*%
X155200000Y-76076416D02*
X155200000Y-76400000D01*
X154971191Y-75524023D02*
X153923584Y-74476416D01*
D21*
%TO.N,HES3*%
X151293042Y-75534568D02*
X151293042Y-74706958D01*
X151546521Y-76146521D02*
X151800000Y-76400000D01*
%TO.N,Battery*%
X155600000Y-89400000D02*
X155700899Y-89500899D01*
X154300000Y-93289715D02*
X154300000Y-91784593D01*
X167800000Y-99400000D02*
X167303331Y-98903331D01*
X158909081Y-98400480D02*
X163576757Y-98400480D01*
X163591685Y-98406663D02*
X166104267Y-98406663D01*
X155600000Y-89482677D02*
X155600000Y-89400000D01*
X155735989Y-96735989D02*
X156333737Y-97333737D01*
X155541538Y-89623816D02*
X154950000Y-90215355D01*
X154783497Y-94456981D02*
X154798000Y-94471484D01*
%TO.N,LED*%
X147735382Y-99092384D02*
X147770764Y-99127766D01*
X147700000Y-99006964D02*
X147700000Y-97200000D01*
X147735364Y-99092401D02*
G75*
G02*
X147700000Y-99006964I85436J85401D01*
G01*
%TO.N,Net-(J2-Pad2)*%
X160000000Y-102228785D02*
X160000000Y-101400000D01*
X159737511Y-102862488D02*
X159661831Y-102938168D01*
X147211792Y-102688208D02*
X147761792Y-102688208D01*
X158673324Y-102851652D02*
X158759840Y-102938168D01*
X158400000Y-102191788D02*
X158400000Y-101500000D01*
X148700700Y-102299299D02*
X149600000Y-101400000D01*
X147761792Y-102688204D02*
G75*
G03*
X148700700Y-102299299I8J1327804D01*
G01*
X159661808Y-102938145D02*
G75*
G02*
X159210836Y-103124977I-451008J450945D01*
G01*
X159737521Y-102862498D02*
G75*
G03*
X160000000Y-102228785I-633721J633698D01*
G01*
X158759828Y-102938180D02*
G75*
G03*
X159210836Y-103124977I450972J450980D01*
G01*
X158400012Y-102191788D02*
G75*
G03*
X158673324Y-102851652I933188J-12D01*
G01*
D20*
%TO.N,LRCLK{slash}WS*%
X148741421Y-93000000D02*
X149400000Y-93000000D01*
X147763603Y-90363603D02*
X146400000Y-89000000D01*
D21*
X162168629Y-77431370D02*
X153231370Y-86368629D01*
X152100000Y-90700000D02*
X152100000Y-89100000D01*
X164900000Y-76300000D02*
X166500000Y-76300000D01*
D20*
X148400000Y-92658578D02*
X148400000Y-91900000D01*
D21*
X164900000Y-76299988D02*
G75*
G03*
X162168630Y-77431371I0J-3862712D01*
G01*
D20*
X148399997Y-91900000D02*
G75*
G03*
X147763602Y-90363604I-2172797J0D01*
G01*
X148499994Y-92900006D02*
G75*
G02*
X148400000Y-92658578I241406J241406D01*
G01*
X148499994Y-92900006D02*
G75*
G03*
X148741421Y-93000000I241406J241406D01*
G01*
D21*
X152099988Y-89100000D02*
G75*
G02*
X153231371Y-86368630I3862712J0D01*
G01*
%TO.N,BCLK{slash}SCK*%
X152600175Y-91500000D02*
X152100000Y-91500000D01*
X164179114Y-78700000D02*
X164900000Y-78700000D01*
X155075489Y-87779007D02*
X155075489Y-88303800D01*
X154212068Y-90388281D02*
X153454026Y-91146322D01*
X146800000Y-93800000D02*
X146800000Y-92682842D01*
X155567824Y-86590403D02*
X162948484Y-79209743D01*
X146600000Y-92200000D02*
X146400000Y-92000000D01*
X162948472Y-79209731D02*
G75*
G02*
X164179114Y-78700000I1230628J-1230669D01*
G01*
X146600013Y-92199987D02*
G75*
G02*
X146800000Y-92682842I-482813J-482813D01*
G01*
X155567827Y-86590406D02*
G75*
G03*
X155075489Y-87779007I1188573J-1188594D01*
G01*
X155075492Y-88303800D02*
G75*
G02*
X154212068Y-90388281I-2947892J0D01*
G01*
X153454033Y-91146329D02*
G75*
G02*
X152600175Y-91500000I-853833J853829D01*
G01*
%TO.N,GAIN*%
X146500000Y-95500000D02*
X146150000Y-95150000D01*
X145305025Y-94800000D02*
X140200000Y-94800000D01*
X146149993Y-95150007D02*
G75*
G03*
X145305025Y-94800000I-844993J-844993D01*
G01*
%TO.N,DIN{slash}SD*%
X148002512Y-94650000D02*
X146950000Y-94650000D01*
X154600000Y-88351471D02*
X154600000Y-87600000D01*
X153350000Y-90400000D02*
X153300000Y-90400000D01*
X148425000Y-94825000D02*
X148600000Y-95000000D01*
X154000000Y-89800000D02*
X153435355Y-90364644D01*
X165800000Y-77000000D02*
X164700000Y-77000000D01*
X162822182Y-77777817D02*
X155731370Y-84868629D01*
X164700000Y-76999990D02*
G75*
G03*
X162822183Y-77777818I0J-2655610D01*
G01*
X154599988Y-87600000D02*
G75*
G02*
X155731371Y-84868630I3862712J0D01*
G01*
X148424996Y-94825004D02*
G75*
G03*
X148002512Y-94650000I-422496J-422496D01*
G01*
X153435353Y-90364642D02*
G75*
G02*
X153350000Y-90400000I-85353J85342D01*
G01*
X154000008Y-89800008D02*
G75*
G03*
X154600000Y-88351471I-1448508J1448508D01*
G01*
%TO.N,SD*%
X145990703Y-96350000D02*
X145990703Y-96270351D01*
X145934383Y-96134383D02*
X145595351Y-95795351D01*
X141800000Y-96082842D02*
X141800000Y-98800000D01*
X142482842Y-95400000D02*
X144640888Y-95400000D01*
X141800018Y-96082842D02*
G75*
G02*
X142000000Y-95600000I682782J42D01*
G01*
X141999987Y-95599987D02*
G75*
G02*
X142482842Y-95400000I482813J-482813D01*
G01*
X144640888Y-95400004D02*
G75*
G02*
X145595351Y-95795351I12J-1349796D01*
G01*
X145990733Y-96270351D02*
G75*
G03*
X145934383Y-96134383I-192333J-49D01*
G01*
D20*
%TO.N,Net-(U4-Pad28)*%
X156906066Y-92393933D02*
X157400000Y-91900000D01*
X156800000Y-92650000D02*
X156800000Y-92800000D01*
D21*
%TO.N,INT1*%
X150042282Y-89243801D02*
X149020381Y-88221900D01*
X150087744Y-89287744D02*
X150200000Y-89400000D01*
X143200000Y-90000000D02*
X143612254Y-89587744D01*
X146553295Y-87200000D02*
X145348354Y-87200000D01*
X144024509Y-88523845D02*
X144024509Y-88592472D01*
X144024525Y-88523845D02*
G75*
G02*
X144412254Y-87587745I1323775J45D01*
G01*
X149020386Y-88221895D02*
G75*
G03*
X146553295Y-87200000I-2467086J-2467105D01*
G01*
X150087745Y-89287743D02*
G75*
G02*
X150042283Y-89243800I6483655J6753243D01*
G01*
X145348354Y-87199954D02*
G75*
G03*
X144412254Y-87587745I46J-1323846D01*
G01*
X143612264Y-89587754D02*
G75*
G03*
X144024509Y-88592472I-995264J995254D01*
G01*
D20*
%TO.N,Net-(U4-Pad29)*%
X160241497Y-89158502D02*
X159000000Y-90400000D01*
X160530630Y-89038740D02*
X160700000Y-89038740D01*
%TO.N,Net-(U4-Pad31)*%
X159000000Y-92650000D02*
X159000000Y-92800000D01*
X159106066Y-92393933D02*
X159600000Y-91900000D01*
%TO.N,Net-(U4-Pad32)*%
X161200000Y-91574502D02*
X161200000Y-92800000D01*
%TO.N,Net-(U4-Pad33)*%
X158300000Y-93974502D02*
X158112749Y-93974502D01*
X157793091Y-94106908D02*
X156800000Y-95100000D01*
%TO.N,Net-(U4-Pad34)*%
X159000000Y-94900000D02*
X159000000Y-95100000D01*
X159141421Y-94558578D02*
X159500000Y-94200000D01*
%TO.N,Net-(U4-Pad35)*%
X161200000Y-94850000D02*
X161200000Y-95100000D01*
X161023223Y-94423223D02*
X160800000Y-94200000D01*
%TO.N,Net-(U4-Pad36)*%
X159106066Y-96793933D02*
X159600000Y-96300000D01*
X159000000Y-97050000D02*
X159000000Y-97200000D01*
%TO.N,Net-(U4-Pad37)*%
X161200000Y-97049541D02*
X161200000Y-97200000D01*
X161799082Y-96300000D02*
X161306390Y-96792691D01*
%TO.N,Net-(U4-Pad38)*%
X163470710Y-95400000D02*
X164200000Y-95400000D01*
X163350000Y-95450000D02*
X163300000Y-95500000D01*
D21*
%TO.N,SCL*%
X145200000Y-83346446D02*
X145200000Y-81824264D01*
X144175735Y-80800000D02*
X142600000Y-80800000D01*
X144950000Y-83950000D02*
X144700000Y-84200000D01*
X144740725Y-76457740D02*
X144740725Y-75759275D01*
X145200000Y-80975735D02*
X145200000Y-81824264D01*
X145200000Y-77566528D02*
X145200000Y-80975735D01*
X145200014Y-81824264D02*
G75*
G03*
X144899999Y-81100001I-1024314J-36D01*
G01*
X144970394Y-77012102D02*
G75*
G02*
X144740725Y-76457740I554306J554402D01*
G01*
X145200019Y-83346446D02*
G75*
G02*
X144950000Y-83950000I-853619J46D01*
G01*
X144900061Y-81099939D02*
G75*
G03*
X145200000Y-80975735I124239J124239D01*
G01*
X144175735Y-80799986D02*
G75*
G02*
X144899999Y-81100001I-35J-1024314D01*
G01*
X144970370Y-77012126D02*
G75*
G02*
X145200000Y-77566528I-554370J-554374D01*
G01*
%TO.N,SDA*%
X147094974Y-80800000D02*
X148800000Y-80800000D01*
X146787500Y-85612500D02*
X146787500Y-85250000D01*
X145900000Y-84000000D02*
X145900000Y-81994974D01*
X145450000Y-76700000D02*
X145400000Y-76700000D01*
X145900000Y-81005025D02*
X145900000Y-81994974D01*
X145900000Y-84000000D02*
X146531173Y-84631173D01*
X145535355Y-76735355D02*
X145700000Y-76900000D01*
X145900000Y-81005025D02*
X145900000Y-77382842D01*
X145899990Y-81994974D02*
G75*
G02*
X146250000Y-81150000I1195010J-26D01*
G01*
X146787486Y-85250000D02*
G75*
G03*
X146531173Y-84631173I-875186J0D01*
G01*
X145899940Y-81005025D02*
G75*
G03*
X146249999Y-81149999I205060J25D01*
G01*
X145450000Y-76699997D02*
G75*
G02*
X145535355Y-76735355I0J-120703D01*
G01*
X147094974Y-80799990D02*
G75*
G03*
X146250000Y-81150000I26J-1195010D01*
G01*
X145899982Y-77382842D02*
G75*
G03*
X145700000Y-76900000I-682782J42D01*
G01*
D20*
%TO.N,Net-(U4-Pad44)*%
X161400000Y-100000000D02*
X162400000Y-100000000D01*
D21*
%TO.N,DC*%
X154900000Y-96850000D02*
X154900000Y-101500000D01*
X153662563Y-93862563D02*
X149500000Y-89700000D01*
X154899992Y-96850000D02*
G75*
G03*
X153662563Y-93862563I-4224892J0D01*
G01*
%TO.N,CS*%
X152997918Y-93997918D02*
X149400000Y-90400000D01*
X154200000Y-96900000D02*
X154200000Y-101500000D01*
X154199989Y-96900000D02*
G75*
G03*
X152997918Y-93997918I-4104189J0D01*
G01*
%TO.N,SCK*%
X149400000Y-91300000D02*
X152368629Y-94268629D01*
X153500000Y-97000000D02*
X153500000Y-101500000D01*
X152368620Y-94268638D02*
G75*
G02*
X153500000Y-97000000I-2731320J-2731362D01*
G01*
%TO.N,MOSI*%
X151739339Y-94539339D02*
X149400000Y-92200000D01*
X152800000Y-97100000D02*
X152800000Y-101500000D01*
X152800005Y-97100000D02*
G75*
G03*
X151739338Y-94539340I-3621305J0D01*
G01*
%TO.N,RES*%
X152100000Y-99800000D02*
X152100000Y-101500000D01*
%TO.N,Net-(D1-Pad2)*%
X163900000Y-104500000D02*
X163900000Y-99500000D01*
D20*
%TO.N,Net-(U4-Pad27)*%
X159000000Y-89000000D02*
X158600000Y-89000000D01*
X157917157Y-89282842D02*
X156800000Y-90400000D01*
%TO.N,Net-(U4-Pad30)*%
X161200000Y-89500000D02*
X161200000Y-90400000D01*
%TD*%
%TA.AperFunction,Conductor*%
%TO.N,GND*%
G36*
X155673264Y-70251132D02*
G01*
X156301925Y-70266596D01*
X156544965Y-70272574D01*
X156550547Y-70272836D01*
X157420444Y-70332983D01*
X157425978Y-70333489D01*
X157934573Y-70391449D01*
X158292364Y-70432224D01*
X158297911Y-70432982D01*
X159159000Y-70570099D01*
X159164508Y-70571102D01*
X159523123Y-70644674D01*
X160018692Y-70746344D01*
X160024111Y-70747581D01*
X160450323Y-70854955D01*
X160869666Y-70960598D01*
X160875063Y-70962086D01*
X161710291Y-71212445D01*
X161715618Y-71214171D01*
X162538917Y-71501395D01*
X162544145Y-71503350D01*
X163353887Y-71826870D01*
X163359039Y-71829063D01*
X164153558Y-72188214D01*
X164158607Y-72190632D01*
X164936429Y-72584745D01*
X164941366Y-72587386D01*
X165700914Y-73015665D01*
X165705700Y-73018505D01*
X166058093Y-73238390D01*
X166445470Y-73480104D01*
X166450153Y-73483173D01*
X166711941Y-73663157D01*
X166756743Y-73718232D01*
X166764657Y-73788786D01*
X166733170Y-73852419D01*
X166673168Y-73888692D01*
X166574382Y-73915162D01*
X166564083Y-73918911D01*
X166369800Y-74009505D01*
X166360305Y-74014988D01*
X166312584Y-74048403D01*
X166304209Y-74058880D01*
X166311277Y-74072327D01*
X168071200Y-75832250D01*
X168082975Y-75838680D01*
X168094990Y-75829384D01*
X168127818Y-75782501D01*
X168133301Y-75773006D01*
X168223895Y-75578723D01*
X168227643Y-75568427D01*
X168283128Y-75361356D01*
X168285030Y-75350569D01*
X168303714Y-75137008D01*
X168303714Y-75133066D01*
X168323716Y-75064945D01*
X168377372Y-75018452D01*
X168447646Y-75008348D01*
X168510032Y-75035983D01*
X168545310Y-75065169D01*
X168549541Y-75068832D01*
X168624867Y-75137008D01*
X169196017Y-75653948D01*
X169200083Y-75657796D01*
X169788829Y-76240284D01*
X169819923Y-76271048D01*
X169823811Y-76275068D01*
X170243799Y-76729253D01*
X170415812Y-76915271D01*
X170419520Y-76919463D01*
X170429120Y-76930818D01*
X170982493Y-77585329D01*
X170986012Y-77589684D01*
X171510585Y-78269196D01*
X171518844Y-78279895D01*
X171522162Y-78284397D01*
X171601327Y-78396948D01*
X172023814Y-78997609D01*
X172026932Y-79002259D01*
X172496391Y-79737031D01*
X172499300Y-79741815D01*
X172935652Y-80496716D01*
X172938344Y-80501621D01*
X173336041Y-81266144D01*
X173340742Y-81275182D01*
X173343211Y-81280196D01*
X173710849Y-82070878D01*
X173713093Y-82076000D01*
X173761934Y-82194552D01*
X174045239Y-82882222D01*
X174047256Y-82887445D01*
X174229359Y-83392027D01*
X174231963Y-83399243D01*
X174236273Y-83470109D01*
X174201587Y-83532055D01*
X174138916Y-83565415D01*
X174068158Y-83559596D01*
X174060195Y-83556211D01*
X174031880Y-83543007D01*
X174031877Y-83543006D01*
X174025703Y-83540127D01*
X174019058Y-83538642D01*
X174019053Y-83538640D01*
X173879129Y-83507365D01*
X173845363Y-83499817D01*
X173839693Y-83499500D01*
X172403836Y-83499500D01*
X172266291Y-83514442D01*
X172091152Y-83573383D01*
X171932756Y-83668557D01*
X171927796Y-83673248D01*
X171927794Y-83673249D01*
X171826334Y-83769196D01*
X171798493Y-83795524D01*
X171694625Y-83948360D01*
X171692092Y-83954694D01*
X171692090Y-83954697D01*
X171628534Y-84113598D01*
X171628533Y-84113603D01*
X171626000Y-84119935D01*
X171622354Y-84141959D01*
X171606442Y-84238078D01*
X171595819Y-84302244D01*
X171596176Y-84309061D01*
X171596176Y-84309065D01*
X171601278Y-84406419D01*
X171605490Y-84486781D01*
X171607301Y-84493354D01*
X171607301Y-84493357D01*
X171652749Y-84658354D01*
X171654562Y-84664936D01*
X171740746Y-84828398D01*
X171768079Y-84860742D01*
X171836893Y-84942173D01*
X171865584Y-85007113D01*
X171854611Y-85077257D01*
X171807457Y-85130333D01*
X171740654Y-85149500D01*
X169680081Y-85149500D01*
X169611960Y-85129498D01*
X169592078Y-85111180D01*
X169590846Y-85112412D01*
X169585005Y-85106571D01*
X169579979Y-85100021D01*
X169528745Y-85060707D01*
X169513315Y-85048867D01*
X169513313Y-85048866D01*
X169506762Y-85043839D01*
X169421499Y-85008522D01*
X169397661Y-85005384D01*
X169358997Y-85000293D01*
X169346995Y-84998117D01*
X169337677Y-84995957D01*
X169337668Y-84995956D01*
X169330718Y-84994345D01*
X169330000Y-84994344D01*
X169313629Y-84998078D01*
X169302062Y-85000154D01*
X169246689Y-85007444D01*
X169238501Y-85008522D01*
X169230872Y-85011682D01*
X169228132Y-85012817D01*
X169225634Y-85013086D01*
X169222893Y-85013820D01*
X169222778Y-85013393D01*
X169157542Y-85020406D01*
X169094055Y-84988627D01*
X169081717Y-84975359D01*
X169053792Y-84940627D01*
X169053789Y-84940624D01*
X169049929Y-84935823D01*
X169043866Y-84930735D01*
X168914704Y-84822356D01*
X168890911Y-84802391D01*
X168885519Y-84799427D01*
X168885515Y-84799424D01*
X168714402Y-84705354D01*
X168709005Y-84702387D01*
X168511139Y-84639621D01*
X168505022Y-84638935D01*
X168505018Y-84638934D01*
X168418706Y-84629253D01*
X168349587Y-84621500D01*
X167137763Y-84621500D01*
X167134707Y-84621800D01*
X167134700Y-84621800D01*
X166989534Y-84636034D01*
X166989531Y-84636035D01*
X166983408Y-84636635D01*
X166948328Y-84647226D01*
X166877336Y-84647767D01*
X166817319Y-84609839D01*
X166787335Y-84545485D01*
X166796903Y-84475136D01*
X166822817Y-84437509D01*
X167972921Y-83287405D01*
X168035233Y-83253379D01*
X168062016Y-83250500D01*
X170269748Y-83250500D01*
X170275816Y-83249293D01*
X170316061Y-83241288D01*
X170316062Y-83241288D01*
X170328231Y-83238867D01*
X170394552Y-83194552D01*
X170438867Y-83128231D01*
X170450500Y-83069748D01*
X170450500Y-80530252D01*
X170444668Y-80500932D01*
X170441288Y-80483939D01*
X170441288Y-80483938D01*
X170438867Y-80471769D01*
X170394552Y-80405448D01*
X170328231Y-80361133D01*
X170316062Y-80358712D01*
X170316061Y-80358712D01*
X170275816Y-80350707D01*
X170269748Y-80349500D01*
X167730252Y-80349500D01*
X167724184Y-80350707D01*
X167683939Y-80358712D01*
X167683938Y-80358712D01*
X167671769Y-80361133D01*
X167605448Y-80405448D01*
X167561133Y-80471769D01*
X167558712Y-80483938D01*
X167558712Y-80483939D01*
X167555332Y-80500932D01*
X167549500Y-80530252D01*
X167549500Y-82737984D01*
X167529498Y-82806105D01*
X167512595Y-82827079D01*
X165326354Y-85013319D01*
X165309532Y-85027435D01*
X165294875Y-85037697D01*
X165287707Y-85047934D01*
X165279235Y-85058728D01*
X165256724Y-85084394D01*
X165181891Y-85169718D01*
X165181886Y-85169724D01*
X165179172Y-85172819D01*
X165115683Y-85267830D01*
X165112349Y-85272820D01*
X165057870Y-85318345D01*
X164987427Y-85327191D01*
X164923384Y-85296548D01*
X164886074Y-85236144D01*
X164881586Y-85202814D01*
X164881586Y-84622118D01*
X164877111Y-84606879D01*
X164875721Y-84605674D01*
X164868038Y-84604003D01*
X164346912Y-84604003D01*
X164321267Y-84611533D01*
X163723586Y-85209213D01*
X163388808Y-85543992D01*
X163326496Y-85578017D01*
X163255680Y-85572952D01*
X163239325Y-85565482D01*
X163230309Y-85560559D01*
X163227586Y-85567860D01*
X163227586Y-85989887D01*
X163232061Y-86005126D01*
X163233451Y-86006331D01*
X163241134Y-86008002D01*
X164418255Y-86008002D01*
X164425076Y-86007632D01*
X164475938Y-86002108D01*
X164491190Y-85998482D01*
X164611640Y-85953327D01*
X164627235Y-85944789D01*
X164696621Y-85892787D01*
X164763128Y-85867939D01*
X164832510Y-85882992D01*
X164882740Y-85933166D01*
X164897719Y-85991789D01*
X164896271Y-86000000D01*
X164898185Y-86010854D01*
X164898185Y-86010857D01*
X164899378Y-86017620D01*
X164901292Y-86039500D01*
X164901292Y-86103576D01*
X164881768Y-86170068D01*
X164878264Y-86173572D01*
X164817073Y-86293666D01*
X164815522Y-86303457D01*
X164815522Y-86303458D01*
X164801294Y-86393289D01*
X164765940Y-86462673D01*
X164728668Y-86499945D01*
X164711842Y-86514064D01*
X164708035Y-86516729D01*
X164708033Y-86516731D01*
X164699004Y-86523053D01*
X164692679Y-86532086D01*
X164691517Y-86533248D01*
X164686277Y-86539923D01*
X164576148Y-86665496D01*
X164471700Y-86821809D01*
X164469873Y-86825513D01*
X164469871Y-86825517D01*
X164394984Y-86977369D01*
X164388549Y-86990417D01*
X164387223Y-86994322D01*
X164387223Y-86994323D01*
X164333112Y-87153729D01*
X164328119Y-87168437D01*
X164327315Y-87172481D01*
X164327313Y-87172487D01*
X164298388Y-87317906D01*
X164291443Y-87352822D01*
X164291174Y-87356930D01*
X164291173Y-87356936D01*
X164289657Y-87380074D01*
X164283872Y-87468356D01*
X164283353Y-87476270D01*
X164282625Y-87481013D01*
X164282849Y-87481035D01*
X164282232Y-87487328D01*
X164282232Y-87490411D01*
X164282117Y-87492760D01*
X164281962Y-87497497D01*
X164280518Y-87519528D01*
X164279510Y-87527888D01*
X164279510Y-87529561D01*
X164277596Y-87540416D01*
X164279510Y-87551270D01*
X164279510Y-87551272D01*
X164280318Y-87555854D01*
X164282232Y-87577734D01*
X164282232Y-88323830D01*
X164262230Y-88391951D01*
X164245327Y-88412925D01*
X164234204Y-88424048D01*
X164173013Y-88544142D01*
X164171463Y-88553931D01*
X164171462Y-88553933D01*
X164159415Y-88629999D01*
X164151928Y-88677268D01*
X164153479Y-88687061D01*
X164171384Y-88800106D01*
X164172895Y-88809649D01*
X164172895Y-88809650D01*
X164173013Y-88810394D01*
X164172917Y-88810409D01*
X164174776Y-88875534D01*
X164138112Y-88936331D01*
X164074399Y-88967655D01*
X164052916Y-88969500D01*
X163732651Y-88969500D01*
X163710775Y-88967586D01*
X163695335Y-88964864D01*
X163684480Y-88966778D01*
X163676727Y-88966778D01*
X163660707Y-88967784D01*
X163397232Y-88954843D01*
X163384940Y-88953633D01*
X163095828Y-88910750D01*
X163083714Y-88908340D01*
X162810937Y-88840015D01*
X162800198Y-88837325D01*
X162788366Y-88833736D01*
X162573960Y-88757022D01*
X162513181Y-88735275D01*
X162501759Y-88730544D01*
X162237550Y-88605584D01*
X162226661Y-88599764D01*
X161975961Y-88449502D01*
X161965685Y-88442635D01*
X161730935Y-88268532D01*
X161721377Y-88260688D01*
X161525973Y-88083585D01*
X161515234Y-88071407D01*
X161509834Y-88066007D01*
X161503514Y-88056981D01*
X161496579Y-88052125D01*
X161491105Y-88047109D01*
X161490654Y-88046677D01*
X161490489Y-88046545D01*
X161488136Y-88044388D01*
X161264179Y-87839170D01*
X161262017Y-87837511D01*
X161262011Y-87837506D01*
X161009659Y-87643871D01*
X161007484Y-87642202D01*
X160985697Y-87628322D01*
X160888974Y-87566704D01*
X160734597Y-87468356D01*
X160566093Y-87380639D01*
X160450023Y-87320217D01*
X160450016Y-87320214D01*
X160447598Y-87318955D01*
X160148669Y-87195137D01*
X160146066Y-87194316D01*
X160146057Y-87194313D01*
X159842701Y-87098668D01*
X159842691Y-87098665D01*
X159840086Y-87097844D01*
X159588271Y-87042020D01*
X159526870Y-87028408D01*
X159526862Y-87028407D01*
X159524198Y-87027816D01*
X159203408Y-86985586D01*
X159200658Y-86985466D01*
X159200647Y-86985465D01*
X158944225Y-86974272D01*
X158896868Y-86972205D01*
X158896532Y-86972168D01*
X158895521Y-86972146D01*
X158895401Y-86972141D01*
X158888624Y-86971845D01*
X158880159Y-86970353D01*
X158869305Y-86972267D01*
X158864721Y-86973075D01*
X158842841Y-86974989D01*
X156077949Y-86974989D01*
X156009828Y-86954987D01*
X155988854Y-86938084D01*
X155977731Y-86926961D01*
X155968898Y-86922460D01*
X155968896Y-86922459D01*
X155919275Y-86897175D01*
X155867660Y-86848427D01*
X155850595Y-86779512D01*
X155873496Y-86712310D01*
X155887384Y-86695814D01*
X157038526Y-85544672D01*
X161065587Y-85544672D01*
X161065957Y-85551493D01*
X161071481Y-85602355D01*
X161075107Y-85617607D01*
X161120262Y-85738057D01*
X161128800Y-85753652D01*
X161205301Y-85855727D01*
X161217862Y-85868288D01*
X161319937Y-85944789D01*
X161335532Y-85953327D01*
X161455980Y-85998481D01*
X161471235Y-86002108D01*
X161522100Y-86007634D01*
X161528914Y-86008003D01*
X162701471Y-86008003D01*
X162716710Y-86003528D01*
X162717915Y-86002138D01*
X162719586Y-85994455D01*
X162719586Y-85571371D01*
X162716349Y-85560346D01*
X162698700Y-85568406D01*
X162628427Y-85578511D01*
X162563845Y-85549019D01*
X162557260Y-85542888D01*
X161990508Y-84976135D01*
X162712995Y-84976135D01*
X162713087Y-84977427D01*
X162716863Y-84979489D01*
X162718084Y-84976215D01*
X162717373Y-84973791D01*
X163229088Y-84973791D01*
X163230823Y-84979702D01*
X163231050Y-84979599D01*
X163234177Y-84973871D01*
X163234085Y-84972579D01*
X163230309Y-84970517D01*
X163229088Y-84973791D01*
X162717373Y-84973791D01*
X162716349Y-84970304D01*
X162716122Y-84970407D01*
X162712995Y-84976135D01*
X161990508Y-84976135D01*
X161864376Y-84850003D01*
X161631186Y-84616814D01*
X161607724Y-84604003D01*
X161083702Y-84604003D01*
X161068463Y-84608478D01*
X161067258Y-84609868D01*
X161065587Y-84617551D01*
X161065587Y-85544672D01*
X157038526Y-85544672D01*
X158505310Y-84077888D01*
X161065586Y-84077888D01*
X161070061Y-84093127D01*
X161071451Y-84094332D01*
X161079134Y-84096003D01*
X161600260Y-84096003D01*
X161625905Y-84088473D01*
X161988244Y-83726135D01*
X162712995Y-83726135D01*
X162713087Y-83727427D01*
X162716863Y-83729489D01*
X162718084Y-83726215D01*
X162717373Y-83723791D01*
X163229088Y-83723791D01*
X163230823Y-83729702D01*
X163231050Y-83729599D01*
X163234177Y-83723871D01*
X163234085Y-83722579D01*
X163230309Y-83720517D01*
X163229088Y-83723791D01*
X162717373Y-83723791D01*
X162716349Y-83720304D01*
X162716122Y-83720407D01*
X162712995Y-83726135D01*
X161988244Y-83726135D01*
X162223586Y-83490793D01*
X162558364Y-83156014D01*
X162620676Y-83121989D01*
X162691492Y-83127054D01*
X162707847Y-83134524D01*
X162716863Y-83139447D01*
X162719586Y-83132146D01*
X162719586Y-83128635D01*
X163227586Y-83128635D01*
X163230823Y-83139660D01*
X163248472Y-83131600D01*
X163318745Y-83121495D01*
X163383327Y-83150987D01*
X163389912Y-83157118D01*
X163723586Y-83490793D01*
X164315986Y-84083192D01*
X164339448Y-84096003D01*
X164863470Y-84096003D01*
X164878709Y-84091528D01*
X164879914Y-84090138D01*
X164881585Y-84082455D01*
X164881585Y-83155334D01*
X164881215Y-83148513D01*
X164875691Y-83097651D01*
X164872065Y-83082399D01*
X164826910Y-82961949D01*
X164818372Y-82946354D01*
X164741871Y-82844279D01*
X164729310Y-82831718D01*
X164627235Y-82755217D01*
X164611640Y-82746679D01*
X164491192Y-82701525D01*
X164475937Y-82697898D01*
X164425072Y-82692372D01*
X164418258Y-82692003D01*
X163245701Y-82692003D01*
X163230462Y-82696478D01*
X163229257Y-82697868D01*
X163227586Y-82705551D01*
X163227586Y-83128635D01*
X162719586Y-83128635D01*
X162719586Y-82710119D01*
X162715111Y-82694880D01*
X162713721Y-82693675D01*
X162706038Y-82692004D01*
X161528917Y-82692004D01*
X161522096Y-82692374D01*
X161471234Y-82697898D01*
X161455982Y-82701524D01*
X161335532Y-82746679D01*
X161319937Y-82755217D01*
X161217862Y-82831718D01*
X161205301Y-82844279D01*
X161128800Y-82946354D01*
X161120262Y-82961949D01*
X161075108Y-83082397D01*
X161071481Y-83097652D01*
X161065955Y-83148517D01*
X161065586Y-83155331D01*
X161065586Y-84077888D01*
X158505310Y-84077888D01*
X163134580Y-79448618D01*
X163151406Y-79434499D01*
X163155213Y-79431834D01*
X163155215Y-79431832D01*
X163164244Y-79425510D01*
X163170567Y-79416480D01*
X163178363Y-79408684D01*
X163178504Y-79408825D01*
X163186864Y-79399498D01*
X163296364Y-79303472D01*
X163309430Y-79293448D01*
X163452296Y-79197991D01*
X163466569Y-79189750D01*
X163493725Y-79176359D01*
X163620692Y-79113748D01*
X163635904Y-79107447D01*
X163798627Y-79052212D01*
X163814544Y-79047947D01*
X163900734Y-79030804D01*
X163983070Y-79014428D01*
X163999410Y-79012277D01*
X164144785Y-79002750D01*
X164157233Y-79003429D01*
X164157233Y-79003221D01*
X164168254Y-79003221D01*
X164179112Y-79005136D01*
X164189974Y-79003221D01*
X164191210Y-79003003D01*
X164194552Y-79002414D01*
X164216428Y-79000500D01*
X164546562Y-79000500D01*
X164614683Y-79020502D01*
X164635657Y-79037405D01*
X164646780Y-79048528D01*
X164766874Y-79109719D01*
X164776663Y-79111269D01*
X164776665Y-79111270D01*
X164890207Y-79129253D01*
X164900000Y-79130804D01*
X164909793Y-79129253D01*
X165023335Y-79111270D01*
X165023337Y-79111269D01*
X165033126Y-79109719D01*
X165153220Y-79048528D01*
X165248528Y-78953220D01*
X165309719Y-78833126D01*
X165312990Y-78812477D01*
X165329253Y-78709793D01*
X165330804Y-78700000D01*
X165315032Y-78600417D01*
X165311270Y-78576665D01*
X165311269Y-78576663D01*
X165309719Y-78566874D01*
X165248528Y-78446780D01*
X165153220Y-78351472D01*
X165033126Y-78290281D01*
X165023337Y-78288731D01*
X165023335Y-78288730D01*
X164909793Y-78270747D01*
X164900000Y-78269196D01*
X164890207Y-78270747D01*
X164776665Y-78288730D01*
X164776663Y-78288731D01*
X164766874Y-78290281D01*
X164646780Y-78351472D01*
X164635657Y-78362595D01*
X164573345Y-78396621D01*
X164546562Y-78399500D01*
X164216434Y-78399500D01*
X164194554Y-78397586D01*
X164189973Y-78396778D01*
X164189970Y-78396778D01*
X164179116Y-78394864D01*
X164168258Y-78396779D01*
X164164918Y-78396779D01*
X164159845Y-78397367D01*
X163950250Y-78409135D01*
X163946759Y-78409728D01*
X163946760Y-78409728D01*
X163727739Y-78446938D01*
X163727734Y-78446939D01*
X163724262Y-78447529D01*
X163503994Y-78510985D01*
X163500727Y-78512338D01*
X163500719Y-78512341D01*
X163327274Y-78584183D01*
X163292215Y-78598704D01*
X163289118Y-78600415D01*
X163289115Y-78600417D01*
X163094680Y-78707873D01*
X163094670Y-78707879D01*
X163091589Y-78709582D01*
X162904639Y-78842226D01*
X162902009Y-78844576D01*
X162902008Y-78844577D01*
X162853609Y-78887828D01*
X162772588Y-78960231D01*
X162748006Y-78982198D01*
X162744163Y-78985243D01*
X162741750Y-78987656D01*
X162732724Y-78993976D01*
X162726403Y-79003003D01*
X162723731Y-79006819D01*
X162709614Y-79023642D01*
X155393624Y-86339632D01*
X155331312Y-86373658D01*
X155260497Y-86368593D01*
X155203661Y-86326046D01*
X155178850Y-86259526D01*
X155190627Y-86196664D01*
X155197370Y-86182409D01*
X155318469Y-85926369D01*
X155324297Y-85915465D01*
X155431964Y-85735835D01*
X155497657Y-85626235D01*
X155504524Y-85615957D01*
X155694892Y-85359280D01*
X155705406Y-85345104D01*
X155713249Y-85335548D01*
X155720824Y-85327191D01*
X155881205Y-85150240D01*
X155920532Y-85106850D01*
X155932704Y-85096116D01*
X155938106Y-85090714D01*
X155947132Y-85084394D01*
X155956126Y-85071550D01*
X155970243Y-85054727D01*
X163008278Y-78016692D01*
X163025102Y-78002574D01*
X163025640Y-78002198D01*
X163037948Y-77993579D01*
X163044272Y-77984547D01*
X163051655Y-77977164D01*
X163060446Y-77967266D01*
X163226321Y-77819029D01*
X163237368Y-77810219D01*
X163441219Y-77665577D01*
X163453183Y-77658059D01*
X163671949Y-77537150D01*
X163684679Y-77531020D01*
X163915618Y-77435360D01*
X163928946Y-77430696D01*
X164169133Y-77361498D01*
X164182904Y-77358355D01*
X164378161Y-77325179D01*
X164429335Y-77316484D01*
X164443371Y-77314902D01*
X164665449Y-77302430D01*
X164678785Y-77303221D01*
X164689142Y-77303221D01*
X164700000Y-77305136D01*
X164710855Y-77303222D01*
X164710856Y-77303222D01*
X164715437Y-77302414D01*
X164737317Y-77300500D01*
X165446562Y-77300500D01*
X165514683Y-77320502D01*
X165535657Y-77337405D01*
X165546780Y-77348528D01*
X165666874Y-77409719D01*
X165676663Y-77411269D01*
X165676665Y-77411270D01*
X165790207Y-77429253D01*
X165800000Y-77430804D01*
X165809793Y-77429253D01*
X165923335Y-77411270D01*
X165923337Y-77411269D01*
X165933126Y-77409719D01*
X166053220Y-77348528D01*
X166148528Y-77253220D01*
X166209719Y-77133126D01*
X166212250Y-77117149D01*
X166229253Y-77009793D01*
X166230804Y-77000000D01*
X166222419Y-76947059D01*
X166211271Y-76876670D01*
X166211270Y-76876667D01*
X166209719Y-76866874D01*
X166207983Y-76863468D01*
X166206052Y-76795883D01*
X166242714Y-76735085D01*
X166306425Y-76703759D01*
X166363136Y-76707814D01*
X166366874Y-76709719D01*
X166376667Y-76711270D01*
X166376670Y-76711271D01*
X166490207Y-76729253D01*
X166500000Y-76730804D01*
X166509793Y-76729253D01*
X166623335Y-76711270D01*
X166623337Y-76711269D01*
X166633126Y-76709719D01*
X166753220Y-76648528D01*
X166848528Y-76553220D01*
X166879699Y-76492044D01*
X166928447Y-76440428D01*
X167000291Y-76424319D01*
X167000291Y-76423974D01*
X167001831Y-76423974D01*
X167002942Y-76423725D01*
X167005789Y-76423974D01*
X167016748Y-76423974D01*
X167230309Y-76405290D01*
X167241096Y-76403388D01*
X167448167Y-76347903D01*
X167458463Y-76344155D01*
X167652746Y-76253561D01*
X167662241Y-76248078D01*
X167709962Y-76214663D01*
X167718337Y-76204186D01*
X167711269Y-76190739D01*
X165951346Y-74430816D01*
X165939571Y-74424386D01*
X165927556Y-74433682D01*
X165894728Y-74480565D01*
X165889245Y-74490060D01*
X165798651Y-74684343D01*
X165794903Y-74694639D01*
X165739418Y-74901710D01*
X165737516Y-74912497D01*
X165718832Y-75126058D01*
X165718832Y-75137008D01*
X165737516Y-75350569D01*
X165739418Y-75361356D01*
X165794903Y-75568427D01*
X165798651Y-75578723D01*
X165889245Y-75773006D01*
X165894728Y-75782502D01*
X165907841Y-75801229D01*
X165930529Y-75868503D01*
X165913244Y-75937364D01*
X165861474Y-75985948D01*
X165804628Y-75999500D01*
X164937317Y-75999500D01*
X164915437Y-75997586D01*
X164910857Y-75996778D01*
X164910855Y-75996778D01*
X164900000Y-75994864D01*
X164895040Y-75995739D01*
X164813186Y-75999313D01*
X164539563Y-76011259D01*
X164539552Y-76011260D01*
X164536803Y-76011380D01*
X164356586Y-76035106D01*
X164179109Y-76058471D01*
X164179100Y-76058473D01*
X164176370Y-76058832D01*
X164173675Y-76059429D01*
X164173672Y-76059430D01*
X164168742Y-76060523D01*
X163821445Y-76137518D01*
X163818828Y-76138343D01*
X163818821Y-76138345D01*
X163652650Y-76190739D01*
X163474728Y-76246838D01*
X163472208Y-76247882D01*
X163472202Y-76247884D01*
X163346385Y-76300000D01*
X163138859Y-76385961D01*
X163136424Y-76387229D01*
X163136421Y-76387230D01*
X163051463Y-76431457D01*
X162816393Y-76553828D01*
X162814082Y-76555300D01*
X162814079Y-76555302D01*
X162538601Y-76730804D01*
X162509785Y-76749162D01*
X162507594Y-76750843D01*
X162507590Y-76750846D01*
X162444434Y-76799308D01*
X162221368Y-76970474D01*
X162219333Y-76972339D01*
X161969972Y-77200840D01*
X161957067Y-77212665D01*
X161952864Y-77215608D01*
X161943870Y-77228452D01*
X161929756Y-77245272D01*
X153045272Y-86129756D01*
X153028452Y-86143870D01*
X153015608Y-86152864D01*
X153012665Y-86157067D01*
X152770474Y-86421368D01*
X152738779Y-86462673D01*
X152587002Y-86660472D01*
X152549162Y-86709785D01*
X152547682Y-86712109D01*
X152547680Y-86712111D01*
X152372735Y-86986716D01*
X152353828Y-87016393D01*
X152326834Y-87068247D01*
X152195666Y-87320217D01*
X152185961Y-87338859D01*
X152152365Y-87419967D01*
X152048064Y-87671769D01*
X152046838Y-87674728D01*
X152025755Y-87741595D01*
X151939498Y-88015166D01*
X151937518Y-88021445D01*
X151936923Y-88024129D01*
X151859501Y-88373354D01*
X151858832Y-88376370D01*
X151858473Y-88379100D01*
X151858471Y-88379109D01*
X151837778Y-88536287D01*
X151811380Y-88736803D01*
X151811260Y-88739552D01*
X151811259Y-88739563D01*
X151801423Y-88964864D01*
X151795739Y-89095040D01*
X151794864Y-89100000D01*
X151796778Y-89110855D01*
X151796778Y-89110857D01*
X151797586Y-89115437D01*
X151799500Y-89137317D01*
X151799500Y-90346562D01*
X151779498Y-90414683D01*
X151762595Y-90435657D01*
X151751472Y-90446780D01*
X151690281Y-90566874D01*
X151688731Y-90576663D01*
X151688730Y-90576665D01*
X151670747Y-90690207D01*
X151669196Y-90700000D01*
X151670747Y-90709793D01*
X151688585Y-90822416D01*
X151690281Y-90833126D01*
X151751472Y-90953220D01*
X151809157Y-91010905D01*
X151843183Y-91073217D01*
X151838118Y-91144032D01*
X151809157Y-91189095D01*
X151751472Y-91246780D01*
X151735787Y-91277563D01*
X151687042Y-91329177D01*
X151618127Y-91346244D01*
X151550925Y-91323345D01*
X151534426Y-91309455D01*
X150250354Y-90025383D01*
X150216328Y-89963071D01*
X150221393Y-89892256D01*
X150263940Y-89835420D01*
X150319742Y-89811839D01*
X150323333Y-89811270D01*
X150333126Y-89809719D01*
X150453220Y-89748528D01*
X150548528Y-89653220D01*
X150609719Y-89533126D01*
X150622608Y-89451751D01*
X150629253Y-89409793D01*
X150630804Y-89400000D01*
X150619800Y-89330521D01*
X150611270Y-89276665D01*
X150611269Y-89276663D01*
X150609719Y-89266874D01*
X150548528Y-89146780D01*
X150453220Y-89051472D01*
X150333126Y-88990281D01*
X150323335Y-88988730D01*
X150323334Y-88988730D01*
X150267090Y-88979822D01*
X150231699Y-88974217D01*
X150167547Y-88943805D01*
X150162315Y-88938863D01*
X149259257Y-88035805D01*
X149245139Y-88018981D01*
X149242468Y-88015166D01*
X149242467Y-88015165D01*
X149236144Y-88006135D01*
X149229751Y-88001659D01*
X149225011Y-87997315D01*
X149225010Y-87997314D01*
X148997362Y-87788714D01*
X148991454Y-87783300D01*
X148893950Y-87708483D01*
X148810932Y-87644782D01*
X148728928Y-87581859D01*
X148476067Y-87420770D01*
X148452159Y-87405539D01*
X148452156Y-87405537D01*
X148449845Y-87404065D01*
X148447409Y-87402797D01*
X148447404Y-87402794D01*
X148343643Y-87348780D01*
X148156328Y-87251270D01*
X147850611Y-87124639D01*
X147545402Y-87028408D01*
X147537651Y-87025964D01*
X147537646Y-87025963D01*
X147535021Y-87025135D01*
X147211959Y-86953515D01*
X147209239Y-86953157D01*
X147209234Y-86953156D01*
X147054006Y-86932720D01*
X146883885Y-86910323D01*
X146631899Y-86899322D01*
X146567812Y-86896524D01*
X146567811Y-86896524D01*
X146561029Y-86896228D01*
X146553295Y-86894864D01*
X146542440Y-86896778D01*
X146542439Y-86896778D01*
X146537858Y-86897586D01*
X146515978Y-86899500D01*
X145385664Y-86899500D01*
X145363789Y-86897587D01*
X145348343Y-86894864D01*
X145338369Y-86896623D01*
X145335991Y-86896779D01*
X145333947Y-86896779D01*
X145331507Y-86897073D01*
X145135866Y-86909903D01*
X144927024Y-86951453D01*
X144725393Y-87019906D01*
X144534422Y-87114093D01*
X144530995Y-87116383D01*
X144530990Y-87116386D01*
X144360807Y-87230110D01*
X144357379Y-87232401D01*
X144354278Y-87235121D01*
X144210316Y-87361384D01*
X144207065Y-87363936D01*
X144206043Y-87364925D01*
X144205323Y-87365303D01*
X144202235Y-87367727D01*
X144201603Y-87368400D01*
X144196491Y-87371980D01*
X144196485Y-87371988D01*
X144196480Y-87371992D01*
X144191804Y-87378671D01*
X144191049Y-87379438D01*
X144190392Y-87380074D01*
X144185891Y-87385809D01*
X144059635Y-87529777D01*
X144059631Y-87529783D01*
X144056910Y-87532885D01*
X143938612Y-87709931D01*
X143936792Y-87713622D01*
X143936789Y-87713627D01*
X143901513Y-87785163D01*
X143844437Y-87900905D01*
X143843112Y-87904810D01*
X143843109Y-87904816D01*
X143785655Y-88074082D01*
X143775996Y-88102538D01*
X143775193Y-88106574D01*
X143775193Y-88106575D01*
X143741197Y-88277508D01*
X143734460Y-88311379D01*
X143724037Y-88470475D01*
X143723700Y-88470453D01*
X143723554Y-88470872D01*
X143724009Y-88470902D01*
X143721680Y-88506452D01*
X143721286Y-88509719D01*
X143721286Y-88512464D01*
X143721230Y-88513320D01*
X143719373Y-88523855D01*
X143721287Y-88534707D01*
X143721287Y-88534713D01*
X143721565Y-88536287D01*
X143721566Y-88580040D01*
X143721289Y-88581613D01*
X143719373Y-88592478D01*
X143721288Y-88603334D01*
X143721288Y-88614359D01*
X143720731Y-88614359D01*
X143721322Y-88626633D01*
X143711161Y-88755773D01*
X143708069Y-88775296D01*
X143673074Y-88921071D01*
X143672148Y-88924928D01*
X143666039Y-88943730D01*
X143609346Y-89080604D01*
X143607153Y-89085899D01*
X143598178Y-89103514D01*
X143527972Y-89218082D01*
X143517775Y-89234722D01*
X143506161Y-89250708D01*
X143422071Y-89349168D01*
X143412927Y-89357475D01*
X143413314Y-89357862D01*
X143405515Y-89365661D01*
X143396489Y-89371981D01*
X143390169Y-89381007D01*
X143390166Y-89381010D01*
X143387496Y-89384823D01*
X143373379Y-89401648D01*
X143295435Y-89479593D01*
X143235879Y-89539149D01*
X143173567Y-89573174D01*
X143166494Y-89574503D01*
X143152842Y-89576665D01*
X143076666Y-89588730D01*
X143076665Y-89588730D01*
X143066874Y-89590281D01*
X142946780Y-89651472D01*
X142851472Y-89746780D01*
X142790281Y-89866874D01*
X142788731Y-89876663D01*
X142788730Y-89876665D01*
X142779167Y-89937046D01*
X142769196Y-90000000D01*
X142770747Y-90009793D01*
X142787142Y-90113304D01*
X142790281Y-90133126D01*
X142851472Y-90253220D01*
X142946780Y-90348528D01*
X143066874Y-90409719D01*
X143076663Y-90411269D01*
X143076665Y-90411270D01*
X143190207Y-90429253D01*
X143200000Y-90430804D01*
X143209793Y-90429253D01*
X143323335Y-90411270D01*
X143323337Y-90411269D01*
X143333126Y-90409719D01*
X143453220Y-90348528D01*
X143548528Y-90253220D01*
X143609719Y-90133126D01*
X143612859Y-90113304D01*
X143625498Y-90033502D01*
X143660852Y-89964118D01*
X143798352Y-89826618D01*
X143815175Y-89812501D01*
X143818991Y-89809829D01*
X143818993Y-89809827D01*
X143828019Y-89803507D01*
X143833052Y-89796319D01*
X143836980Y-89791840D01*
X143837277Y-89791543D01*
X143837591Y-89791143D01*
X143840447Y-89787887D01*
X143974970Y-89634491D01*
X144051510Y-89519939D01*
X144097071Y-89451751D01*
X144097072Y-89451749D01*
X144099362Y-89448322D01*
X144106726Y-89433390D01*
X144196569Y-89251201D01*
X144196570Y-89251199D01*
X144198389Y-89247510D01*
X144201605Y-89238037D01*
X144269030Y-89039399D01*
X144269031Y-89039396D01*
X144270357Y-89035489D01*
X144272995Y-89022229D01*
X144313229Y-88819937D01*
X144313229Y-88819935D01*
X144314034Y-88815889D01*
X144314311Y-88811671D01*
X144326435Y-88626636D01*
X144327650Y-88608093D01*
X144327732Y-88607417D01*
X144327732Y-88606847D01*
X144328100Y-88601231D01*
X144329645Y-88592466D01*
X144327453Y-88580036D01*
X144327452Y-88536279D01*
X144327731Y-88534694D01*
X144327731Y-88534692D01*
X144329645Y-88523835D01*
X144327730Y-88512979D01*
X144327730Y-88501956D01*
X144328295Y-88501956D01*
X144327707Y-88489739D01*
X144328410Y-88480804D01*
X144336842Y-88373632D01*
X144339934Y-88354106D01*
X144344272Y-88336038D01*
X144369534Y-88230804D01*
X144372787Y-88217254D01*
X144378896Y-88198450D01*
X144432756Y-88068413D01*
X144441733Y-88050795D01*
X144515268Y-87930794D01*
X144526890Y-87914797D01*
X144556460Y-87880175D01*
X144602488Y-87826284D01*
X144613096Y-87816650D01*
X144612652Y-87816192D01*
X144618465Y-87810565D01*
X144620791Y-87809344D01*
X144622907Y-87807088D01*
X144628017Y-87803510D01*
X144628023Y-87803502D01*
X144628028Y-87803498D01*
X144632705Y-87796818D01*
X144633466Y-87796045D01*
X144635953Y-87793638D01*
X144636501Y-87792596D01*
X144639338Y-87789571D01*
X144639753Y-87789960D01*
X144641040Y-87788714D01*
X144650801Y-87777968D01*
X144739321Y-87702358D01*
X144755317Y-87690736D01*
X144757676Y-87689291D01*
X144826211Y-87670759D01*
X144893885Y-87692222D01*
X144939213Y-87746866D01*
X144949500Y-87796730D01*
X144949500Y-90269748D01*
X144950707Y-90275816D01*
X144955518Y-90300000D01*
X144961133Y-90328231D01*
X145005448Y-90394552D01*
X145015761Y-90401443D01*
X145024540Y-90410222D01*
X145021519Y-90413243D01*
X145052001Y-90449721D01*
X145060843Y-90520165D01*
X145030197Y-90584207D01*
X145024181Y-90589419D01*
X145024540Y-90589778D01*
X145015761Y-90598557D01*
X145005448Y-90605448D01*
X144961133Y-90671769D01*
X144958712Y-90683938D01*
X144958712Y-90683939D01*
X144953276Y-90711270D01*
X144949500Y-90730252D01*
X144949500Y-93269748D01*
X144950707Y-93275816D01*
X144958672Y-93315857D01*
X144961133Y-93328231D01*
X144968026Y-93338547D01*
X144978017Y-93353499D01*
X145005448Y-93394552D01*
X145071769Y-93438867D01*
X145083938Y-93441288D01*
X145083939Y-93441288D01*
X145124184Y-93449293D01*
X145130252Y-93450500D01*
X146294915Y-93450500D01*
X146363036Y-93470502D01*
X146409529Y-93524158D01*
X146419633Y-93594432D01*
X146407182Y-93633702D01*
X146394783Y-93658037D01*
X146394782Y-93658041D01*
X146390281Y-93666874D01*
X146388731Y-93676663D01*
X146388730Y-93676665D01*
X146370867Y-93789452D01*
X146369196Y-93800000D01*
X146370747Y-93809793D01*
X146388611Y-93922579D01*
X146390281Y-93933126D01*
X146451472Y-94053220D01*
X146546780Y-94148528D01*
X146555613Y-94153029D01*
X146555615Y-94153030D01*
X146592946Y-94172051D01*
X146644562Y-94220799D01*
X146661628Y-94289714D01*
X146638728Y-94356915D01*
X146624839Y-94373413D01*
X146601472Y-94396780D01*
X146540281Y-94516874D01*
X146538731Y-94526663D01*
X146538730Y-94526665D01*
X146525182Y-94612208D01*
X146519196Y-94650000D01*
X146520747Y-94659793D01*
X146537740Y-94767080D01*
X146540188Y-94782536D01*
X146540281Y-94783126D01*
X146540205Y-94783138D01*
X146542066Y-94848335D01*
X146505402Y-94909132D01*
X146441689Y-94940455D01*
X146371155Y-94932360D01*
X146337128Y-94911031D01*
X146220468Y-94808721D01*
X146220453Y-94808709D01*
X146217360Y-94805997D01*
X146167420Y-94772628D01*
X146057795Y-94699377D01*
X146057789Y-94699373D01*
X146054364Y-94697085D01*
X146050660Y-94695259D01*
X146050656Y-94695256D01*
X145953735Y-94647459D01*
X145878546Y-94610379D01*
X145874640Y-94609053D01*
X145874635Y-94609051D01*
X145696817Y-94548688D01*
X145696809Y-94548686D01*
X145692915Y-94547364D01*
X145500647Y-94509116D01*
X145368463Y-94500450D01*
X145364432Y-94499819D01*
X145364403Y-94500117D01*
X145358110Y-94499500D01*
X145355024Y-94499500D01*
X145351958Y-94499350D01*
X145351960Y-94499299D01*
X145349856Y-94499230D01*
X145338727Y-94498501D01*
X145324782Y-94497586D01*
X145318086Y-94496779D01*
X145315887Y-94496779D01*
X145305031Y-94494864D01*
X145294175Y-94496778D01*
X145294173Y-94496778D01*
X145289592Y-94497586D01*
X145267715Y-94499500D01*
X140524745Y-94499500D01*
X140456624Y-94479498D01*
X140419980Y-94443503D01*
X140401443Y-94415761D01*
X140394552Y-94405448D01*
X140328231Y-94361133D01*
X140316062Y-94358712D01*
X140316061Y-94358712D01*
X140275816Y-94350707D01*
X140269748Y-94349500D01*
X137730252Y-94349500D01*
X137724184Y-94350707D01*
X137683939Y-94358712D01*
X137683938Y-94358712D01*
X137671769Y-94361133D01*
X137605448Y-94405448D01*
X137561133Y-94471769D01*
X137558712Y-94483938D01*
X137558712Y-94483939D01*
X137554434Y-94505448D01*
X137549500Y-94530252D01*
X137549500Y-97069748D01*
X137550707Y-97075816D01*
X137557581Y-97110372D01*
X137561133Y-97128231D01*
X137605448Y-97194552D01*
X137671769Y-97238867D01*
X137683938Y-97241288D01*
X137683939Y-97241288D01*
X137724184Y-97249293D01*
X137730252Y-97250500D01*
X140269748Y-97250500D01*
X140269748Y-97252367D01*
X140330907Y-97263970D01*
X140382432Y-97312814D01*
X140399371Y-97381760D01*
X140378262Y-97446134D01*
X140361133Y-97471769D01*
X140349500Y-97530252D01*
X140349500Y-100069748D01*
X140350707Y-100075816D01*
X140357430Y-100109613D01*
X140361133Y-100128231D01*
X140405448Y-100194552D01*
X140471769Y-100238867D01*
X140483938Y-100241288D01*
X140483939Y-100241288D01*
X140524184Y-100249293D01*
X140530252Y-100250500D01*
X143069748Y-100250500D01*
X143075816Y-100249293D01*
X143116061Y-100241288D01*
X143116062Y-100241288D01*
X143128231Y-100238867D01*
X143194552Y-100194552D01*
X143238867Y-100128231D01*
X143242571Y-100109613D01*
X143249293Y-100075816D01*
X143250500Y-100069748D01*
X143250500Y-97530252D01*
X143238867Y-97471769D01*
X143194552Y-97405448D01*
X143128231Y-97361133D01*
X143116062Y-97358712D01*
X143116061Y-97358712D01*
X143075816Y-97350707D01*
X143069748Y-97349500D01*
X142226500Y-97349500D01*
X142158379Y-97329498D01*
X142111886Y-97275842D01*
X142100500Y-97223500D01*
X142100500Y-96285488D01*
X142120502Y-96217367D01*
X142174158Y-96170874D01*
X142244432Y-96160770D01*
X142309012Y-96190264D01*
X142338767Y-96228285D01*
X142351472Y-96253220D01*
X142446780Y-96348528D01*
X142566874Y-96409719D01*
X142576663Y-96411269D01*
X142576665Y-96411270D01*
X142690207Y-96429253D01*
X142700000Y-96430804D01*
X142709793Y-96429253D01*
X142823335Y-96411270D01*
X142823337Y-96411269D01*
X142833126Y-96409719D01*
X142953220Y-96348528D01*
X142964343Y-96337405D01*
X143026655Y-96303379D01*
X143053438Y-96300500D01*
X143262683Y-96300500D01*
X143284563Y-96302414D01*
X143289145Y-96303222D01*
X143300000Y-96305136D01*
X143310855Y-96303222D01*
X143321880Y-96303222D01*
X143321880Y-96303774D01*
X143334190Y-96303183D01*
X143469704Y-96313848D01*
X143489232Y-96316941D01*
X143571653Y-96336729D01*
X143645127Y-96354368D01*
X143663917Y-96360474D01*
X143812035Y-96421828D01*
X143829645Y-96430802D01*
X143943381Y-96500500D01*
X143966336Y-96514567D01*
X143982332Y-96526189D01*
X144085721Y-96614495D01*
X144093987Y-96623594D01*
X144094380Y-96623201D01*
X144102175Y-96630997D01*
X144108497Y-96640025D01*
X144117524Y-96646346D01*
X144117527Y-96646349D01*
X144121346Y-96649023D01*
X144138169Y-96663140D01*
X147358111Y-99883082D01*
X147372214Y-99899886D01*
X147381229Y-99912757D01*
X147390259Y-99919078D01*
X147390261Y-99919080D01*
X147401931Y-99927249D01*
X147403368Y-99928339D01*
X147404243Y-99929214D01*
X147407159Y-99931215D01*
X147409596Y-99933063D01*
X147420820Y-99942272D01*
X147453165Y-99982478D01*
X147467836Y-100011270D01*
X147476472Y-100028220D01*
X147571780Y-100123528D01*
X147691874Y-100184719D01*
X147701663Y-100186269D01*
X147701665Y-100186270D01*
X147815207Y-100204253D01*
X147825000Y-100205804D01*
X147834793Y-100204253D01*
X147948335Y-100186270D01*
X147948337Y-100186269D01*
X147958126Y-100184719D01*
X148078220Y-100123528D01*
X148089343Y-100112405D01*
X148151655Y-100078379D01*
X148178438Y-100075500D01*
X148262683Y-100075500D01*
X148284563Y-100077414D01*
X148289145Y-100078222D01*
X148300000Y-100080136D01*
X148310855Y-100078222D01*
X148321879Y-100078222D01*
X148321879Y-100078786D01*
X148334095Y-100078198D01*
X148422501Y-100085155D01*
X148442022Y-100088247D01*
X148551868Y-100114618D01*
X148570667Y-100120726D01*
X148675036Y-100163955D01*
X148692641Y-100172925D01*
X148782552Y-100228020D01*
X148788964Y-100231949D01*
X148804958Y-100243569D01*
X148824468Y-100260231D01*
X148872345Y-100301120D01*
X148880604Y-100310214D01*
X148880999Y-100309819D01*
X148888794Y-100317614D01*
X148895118Y-100326645D01*
X148907957Y-100335634D01*
X148924780Y-100349751D01*
X149409455Y-100834426D01*
X149443481Y-100896738D01*
X149438416Y-100967553D01*
X149395869Y-101024389D01*
X149377567Y-101035785D01*
X149346780Y-101051472D01*
X149251472Y-101146780D01*
X149190281Y-101266874D01*
X149188730Y-101276665D01*
X149188730Y-101276666D01*
X149174503Y-101366494D01*
X149144091Y-101430647D01*
X149139149Y-101435879D01*
X148514606Y-102060422D01*
X148497781Y-102074541D01*
X148484936Y-102083535D01*
X148478616Y-102092561D01*
X148470817Y-102100360D01*
X148470424Y-102099967D01*
X148462158Y-102109067D01*
X148373177Y-102185064D01*
X148357184Y-102196685D01*
X148236632Y-102270559D01*
X148219022Y-102279531D01*
X148088416Y-102333629D01*
X148069615Y-102339738D01*
X147932144Y-102372742D01*
X147912615Y-102375835D01*
X147795935Y-102385017D01*
X147783674Y-102384429D01*
X147783674Y-102384987D01*
X147772651Y-102384987D01*
X147761794Y-102383072D01*
X147750938Y-102384986D01*
X147749969Y-102385157D01*
X147746354Y-102385794D01*
X147724478Y-102387708D01*
X147565230Y-102387708D01*
X147497109Y-102367706D01*
X147476135Y-102350803D01*
X147465012Y-102339680D01*
X147344918Y-102278489D01*
X147335129Y-102276939D01*
X147335127Y-102276938D01*
X147221585Y-102258955D01*
X147211792Y-102257404D01*
X147201999Y-102258955D01*
X147088457Y-102276938D01*
X147088455Y-102276939D01*
X147078666Y-102278489D01*
X146958572Y-102339680D01*
X146863264Y-102434988D01*
X146802073Y-102555082D01*
X146800523Y-102564871D01*
X146800522Y-102564873D01*
X146785810Y-102657762D01*
X146780988Y-102688208D01*
X146782539Y-102698001D01*
X146798002Y-102795628D01*
X146802073Y-102821334D01*
X146863264Y-102941428D01*
X146958572Y-103036736D01*
X147078666Y-103097927D01*
X147088455Y-103099477D01*
X147088457Y-103099478D01*
X147201999Y-103117461D01*
X147211792Y-103119012D01*
X147221585Y-103117461D01*
X147335127Y-103099478D01*
X147335129Y-103099477D01*
X147344918Y-103097927D01*
X147465012Y-103036736D01*
X147476135Y-103025613D01*
X147538447Y-102991587D01*
X147565230Y-102988708D01*
X147724472Y-102988708D01*
X147746352Y-102990622D01*
X147750934Y-102991430D01*
X147750936Y-102991430D01*
X147761790Y-102993344D01*
X147772135Y-102991520D01*
X147773508Y-102991430D01*
X147776015Y-102991430D01*
X147779002Y-102991070D01*
X147876466Y-102984683D01*
X147944217Y-102999844D01*
X147978049Y-102978101D01*
X147988966Y-102975418D01*
X148180089Y-102937402D01*
X148180095Y-102937400D01*
X148184134Y-102936597D01*
X148188038Y-102935272D01*
X148188041Y-102935271D01*
X148382352Y-102869312D01*
X148382353Y-102869311D01*
X148386258Y-102867986D01*
X148577697Y-102773580D01*
X148632052Y-102737261D01*
X148751744Y-102657286D01*
X148751749Y-102657282D01*
X148755175Y-102654993D01*
X148758277Y-102652272D01*
X148758283Y-102652268D01*
X148902714Y-102525606D01*
X148905042Y-102523779D01*
X148906796Y-102522025D01*
X148907885Y-102521070D01*
X148916464Y-102515063D01*
X148925458Y-102502218D01*
X148939577Y-102485393D01*
X149564118Y-101860852D01*
X149633502Y-101825498D01*
X149723335Y-101811270D01*
X149723337Y-101811269D01*
X149733126Y-101809719D01*
X149853220Y-101748528D01*
X149948528Y-101653220D01*
X149964213Y-101622437D01*
X150012958Y-101570823D01*
X150081873Y-101553756D01*
X150149075Y-101576655D01*
X150165574Y-101590545D01*
X150369349Y-101794320D01*
X150383466Y-101811143D01*
X150392455Y-101823982D01*
X150401486Y-101830306D01*
X150409214Y-101838034D01*
X150417518Y-101847197D01*
X150485217Y-101929695D01*
X150498939Y-101950233D01*
X150554789Y-102054729D01*
X150559563Y-102063662D01*
X150569014Y-102086481D01*
X150601862Y-102194782D01*
X150606345Y-102209561D01*
X150611163Y-102233787D01*
X150621653Y-102340340D01*
X150622259Y-102352691D01*
X150622259Y-102363275D01*
X150620344Y-102374132D01*
X150623067Y-102389578D01*
X150624980Y-102411453D01*
X150624980Y-102571847D01*
X150623067Y-102593717D01*
X150620344Y-102609167D01*
X150622259Y-102620021D01*
X150622259Y-102620022D01*
X150623109Y-102624838D01*
X150624636Y-102636831D01*
X150632548Y-102737261D01*
X150633705Y-102742080D01*
X150633706Y-102742084D01*
X150640577Y-102770694D01*
X150662553Y-102862199D01*
X150664444Y-102866764D01*
X150664445Y-102866766D01*
X150665500Y-102869312D01*
X150711734Y-102980905D01*
X150743760Y-103033157D01*
X150762303Y-103101686D01*
X150740853Y-103169364D01*
X150686217Y-103214702D01*
X150636332Y-103224998D01*
X148670766Y-103224997D01*
X148013547Y-103224997D01*
X147955954Y-103208086D01*
X147933081Y-103224997D01*
X147923583Y-103224997D01*
X147923584Y-105685124D01*
X147923584Y-107993259D01*
X147903582Y-108061380D01*
X147849926Y-108107873D01*
X147779652Y-108117977D01*
X147745805Y-108108128D01*
X147109781Y-107821412D01*
X147104776Y-107819022D01*
X146329349Y-107427289D01*
X146324494Y-107424700D01*
X145567174Y-106999038D01*
X145562391Y-106996208D01*
X145363180Y-106872329D01*
X144824689Y-106537468D01*
X144820025Y-106534422D01*
X144103354Y-106043487D01*
X144098832Y-106040240D01*
X143404578Y-105518055D01*
X143400196Y-105514604D01*
X142729755Y-104962224D01*
X142725530Y-104958583D01*
X142356767Y-104626292D01*
X142080169Y-104377051D01*
X142076135Y-104373250D01*
X141457149Y-103763729D01*
X141453286Y-103759753D01*
X140861871Y-103123422D01*
X140858165Y-103119253D01*
X140774610Y-103020966D01*
X140416743Y-102600000D01*
X141769196Y-102600000D01*
X141770747Y-102609793D01*
X141786159Y-102707098D01*
X141790281Y-102733126D01*
X141851472Y-102853220D01*
X141946780Y-102948528D01*
X141955613Y-102953028D01*
X141955612Y-102953028D01*
X142037343Y-102994672D01*
X142066874Y-103009719D01*
X142076665Y-103011270D01*
X142076666Y-103011270D01*
X142122329Y-103018502D01*
X142174877Y-103039730D01*
X142177374Y-103041478D01*
X142186943Y-103048886D01*
X142288313Y-103135462D01*
X142383478Y-103193776D01*
X142415851Y-103213613D01*
X142423648Y-103218391D01*
X142570290Y-103279127D01*
X142623396Y-103291874D01*
X142652910Y-103298959D01*
X142714480Y-103334309D01*
X142747165Y-103397335D01*
X142749500Y-103421479D01*
X142749500Y-104269748D01*
X142761133Y-104328231D01*
X142805448Y-104394552D01*
X142871769Y-104438867D01*
X142883938Y-104441288D01*
X142883939Y-104441288D01*
X142924184Y-104449293D01*
X142930252Y-104450500D01*
X145469748Y-104450500D01*
X145475816Y-104449293D01*
X145516061Y-104441288D01*
X145516062Y-104441288D01*
X145528231Y-104438867D01*
X145594552Y-104394552D01*
X145638867Y-104328231D01*
X145650500Y-104269748D01*
X145650500Y-101730252D01*
X145638867Y-101671769D01*
X145594552Y-101605448D01*
X145528231Y-101561133D01*
X145516062Y-101558712D01*
X145516061Y-101558712D01*
X145475816Y-101550707D01*
X145469748Y-101549500D01*
X142930252Y-101549500D01*
X142924184Y-101550707D01*
X142883939Y-101558712D01*
X142883938Y-101558712D01*
X142871769Y-101561133D01*
X142805448Y-101605448D01*
X142761133Y-101671769D01*
X142749500Y-101730252D01*
X142749500Y-102243562D01*
X142729498Y-102311683D01*
X142675842Y-102358176D01*
X142605568Y-102368280D01*
X142540988Y-102338786D01*
X142534405Y-102332657D01*
X142453220Y-102251472D01*
X142333126Y-102190281D01*
X142323337Y-102188731D01*
X142323335Y-102188730D01*
X142209793Y-102170747D01*
X142200000Y-102169196D01*
X142190207Y-102170747D01*
X142076665Y-102188730D01*
X142076663Y-102188731D01*
X142066874Y-102190281D01*
X141946780Y-102251472D01*
X141851472Y-102346780D01*
X141790281Y-102466874D01*
X141788731Y-102476663D01*
X141788730Y-102476665D01*
X141774536Y-102566286D01*
X141769196Y-102600000D01*
X140416743Y-102600000D01*
X140295505Y-102457385D01*
X140291997Y-102453069D01*
X140242693Y-102389578D01*
X139871258Y-101911270D01*
X139759195Y-101766963D01*
X139755872Y-101762483D01*
X139253946Y-101053453D01*
X139250825Y-101048830D01*
X139027308Y-100701446D01*
X138780776Y-100318291D01*
X138777884Y-100313571D01*
X138340602Y-99562896D01*
X138337909Y-99558028D01*
X138336642Y-99555612D01*
X137934299Y-98788773D01*
X137931819Y-98783780D01*
X137929687Y-98779238D01*
X137562668Y-97997455D01*
X137560413Y-97992365D01*
X137559169Y-97989377D01*
X137332181Y-97444388D01*
X137226405Y-97190424D01*
X137224375Y-97185229D01*
X137043944Y-96691517D01*
X136926186Y-96369294D01*
X136924393Y-96364030D01*
X136923579Y-96361453D01*
X136662610Y-95535697D01*
X136661061Y-95530392D01*
X136436187Y-94691257D01*
X136434867Y-94685856D01*
X136431732Y-94671671D01*
X136247359Y-93837625D01*
X136246278Y-93832165D01*
X136244877Y-93824158D01*
X136183594Y-93474054D01*
X136162188Y-93351764D01*
X136170145Y-93281215D01*
X136214981Y-93226167D01*
X136286175Y-93204039D01*
X139820737Y-93200503D01*
X139829818Y-93200511D01*
X139854959Y-93200533D01*
X139854960Y-93200533D01*
X139869147Y-93200545D01*
X139881938Y-93194403D01*
X139886643Y-93193334D01*
X139894777Y-93190489D01*
X139899121Y-93188393D01*
X139912954Y-93185223D01*
X139924043Y-93176368D01*
X139929099Y-93173929D01*
X139934421Y-93170587D01*
X139938818Y-93167090D01*
X139951608Y-93160948D01*
X139960468Y-93149870D01*
X139964249Y-93146862D01*
X139970340Y-93140775D01*
X139973350Y-93136996D01*
X139984436Y-93128144D01*
X139985530Y-93125869D01*
X140036087Y-93090344D01*
X140092995Y-93084749D01*
X140155381Y-93092962D01*
X140159468Y-93093500D01*
X140997700Y-93093500D01*
X141018247Y-93090795D01*
X141103200Y-93079611D01*
X141103202Y-93079610D01*
X141111386Y-93078533D01*
X141179063Y-93050500D01*
X141245215Y-93023099D01*
X141245217Y-93023098D01*
X141252843Y-93019939D01*
X141374315Y-92926731D01*
X141379337Y-92920186D01*
X141379342Y-92920181D01*
X141407645Y-92883296D01*
X141464983Y-92841429D01*
X141535854Y-92837207D01*
X141596702Y-92870905D01*
X141814532Y-93088735D01*
X141849886Y-93158119D01*
X141860664Y-93226167D01*
X141865665Y-93257742D01*
X141926856Y-93377836D01*
X142022164Y-93473144D01*
X142142258Y-93534335D01*
X142152047Y-93535885D01*
X142152049Y-93535886D01*
X142265591Y-93553869D01*
X142275384Y-93555420D01*
X142285177Y-93553869D01*
X142398719Y-93535886D01*
X142398721Y-93535885D01*
X142408510Y-93534335D01*
X142528604Y-93473144D01*
X142623912Y-93377836D01*
X142685103Y-93257742D01*
X142695759Y-93190462D01*
X142726171Y-93126309D01*
X142786439Y-93088781D01*
X142800498Y-93085723D01*
X142857986Y-93076618D01*
X142857987Y-93076618D01*
X142867778Y-93075067D01*
X142987872Y-93013876D01*
X143083180Y-92918568D01*
X143144371Y-92798474D01*
X143146707Y-92783729D01*
X143163905Y-92675141D01*
X143165456Y-92665348D01*
X143159872Y-92630092D01*
X143145922Y-92542013D01*
X143145921Y-92542011D01*
X143144371Y-92532222D01*
X143083180Y-92412128D01*
X142987872Y-92316820D01*
X142867778Y-92255629D01*
X142857987Y-92254078D01*
X142857986Y-92254078D01*
X142826131Y-92249033D01*
X142768157Y-92239851D01*
X142704005Y-92209439D01*
X142698773Y-92204497D01*
X142656190Y-92161914D01*
X142642073Y-92145091D01*
X142639406Y-92141282D01*
X142633083Y-92132252D01*
X142624052Y-92125929D01*
X142616564Y-92118441D01*
X142608261Y-92109280D01*
X142607481Y-92108329D01*
X142584137Y-92079886D01*
X142540308Y-92026483D01*
X142526585Y-92005947D01*
X142465931Y-91892481D01*
X142456478Y-91869660D01*
X142419125Y-91746536D01*
X142414305Y-91722311D01*
X142411125Y-91690028D01*
X142403829Y-91615978D01*
X142403222Y-91603627D01*
X142403222Y-91592778D01*
X142405136Y-91581921D01*
X142402415Y-91566492D01*
X142400500Y-91544609D01*
X142400500Y-90884539D01*
X142402414Y-90862659D01*
X142403222Y-90858078D01*
X142403222Y-90858075D01*
X142405136Y-90847221D01*
X142403554Y-90838251D01*
X142403247Y-90831995D01*
X142403305Y-90831796D01*
X142403298Y-90831520D01*
X142403166Y-90830342D01*
X142390179Y-90565939D01*
X142390178Y-90565931D01*
X142390027Y-90562852D01*
X142348252Y-90281221D01*
X142279074Y-90005040D01*
X142278036Y-90002139D01*
X142278033Y-90002129D01*
X142184200Y-89739880D01*
X142184199Y-89739877D01*
X142183159Y-89736971D01*
X142181844Y-89734191D01*
X142181840Y-89734181D01*
X142062745Y-89482375D01*
X142062743Y-89482371D01*
X142061429Y-89479593D01*
X142040469Y-89444624D01*
X141916647Y-89238037D01*
X141916641Y-89238027D01*
X141915058Y-89235387D01*
X141839217Y-89133126D01*
X141747303Y-89009193D01*
X141747300Y-89009189D01*
X141745456Y-89006703D01*
X141573724Y-88817225D01*
X141542798Y-88753318D01*
X141541084Y-88732609D01*
X141541084Y-87449884D01*
X141534084Y-87396714D01*
X141527195Y-87344384D01*
X141527194Y-87344382D01*
X141526117Y-87336198D01*
X141484249Y-87235121D01*
X141470683Y-87202369D01*
X141470682Y-87202367D01*
X141467523Y-87194741D01*
X141374315Y-87073269D01*
X141252843Y-86980061D01*
X141245217Y-86976902D01*
X141245215Y-86976901D01*
X141160358Y-86941752D01*
X141111386Y-86921467D01*
X141103202Y-86920390D01*
X141103200Y-86920389D01*
X141001787Y-86907038D01*
X141001786Y-86907038D01*
X140997700Y-86906500D01*
X140159468Y-86906500D01*
X140093007Y-86915250D01*
X140022860Y-86904311D01*
X139986124Y-86875206D01*
X139984642Y-86872114D01*
X139973569Y-86863243D01*
X139970549Y-86859440D01*
X139964532Y-86853407D01*
X139960732Y-86850374D01*
X139951889Y-86839276D01*
X139939109Y-86833112D01*
X139934737Y-86829622D01*
X139929363Y-86826234D01*
X139924326Y-86823794D01*
X139913251Y-86814921D01*
X139899422Y-86811729D01*
X139895055Y-86809613D01*
X139887009Y-86806783D01*
X139882277Y-86805699D01*
X139869497Y-86799535D01*
X139782699Y-86799459D01*
X139778051Y-86799455D01*
X139778021Y-86799455D01*
X139778012Y-86799459D01*
X139777996Y-86799461D01*
X136289879Y-86796463D01*
X136221776Y-86776402D01*
X136175329Y-86722707D01*
X136165876Y-86648731D01*
X136170568Y-86621939D01*
X136250550Y-86165158D01*
X136251636Y-86159677D01*
X136258258Y-86129756D01*
X136375752Y-85598808D01*
X136440034Y-85308323D01*
X136441365Y-85302884D01*
X136667399Y-84460735D01*
X136668970Y-84455362D01*
X136784617Y-84090138D01*
X136932199Y-83624064D01*
X136934003Y-83618779D01*
X136937963Y-83607969D01*
X137233893Y-82800021D01*
X137235932Y-82794815D01*
X137259662Y-82737984D01*
X137463711Y-82249293D01*
X137538679Y-82069748D01*
X141149500Y-82069748D01*
X141161133Y-82128231D01*
X141205448Y-82194552D01*
X141271769Y-82238867D01*
X141283938Y-82241288D01*
X141283939Y-82241288D01*
X141324184Y-82249293D01*
X141330252Y-82250500D01*
X143869748Y-82250500D01*
X143875816Y-82249293D01*
X143916061Y-82241288D01*
X143916062Y-82241288D01*
X143928231Y-82238867D01*
X143994552Y-82194552D01*
X144038867Y-82128231D01*
X144050500Y-82069748D01*
X144050500Y-81229222D01*
X144070502Y-81161101D01*
X144124158Y-81114608D01*
X144171297Y-81104355D01*
X144175725Y-81105136D01*
X144186579Y-81103222D01*
X144197318Y-81103223D01*
X144209666Y-81103830D01*
X144222922Y-81105136D01*
X144304581Y-81113182D01*
X144328797Y-81117999D01*
X144440829Y-81151986D01*
X144463647Y-81161438D01*
X144566893Y-81216626D01*
X144587429Y-81230348D01*
X144648180Y-81280205D01*
X144661376Y-81291035D01*
X144670567Y-81299368D01*
X144677878Y-81306683D01*
X144683964Y-81315375D01*
X144684236Y-81315764D01*
X144693282Y-81322099D01*
X144700778Y-81329599D01*
X144709052Y-81338731D01*
X144769652Y-81412571D01*
X144783374Y-81433107D01*
X144838562Y-81536353D01*
X144848014Y-81559171D01*
X144859811Y-81598055D01*
X144882000Y-81671198D01*
X144886819Y-81695420D01*
X144890049Y-81728210D01*
X144896170Y-81790333D01*
X144896777Y-81802681D01*
X144896777Y-81813422D01*
X144894864Y-81824275D01*
X144896778Y-81835127D01*
X144896778Y-81835130D01*
X144897585Y-81839703D01*
X144899500Y-81861588D01*
X144899500Y-83309122D01*
X144897586Y-83331000D01*
X144894864Y-83346430D01*
X144896778Y-83357286D01*
X144896777Y-83368071D01*
X144896170Y-83380417D01*
X144890104Y-83441982D01*
X144885285Y-83466204D01*
X144865307Y-83532055D01*
X144861013Y-83546208D01*
X144851562Y-83569023D01*
X144825263Y-83618223D01*
X144812148Y-83642759D01*
X144798425Y-83663296D01*
X144759057Y-83711265D01*
X144750752Y-83720428D01*
X144743267Y-83727913D01*
X144734236Y-83734236D01*
X144729723Y-83740681D01*
X144661921Y-83775227D01*
X144576665Y-83788730D01*
X144576663Y-83788731D01*
X144566874Y-83790281D01*
X144446780Y-83851472D01*
X144351472Y-83946780D01*
X144290281Y-84066874D01*
X144288731Y-84076663D01*
X144288730Y-84076665D01*
X144281877Y-84119935D01*
X144269196Y-84200000D01*
X144270747Y-84209793D01*
X144284323Y-84295506D01*
X144290281Y-84333126D01*
X144351472Y-84453220D01*
X144446780Y-84548528D01*
X144566874Y-84609719D01*
X144576663Y-84611269D01*
X144576665Y-84611270D01*
X144690207Y-84629253D01*
X144700000Y-84630804D01*
X144709793Y-84629253D01*
X144823335Y-84611270D01*
X144823337Y-84611269D01*
X144833126Y-84609719D01*
X144953220Y-84548528D01*
X145048528Y-84453220D01*
X145109719Y-84333126D01*
X145115678Y-84295506D01*
X145124773Y-84238078D01*
X145155185Y-84173925D01*
X145157287Y-84171699D01*
X145165764Y-84165764D01*
X145172087Y-84156734D01*
X145173695Y-84155126D01*
X145176065Y-84152065D01*
X145266153Y-84046586D01*
X145325604Y-84007777D01*
X145396598Y-84007271D01*
X145456597Y-84045227D01*
X145486413Y-84108705D01*
X145490281Y-84133126D01*
X145551472Y-84253220D01*
X145646780Y-84348528D01*
X145766874Y-84409719D01*
X145776665Y-84411270D01*
X145776666Y-84411270D01*
X145802850Y-84415417D01*
X145866495Y-84425497D01*
X145930647Y-84455909D01*
X145935879Y-84460851D01*
X146292295Y-84817267D01*
X146306412Y-84834090D01*
X146315401Y-84846929D01*
X146324434Y-84853255D01*
X146331920Y-84860742D01*
X146340212Y-84869891D01*
X146382275Y-84921147D01*
X146395992Y-84941679D01*
X146437395Y-85019143D01*
X146446847Y-85041962D01*
X146472343Y-85126016D01*
X146477161Y-85150240D01*
X146483672Y-85216346D01*
X146484279Y-85228700D01*
X146484279Y-85239143D01*
X146482364Y-85250000D01*
X146484278Y-85260855D01*
X146484278Y-85261788D01*
X146464274Y-85329908D01*
X146447373Y-85350879D01*
X146438972Y-85359280D01*
X146377781Y-85479374D01*
X146376231Y-85489163D01*
X146376230Y-85489165D01*
X146362079Y-85578511D01*
X146356696Y-85612500D01*
X146358247Y-85622293D01*
X146375348Y-85730262D01*
X146377781Y-85745626D01*
X146438972Y-85865720D01*
X146534280Y-85961028D01*
X146654374Y-86022219D01*
X146664163Y-86023769D01*
X146664165Y-86023770D01*
X146777707Y-86041753D01*
X146787500Y-86043304D01*
X146797293Y-86041753D01*
X146910835Y-86023770D01*
X146910837Y-86023769D01*
X146920626Y-86022219D01*
X147040720Y-85961028D01*
X147136028Y-85865720D01*
X147197219Y-85745626D01*
X147199653Y-85730262D01*
X147216753Y-85622293D01*
X147218304Y-85612500D01*
X147212921Y-85578511D01*
X147198770Y-85489165D01*
X147198769Y-85489163D01*
X147197219Y-85479374D01*
X147136028Y-85359280D01*
X147127627Y-85350879D01*
X147126478Y-85348774D01*
X147123189Y-85344248D01*
X147123774Y-85343823D01*
X147093601Y-85288567D01*
X147090722Y-85261784D01*
X147090722Y-85260855D01*
X147092636Y-85250000D01*
X147090803Y-85239604D01*
X147090722Y-85238575D01*
X147090722Y-85236668D01*
X147090328Y-85233573D01*
X147077103Y-85065522D01*
X147060015Y-84994344D01*
X147035061Y-84890396D01*
X147035060Y-84890393D01*
X147033906Y-84885586D01*
X146963095Y-84714623D01*
X146960511Y-84710407D01*
X146960509Y-84710402D01*
X146898904Y-84609868D01*
X146866411Y-84556841D01*
X146812672Y-84493915D01*
X146788053Y-84465088D01*
X146785264Y-84461238D01*
X146785209Y-84461110D01*
X146781195Y-84456224D01*
X146779015Y-84454044D01*
X146776958Y-84451776D01*
X146776969Y-84451766D01*
X146773100Y-84447580D01*
X146756850Y-84428552D01*
X146755059Y-84426238D01*
X146753789Y-84424968D01*
X146752918Y-84423948D01*
X146746945Y-84415417D01*
X146734092Y-84406417D01*
X146717274Y-84392303D01*
X146360852Y-84035881D01*
X146325498Y-83966497D01*
X146311270Y-83876666D01*
X146311270Y-83876665D01*
X146309719Y-83866874D01*
X146248528Y-83746780D01*
X146237405Y-83735657D01*
X146203379Y-83673345D01*
X146200500Y-83646562D01*
X146200500Y-82032293D01*
X146202415Y-82010411D01*
X146203221Y-82005839D01*
X146205136Y-81994981D01*
X146203222Y-81984123D01*
X146203222Y-81973100D01*
X146203773Y-81973100D01*
X146203182Y-81960782D01*
X146210727Y-81864939D01*
X146213820Y-81845411D01*
X146241959Y-81728210D01*
X146248067Y-81709413D01*
X146294196Y-81598052D01*
X146303170Y-81580439D01*
X146330187Y-81536353D01*
X146366146Y-81477674D01*
X146377765Y-81461680D01*
X146402169Y-81433107D01*
X146440236Y-81388537D01*
X146449332Y-81380276D01*
X146448938Y-81379882D01*
X146455607Y-81373213D01*
X146460631Y-81369358D01*
X146465764Y-81365764D01*
X146472087Y-81356734D01*
X146479884Y-81348937D01*
X146480278Y-81349331D01*
X146488538Y-81340235D01*
X146561682Y-81277763D01*
X146577676Y-81266144D01*
X146680442Y-81203169D01*
X146698052Y-81194196D01*
X146809413Y-81148067D01*
X146828205Y-81141961D01*
X146928001Y-81118000D01*
X146945411Y-81113820D01*
X146964939Y-81110727D01*
X147060782Y-81103182D01*
X147073100Y-81103773D01*
X147073100Y-81103222D01*
X147084123Y-81103222D01*
X147094981Y-81105136D01*
X147110411Y-81102415D01*
X147132293Y-81100500D01*
X147223500Y-81100500D01*
X147291621Y-81120502D01*
X147338114Y-81174158D01*
X147349500Y-81226500D01*
X147349500Y-82069748D01*
X147361133Y-82128231D01*
X147405448Y-82194552D01*
X147471769Y-82238867D01*
X147483938Y-82241288D01*
X147483939Y-82241288D01*
X147524184Y-82249293D01*
X147530252Y-82250500D01*
X150069748Y-82250500D01*
X150075816Y-82249293D01*
X150116061Y-82241288D01*
X150116062Y-82241288D01*
X150128231Y-82238867D01*
X150194552Y-82194552D01*
X150238867Y-82128231D01*
X150250500Y-82069748D01*
X150250500Y-79530252D01*
X150238867Y-79471769D01*
X150194552Y-79405448D01*
X150128231Y-79361133D01*
X150116062Y-79358712D01*
X150116061Y-79358712D01*
X150075816Y-79350707D01*
X150069748Y-79349500D01*
X147530252Y-79349500D01*
X147524184Y-79350707D01*
X147483939Y-79358712D01*
X147483938Y-79358712D01*
X147471769Y-79361133D01*
X147405448Y-79405448D01*
X147361133Y-79471769D01*
X147349500Y-79530252D01*
X147349500Y-80373500D01*
X147329498Y-80441621D01*
X147275842Y-80488114D01*
X147223500Y-80499500D01*
X147132283Y-80499500D01*
X147110406Y-80497586D01*
X147110315Y-80497570D01*
X147094967Y-80494864D01*
X147084105Y-80496780D01*
X147081867Y-80496780D01*
X147075315Y-80497570D01*
X147052402Y-80499072D01*
X146903463Y-80508836D01*
X146903457Y-80508837D01*
X146899351Y-80509106D01*
X146895317Y-80509908D01*
X146895313Y-80509909D01*
X146823555Y-80524184D01*
X146707082Y-80547354D01*
X146703191Y-80548675D01*
X146703183Y-80548677D01*
X146536965Y-80605103D01*
X146521450Y-80610370D01*
X146517749Y-80612195D01*
X146517747Y-80612196D01*
X146382230Y-80679028D01*
X146312288Y-80691219D01*
X146246858Y-80663661D01*
X146206714Y-80605103D01*
X146200500Y-80566023D01*
X146200500Y-77669748D01*
X150349500Y-77669748D01*
X150361133Y-77728231D01*
X150405448Y-77794552D01*
X150471769Y-77838867D01*
X150483938Y-77841288D01*
X150483939Y-77841288D01*
X150524184Y-77849293D01*
X150530252Y-77850500D01*
X153069748Y-77850500D01*
X153075816Y-77849293D01*
X153116061Y-77841288D01*
X153116062Y-77841288D01*
X153128231Y-77838867D01*
X153194552Y-77794552D01*
X153238867Y-77728231D01*
X153250500Y-77669748D01*
X153250500Y-75130252D01*
X153238867Y-75071769D01*
X153194552Y-75005448D01*
X153128231Y-74961133D01*
X153116062Y-74958712D01*
X153116061Y-74958712D01*
X153075816Y-74950707D01*
X153069748Y-74949500D01*
X151832959Y-74949500D01*
X151764838Y-74929498D01*
X151718345Y-74875842D01*
X151708510Y-74803790D01*
X151722295Y-74716752D01*
X151722295Y-74716751D01*
X151723846Y-74706958D01*
X151702761Y-74573832D01*
X151653125Y-74476416D01*
X153492780Y-74476416D01*
X153494331Y-74486209D01*
X153510803Y-74590207D01*
X153513865Y-74609542D01*
X153575056Y-74729636D01*
X153670364Y-74824944D01*
X153679195Y-74829444D01*
X153679197Y-74829445D01*
X153734776Y-74857764D01*
X153786391Y-74906513D01*
X153803457Y-74975428D01*
X153782338Y-75040034D01*
X153761133Y-75071769D01*
X153749500Y-75130252D01*
X153749500Y-77669748D01*
X153761133Y-77728231D01*
X153805448Y-77794552D01*
X153871769Y-77838867D01*
X153883938Y-77841288D01*
X153883939Y-77841288D01*
X153924184Y-77849293D01*
X153930252Y-77850500D01*
X156469748Y-77850500D01*
X156475816Y-77849293D01*
X156516061Y-77841288D01*
X156516062Y-77841288D01*
X156528231Y-77838867D01*
X156594552Y-77794552D01*
X156638867Y-77728231D01*
X156650500Y-77669748D01*
X157149500Y-77669748D01*
X157161133Y-77728231D01*
X157205448Y-77794552D01*
X157271769Y-77838867D01*
X157283938Y-77841288D01*
X157283939Y-77841288D01*
X157324184Y-77849293D01*
X157330252Y-77850500D01*
X159869748Y-77850500D01*
X159875816Y-77849293D01*
X159916061Y-77841288D01*
X159916062Y-77841288D01*
X159928231Y-77838867D01*
X159994552Y-77794552D01*
X160038867Y-77728231D01*
X160050500Y-77669748D01*
X160050500Y-75130252D01*
X160038867Y-75071769D01*
X159994552Y-75005448D01*
X159928231Y-74961133D01*
X159916062Y-74958712D01*
X159916061Y-74958712D01*
X159875816Y-74950707D01*
X159869748Y-74949500D01*
X159043717Y-74949500D01*
X158975596Y-74929498D01*
X158929103Y-74875842D01*
X158918323Y-74835841D01*
X158916455Y-74816858D01*
X158916454Y-74816853D01*
X158915848Y-74810697D01*
X158913754Y-74803790D01*
X158879514Y-74690903D01*
X158879513Y-74690900D01*
X158877716Y-74684976D01*
X158840181Y-74614749D01*
X158826855Y-74575067D01*
X158811270Y-74476665D01*
X158811269Y-74476663D01*
X158809719Y-74466874D01*
X158748528Y-74346780D01*
X158653220Y-74251472D01*
X158533126Y-74190281D01*
X158523337Y-74188731D01*
X158523335Y-74188730D01*
X158409793Y-74170747D01*
X158400000Y-74169196D01*
X158390207Y-74170747D01*
X158276665Y-74188730D01*
X158276663Y-74188731D01*
X158266874Y-74190281D01*
X158146780Y-74251472D01*
X158051472Y-74346780D01*
X157990281Y-74466874D01*
X157988731Y-74476663D01*
X157988730Y-74476665D01*
X157973341Y-74573832D01*
X157969196Y-74600000D01*
X157970747Y-74609793D01*
X157987688Y-74716752D01*
X157990281Y-74733126D01*
X157994782Y-74741959D01*
X157994783Y-74741963D01*
X158007182Y-74766298D01*
X158020286Y-74836075D01*
X157993585Y-74901860D01*
X157935557Y-74942765D01*
X157894915Y-74949500D01*
X157330252Y-74949500D01*
X157324184Y-74950707D01*
X157283939Y-74958712D01*
X157283938Y-74958712D01*
X157271769Y-74961133D01*
X157205448Y-75005448D01*
X157161133Y-75071769D01*
X157149500Y-75130252D01*
X157149500Y-77669748D01*
X156650500Y-77669748D01*
X156650500Y-75130252D01*
X156638867Y-75071769D01*
X156594552Y-75005448D01*
X156528231Y-74961133D01*
X156516062Y-74958712D01*
X156516061Y-74958712D01*
X156475816Y-74950707D01*
X156469748Y-74949500D01*
X154909184Y-74949500D01*
X154841063Y-74929498D01*
X154820089Y-74912595D01*
X154377782Y-74470288D01*
X154343756Y-74407976D01*
X154342428Y-74400904D01*
X154334854Y-74353082D01*
X154334854Y-74353081D01*
X154333303Y-74343290D01*
X154272112Y-74223196D01*
X154176804Y-74127888D01*
X154056710Y-74066697D01*
X154046921Y-74065147D01*
X154046919Y-74065146D01*
X153933377Y-74047163D01*
X153923584Y-74045612D01*
X153913791Y-74047163D01*
X153800249Y-74065146D01*
X153800247Y-74065147D01*
X153790458Y-74066697D01*
X153670364Y-74127888D01*
X153575056Y-74223196D01*
X153513865Y-74343290D01*
X153512315Y-74353079D01*
X153512314Y-74353081D01*
X153497032Y-74449568D01*
X153492780Y-74476416D01*
X151653125Y-74476416D01*
X151641570Y-74453738D01*
X151546262Y-74358430D01*
X151426168Y-74297239D01*
X151416379Y-74295689D01*
X151416377Y-74295688D01*
X151302835Y-74277705D01*
X151293042Y-74276154D01*
X151283249Y-74277705D01*
X151169707Y-74295688D01*
X151169705Y-74295689D01*
X151159916Y-74297239D01*
X151039822Y-74358430D01*
X150944514Y-74453738D01*
X150883323Y-74573832D01*
X150862238Y-74706958D01*
X150863789Y-74716751D01*
X150863789Y-74716752D01*
X150877574Y-74803790D01*
X150868474Y-74874201D01*
X150822752Y-74928515D01*
X150753125Y-74949500D01*
X150530252Y-74949500D01*
X150524184Y-74950707D01*
X150483939Y-74958712D01*
X150483938Y-74958712D01*
X150471769Y-74961133D01*
X150405448Y-75005448D01*
X150361133Y-75071769D01*
X150349500Y-75130252D01*
X150349500Y-77669748D01*
X146200500Y-77669748D01*
X146200500Y-77420169D01*
X146202414Y-77398291D01*
X146205136Y-77382861D01*
X146203222Y-77372004D01*
X146203222Y-77371886D01*
X146201749Y-77360306D01*
X146192503Y-77242749D01*
X146191387Y-77228553D01*
X146190233Y-77223745D01*
X146190232Y-77223739D01*
X146156416Y-77082859D01*
X146156415Y-77082856D01*
X146155260Y-77078044D01*
X146118880Y-76990207D01*
X146097927Y-76939617D01*
X146097925Y-76939614D01*
X146096031Y-76935040D01*
X146015159Y-76803064D01*
X145958806Y-76737082D01*
X145954625Y-76731308D01*
X145954036Y-76729937D01*
X145950022Y-76725051D01*
X145943311Y-76718340D01*
X145936606Y-76711087D01*
X145929205Y-76702422D01*
X145922210Y-76693388D01*
X145922084Y-76693262D01*
X145915764Y-76684236D01*
X145902919Y-76675242D01*
X145886094Y-76661123D01*
X145837297Y-76612326D01*
X145809815Y-76567481D01*
X145809719Y-76566874D01*
X145748528Y-76446780D01*
X145653220Y-76351472D01*
X145533126Y-76290281D01*
X145523337Y-76288731D01*
X145523335Y-76288730D01*
X145409793Y-76270747D01*
X145400000Y-76269196D01*
X145390207Y-76270747D01*
X145276665Y-76288730D01*
X145276663Y-76288731D01*
X145266874Y-76290281D01*
X145258039Y-76294783D01*
X145258038Y-76294783D01*
X145224427Y-76311908D01*
X145154650Y-76325012D01*
X145088866Y-76298311D01*
X145047960Y-76240284D01*
X145041225Y-76199641D01*
X145041225Y-76112713D01*
X145061227Y-76044592D01*
X145078130Y-76023618D01*
X145089253Y-76012495D01*
X145150444Y-75892401D01*
X145154120Y-75869196D01*
X145169978Y-75769068D01*
X145171529Y-75759275D01*
X145169978Y-75749482D01*
X145151995Y-75635940D01*
X145151994Y-75635938D01*
X145150444Y-75626149D01*
X145089253Y-75506055D01*
X144993945Y-75410747D01*
X144873851Y-75349556D01*
X144864062Y-75348006D01*
X144864060Y-75348005D01*
X144750518Y-75330022D01*
X144740725Y-75328471D01*
X144730932Y-75330022D01*
X144617390Y-75348005D01*
X144617388Y-75348006D01*
X144607599Y-75349556D01*
X144487505Y-75410747D01*
X144392197Y-75506055D01*
X144331006Y-75626149D01*
X144329456Y-75635938D01*
X144329455Y-75635940D01*
X144311472Y-75749482D01*
X144309921Y-75759275D01*
X144311472Y-75769068D01*
X144327331Y-75869196D01*
X144331006Y-75892401D01*
X144392197Y-76012495D01*
X144403320Y-76023618D01*
X144437346Y-76085930D01*
X144440225Y-76112713D01*
X144440225Y-76420435D01*
X144438312Y-76442309D01*
X144435589Y-76457756D01*
X144437504Y-76468614D01*
X144437504Y-76470028D01*
X144438382Y-76476933D01*
X144448114Y-76600500D01*
X144450275Y-76627936D01*
X144463795Y-76684236D01*
X144488978Y-76789105D01*
X144488980Y-76789111D01*
X144490136Y-76793925D01*
X144502335Y-76823371D01*
X144553578Y-76947059D01*
X144553581Y-76947065D01*
X144555474Y-76951634D01*
X144644679Y-77097179D01*
X144740653Y-77209531D01*
X144742727Y-77211959D01*
X144746867Y-77217305D01*
X144747861Y-77218277D01*
X144754599Y-77227899D01*
X144754611Y-77227907D01*
X144754617Y-77227916D01*
X144764246Y-77234657D01*
X144772156Y-77242749D01*
X144779451Y-77250891D01*
X144810143Y-77288289D01*
X144823867Y-77308829D01*
X144856850Y-77370539D01*
X144866302Y-77393359D01*
X144886609Y-77460306D01*
X144891428Y-77484534D01*
X144896173Y-77532727D01*
X144896779Y-77545079D01*
X144896779Y-77555660D01*
X144894864Y-77566517D01*
X144897587Y-77581963D01*
X144899500Y-77603838D01*
X144899500Y-80501465D01*
X144879498Y-80569586D01*
X144825842Y-80616079D01*
X144755568Y-80626183D01*
X144717771Y-80614470D01*
X144687496Y-80599539D01*
X144687481Y-80599533D01*
X144683793Y-80597714D01*
X144590441Y-80566023D01*
X144523267Y-80543219D01*
X144523266Y-80543219D01*
X144519352Y-80541890D01*
X144515305Y-80541085D01*
X144515298Y-80541083D01*
X144353074Y-80508810D01*
X144353069Y-80508809D01*
X144349031Y-80508006D01*
X144344926Y-80507737D01*
X144344920Y-80507736D01*
X144292888Y-80504324D01*
X144241147Y-80500931D01*
X144235124Y-80500008D01*
X144235113Y-80500117D01*
X144228820Y-80499500D01*
X144223440Y-80499500D01*
X144215198Y-80499230D01*
X144204864Y-80498553D01*
X144198666Y-80498146D01*
X144187331Y-80496779D01*
X144186602Y-80496779D01*
X144175745Y-80494864D01*
X144172140Y-80495499D01*
X144108374Y-80476773D01*
X144061884Y-80423115D01*
X144050500Y-80370778D01*
X144050500Y-79530252D01*
X144038867Y-79471769D01*
X143994552Y-79405448D01*
X143928231Y-79361133D01*
X143916062Y-79358712D01*
X143916061Y-79358712D01*
X143875816Y-79350707D01*
X143869748Y-79349500D01*
X141330252Y-79349500D01*
X141324184Y-79350707D01*
X141283939Y-79358712D01*
X141283938Y-79358712D01*
X141271769Y-79361133D01*
X141205448Y-79405448D01*
X141161133Y-79471769D01*
X141149500Y-79530252D01*
X141149500Y-82069748D01*
X137538679Y-82069748D01*
X137571892Y-81990204D01*
X137574163Y-81985086D01*
X137721926Y-81671198D01*
X137945560Y-81196141D01*
X137948052Y-81191141D01*
X137963241Y-81162279D01*
X138251518Y-80614470D01*
X138354099Y-80419537D01*
X138356815Y-80414641D01*
X138546419Y-80090187D01*
X138796781Y-79661764D01*
X138799687Y-79657037D01*
X139272649Y-78924471D01*
X139275790Y-78919836D01*
X139780806Y-78209039D01*
X139784149Y-78204548D01*
X140320261Y-77516863D01*
X140323801Y-77512525D01*
X140761319Y-77000000D01*
X140889923Y-76849348D01*
X140893644Y-76845180D01*
X140932962Y-76803064D01*
X141488697Y-76207779D01*
X141492564Y-76203816D01*
X141834713Y-75868503D01*
X142115342Y-75593482D01*
X142119427Y-75589653D01*
X142768673Y-75007614D01*
X142772924Y-75003970D01*
X143447392Y-74451344D01*
X143451800Y-74447893D01*
X143961663Y-74066697D01*
X144150173Y-73925759D01*
X144154703Y-73922527D01*
X144875554Y-73431953D01*
X144880251Y-73428906D01*
X145622224Y-72970814D01*
X145627053Y-72967980D01*
X145990886Y-72765100D01*
X146388581Y-72543338D01*
X146393524Y-72540723D01*
X147173208Y-72150309D01*
X147178269Y-72147914D01*
X147974524Y-71792523D01*
X147979686Y-71790356D01*
X148790901Y-71470706D01*
X148796154Y-71468769D01*
X149542255Y-71212445D01*
X149620817Y-71185455D01*
X149626148Y-71183755D01*
X150462576Y-70937358D01*
X150467981Y-70935896D01*
X151314502Y-70726907D01*
X151319966Y-70725686D01*
X152174953Y-70554506D01*
X152180466Y-70553529D01*
X153042214Y-70420500D01*
X153047765Y-70419769D01*
X153914561Y-70325155D01*
X153920139Y-70324671D01*
X154520089Y-70286051D01*
X154790317Y-70268656D01*
X154795892Y-70268421D01*
X155167121Y-70261053D01*
X155667666Y-70251119D01*
X155673264Y-70251132D01*
G37*
%TD.AperFunction*%
%TA.AperFunction,Conductor*%
G36*
X162318948Y-89800266D02*
G01*
X162463492Y-89851985D01*
X162466497Y-89852738D01*
X162466498Y-89852738D01*
X162610187Y-89888730D01*
X162801268Y-89936593D01*
X162924917Y-89954935D01*
X163142735Y-89987245D01*
X163207184Y-90017026D01*
X163245300Y-90076923D01*
X163244983Y-90147918D01*
X163214138Y-90199642D01*
X163205448Y-90205448D01*
X163161133Y-90271769D01*
X163158712Y-90283938D01*
X163158712Y-90283939D01*
X163150707Y-90324184D01*
X163149500Y-90330252D01*
X163149500Y-92869748D01*
X163150707Y-92875816D01*
X163158507Y-92915027D01*
X163161133Y-92928231D01*
X163205448Y-92994552D01*
X163271769Y-93038867D01*
X163283938Y-93041288D01*
X163283939Y-93041288D01*
X163318433Y-93048149D01*
X163330252Y-93050500D01*
X163643562Y-93050500D01*
X163711683Y-93070502D01*
X163758176Y-93124158D01*
X163768280Y-93194432D01*
X163738786Y-93259012D01*
X163732657Y-93265595D01*
X163701472Y-93296780D01*
X163640281Y-93416874D01*
X163638731Y-93426663D01*
X163638730Y-93426665D01*
X163630941Y-93475842D01*
X163619196Y-93550000D01*
X163620747Y-93559793D01*
X163636670Y-93660324D01*
X163640281Y-93683126D01*
X163701472Y-93803220D01*
X163796780Y-93898528D01*
X163916874Y-93959719D01*
X163926663Y-93961269D01*
X163926665Y-93961270D01*
X164040207Y-93979253D01*
X164050000Y-93980804D01*
X164183126Y-93959719D01*
X164185969Y-93958270D01*
X164240136Y-93954008D01*
X164249254Y-93955453D01*
X164303584Y-93977959D01*
X164321172Y-93990736D01*
X164336208Y-94003579D01*
X164567034Y-94234405D01*
X164601060Y-94296717D01*
X164595995Y-94367532D01*
X164553448Y-94424368D01*
X164486928Y-94449179D01*
X164477939Y-94449500D01*
X163430252Y-94449500D01*
X163424184Y-94450707D01*
X163383939Y-94458712D01*
X163383938Y-94458712D01*
X163371769Y-94461133D01*
X163305448Y-94505448D01*
X163261133Y-94571769D01*
X163258712Y-94583938D01*
X163258712Y-94583939D01*
X163256977Y-94592662D01*
X163249500Y-94630252D01*
X163249500Y-94973521D01*
X163229498Y-95041642D01*
X163175842Y-95088135D01*
X163172700Y-95089358D01*
X163166874Y-95090281D01*
X163158039Y-95094783D01*
X163158038Y-95094783D01*
X163117923Y-95115223D01*
X163046780Y-95151472D01*
X162951472Y-95246780D01*
X162890281Y-95366874D01*
X162888731Y-95376663D01*
X162888730Y-95376665D01*
X162873419Y-95473335D01*
X162869196Y-95500000D01*
X162870747Y-95509793D01*
X162886345Y-95608273D01*
X162890281Y-95633126D01*
X162951472Y-95753220D01*
X163046780Y-95848528D01*
X163055613Y-95853028D01*
X163055612Y-95853028D01*
X163149568Y-95900901D01*
X163166874Y-95909719D01*
X163166947Y-95909730D01*
X163221040Y-95946717D01*
X163248678Y-96012114D01*
X163249500Y-96026479D01*
X163249500Y-96169748D01*
X163250707Y-96175816D01*
X163258361Y-96214293D01*
X163261133Y-96228231D01*
X163305448Y-96294552D01*
X163371769Y-96338867D01*
X163383938Y-96341288D01*
X163383939Y-96341288D01*
X163411550Y-96346780D01*
X163430252Y-96350500D01*
X164969748Y-96350500D01*
X164988450Y-96346780D01*
X165016061Y-96341288D01*
X165016062Y-96341288D01*
X165028231Y-96338867D01*
X165094552Y-96294552D01*
X165138867Y-96228231D01*
X165141640Y-96214293D01*
X165149293Y-96175816D01*
X165150500Y-96169748D01*
X165150500Y-95122060D01*
X165170502Y-95053939D01*
X165224158Y-95007446D01*
X165294432Y-94997342D01*
X165359012Y-95026836D01*
X165365595Y-95032965D01*
X165462595Y-95129965D01*
X165496621Y-95192277D01*
X165499500Y-95219060D01*
X165499500Y-95247626D01*
X165498935Y-95259183D01*
X165495754Y-95270168D01*
X165496758Y-95281757D01*
X165497054Y-95285171D01*
X165496060Y-95313281D01*
X165496060Y-95315202D01*
X165494508Y-95325000D01*
X165500965Y-95365764D01*
X165502073Y-95372762D01*
X165502545Y-95376021D01*
X165510452Y-95436078D01*
X165513121Y-95442522D01*
X165514354Y-95450304D01*
X165518852Y-95459132D01*
X165522750Y-95466782D01*
X165526892Y-95475768D01*
X165550165Y-95531956D01*
X165550167Y-95531960D01*
X165553326Y-95539586D01*
X165600123Y-95600572D01*
X165601472Y-95603220D01*
X165604406Y-95606154D01*
X165621530Y-95628470D01*
X165628076Y-95633493D01*
X165637300Y-95640571D01*
X165649690Y-95651438D01*
X165696780Y-95698528D01*
X165816874Y-95759719D01*
X165826663Y-95761269D01*
X165826665Y-95761270D01*
X165940207Y-95779253D01*
X165950000Y-95780804D01*
X165959793Y-95779253D01*
X166073335Y-95761270D01*
X166073337Y-95761269D01*
X166083126Y-95759719D01*
X166203220Y-95698528D01*
X166298528Y-95603220D01*
X166359719Y-95483126D01*
X166364918Y-95450304D01*
X166379253Y-95359793D01*
X166380804Y-95350000D01*
X166378438Y-95335064D01*
X166361270Y-95226665D01*
X166361269Y-95226663D01*
X166359719Y-95216874D01*
X166307925Y-95115222D01*
X166294581Y-95067910D01*
X166293658Y-95056191D01*
X166292897Y-95046521D01*
X166288503Y-95028219D01*
X166263852Y-94925554D01*
X166263852Y-94925553D01*
X166262696Y-94920740D01*
X166213191Y-94801232D01*
X166184922Y-94755104D01*
X166148182Y-94695154D01*
X166148179Y-94695150D01*
X166145599Y-94690940D01*
X166142392Y-94687186D01*
X166142386Y-94687177D01*
X166084837Y-94619800D01*
X166078713Y-94612032D01*
X166073195Y-94604437D01*
X166063319Y-94590845D01*
X166045520Y-94577914D01*
X166030490Y-94565076D01*
X164902584Y-93437169D01*
X164889746Y-93422139D01*
X164882641Y-93412360D01*
X164882639Y-93412358D01*
X164876811Y-93404337D01*
X164857532Y-93390331D01*
X164849764Y-93384207D01*
X164773391Y-93318983D01*
X164773389Y-93318982D01*
X164769625Y-93315767D01*
X164717676Y-93283934D01*
X164670044Y-93231287D01*
X164658436Y-93161246D01*
X164686538Y-93096048D01*
X164745427Y-93056393D01*
X164783509Y-93050500D01*
X165869748Y-93050500D01*
X165881567Y-93048149D01*
X165916061Y-93041288D01*
X165916062Y-93041288D01*
X165928231Y-93038867D01*
X165994552Y-92994552D01*
X166038867Y-92928231D01*
X166041494Y-92915027D01*
X166049293Y-92875816D01*
X166050500Y-92869748D01*
X166050500Y-92851850D01*
X166070502Y-92783729D01*
X166124158Y-92737236D01*
X166196210Y-92727401D01*
X166315489Y-92746293D01*
X166325282Y-92744742D01*
X166438824Y-92726759D01*
X166438826Y-92726758D01*
X166448615Y-92725208D01*
X166548659Y-92674233D01*
X166605862Y-92660500D01*
X166907683Y-92660500D01*
X166929563Y-92662414D01*
X166934145Y-92663222D01*
X166945000Y-92665136D01*
X166949928Y-92664267D01*
X166959531Y-92663638D01*
X166959532Y-92663638D01*
X167190196Y-92648520D01*
X167190202Y-92648519D01*
X167194310Y-92648250D01*
X167285494Y-92630113D01*
X167435304Y-92600315D01*
X167435307Y-92600314D01*
X167439355Y-92599509D01*
X167675942Y-92519201D01*
X167680041Y-92517180D01*
X167725349Y-92494837D01*
X167900022Y-92408700D01*
X167903460Y-92406403D01*
X168104336Y-92272186D01*
X168104338Y-92272184D01*
X168107763Y-92269896D01*
X168292003Y-92108329D01*
X168295985Y-92105541D01*
X168302307Y-92096513D01*
X168302309Y-92096511D01*
X168304980Y-92092696D01*
X168319095Y-92075876D01*
X168471094Y-91923877D01*
X168487918Y-91909759D01*
X168491735Y-91907086D01*
X168500764Y-91900764D01*
X168503341Y-91897084D01*
X168695360Y-91682215D01*
X168750740Y-91604164D01*
X168806471Y-91560183D01*
X168877135Y-91553314D01*
X168940294Y-91585739D01*
X168975897Y-91647163D01*
X168979500Y-91677077D01*
X168979500Y-93648590D01*
X168959498Y-93716711D01*
X168905842Y-93763204D01*
X168835568Y-93773308D01*
X168771921Y-93744615D01*
X168739076Y-93716711D01*
X168709245Y-93691368D01*
X168621964Y-93646800D01*
X168559900Y-93615108D01*
X168559898Y-93615107D01*
X168553384Y-93611781D01*
X168546279Y-93610042D01*
X168546275Y-93610041D01*
X168452741Y-93587154D01*
X168383394Y-93570185D01*
X168377794Y-93569838D01*
X168377790Y-93569837D01*
X168374291Y-93569620D01*
X168374282Y-93569620D01*
X168372352Y-93569500D01*
X167146178Y-93569500D01*
X167054631Y-93580173D01*
X167023444Y-93583809D01*
X167023442Y-93583809D01*
X167016172Y-93584657D01*
X167009295Y-93587153D01*
X167009292Y-93587154D01*
X166881056Y-93633702D01*
X166851669Y-93644369D01*
X166705315Y-93740323D01*
X166584960Y-93867372D01*
X166497061Y-94018702D01*
X166446333Y-94186193D01*
X166435497Y-94360862D01*
X166436737Y-94368078D01*
X166436737Y-94368080D01*
X166463859Y-94525921D01*
X166465134Y-94533340D01*
X166533654Y-94694373D01*
X166637383Y-94835324D01*
X166642961Y-94840063D01*
X166642964Y-94840066D01*
X166765176Y-94943893D01*
X166765180Y-94943896D01*
X166770755Y-94948632D01*
X166785394Y-94956107D01*
X166890598Y-95009827D01*
X166926616Y-95028219D01*
X166933721Y-95029958D01*
X166933725Y-95029959D01*
X167014858Y-95049811D01*
X167096606Y-95069815D01*
X167102206Y-95070162D01*
X167102210Y-95070163D01*
X167105709Y-95070380D01*
X167105718Y-95070380D01*
X167107648Y-95070500D01*
X168333822Y-95070500D01*
X168432358Y-95059012D01*
X168456556Y-95056191D01*
X168456558Y-95056191D01*
X168463828Y-95055343D01*
X168470705Y-95052847D01*
X168470708Y-95052846D01*
X168621452Y-94998128D01*
X168628331Y-94995631D01*
X168774685Y-94899677D01*
X168779717Y-94894365D01*
X168779722Y-94894361D01*
X168841704Y-94828932D01*
X168903073Y-94793234D01*
X168974000Y-94796382D01*
X169033137Y-94838879D01*
X169080021Y-94899979D01*
X169086571Y-94905005D01*
X169132770Y-94940455D01*
X169153238Y-94956161D01*
X169238501Y-94991478D01*
X169262339Y-94994616D01*
X169301003Y-94999707D01*
X169313005Y-95001883D01*
X169322323Y-95004043D01*
X169322332Y-95004044D01*
X169329282Y-95005655D01*
X169330000Y-95005656D01*
X169346371Y-95001922D01*
X169357938Y-94999846D01*
X169413311Y-94992556D01*
X169421499Y-94991478D01*
X169429126Y-94988319D01*
X169429129Y-94988318D01*
X169476835Y-94968557D01*
X169506762Y-94956161D01*
X169527231Y-94940455D01*
X169573429Y-94905005D01*
X169579979Y-94899979D01*
X169585005Y-94893429D01*
X169590846Y-94887588D01*
X169593394Y-94890136D01*
X169637285Y-94857991D01*
X169680081Y-94850500D01*
X171740975Y-94850500D01*
X171809096Y-94870502D01*
X171855589Y-94924158D01*
X171865693Y-94994432D01*
X171836199Y-95059012D01*
X171827548Y-95068048D01*
X171806307Y-95088135D01*
X171798493Y-95095524D01*
X171694625Y-95248360D01*
X171692092Y-95254694D01*
X171692090Y-95254697D01*
X171628534Y-95413598D01*
X171628533Y-95413603D01*
X171626000Y-95419935D01*
X171617160Y-95473335D01*
X171597120Y-95594388D01*
X171595819Y-95602244D01*
X171596176Y-95609061D01*
X171596176Y-95609065D01*
X171601211Y-95705136D01*
X171605490Y-95786781D01*
X171607301Y-95793354D01*
X171607301Y-95793357D01*
X171639353Y-95909719D01*
X171654562Y-95964936D01*
X171740746Y-96128398D01*
X171860020Y-96269540D01*
X171865444Y-96273687D01*
X171865445Y-96273688D01*
X172001399Y-96377633D01*
X172001403Y-96377636D01*
X172006820Y-96381777D01*
X172013000Y-96384659D01*
X172013002Y-96384660D01*
X172168120Y-96456993D01*
X172168123Y-96456994D01*
X172174297Y-96459873D01*
X172180942Y-96461358D01*
X172180947Y-96461360D01*
X172292504Y-96486295D01*
X172354637Y-96500183D01*
X172360307Y-96500500D01*
X173796164Y-96500500D01*
X173933709Y-96485558D01*
X174057621Y-96443857D01*
X174071857Y-96439066D01*
X174142800Y-96436296D01*
X174203978Y-96472320D01*
X174235969Y-96535700D01*
X174230136Y-96602426D01*
X173973688Y-97291621D01*
X173973291Y-97292687D01*
X173971233Y-97297864D01*
X173675037Y-97997465D01*
X173632551Y-98097814D01*
X173630264Y-98102900D01*
X173596113Y-98174551D01*
X173256516Y-98887062D01*
X173254006Y-98892043D01*
X173126406Y-99131822D01*
X172846584Y-99657648D01*
X172845901Y-99658931D01*
X172843181Y-99663781D01*
X172436264Y-100353028D01*
X172401545Y-100411836D01*
X172398609Y-100416568D01*
X172055515Y-100943006D01*
X171924273Y-101144382D01*
X171921124Y-101148986D01*
X171420703Y-101847197D01*
X171415082Y-101855039D01*
X171411735Y-101859498D01*
X171348730Y-101939659D01*
X170874921Y-102542485D01*
X170871378Y-102546793D01*
X170304869Y-103205347D01*
X170301139Y-103209494D01*
X169706036Y-103842331D01*
X169702126Y-103846309D01*
X169079600Y-104452187D01*
X169075518Y-104455987D01*
X168426769Y-105033737D01*
X168422529Y-105037348D01*
X167932345Y-105436424D01*
X167748861Y-105585805D01*
X167744458Y-105589230D01*
X167047195Y-106107321D01*
X167042646Y-106110548D01*
X166323103Y-106597293D01*
X166318415Y-106600315D01*
X165578050Y-107054730D01*
X165573232Y-107057542D01*
X164813489Y-107478739D01*
X164808552Y-107481335D01*
X164125468Y-107821419D01*
X164030906Y-107868498D01*
X164025859Y-107870873D01*
X163500693Y-108103929D01*
X163430315Y-108113278D01*
X163366054Y-108083093D01*
X163328314Y-108022959D01*
X163323584Y-107988760D01*
X163323585Y-104824709D01*
X163343587Y-104756588D01*
X163397243Y-104710095D01*
X163467517Y-104699992D01*
X163532097Y-104729485D01*
X163548464Y-104747317D01*
X163551472Y-104753220D01*
X163646780Y-104848528D01*
X163766874Y-104909719D01*
X163776663Y-104911269D01*
X163776665Y-104911270D01*
X163890207Y-104929253D01*
X163900000Y-104930804D01*
X163909793Y-104929253D01*
X164023335Y-104911270D01*
X164023337Y-104911269D01*
X164033126Y-104909719D01*
X164153220Y-104848528D01*
X164248528Y-104753220D01*
X164309719Y-104633126D01*
X164313247Y-104610855D01*
X164329253Y-104509793D01*
X164330804Y-104500000D01*
X164314103Y-104394552D01*
X164311270Y-104376665D01*
X164311269Y-104376663D01*
X164309719Y-104366874D01*
X164248528Y-104246780D01*
X164237405Y-104235657D01*
X164203379Y-104173345D01*
X164200500Y-104146562D01*
X164200500Y-101906438D01*
X164220502Y-101838317D01*
X164274158Y-101791824D01*
X164344432Y-101781720D01*
X164409012Y-101811214D01*
X164415595Y-101817343D01*
X164446780Y-101848528D01*
X164566874Y-101909719D01*
X164576663Y-101911269D01*
X164576665Y-101911270D01*
X164690207Y-101929253D01*
X164700000Y-101930804D01*
X164709793Y-101929253D01*
X164823335Y-101911270D01*
X164823337Y-101911269D01*
X164833126Y-101909719D01*
X164953220Y-101848528D01*
X164964343Y-101837405D01*
X165026655Y-101803379D01*
X165053438Y-101800500D01*
X165580180Y-101800500D01*
X165602060Y-101802414D01*
X165606641Y-101803222D01*
X165606642Y-101803222D01*
X165617497Y-101805136D01*
X165623031Y-101804160D01*
X165899592Y-101788629D01*
X166126693Y-101750043D01*
X166197201Y-101758352D01*
X166252025Y-101803462D01*
X166273757Y-101871050D01*
X166255498Y-101939659D01*
X166247760Y-101950968D01*
X166064126Y-102190281D01*
X166049161Y-102209784D01*
X165853828Y-102516392D01*
X165754552Y-102707098D01*
X165691379Y-102828451D01*
X165685961Y-102838858D01*
X165652433Y-102919801D01*
X165564511Y-103132062D01*
X165546838Y-103174727D01*
X165437517Y-103521444D01*
X165436922Y-103524128D01*
X165383801Y-103763741D01*
X165358831Y-103876370D01*
X165358472Y-103879100D01*
X165358470Y-103879109D01*
X165341617Y-104007124D01*
X165311379Y-104236803D01*
X165311259Y-104239552D01*
X165311258Y-104239563D01*
X165296122Y-104586228D01*
X165295737Y-104595048D01*
X165294864Y-104600000D01*
X165296778Y-104610853D01*
X165297586Y-104615437D01*
X165299500Y-104637317D01*
X165299500Y-105846562D01*
X165279498Y-105914683D01*
X165262595Y-105935657D01*
X165251472Y-105946780D01*
X165190281Y-106066874D01*
X165169196Y-106200000D01*
X165170747Y-106209793D01*
X165186279Y-106307856D01*
X165190281Y-106333126D01*
X165251472Y-106453220D01*
X165346780Y-106548528D01*
X165466874Y-106609719D01*
X165476663Y-106611269D01*
X165476665Y-106611270D01*
X165590207Y-106629253D01*
X165600000Y-106630804D01*
X165609793Y-106629253D01*
X165723335Y-106611270D01*
X165723337Y-106611269D01*
X165733126Y-106609719D01*
X165853220Y-106548528D01*
X165948528Y-106453220D01*
X166009719Y-106333126D01*
X166013722Y-106307856D01*
X166029253Y-106209793D01*
X166030804Y-106200000D01*
X166009719Y-106066874D01*
X165948528Y-105946780D01*
X165937405Y-105935657D01*
X165903379Y-105873345D01*
X165900500Y-105846562D01*
X165900500Y-104637317D01*
X165902414Y-104615437D01*
X165903222Y-104610855D01*
X165903222Y-104610853D01*
X165905136Y-104600000D01*
X165903222Y-104589145D01*
X165903222Y-104581613D01*
X165902194Y-104565248D01*
X165917337Y-104257017D01*
X165918548Y-104244716D01*
X165919283Y-104239765D01*
X165968026Y-103911168D01*
X165970438Y-103899040D01*
X166052375Y-103571934D01*
X166055965Y-103560101D01*
X166169567Y-103242609D01*
X166174294Y-103231198D01*
X166297595Y-102970502D01*
X166318469Y-102926368D01*
X166324297Y-102915464D01*
X166450270Y-102705293D01*
X166497657Y-102626234D01*
X166504524Y-102615956D01*
X166705404Y-102345104D01*
X166713249Y-102335546D01*
X166920529Y-102106851D01*
X166932706Y-102096113D01*
X166938106Y-102090713D01*
X166947132Y-102084393D01*
X166956122Y-102071554D01*
X166970240Y-102054729D01*
X167566857Y-101458113D01*
X167583682Y-101443996D01*
X167587495Y-101441326D01*
X167587498Y-101441323D01*
X167596524Y-101435003D01*
X167602845Y-101425976D01*
X167608241Y-101420580D01*
X167618982Y-101408400D01*
X167795020Y-101248850D01*
X167804578Y-101241006D01*
X168018329Y-101082478D01*
X168028610Y-101075608D01*
X168256880Y-100938789D01*
X168267786Y-100932960D01*
X168436788Y-100853029D01*
X168508368Y-100819175D01*
X168519764Y-100814454D01*
X168770366Y-100724787D01*
X168782179Y-100721204D01*
X169040335Y-100656541D01*
X169052462Y-100654129D01*
X169238889Y-100626475D01*
X169315712Y-100615080D01*
X169328006Y-100613869D01*
X169565334Y-100602209D01*
X169581458Y-100603222D01*
X169589145Y-100603222D01*
X169600000Y-100605136D01*
X169615437Y-100602414D01*
X169637317Y-100600500D01*
X170455744Y-100600500D01*
X170477629Y-100602415D01*
X170482202Y-100603222D01*
X170482205Y-100603222D01*
X170493057Y-100605136D01*
X170499910Y-100603928D01*
X170694374Y-100588629D01*
X170870881Y-100546259D01*
X170885920Y-100542649D01*
X170885922Y-100542648D01*
X170890735Y-100541493D01*
X170895303Y-100539601D01*
X170895306Y-100539600D01*
X171072735Y-100466111D01*
X171072737Y-100466110D01*
X171077305Y-100464218D01*
X171249488Y-100358707D01*
X171256138Y-100353028D01*
X171390808Y-100238010D01*
X171397954Y-100231907D01*
X171403506Y-100228020D01*
X171407501Y-100222314D01*
X171425327Y-100201443D01*
X171530971Y-100077752D01*
X171530974Y-100077748D01*
X171534181Y-100073993D01*
X171639693Y-99901812D01*
X171716970Y-99715246D01*
X171718440Y-99709121D01*
X171762954Y-99523700D01*
X171762955Y-99523695D01*
X171764109Y-99518887D01*
X171775052Y-99379806D01*
X171775506Y-99376969D01*
X171775372Y-99376956D01*
X171775690Y-99373711D01*
X171775989Y-99370663D01*
X171775989Y-99368223D01*
X171776095Y-99366558D01*
X171778711Y-99333304D01*
X171779404Y-99324496D01*
X171780625Y-99317571D01*
X171777904Y-99302141D01*
X171775989Y-99280259D01*
X171775989Y-99187317D01*
X171777903Y-99165437D01*
X171778711Y-99160856D01*
X171778711Y-99160855D01*
X171780625Y-99150000D01*
X171779009Y-99140838D01*
X171778710Y-99136277D01*
X171778710Y-99135220D01*
X171778559Y-99133966D01*
X171765412Y-98933380D01*
X171765411Y-98933376D01*
X171765142Y-98929265D01*
X171757251Y-98889595D01*
X171722793Y-98716357D01*
X171722791Y-98716351D01*
X171721987Y-98712307D01*
X171720641Y-98708340D01*
X171652205Y-98506739D01*
X171652204Y-98506738D01*
X171650881Y-98502839D01*
X171633491Y-98467575D01*
X171554870Y-98308147D01*
X171554867Y-98308142D01*
X171553043Y-98304443D01*
X171493431Y-98215228D01*
X171432439Y-98123946D01*
X171432435Y-98123941D01*
X171430146Y-98120515D01*
X171427432Y-98117421D01*
X171427428Y-98117415D01*
X171294885Y-97966280D01*
X171294104Y-97965285D01*
X171293357Y-97964538D01*
X171290349Y-97961108D01*
X171285011Y-97953484D01*
X171275981Y-97947161D01*
X171275979Y-97947159D01*
X171272167Y-97944490D01*
X171255344Y-97930373D01*
X170138877Y-96813906D01*
X170124758Y-96797081D01*
X170122087Y-96793266D01*
X170122086Y-96793265D01*
X170115764Y-96784236D01*
X170107790Y-96778653D01*
X170105213Y-96776393D01*
X170104100Y-96775280D01*
X170102612Y-96774112D01*
X170097007Y-96769196D01*
X169950801Y-96640975D01*
X169783591Y-96529249D01*
X169772630Y-96521925D01*
X169772628Y-96521924D01*
X169769195Y-96519630D01*
X169632340Y-96452140D01*
X169576998Y-96424848D01*
X169576995Y-96424847D01*
X169573305Y-96423027D01*
X169366482Y-96352818D01*
X169362443Y-96352015D01*
X169362441Y-96352014D01*
X169242879Y-96328231D01*
X169152264Y-96310206D01*
X169148157Y-96309937D01*
X169148151Y-96309936D01*
X168988948Y-96299500D01*
X168950701Y-96296993D01*
X168948920Y-96296778D01*
X168947425Y-96296778D01*
X168943840Y-96296543D01*
X168934317Y-96294864D01*
X168918877Y-96297586D01*
X168897001Y-96299500D01*
X167953438Y-96299500D01*
X167885317Y-96279498D01*
X167864343Y-96262595D01*
X167853220Y-96251472D01*
X167733126Y-96190281D01*
X167723337Y-96188731D01*
X167723335Y-96188730D01*
X167609793Y-96170747D01*
X167600000Y-96169196D01*
X167590207Y-96170747D01*
X167476665Y-96188730D01*
X167476663Y-96188731D01*
X167466874Y-96190281D01*
X167346780Y-96251472D01*
X167251472Y-96346780D01*
X167190281Y-96466874D01*
X167188731Y-96476663D01*
X167188730Y-96476665D01*
X167177218Y-96549350D01*
X167169196Y-96600000D01*
X167170747Y-96609793D01*
X167175323Y-96638682D01*
X167190281Y-96733126D01*
X167251472Y-96853220D01*
X167346780Y-96948528D01*
X167466874Y-97009719D01*
X167476663Y-97011269D01*
X167476665Y-97011270D01*
X167590207Y-97029253D01*
X167600000Y-97030804D01*
X167609793Y-97029253D01*
X167723335Y-97011270D01*
X167723337Y-97011269D01*
X167733126Y-97009719D01*
X167853220Y-96948528D01*
X167864343Y-96937405D01*
X167926655Y-96903379D01*
X167953438Y-96900500D01*
X168896993Y-96900500D01*
X168918873Y-96902414D01*
X168923455Y-96903222D01*
X168923457Y-96903222D01*
X168934311Y-96905136D01*
X168945168Y-96903222D01*
X168956187Y-96903222D01*
X168956187Y-96903776D01*
X168968488Y-96903185D01*
X169091064Y-96912833D01*
X169110588Y-96915925D01*
X169253832Y-96950316D01*
X169272623Y-96956421D01*
X169408740Y-97012803D01*
X169426352Y-97021778D01*
X169551958Y-97098750D01*
X169567954Y-97110372D01*
X169661460Y-97190235D01*
X169669724Y-97199332D01*
X169670117Y-97198939D01*
X169677916Y-97206738D01*
X169684236Y-97215764D01*
X169693262Y-97222084D01*
X169697081Y-97224758D01*
X169713906Y-97238877D01*
X170830377Y-98355349D01*
X170844494Y-98372172D01*
X170853485Y-98385012D01*
X170862517Y-98391336D01*
X170870310Y-98399129D01*
X170869916Y-98399523D01*
X170879010Y-98407784D01*
X170961046Y-98503835D01*
X170972667Y-98519831D01*
X171051387Y-98648289D01*
X171060361Y-98665900D01*
X171114640Y-98796941D01*
X171118017Y-98805093D01*
X171124125Y-98823892D01*
X171149423Y-98929265D01*
X171159297Y-98970392D01*
X171162390Y-98989921D01*
X171169014Y-99074091D01*
X171154418Y-99143571D01*
X171104575Y-99194130D01*
X171035310Y-99209716D01*
X170986199Y-99196243D01*
X170947043Y-99176292D01*
X170890147Y-99147302D01*
X170880358Y-99145752D01*
X170880356Y-99145751D01*
X170766814Y-99127768D01*
X170757021Y-99126217D01*
X170747228Y-99127768D01*
X170633686Y-99145751D01*
X170633684Y-99145752D01*
X170623895Y-99147302D01*
X170503801Y-99208493D01*
X170408493Y-99303801D01*
X170347302Y-99423895D01*
X170345751Y-99433685D01*
X170345751Y-99433686D01*
X170337352Y-99486715D01*
X170306939Y-99550867D01*
X170261172Y-99583391D01*
X170260632Y-99583615D01*
X170260056Y-99583854D01*
X170228233Y-99592387D01*
X170199418Y-99596180D01*
X170182974Y-99597258D01*
X170181557Y-99597258D01*
X170170700Y-99595344D01*
X170155269Y-99598065D01*
X170155263Y-99598066D01*
X170133383Y-99599980D01*
X169302862Y-99599980D01*
X169280980Y-99598065D01*
X169276406Y-99597258D01*
X169276404Y-99597258D01*
X169265550Y-99595344D01*
X169257665Y-99596734D01*
X169250855Y-99597068D01*
X169250853Y-99597068D01*
X169250109Y-99597105D01*
X169249855Y-99597111D01*
X169249758Y-99597122D01*
X168971190Y-99610803D01*
X168971188Y-99610803D01*
X168968097Y-99610955D01*
X168775972Y-99639451D01*
X168676581Y-99654193D01*
X168676577Y-99654194D01*
X168673508Y-99654649D01*
X168670500Y-99655402D01*
X168670497Y-99655403D01*
X168387627Y-99726255D01*
X168384621Y-99727008D01*
X168381714Y-99728048D01*
X168381711Y-99728049D01*
X168348686Y-99739865D01*
X168277809Y-99743979D01*
X168215959Y-99709121D01*
X168182772Y-99646358D01*
X168188787Y-99575617D01*
X168193970Y-99564035D01*
X168209719Y-99533126D01*
X168217402Y-99484621D01*
X168229253Y-99409793D01*
X168230804Y-99400000D01*
X168228985Y-99388513D01*
X168211270Y-99276665D01*
X168211269Y-99276663D01*
X168209719Y-99266874D01*
X168148528Y-99146780D01*
X168053220Y-99051472D01*
X167933126Y-98990281D01*
X167923335Y-98988730D01*
X167923334Y-98988730D01*
X167833503Y-98974502D01*
X167764119Y-98939148D01*
X167542201Y-98717230D01*
X167528084Y-98700407D01*
X167525415Y-98696595D01*
X167525414Y-98696594D01*
X167519091Y-98687564D01*
X167510062Y-98681242D01*
X167507919Y-98679099D01*
X167503196Y-98675357D01*
X167353484Y-98541570D01*
X167353483Y-98541569D01*
X167350853Y-98539219D01*
X167247234Y-98465700D01*
X167170873Y-98411521D01*
X167170868Y-98411518D01*
X167167993Y-98409478D01*
X167164901Y-98407769D01*
X166974854Y-98302737D01*
X166974846Y-98302733D01*
X166971757Y-98301026D01*
X166968495Y-98299675D01*
X166968491Y-98299673D01*
X166767884Y-98216583D01*
X166767880Y-98216582D01*
X166764612Y-98215228D01*
X166761214Y-98214249D01*
X166761205Y-98214246D01*
X166552562Y-98154142D01*
X166552559Y-98154141D01*
X166549163Y-98153163D01*
X166328119Y-98115610D01*
X166124334Y-98104170D01*
X166118037Y-98103440D01*
X166115113Y-98103440D01*
X166104261Y-98101527D01*
X166093407Y-98103441D01*
X166093404Y-98103441D01*
X166088831Y-98104248D01*
X166066949Y-98106163D01*
X163668836Y-98106163D01*
X163642029Y-98102948D01*
X163636135Y-98100597D01*
X163629842Y-98099980D01*
X163613191Y-98099980D01*
X163611966Y-98099875D01*
X163610978Y-98099610D01*
X163610814Y-98099624D01*
X163610652Y-98099581D01*
X163609602Y-98099673D01*
X163591819Y-98098154D01*
X163586375Y-98097217D01*
X163575510Y-98095347D01*
X163560952Y-98097975D01*
X163538568Y-98099980D01*
X162276083Y-98099980D01*
X162207962Y-98079978D01*
X162161469Y-98026322D01*
X162152043Y-97969748D01*
X162150500Y-97969748D01*
X162150500Y-96577799D01*
X162164233Y-96520596D01*
X162186617Y-96476665D01*
X162208801Y-96433126D01*
X162212509Y-96409719D01*
X162228335Y-96309793D01*
X162229886Y-96300000D01*
X162223310Y-96258483D01*
X162210352Y-96176665D01*
X162210351Y-96176663D01*
X162208801Y-96166874D01*
X162147610Y-96046780D01*
X162147790Y-96046688D01*
X162126020Y-95985677D01*
X162134690Y-95934482D01*
X162138867Y-95928231D01*
X162150500Y-95869748D01*
X162150500Y-94330252D01*
X162144775Y-94301472D01*
X162141288Y-94283939D01*
X162141288Y-94283938D01*
X162138867Y-94271769D01*
X162094552Y-94205448D01*
X162028231Y-94161133D01*
X162016062Y-94158712D01*
X162016061Y-94158712D01*
X161975816Y-94150707D01*
X161969748Y-94149500D01*
X161326479Y-94149500D01*
X161258358Y-94129498D01*
X161211865Y-94075842D01*
X161210642Y-94072700D01*
X161209719Y-94066874D01*
X161148528Y-93946780D01*
X161147721Y-93945973D01*
X161125499Y-93883693D01*
X161141580Y-93814542D01*
X161192494Y-93765061D01*
X161251294Y-93750500D01*
X161969748Y-93750500D01*
X161992185Y-93746037D01*
X162016061Y-93741288D01*
X162016062Y-93741288D01*
X162028231Y-93738867D01*
X162094552Y-93694552D01*
X162138867Y-93628231D01*
X162141348Y-93615761D01*
X162149293Y-93575816D01*
X162150500Y-93569748D01*
X162150500Y-92030252D01*
X162146065Y-92007956D01*
X162141288Y-91983939D01*
X162141288Y-91983938D01*
X162138867Y-91971769D01*
X162094552Y-91905448D01*
X162028231Y-91861133D01*
X162016062Y-91858712D01*
X162016061Y-91858712D01*
X161975816Y-91850707D01*
X161969748Y-91849500D01*
X161734776Y-91849500D01*
X161666655Y-91829498D01*
X161620162Y-91775842D01*
X161610327Y-91703789D01*
X161610994Y-91699581D01*
X161630804Y-91574502D01*
X161627816Y-91555633D01*
X161618404Y-91496211D01*
X161627504Y-91425800D01*
X161673226Y-91371486D01*
X161742853Y-91350500D01*
X161969748Y-91350500D01*
X161976077Y-91349241D01*
X162016061Y-91341288D01*
X162016062Y-91341288D01*
X162028231Y-91338867D01*
X162094552Y-91294552D01*
X162138867Y-91228231D01*
X162144867Y-91198070D01*
X162149293Y-91175816D01*
X162150500Y-91169748D01*
X162150500Y-89918900D01*
X162170502Y-89850779D01*
X162224158Y-89804286D01*
X162294432Y-89794182D01*
X162318948Y-89800266D01*
G37*
%TD.AperFunction*%
%TA.AperFunction,Conductor*%
G36*
X149949075Y-93176655D02*
G01*
X149965574Y-93190545D01*
X151500463Y-94725434D01*
X151514581Y-94742258D01*
X151523576Y-94755104D01*
X151532603Y-94761425D01*
X151538002Y-94766824D01*
X151550176Y-94777559D01*
X151741552Y-94988708D01*
X151749397Y-94998267D01*
X151936157Y-95250082D01*
X151943026Y-95260362D01*
X152015381Y-95381078D01*
X152104206Y-95529273D01*
X152110027Y-95540162D01*
X152244080Y-95823592D01*
X152248806Y-95835004D01*
X152354423Y-96130181D01*
X152358013Y-96142013D01*
X152378641Y-96224363D01*
X152428694Y-96424184D01*
X152434193Y-96446139D01*
X152436604Y-96458264D01*
X152480654Y-96755218D01*
X152482606Y-96768379D01*
X152483817Y-96780678D01*
X152495884Y-97026292D01*
X152497800Y-97065285D01*
X152496779Y-97081541D01*
X152496779Y-97089142D01*
X152494864Y-97100000D01*
X152496778Y-97110855D01*
X152496778Y-97110856D01*
X152497586Y-97115437D01*
X152499500Y-97137317D01*
X152499500Y-99320392D01*
X152479498Y-99388513D01*
X152425842Y-99435006D01*
X152355568Y-99445110D01*
X152316297Y-99432659D01*
X152233126Y-99390281D01*
X152223337Y-99388731D01*
X152223335Y-99388730D01*
X152109793Y-99370747D01*
X152100000Y-99369196D01*
X152090207Y-99370747D01*
X151976665Y-99388730D01*
X151976663Y-99388731D01*
X151966874Y-99390281D01*
X151846780Y-99451472D01*
X151751472Y-99546780D01*
X151733625Y-99581806D01*
X151700422Y-99646972D01*
X151690281Y-99666874D01*
X151689956Y-99668928D01*
X151652335Y-99723944D01*
X151591993Y-99750895D01*
X151578778Y-99752956D01*
X151575000Y-99766113D01*
X151575000Y-101549000D01*
X151554998Y-101617121D01*
X151501342Y-101663614D01*
X151449000Y-101675000D01*
X151351000Y-101675000D01*
X151282879Y-101654998D01*
X151236386Y-101601342D01*
X151225000Y-101549000D01*
X151225000Y-99766496D01*
X151220956Y-99752725D01*
X151207417Y-99750696D01*
X151165230Y-99756249D01*
X151149415Y-99760487D01*
X151019810Y-99814171D01*
X151005627Y-99822360D01*
X150894337Y-99907755D01*
X150882757Y-99919335D01*
X150797358Y-100030630D01*
X150789171Y-100044811D01*
X150735487Y-100174414D01*
X150731249Y-100190231D01*
X150717538Y-100294378D01*
X150717000Y-100302587D01*
X150717000Y-100987839D01*
X150696998Y-101055960D01*
X150643342Y-101102453D01*
X150573068Y-101112557D01*
X150508488Y-101083063D01*
X150501905Y-101076934D01*
X149349745Y-99924774D01*
X149335630Y-99907954D01*
X149332956Y-99904136D01*
X149326632Y-99895105D01*
X149317600Y-99888781D01*
X149316357Y-99887538D01*
X149309960Y-99882517D01*
X149186016Y-99773828D01*
X149182912Y-99771106D01*
X149176551Y-99766856D01*
X149028596Y-99668000D01*
X149028588Y-99667995D01*
X149025169Y-99665711D01*
X148941001Y-99624205D01*
X148858712Y-99583626D01*
X148858704Y-99583623D01*
X148855020Y-99581806D01*
X148851126Y-99580484D01*
X148851123Y-99580483D01*
X148746297Y-99544901D01*
X148675374Y-99520827D01*
X148671326Y-99520022D01*
X148671323Y-99520021D01*
X148493348Y-99484621D01*
X148489306Y-99483817D01*
X148485200Y-99483548D01*
X148485193Y-99483547D01*
X148364105Y-99475611D01*
X148359400Y-99474892D01*
X148359378Y-99475117D01*
X148353085Y-99474500D01*
X148349995Y-99474500D01*
X148347439Y-99474375D01*
X148343022Y-99474230D01*
X148320822Y-99472775D01*
X148312560Y-99471779D01*
X148310859Y-99471779D01*
X148300000Y-99469864D01*
X148289143Y-99471778D01*
X148278642Y-99471778D01*
X148210522Y-99451774D01*
X148164030Y-99398118D01*
X148153928Y-99327843D01*
X148166378Y-99288576D01*
X148175981Y-99269728D01*
X148175981Y-99269727D01*
X148180483Y-99260892D01*
X148188589Y-99209716D01*
X148200017Y-99137559D01*
X148201568Y-99127766D01*
X148187582Y-99039460D01*
X148182034Y-99004431D01*
X148182033Y-99004429D01*
X148180483Y-98994640D01*
X148119292Y-98874546D01*
X148037405Y-98792659D01*
X148003379Y-98730347D01*
X148000500Y-98703564D01*
X148000500Y-97553438D01*
X148020502Y-97485317D01*
X148037405Y-97464343D01*
X148048528Y-97453220D01*
X148109719Y-97333126D01*
X148130804Y-97200000D01*
X148129253Y-97190207D01*
X148111270Y-97076665D01*
X148111269Y-97076663D01*
X148109719Y-97066874D01*
X148048528Y-96946780D01*
X147953220Y-96851472D01*
X147833126Y-96790281D01*
X147823337Y-96788731D01*
X147823335Y-96788730D01*
X147709793Y-96770747D01*
X147700000Y-96769196D01*
X147690207Y-96770747D01*
X147576665Y-96788730D01*
X147576663Y-96788731D01*
X147566874Y-96790281D01*
X147446780Y-96851472D01*
X147351472Y-96946780D01*
X147290281Y-97066874D01*
X147288731Y-97076663D01*
X147288730Y-97076665D01*
X147270747Y-97190207D01*
X147269196Y-97200000D01*
X147290281Y-97333126D01*
X147351472Y-97453220D01*
X147362595Y-97464343D01*
X147396621Y-97526655D01*
X147399500Y-97553438D01*
X147399500Y-98770338D01*
X147379498Y-98838459D01*
X147325842Y-98884952D01*
X147255568Y-98895056D01*
X147190988Y-98865562D01*
X147184405Y-98859433D01*
X144563141Y-96238170D01*
X144549027Y-96221352D01*
X144540031Y-96208503D01*
X144533395Y-96203856D01*
X144367029Y-96057953D01*
X144363599Y-96055661D01*
X144363595Y-96055658D01*
X144177430Y-95931264D01*
X144131903Y-95876787D01*
X144123056Y-95806344D01*
X144153697Y-95742300D01*
X144214100Y-95704989D01*
X144247433Y-95700500D01*
X144603575Y-95700500D01*
X144625451Y-95702414D01*
X144628935Y-95703028D01*
X144630030Y-95703221D01*
X144640891Y-95705136D01*
X144651748Y-95703221D01*
X144662770Y-95703221D01*
X144662770Y-95703780D01*
X144675029Y-95703190D01*
X144795154Y-95712643D01*
X144814681Y-95715736D01*
X144955508Y-95749545D01*
X144974308Y-95755654D01*
X145108106Y-95811074D01*
X145125716Y-95820046D01*
X145223486Y-95879959D01*
X145249209Y-95895722D01*
X145265203Y-95907343D01*
X145311304Y-95946717D01*
X145356808Y-95985581D01*
X145365075Y-95994683D01*
X145365469Y-95994289D01*
X145373264Y-96002084D01*
X145379587Y-96011115D01*
X145388616Y-96017437D01*
X145388617Y-96017438D01*
X145392432Y-96020109D01*
X145409257Y-96034228D01*
X145537080Y-96162051D01*
X145571106Y-96224363D01*
X145572434Y-96270857D01*
X145559899Y-96350000D01*
X145561450Y-96359793D01*
X145579273Y-96472320D01*
X145580984Y-96483126D01*
X145642175Y-96603220D01*
X145737483Y-96698528D01*
X145857577Y-96759719D01*
X145867366Y-96761269D01*
X145867368Y-96761270D01*
X145980910Y-96779253D01*
X145990703Y-96780804D01*
X146000496Y-96779253D01*
X146114038Y-96761270D01*
X146114040Y-96761269D01*
X146123829Y-96759719D01*
X146243923Y-96698528D01*
X146339231Y-96603220D01*
X146400422Y-96483126D01*
X146402134Y-96472320D01*
X146419956Y-96359793D01*
X146421507Y-96350000D01*
X146413359Y-96298557D01*
X146401973Y-96226665D01*
X146401972Y-96226663D01*
X146400422Y-96216874D01*
X146345392Y-96108871D01*
X146332288Y-96039095D01*
X146358988Y-95973311D01*
X146417015Y-95932404D01*
X146477368Y-95927220D01*
X146490205Y-95929253D01*
X146490207Y-95929253D01*
X146500000Y-95930804D01*
X146509793Y-95929253D01*
X146623335Y-95911270D01*
X146623337Y-95911269D01*
X146633126Y-95909719D01*
X146753220Y-95848528D01*
X146754027Y-95847721D01*
X146816307Y-95825499D01*
X146885458Y-95841580D01*
X146934939Y-95892494D01*
X146949500Y-95951294D01*
X146949500Y-96269748D01*
X146950707Y-96275816D01*
X146958653Y-96315761D01*
X146961133Y-96328231D01*
X147005448Y-96394552D01*
X147071769Y-96438867D01*
X147083938Y-96441288D01*
X147083939Y-96441288D01*
X147124184Y-96449293D01*
X147130252Y-96450500D01*
X149669748Y-96450500D01*
X149675816Y-96449293D01*
X149716061Y-96441288D01*
X149716062Y-96441288D01*
X149728231Y-96438867D01*
X149794552Y-96394552D01*
X149838867Y-96328231D01*
X149841348Y-96315761D01*
X149849293Y-96275816D01*
X149850500Y-96269748D01*
X149850500Y-93730252D01*
X149842883Y-93691959D01*
X149841288Y-93683939D01*
X149841288Y-93683938D01*
X149838867Y-93671769D01*
X149794552Y-93605448D01*
X149741124Y-93569748D01*
X149738547Y-93568026D01*
X149728231Y-93561133D01*
X149716061Y-93558712D01*
X149704595Y-93553963D01*
X149705403Y-93552011D01*
X149656624Y-93526497D01*
X149621492Y-93464802D01*
X149625291Y-93393908D01*
X149655019Y-93346729D01*
X149748528Y-93253220D01*
X149764213Y-93222437D01*
X149812958Y-93170823D01*
X149881873Y-93153756D01*
X149949075Y-93176655D01*
G37*
%TD.AperFunction*%
%TA.AperFunction,Conductor*%
G36*
X161391621Y-99120502D02*
G01*
X161438114Y-99174158D01*
X161449500Y-99226500D01*
X161449500Y-99453741D01*
X161429498Y-99521862D01*
X161375842Y-99568355D01*
X161343211Y-99578190D01*
X161276666Y-99588730D01*
X161276665Y-99588730D01*
X161266874Y-99590281D01*
X161146780Y-99651472D01*
X161051472Y-99746780D01*
X160990281Y-99866874D01*
X160988731Y-99876663D01*
X160988730Y-99876665D01*
X160976611Y-99953182D01*
X160969196Y-100000000D01*
X160970747Y-100009793D01*
X160986265Y-100107767D01*
X160990281Y-100133126D01*
X161051472Y-100253220D01*
X161146780Y-100348528D01*
X161266874Y-100409719D01*
X161276665Y-100411270D01*
X161276666Y-100411270D01*
X161343211Y-100421810D01*
X161407364Y-100452223D01*
X161444891Y-100512491D01*
X161449500Y-100546259D01*
X161449500Y-100569748D01*
X161450706Y-100575811D01*
X161450707Y-100575821D01*
X161455302Y-100598921D01*
X161448973Y-100669634D01*
X161405418Y-100725701D01*
X161331723Y-100749500D01*
X160530252Y-100749500D01*
X160524184Y-100750707D01*
X160483939Y-100758712D01*
X160483938Y-100758712D01*
X160471769Y-100761133D01*
X160405448Y-100805448D01*
X160361133Y-100871769D01*
X160358712Y-100883938D01*
X160358712Y-100883939D01*
X160351220Y-100921606D01*
X160318313Y-100984516D01*
X160256618Y-101019648D01*
X160185723Y-101015848D01*
X160170439Y-101009292D01*
X160141963Y-100994783D01*
X160141959Y-100994782D01*
X160133126Y-100990281D01*
X160123337Y-100988731D01*
X160123335Y-100988730D01*
X160009793Y-100970747D01*
X160000000Y-100969196D01*
X159947710Y-100977478D01*
X159877299Y-100968378D01*
X159822985Y-100922657D01*
X159801999Y-100853029D01*
X159801999Y-100302589D01*
X159801461Y-100294376D01*
X159787751Y-100190230D01*
X159783513Y-100174415D01*
X159729829Y-100044810D01*
X159721640Y-100030627D01*
X159636245Y-99919337D01*
X159624665Y-99907757D01*
X159513370Y-99822358D01*
X159499189Y-99814171D01*
X159369588Y-99760488D01*
X159353768Y-99756249D01*
X159311960Y-99750745D01*
X159297778Y-99752956D01*
X159294000Y-99766113D01*
X159294000Y-101549000D01*
X159273998Y-101617121D01*
X159220342Y-101663614D01*
X159168000Y-101675000D01*
X159070000Y-101675000D01*
X159001879Y-101654998D01*
X158955386Y-101601342D01*
X158944000Y-101549000D01*
X158944000Y-99766496D01*
X158939956Y-99752725D01*
X158926417Y-99750696D01*
X158884230Y-99756249D01*
X158868415Y-99760487D01*
X158738810Y-99814171D01*
X158724627Y-99822360D01*
X158613337Y-99907755D01*
X158601753Y-99919339D01*
X158539703Y-100000204D01*
X158482365Y-100042071D01*
X158439742Y-100049500D01*
X158280009Y-100049501D01*
X158269708Y-100049501D01*
X158266012Y-100049941D01*
X158266004Y-100049941D01*
X158253991Y-100051370D01*
X158253990Y-100051370D01*
X158244600Y-100052487D01*
X158238060Y-100055392D01*
X158168294Y-100054178D01*
X158109244Y-100014761D01*
X158080879Y-99949677D01*
X158089481Y-99885700D01*
X158131411Y-99784472D01*
X158140387Y-99766856D01*
X158231352Y-99618413D01*
X158242974Y-99602416D01*
X158340234Y-99488540D01*
X158349330Y-99480277D01*
X158348937Y-99479884D01*
X158356734Y-99472087D01*
X158365764Y-99465764D01*
X158372088Y-99456732D01*
X158379880Y-99448940D01*
X158380275Y-99449335D01*
X158388535Y-99440241D01*
X158413539Y-99418886D01*
X158478329Y-99389855D01*
X158552568Y-99402430D01*
X158566874Y-99409719D01*
X158700000Y-99430804D01*
X158709793Y-99429253D01*
X158823335Y-99411270D01*
X158823337Y-99411269D01*
X158833126Y-99409719D01*
X158953220Y-99348528D01*
X159048528Y-99253220D01*
X159089710Y-99172396D01*
X159138458Y-99120781D01*
X159192090Y-99103988D01*
X159202241Y-99103189D01*
X159214519Y-99103780D01*
X159214519Y-99103222D01*
X159225541Y-99103222D01*
X159236397Y-99105136D01*
X159247604Y-99103160D01*
X159251834Y-99102414D01*
X159273714Y-99100500D01*
X161323500Y-99100500D01*
X161391621Y-99120502D01*
G37*
%TD.AperFunction*%
%TA.AperFunction,Conductor*%
G36*
X155409012Y-96825833D02*
G01*
X155421227Y-96837974D01*
X155517110Y-96947300D01*
X155520233Y-96951760D01*
X155533072Y-96960749D01*
X155549895Y-96974866D01*
X156094861Y-97519832D01*
X156108982Y-97536660D01*
X156111649Y-97540470D01*
X156111651Y-97540472D01*
X156117972Y-97549500D01*
X156123496Y-97553368D01*
X156128637Y-97558079D01*
X156289425Y-97705415D01*
X156372420Y-97781467D01*
X156374605Y-97783143D01*
X156374609Y-97783147D01*
X156576639Y-97938171D01*
X156645550Y-97991049D01*
X156647862Y-97992522D01*
X156647865Y-97992524D01*
X156789740Y-98082909D01*
X156935908Y-98176029D01*
X156938341Y-98177296D01*
X156938347Y-98177299D01*
X157009321Y-98214246D01*
X157241282Y-98334999D01*
X157290411Y-98355349D01*
X157556816Y-98465700D01*
X157556829Y-98465705D01*
X157559350Y-98466749D01*
X157727702Y-98519831D01*
X157885066Y-98569449D01*
X157885074Y-98569451D01*
X157887690Y-98570276D01*
X157890377Y-98570872D01*
X157890378Y-98570872D01*
X158114409Y-98620540D01*
X158176586Y-98654812D01*
X158210363Y-98717259D01*
X158205017Y-98788054D01*
X158157140Y-98848318D01*
X158115766Y-98875963D01*
X158112672Y-98878677D01*
X158112666Y-98878681D01*
X158031944Y-98949473D01*
X157939470Y-99030571D01*
X157934236Y-99034236D01*
X157930578Y-99039460D01*
X157775962Y-99215766D01*
X157687254Y-99348528D01*
X157646318Y-99409793D01*
X157642185Y-99415978D01*
X157630220Y-99440241D01*
X157546108Y-99610803D01*
X157535685Y-99631938D01*
X157458284Y-99859952D01*
X157457481Y-99863988D01*
X157457479Y-99863996D01*
X157438583Y-99958993D01*
X157429389Y-100005218D01*
X157429191Y-100006211D01*
X157396283Y-100069121D01*
X157334588Y-100104253D01*
X157263694Y-100100453D01*
X157253286Y-100095170D01*
X157253029Y-100095751D01*
X157163568Y-100056200D01*
X157163567Y-100056200D01*
X157154902Y-100052369D01*
X157142521Y-100050926D01*
X157133934Y-100049924D01*
X157133926Y-100049924D01*
X157130293Y-100049500D01*
X157121862Y-100049500D01*
X156979259Y-100049501D01*
X156911139Y-100029499D01*
X156879297Y-100000205D01*
X156817245Y-99919337D01*
X156805665Y-99907757D01*
X156694370Y-99822358D01*
X156680189Y-99814171D01*
X156550588Y-99760488D01*
X156534768Y-99756249D01*
X156492960Y-99750745D01*
X156478778Y-99752956D01*
X156475000Y-99766113D01*
X156475000Y-101549000D01*
X156454998Y-101617121D01*
X156401342Y-101663614D01*
X156349000Y-101675000D01*
X155551000Y-101675000D01*
X155482879Y-101654998D01*
X155436386Y-101601342D01*
X155425000Y-101549000D01*
X155425000Y-101306885D01*
X155775000Y-101306885D01*
X155779475Y-101322124D01*
X155780865Y-101323329D01*
X155788548Y-101325000D01*
X156106885Y-101325000D01*
X156122124Y-101320525D01*
X156123329Y-101319135D01*
X156125000Y-101311452D01*
X156125000Y-99766496D01*
X156120956Y-99752725D01*
X156107417Y-99750696D01*
X156065230Y-99756249D01*
X156049415Y-99760487D01*
X155998218Y-99781693D01*
X155927628Y-99789282D01*
X155901782Y-99781693D01*
X155850588Y-99760488D01*
X155834768Y-99756249D01*
X155792960Y-99750745D01*
X155778778Y-99752956D01*
X155775000Y-99766113D01*
X155775000Y-101306885D01*
X155425000Y-101306885D01*
X155425000Y-99766496D01*
X155420956Y-99752725D01*
X155407417Y-99750696D01*
X155365232Y-99756249D01*
X155359107Y-99757890D01*
X155288130Y-99756198D01*
X155229336Y-99716401D01*
X155201391Y-99651136D01*
X155200500Y-99636182D01*
X155200500Y-96921057D01*
X155220502Y-96852936D01*
X155274158Y-96806443D01*
X155344432Y-96796339D01*
X155409012Y-96825833D01*
G37*
%TD.AperFunction*%
%TA.AperFunction,Conductor*%
G36*
X166079880Y-85284611D02*
G01*
X166136716Y-85327158D01*
X166161527Y-85393678D01*
X166156213Y-85439925D01*
X166149924Y-85460241D01*
X166149923Y-85460247D01*
X166148102Y-85466129D01*
X166147458Y-85472254D01*
X166147458Y-85472255D01*
X166131833Y-85620924D01*
X166126404Y-85672575D01*
X166126963Y-85678715D01*
X166144216Y-85868288D01*
X166145218Y-85879303D01*
X166146956Y-85885209D01*
X166146957Y-85885213D01*
X166178862Y-85993617D01*
X166203827Y-86078440D01*
X166299999Y-86262400D01*
X166303859Y-86267200D01*
X166303859Y-86267201D01*
X166333010Y-86303457D01*
X166430071Y-86424177D01*
X166589089Y-86557609D01*
X166594481Y-86560573D01*
X166594485Y-86560576D01*
X166706104Y-86621939D01*
X166770995Y-86657613D01*
X166968861Y-86720379D01*
X166974978Y-86721065D01*
X166974982Y-86721066D01*
X167051598Y-86729659D01*
X167130413Y-86738500D01*
X168342237Y-86738500D01*
X168345293Y-86738200D01*
X168345300Y-86738200D01*
X168490466Y-86723966D01*
X168490469Y-86723965D01*
X168496592Y-86723365D01*
X168628546Y-86683526D01*
X168689407Y-86665152D01*
X168689410Y-86665151D01*
X168695315Y-86663368D01*
X168702635Y-86659476D01*
X168794346Y-86610712D01*
X168863884Y-86596392D01*
X168930124Y-86621939D01*
X168972037Y-86679244D01*
X168979500Y-86721963D01*
X168979500Y-87560201D01*
X168959498Y-87628322D01*
X168905842Y-87674815D01*
X168835568Y-87684919D01*
X168796298Y-87672468D01*
X168741962Y-87644783D01*
X168741961Y-87644783D01*
X168733126Y-87640281D01*
X168723337Y-87638731D01*
X168723335Y-87638730D01*
X168609793Y-87620747D01*
X168600000Y-87619196D01*
X168590207Y-87620747D01*
X168476665Y-87638730D01*
X168476663Y-87638731D01*
X168466874Y-87640281D01*
X168346780Y-87701472D01*
X168251472Y-87796780D01*
X168190281Y-87916874D01*
X168188731Y-87926663D01*
X168188730Y-87926665D01*
X168172679Y-88028007D01*
X168169196Y-88050000D01*
X168170747Y-88059793D01*
X168183040Y-88137405D01*
X168190281Y-88183126D01*
X168251472Y-88303220D01*
X168346780Y-88398528D01*
X168466874Y-88459719D01*
X168476665Y-88461270D01*
X168476666Y-88461270D01*
X168549866Y-88472864D01*
X168614019Y-88503277D01*
X168651546Y-88563545D01*
X168655075Y-88580852D01*
X168655698Y-88585580D01*
X168656778Y-88602034D01*
X168656778Y-88603719D01*
X168654864Y-88614579D01*
X168656779Y-88625435D01*
X168656779Y-88625437D01*
X168657584Y-88629999D01*
X168659500Y-88651887D01*
X168659500Y-88926402D01*
X168639498Y-88994523D01*
X168585842Y-89041016D01*
X168515568Y-89051120D01*
X168476297Y-89038669D01*
X168419624Y-89009793D01*
X168398430Y-88998994D01*
X168388641Y-88997444D01*
X168388639Y-88997443D01*
X168275097Y-88979460D01*
X168265304Y-88977909D01*
X168255511Y-88979460D01*
X168141969Y-88997443D01*
X168141967Y-88997444D01*
X168132178Y-88998994D01*
X168012084Y-89060185D01*
X168005069Y-89067200D01*
X168004952Y-89067285D01*
X167938085Y-89091145D01*
X167868933Y-89075067D01*
X167854191Y-89065318D01*
X167844079Y-89057559D01*
X167834885Y-89049780D01*
X167834540Y-89049459D01*
X167826931Y-89038591D01*
X167826926Y-89038588D01*
X167826923Y-89038583D01*
X167814146Y-89029637D01*
X167804578Y-89022229D01*
X167777374Y-88998994D01*
X167726413Y-88955467D01*
X167615352Y-88887406D01*
X167610781Y-88885513D01*
X167610776Y-88885510D01*
X167499582Y-88839451D01*
X167495012Y-88837558D01*
X167490208Y-88836405D01*
X167490206Y-88836404D01*
X167373168Y-88808305D01*
X167373162Y-88808304D01*
X167368355Y-88807150D01*
X167334550Y-88804489D01*
X167309238Y-88802497D01*
X167300279Y-88801064D01*
X167297878Y-88800106D01*
X167291585Y-88799489D01*
X167275977Y-88799489D01*
X167266015Y-88799095D01*
X167265725Y-88799072D01*
X167253822Y-88797554D01*
X167238500Y-88794853D01*
X167227645Y-88796767D01*
X167223063Y-88797575D01*
X167201183Y-88799489D01*
X166770468Y-88799489D01*
X166748577Y-88797573D01*
X166744014Y-88796768D01*
X166733159Y-88794853D01*
X166722304Y-88796766D01*
X166714842Y-88798081D01*
X166705312Y-88799387D01*
X166679052Y-88801971D01*
X166617352Y-88808042D01*
X166611431Y-88809838D01*
X166611429Y-88809838D01*
X166511922Y-88840015D01*
X166511920Y-88840016D01*
X166505994Y-88841813D01*
X166500531Y-88844732D01*
X166500530Y-88844733D01*
X166475629Y-88858041D01*
X166403365Y-88896662D01*
X166398581Y-88900587D01*
X166398579Y-88900589D01*
X166349452Y-88940903D01*
X166284103Y-88968654D01*
X166269523Y-88969500D01*
X165112548Y-88969500D01*
X165044427Y-88949498D01*
X164997934Y-88895842D01*
X164987830Y-88825568D01*
X164990442Y-88814338D01*
X164992451Y-88810394D01*
X164994081Y-88800106D01*
X165011985Y-88687061D01*
X165013536Y-88677268D01*
X165006049Y-88629999D01*
X164994002Y-88553933D01*
X164994001Y-88553931D01*
X164992451Y-88544142D01*
X164931260Y-88424048D01*
X164920137Y-88412925D01*
X164886111Y-88350613D01*
X164883232Y-88323830D01*
X164883232Y-87577726D01*
X164885146Y-87555847D01*
X164885954Y-87551266D01*
X164887868Y-87540410D01*
X164885953Y-87529553D01*
X164885953Y-87518530D01*
X164886507Y-87518530D01*
X164885915Y-87506233D01*
X164892704Y-87419966D01*
X164895797Y-87400440D01*
X164921685Y-87292606D01*
X164927796Y-87273799D01*
X164936601Y-87252544D01*
X164970236Y-87171343D01*
X164979206Y-87153738D01*
X165037160Y-87059169D01*
X165048782Y-87043175D01*
X165104988Y-86977369D01*
X165114087Y-86969102D01*
X165113695Y-86968710D01*
X165121494Y-86960911D01*
X165130520Y-86954591D01*
X165139512Y-86941749D01*
X165153627Y-86924929D01*
X165190913Y-86887643D01*
X165253225Y-86853617D01*
X165260291Y-86852290D01*
X165337012Y-86840139D01*
X165350126Y-86838062D01*
X165350127Y-86838062D01*
X165359918Y-86836511D01*
X165480012Y-86775320D01*
X165575320Y-86680012D01*
X165636511Y-86559918D01*
X165640497Y-86534755D01*
X165656045Y-86436585D01*
X165657596Y-86426792D01*
X165651001Y-86385150D01*
X165638062Y-86303457D01*
X165638061Y-86303455D01*
X165636511Y-86293666D01*
X165575320Y-86173572D01*
X165574676Y-86172928D01*
X165552498Y-86110771D01*
X165552292Y-86103576D01*
X165552292Y-86039500D01*
X165554206Y-86017620D01*
X165557313Y-86000000D01*
X165555399Y-85989144D01*
X165555399Y-85978123D01*
X165556298Y-85978123D01*
X165555775Y-85964465D01*
X165563800Y-85882992D01*
X165564603Y-85874839D01*
X165569421Y-85850614D01*
X165601271Y-85745626D01*
X165602331Y-85742132D01*
X165611778Y-85719325D01*
X165665224Y-85619341D01*
X165678945Y-85598808D01*
X165736126Y-85529140D01*
X165746100Y-85519900D01*
X165745459Y-85519259D01*
X165753253Y-85511466D01*
X165762283Y-85505143D01*
X165772554Y-85490475D01*
X165786668Y-85473657D01*
X165946753Y-85313572D01*
X166009065Y-85279546D01*
X166079880Y-85284611D01*
G37*
%TD.AperFunction*%
%TD*%
M02*
