%TF.GenerationSoftware,KiCad,Pcbnew,(6.0.5-0)*%
%TF.CreationDate,2022-09-09T19:09:32+08:00*%
%TF.ProjectId,Nebula,4e656275-6c61-42e6-9b69-6361645f7063,rev?*%
%TF.SameCoordinates,Original*%
%TF.FileFunction,Legend,Top*%
%TF.FilePolarity,Positive*%
%FSLAX46Y46*%
G04 Gerber Fmt 4.6, Leading zero omitted, Abs format (unit mm)*
G04 Created by KiCad (PCBNEW (6.0.5-0)) date 2022-09-09 19:09:32*
%MOMM*%
%LPD*%
G01*
G04 APERTURE LIST*
%ADD10C,0.150000*%
%ADD11C,0.200000*%
%ADD12C,0.125000*%
%ADD13C,0.120000*%
%ADD14C,0.010000*%
G04 APERTURE END LIST*
D10*
X151809523Y-79252380D02*
X151476190Y-78776190D01*
X151238095Y-79252380D02*
X151238095Y-78252380D01*
X151619047Y-78252380D01*
X151714285Y-78300000D01*
X151761904Y-78347619D01*
X151809523Y-78442857D01*
X151809523Y-78585714D01*
X151761904Y-78680952D01*
X151714285Y-78728571D01*
X151619047Y-78776190D01*
X151238095Y-78776190D01*
X152761904Y-79252380D02*
X152190476Y-79252380D01*
X152476190Y-79252380D02*
X152476190Y-78252380D01*
X152380952Y-78395238D01*
X152285714Y-78490476D01*
X152190476Y-78538095D01*
X153952380Y-78871428D02*
X154714285Y-78871428D01*
X156523809Y-79157142D02*
X156476190Y-79204761D01*
X156333333Y-79252380D01*
X156238095Y-79252380D01*
X156095238Y-79204761D01*
X156000000Y-79109523D01*
X155952380Y-79014285D01*
X155904761Y-78823809D01*
X155904761Y-78680952D01*
X155952380Y-78490476D01*
X156000000Y-78395238D01*
X156095238Y-78300000D01*
X156238095Y-78252380D01*
X156333333Y-78252380D01*
X156476190Y-78300000D01*
X156523809Y-78347619D01*
X156952380Y-79252380D02*
X156952380Y-78252380D01*
X157380952Y-79252380D02*
X157380952Y-78728571D01*
X157333333Y-78633333D01*
X157238095Y-78585714D01*
X157095238Y-78585714D01*
X157000000Y-78633333D01*
X156952380Y-78680952D01*
X158285714Y-79252380D02*
X158285714Y-78728571D01*
X158238095Y-78633333D01*
X158142857Y-78585714D01*
X157952380Y-78585714D01*
X157857142Y-78633333D01*
X158285714Y-79204761D02*
X158190476Y-79252380D01*
X157952380Y-79252380D01*
X157857142Y-79204761D01*
X157809523Y-79109523D01*
X157809523Y-79014285D01*
X157857142Y-78919047D01*
X157952380Y-78871428D01*
X158190476Y-78871428D01*
X158285714Y-78823809D01*
X158761904Y-79252380D02*
X158761904Y-78585714D01*
X158761904Y-78776190D02*
X158809523Y-78680952D01*
X158857142Y-78633333D01*
X158952380Y-78585714D01*
X159047619Y-78585714D01*
X159809523Y-78585714D02*
X159809523Y-79395238D01*
X159761904Y-79490476D01*
X159714285Y-79538095D01*
X159619047Y-79585714D01*
X159476190Y-79585714D01*
X159380952Y-79538095D01*
X159809523Y-79204761D02*
X159714285Y-79252380D01*
X159523809Y-79252380D01*
X159428571Y-79204761D01*
X159380952Y-79157142D01*
X159333333Y-79061904D01*
X159333333Y-78776190D01*
X159380952Y-78680952D01*
X159428571Y-78633333D01*
X159523809Y-78585714D01*
X159714285Y-78585714D01*
X159809523Y-78633333D01*
X160666666Y-79204761D02*
X160571428Y-79252380D01*
X160380952Y-79252380D01*
X160285714Y-79204761D01*
X160238095Y-79109523D01*
X160238095Y-78728571D01*
X160285714Y-78633333D01*
X160380952Y-78585714D01*
X160571428Y-78585714D01*
X160666666Y-78633333D01*
X160714285Y-78728571D01*
X160714285Y-78823809D01*
X160238095Y-78919047D01*
X162333333Y-79204761D02*
X162238095Y-79252380D01*
X162047619Y-79252380D01*
X161952380Y-79204761D01*
X161904761Y-79157142D01*
X161857142Y-79061904D01*
X161857142Y-78776190D01*
X161904761Y-78680952D01*
X161952380Y-78633333D01*
X162047619Y-78585714D01*
X162238095Y-78585714D01*
X162333333Y-78633333D01*
X163190476Y-78585714D02*
X163190476Y-79252380D01*
X162761904Y-78585714D02*
X162761904Y-79109523D01*
X162809523Y-79204761D01*
X162904761Y-79252380D01*
X163047619Y-79252380D01*
X163142857Y-79204761D01*
X163190476Y-79157142D01*
X163666666Y-79252380D02*
X163666666Y-78585714D01*
X163666666Y-78776190D02*
X163714285Y-78680952D01*
X163761904Y-78633333D01*
X163857142Y-78585714D01*
X163952380Y-78585714D01*
X164285714Y-79252380D02*
X164285714Y-78585714D01*
X164285714Y-78776190D02*
X164333333Y-78680952D01*
X164380952Y-78633333D01*
X164476190Y-78585714D01*
X164571428Y-78585714D01*
X165285714Y-79204761D02*
X165190476Y-79252380D01*
X165000000Y-79252380D01*
X164904761Y-79204761D01*
X164857142Y-79109523D01*
X164857142Y-78728571D01*
X164904761Y-78633333D01*
X165000000Y-78585714D01*
X165190476Y-78585714D01*
X165285714Y-78633333D01*
X165333333Y-78728571D01*
X165333333Y-78823809D01*
X164857142Y-78919047D01*
X165761904Y-78585714D02*
X165761904Y-79252380D01*
X165761904Y-78680952D02*
X165809523Y-78633333D01*
X165904761Y-78585714D01*
X166047619Y-78585714D01*
X166142857Y-78633333D01*
X166190476Y-78728571D01*
X166190476Y-79252380D01*
X166523809Y-78585714D02*
X166904761Y-78585714D01*
X166666666Y-78252380D02*
X166666666Y-79109523D01*
X166714285Y-79204761D01*
X166809523Y-79252380D01*
X166904761Y-79252380D01*
X167952380Y-79204761D02*
X168047619Y-79252380D01*
X168238095Y-79252380D01*
X168333333Y-79204761D01*
X168380952Y-79109523D01*
X168380952Y-79061904D01*
X168333333Y-78966666D01*
X168238095Y-78919047D01*
X168095238Y-78919047D01*
X168000000Y-78871428D01*
X167952380Y-78776190D01*
X167952380Y-78728571D01*
X168000000Y-78633333D01*
X168095238Y-78585714D01*
X168238095Y-78585714D01*
X168333333Y-78633333D01*
X169190476Y-79204761D02*
X169095238Y-79252380D01*
X168904761Y-79252380D01*
X168809523Y-79204761D01*
X168761904Y-79109523D01*
X168761904Y-78728571D01*
X168809523Y-78633333D01*
X168904761Y-78585714D01*
X169095238Y-78585714D01*
X169190476Y-78633333D01*
X169238095Y-78728571D01*
X169238095Y-78823809D01*
X168761904Y-78919047D01*
X169523809Y-78585714D02*
X169904761Y-78585714D01*
X169666666Y-78252380D02*
X169666666Y-79109523D01*
X169714285Y-79204761D01*
X169809523Y-79252380D01*
X169904761Y-79252380D01*
D11*
X138300000Y-84176857D02*
X138300000Y-82976857D01*
X138585714Y-82976857D01*
X138757142Y-83034000D01*
X138871428Y-83148285D01*
X138928571Y-83262571D01*
X138985714Y-83491142D01*
X138985714Y-83662571D01*
X138928571Y-83891142D01*
X138871428Y-84005428D01*
X138757142Y-84119714D01*
X138585714Y-84176857D01*
X138300000Y-84176857D01*
X139957142Y-84119714D02*
X139842857Y-84176857D01*
X139614285Y-84176857D01*
X139500000Y-84119714D01*
X139442857Y-84005428D01*
X139442857Y-83548285D01*
X139500000Y-83434000D01*
X139614285Y-83376857D01*
X139842857Y-83376857D01*
X139957142Y-83434000D01*
X140014285Y-83548285D01*
X140014285Y-83662571D01*
X139442857Y-83776857D01*
X140471428Y-84119714D02*
X140585714Y-84176857D01*
X140814285Y-84176857D01*
X140928571Y-84119714D01*
X140985714Y-84005428D01*
X140985714Y-83948285D01*
X140928571Y-83834000D01*
X140814285Y-83776857D01*
X140642857Y-83776857D01*
X140528571Y-83719714D01*
X140471428Y-83605428D01*
X140471428Y-83548285D01*
X140528571Y-83434000D01*
X140642857Y-83376857D01*
X140814285Y-83376857D01*
X140928571Y-83434000D01*
X141500000Y-84176857D02*
X141500000Y-83376857D01*
X141500000Y-82976857D02*
X141442857Y-83034000D01*
X141500000Y-83091142D01*
X141557142Y-83034000D01*
X141500000Y-82976857D01*
X141500000Y-83091142D01*
X142585714Y-83376857D02*
X142585714Y-84348285D01*
X142528571Y-84462571D01*
X142471428Y-84519714D01*
X142357142Y-84576857D01*
X142185714Y-84576857D01*
X142071428Y-84519714D01*
X142585714Y-84119714D02*
X142471428Y-84176857D01*
X142242857Y-84176857D01*
X142128571Y-84119714D01*
X142071428Y-84062571D01*
X142014285Y-83948285D01*
X142014285Y-83605428D01*
X142071428Y-83491142D01*
X142128571Y-83434000D01*
X142242857Y-83376857D01*
X142471428Y-83376857D01*
X142585714Y-83434000D01*
X143157142Y-83376857D02*
X143157142Y-84176857D01*
X143157142Y-83491142D02*
X143214285Y-83434000D01*
X143328571Y-83376857D01*
X143500000Y-83376857D01*
X143614285Y-83434000D01*
X143671428Y-83548285D01*
X143671428Y-84176857D01*
X144700000Y-84119714D02*
X144585714Y-84176857D01*
X144357142Y-84176857D01*
X144242857Y-84119714D01*
X144185714Y-84005428D01*
X144185714Y-83548285D01*
X144242857Y-83434000D01*
X144357142Y-83376857D01*
X144585714Y-83376857D01*
X144700000Y-83434000D01*
X144757142Y-83548285D01*
X144757142Y-83662571D01*
X144185714Y-83776857D01*
X145785714Y-84176857D02*
X145785714Y-82976857D01*
X145785714Y-84119714D02*
X145671428Y-84176857D01*
X145442857Y-84176857D01*
X145328571Y-84119714D01*
X145271428Y-84062571D01*
X145214285Y-83948285D01*
X145214285Y-83605428D01*
X145271428Y-83491142D01*
X145328571Y-83434000D01*
X145442857Y-83376857D01*
X145671428Y-83376857D01*
X145785714Y-83434000D01*
X147271428Y-84176857D02*
X147271428Y-82976857D01*
X147271428Y-83434000D02*
X147385714Y-83376857D01*
X147614285Y-83376857D01*
X147728571Y-83434000D01*
X147785714Y-83491142D01*
X147842857Y-83605428D01*
X147842857Y-83948285D01*
X147785714Y-84062571D01*
X147728571Y-84119714D01*
X147614285Y-84176857D01*
X147385714Y-84176857D01*
X147271428Y-84119714D01*
X148242857Y-83376857D02*
X148528571Y-84176857D01*
X148814285Y-83376857D02*
X148528571Y-84176857D01*
X148414285Y-84462571D01*
X148357142Y-84519714D01*
X148242857Y-84576857D01*
X137500000Y-86108857D02*
X137500000Y-84908857D01*
X138185714Y-86108857D01*
X138185714Y-84908857D01*
X138757142Y-86108857D02*
X138757142Y-85308857D01*
X138757142Y-84908857D02*
X138700000Y-84966000D01*
X138757142Y-85023142D01*
X138814285Y-84966000D01*
X138757142Y-84908857D01*
X138757142Y-85023142D01*
X139842857Y-86051714D02*
X139728571Y-86108857D01*
X139500000Y-86108857D01*
X139385714Y-86051714D01*
X139328571Y-85994571D01*
X139271428Y-85880285D01*
X139271428Y-85537428D01*
X139328571Y-85423142D01*
X139385714Y-85366000D01*
X139500000Y-85308857D01*
X139728571Y-85308857D01*
X139842857Y-85366000D01*
X140357142Y-86108857D02*
X140357142Y-84908857D01*
X140871428Y-86108857D02*
X140871428Y-85480285D01*
X140814285Y-85366000D01*
X140700000Y-85308857D01*
X140528571Y-85308857D01*
X140414285Y-85366000D01*
X140357142Y-85423142D01*
X141614285Y-86108857D02*
X141500000Y-86051714D01*
X141442857Y-85994571D01*
X141385714Y-85880285D01*
X141385714Y-85537428D01*
X141442857Y-85423142D01*
X141500000Y-85366000D01*
X141614285Y-85308857D01*
X141785714Y-85308857D01*
X141900000Y-85366000D01*
X141957142Y-85423142D01*
X142014285Y-85537428D01*
X142014285Y-85880285D01*
X141957142Y-85994571D01*
X141900000Y-86051714D01*
X141785714Y-86108857D01*
X141614285Y-86108857D01*
X142700000Y-86108857D02*
X142585714Y-86051714D01*
X142528571Y-85937428D01*
X142528571Y-84908857D01*
X143671428Y-86108857D02*
X143671428Y-85480285D01*
X143614285Y-85366000D01*
X143500000Y-85308857D01*
X143271428Y-85308857D01*
X143157142Y-85366000D01*
X143671428Y-86051714D02*
X143557142Y-86108857D01*
X143271428Y-86108857D01*
X143157142Y-86051714D01*
X143100000Y-85937428D01*
X143100000Y-85823142D01*
X143157142Y-85708857D01*
X143271428Y-85651714D01*
X143557142Y-85651714D01*
X143671428Y-85594571D01*
X144185714Y-86051714D02*
X144300000Y-86108857D01*
X144528571Y-86108857D01*
X144642857Y-86051714D01*
X144700000Y-85937428D01*
X144700000Y-85880285D01*
X144642857Y-85766000D01*
X144528571Y-85708857D01*
X144357142Y-85708857D01*
X144242857Y-85651714D01*
X144185714Y-85537428D01*
X144185714Y-85480285D01*
X144242857Y-85366000D01*
X144357142Y-85308857D01*
X144528571Y-85308857D01*
X144642857Y-85366000D01*
X146757142Y-84966000D02*
X146642857Y-84908857D01*
X146471428Y-84908857D01*
X146300000Y-84966000D01*
X146185714Y-85080285D01*
X146128571Y-85194571D01*
X146071428Y-85423142D01*
X146071428Y-85594571D01*
X146128571Y-85823142D01*
X146185714Y-85937428D01*
X146300000Y-86051714D01*
X146471428Y-86108857D01*
X146585714Y-86108857D01*
X146757142Y-86051714D01*
X146814285Y-85994571D01*
X146814285Y-85594571D01*
X146585714Y-85594571D01*
X147328571Y-86108857D02*
X147328571Y-85308857D01*
X147328571Y-85537428D02*
X147385714Y-85423142D01*
X147442857Y-85366000D01*
X147557142Y-85308857D01*
X147671428Y-85308857D01*
X148585714Y-86108857D02*
X148585714Y-85480285D01*
X148528571Y-85366000D01*
X148414285Y-85308857D01*
X148185714Y-85308857D01*
X148071428Y-85366000D01*
X148585714Y-86051714D02*
X148471428Y-86108857D01*
X148185714Y-86108857D01*
X148071428Y-86051714D01*
X148014285Y-85937428D01*
X148014285Y-85823142D01*
X148071428Y-85708857D01*
X148185714Y-85651714D01*
X148471428Y-85651714D01*
X148585714Y-85594571D01*
X149042857Y-85308857D02*
X149328571Y-86108857D01*
X149614285Y-85308857D02*
X149328571Y-86108857D01*
X149214285Y-86394571D01*
X149157142Y-86451714D01*
X149042857Y-86508857D01*
D12*
X165155000Y-104361904D02*
X165202619Y-104266666D01*
X165202619Y-104123809D01*
X165155000Y-103980952D01*
X165059761Y-103885714D01*
X164964523Y-103838095D01*
X164774047Y-103790476D01*
X164631190Y-103790476D01*
X164440714Y-103838095D01*
X164345476Y-103885714D01*
X164250238Y-103980952D01*
X164202619Y-104123809D01*
X164202619Y-104219047D01*
X164250238Y-104361904D01*
X164297857Y-104409523D01*
X164631190Y-104409523D01*
X164631190Y-104219047D01*
X164202619Y-104838095D02*
X165202619Y-104838095D01*
X164202619Y-105409523D01*
X165202619Y-105409523D01*
X164202619Y-105885714D02*
X165202619Y-105885714D01*
X165202619Y-106123809D01*
X165155000Y-106266666D01*
X165059761Y-106361904D01*
X164964523Y-106409523D01*
X164774047Y-106457142D01*
X164631190Y-106457142D01*
X164440714Y-106409523D01*
X164345476Y-106361904D01*
X164250238Y-106266666D01*
X164202619Y-106123809D01*
X164202619Y-105885714D01*
X164202619Y-107409523D02*
X164202619Y-106838095D01*
X164202619Y-107123809D02*
X165202619Y-107123809D01*
X165059761Y-107028571D01*
X164964523Y-106933333D01*
X164916904Y-106838095D01*
X162592619Y-104457142D02*
X162592619Y-103980952D01*
X163592619Y-103980952D01*
X163116428Y-104790476D02*
X163116428Y-105123809D01*
X162592619Y-105266666D02*
X162592619Y-104790476D01*
X163592619Y-104790476D01*
X163592619Y-105266666D01*
X162592619Y-105695238D02*
X163592619Y-105695238D01*
X163592619Y-105933333D01*
X163545000Y-106076190D01*
X163449761Y-106171428D01*
X163354523Y-106219047D01*
X163164047Y-106266666D01*
X163021190Y-106266666D01*
X162830714Y-106219047D01*
X162735476Y-106171428D01*
X162640238Y-106076190D01*
X162592619Y-105933333D01*
X162592619Y-105695238D01*
X162592619Y-106695238D02*
X163592619Y-106695238D01*
X162592619Y-107266666D02*
X163164047Y-106838095D01*
X163592619Y-107266666D02*
X163021190Y-106695238D01*
X160982619Y-104528571D02*
X160982619Y-104052380D01*
X161982619Y-104052380D01*
X161506428Y-104861904D02*
X161506428Y-105195238D01*
X160982619Y-105338095D02*
X160982619Y-104861904D01*
X161982619Y-104861904D01*
X161982619Y-105338095D01*
X160982619Y-105766666D02*
X161982619Y-105766666D01*
X161982619Y-106004761D01*
X161935000Y-106147619D01*
X161839761Y-106242857D01*
X161744523Y-106290476D01*
X161554047Y-106338095D01*
X161411190Y-106338095D01*
X161220714Y-106290476D01*
X161125476Y-106242857D01*
X161030238Y-106147619D01*
X160982619Y-106004761D01*
X160982619Y-105766666D01*
X161268333Y-106719047D02*
X161268333Y-107195238D01*
X160982619Y-106623809D02*
X161982619Y-106957142D01*
X160982619Y-107290476D01*
X160372619Y-104266666D02*
X159372619Y-104600000D01*
X160372619Y-104933333D01*
X159372619Y-105266666D02*
X160372619Y-105266666D01*
X160372619Y-105504761D01*
X160325000Y-105647619D01*
X160229761Y-105742857D01*
X160134523Y-105790476D01*
X159944047Y-105838095D01*
X159801190Y-105838095D01*
X159610714Y-105790476D01*
X159515476Y-105742857D01*
X159420238Y-105647619D01*
X159372619Y-105504761D01*
X159372619Y-105266666D01*
X159372619Y-106266666D02*
X160372619Y-106266666D01*
X160372619Y-106504761D01*
X160325000Y-106647619D01*
X160229761Y-106742857D01*
X160134523Y-106790476D01*
X159944047Y-106838095D01*
X159801190Y-106838095D01*
X159610714Y-106790476D01*
X159515476Y-106742857D01*
X159420238Y-106647619D01*
X159372619Y-106504761D01*
X159372619Y-106266666D01*
X158715000Y-104361904D02*
X158762619Y-104266666D01*
X158762619Y-104123809D01*
X158715000Y-103980952D01*
X158619761Y-103885714D01*
X158524523Y-103838095D01*
X158334047Y-103790476D01*
X158191190Y-103790476D01*
X158000714Y-103838095D01*
X157905476Y-103885714D01*
X157810238Y-103980952D01*
X157762619Y-104123809D01*
X157762619Y-104219047D01*
X157810238Y-104361904D01*
X157857857Y-104409523D01*
X158191190Y-104409523D01*
X158191190Y-104219047D01*
X157762619Y-104838095D02*
X158762619Y-104838095D01*
X157762619Y-105409523D01*
X158762619Y-105409523D01*
X157762619Y-105885714D02*
X158762619Y-105885714D01*
X158762619Y-106123809D01*
X158715000Y-106266666D01*
X158619761Y-106361904D01*
X158524523Y-106409523D01*
X158334047Y-106457142D01*
X158191190Y-106457142D01*
X158000714Y-106409523D01*
X157905476Y-106361904D01*
X157810238Y-106266666D01*
X157762619Y-106123809D01*
X157762619Y-105885714D01*
X158667380Y-106838095D02*
X158715000Y-106885714D01*
X158762619Y-106980952D01*
X158762619Y-107219047D01*
X158715000Y-107314285D01*
X158667380Y-107361904D01*
X158572142Y-107409523D01*
X158476904Y-107409523D01*
X158334047Y-107361904D01*
X157762619Y-106790476D01*
X157762619Y-107409523D01*
X157105000Y-104361904D02*
X157152619Y-104266666D01*
X157152619Y-104123809D01*
X157105000Y-103980952D01*
X157009761Y-103885714D01*
X156914523Y-103838095D01*
X156724047Y-103790476D01*
X156581190Y-103790476D01*
X156390714Y-103838095D01*
X156295476Y-103885714D01*
X156200238Y-103980952D01*
X156152619Y-104123809D01*
X156152619Y-104219047D01*
X156200238Y-104361904D01*
X156247857Y-104409523D01*
X156581190Y-104409523D01*
X156581190Y-104219047D01*
X156152619Y-104838095D02*
X157152619Y-104838095D01*
X156152619Y-105409523D01*
X157152619Y-105409523D01*
X156152619Y-105885714D02*
X157152619Y-105885714D01*
X157152619Y-106123809D01*
X157105000Y-106266666D01*
X157009761Y-106361904D01*
X156914523Y-106409523D01*
X156724047Y-106457142D01*
X156581190Y-106457142D01*
X156390714Y-106409523D01*
X156295476Y-106361904D01*
X156200238Y-106266666D01*
X156152619Y-106123809D01*
X156152619Y-105885714D01*
X157152619Y-106790476D02*
X157152619Y-107409523D01*
X156771666Y-107076190D01*
X156771666Y-107219047D01*
X156724047Y-107314285D01*
X156676428Y-107361904D01*
X156581190Y-107409523D01*
X156343095Y-107409523D01*
X156247857Y-107361904D01*
X156200238Y-107314285D01*
X156152619Y-107219047D01*
X156152619Y-106933333D01*
X156200238Y-106838095D01*
X156247857Y-106790476D01*
X154542619Y-104314285D02*
X155542619Y-104314285D01*
X155542619Y-104552380D01*
X155495000Y-104695238D01*
X155399761Y-104790476D01*
X155304523Y-104838095D01*
X155114047Y-104885714D01*
X154971190Y-104885714D01*
X154780714Y-104838095D01*
X154685476Y-104790476D01*
X154590238Y-104695238D01*
X154542619Y-104552380D01*
X154542619Y-104314285D01*
X155590238Y-106028571D02*
X154304523Y-105171428D01*
X154637857Y-106933333D02*
X154590238Y-106885714D01*
X154542619Y-106742857D01*
X154542619Y-106647619D01*
X154590238Y-106504761D01*
X154685476Y-106409523D01*
X154780714Y-106361904D01*
X154971190Y-106314285D01*
X155114047Y-106314285D01*
X155304523Y-106361904D01*
X155399761Y-106409523D01*
X155495000Y-106504761D01*
X155542619Y-106647619D01*
X155542619Y-106742857D01*
X155495000Y-106885714D01*
X155447380Y-106933333D01*
X153027857Y-105433333D02*
X152980238Y-105385714D01*
X152932619Y-105242857D01*
X152932619Y-105147619D01*
X152980238Y-105004761D01*
X153075476Y-104909523D01*
X153170714Y-104861904D01*
X153361190Y-104814285D01*
X153504047Y-104814285D01*
X153694523Y-104861904D01*
X153789761Y-104909523D01*
X153885000Y-105004761D01*
X153932619Y-105147619D01*
X153932619Y-105242857D01*
X153885000Y-105385714D01*
X153837380Y-105433333D01*
X152980238Y-105814285D02*
X152932619Y-105957142D01*
X152932619Y-106195238D01*
X152980238Y-106290476D01*
X153027857Y-106338095D01*
X153123095Y-106385714D01*
X153218333Y-106385714D01*
X153313571Y-106338095D01*
X153361190Y-106290476D01*
X153408809Y-106195238D01*
X153456428Y-106004761D01*
X153504047Y-105909523D01*
X153551666Y-105861904D01*
X153646904Y-105814285D01*
X153742142Y-105814285D01*
X153837380Y-105861904D01*
X153885000Y-105909523D01*
X153932619Y-106004761D01*
X153932619Y-106242857D01*
X153885000Y-106385714D01*
X151370238Y-104409523D02*
X151322619Y-104552380D01*
X151322619Y-104790476D01*
X151370238Y-104885714D01*
X151417857Y-104933333D01*
X151513095Y-104980952D01*
X151608333Y-104980952D01*
X151703571Y-104933333D01*
X151751190Y-104885714D01*
X151798809Y-104790476D01*
X151846428Y-104600000D01*
X151894047Y-104504761D01*
X151941666Y-104457142D01*
X152036904Y-104409523D01*
X152132142Y-104409523D01*
X152227380Y-104457142D01*
X152275000Y-104504761D01*
X152322619Y-104600000D01*
X152322619Y-104838095D01*
X152275000Y-104980952D01*
X151417857Y-105980952D02*
X151370238Y-105933333D01*
X151322619Y-105790476D01*
X151322619Y-105695238D01*
X151370238Y-105552380D01*
X151465476Y-105457142D01*
X151560714Y-105409523D01*
X151751190Y-105361904D01*
X151894047Y-105361904D01*
X152084523Y-105409523D01*
X152179761Y-105457142D01*
X152275000Y-105552380D01*
X152322619Y-105695238D01*
X152322619Y-105790476D01*
X152275000Y-105933333D01*
X152227380Y-105980952D01*
X151322619Y-106885714D02*
X151322619Y-106409523D01*
X152322619Y-106409523D01*
X149760238Y-104385714D02*
X149712619Y-104528571D01*
X149712619Y-104766666D01*
X149760238Y-104861904D01*
X149807857Y-104909523D01*
X149903095Y-104957142D01*
X149998333Y-104957142D01*
X150093571Y-104909523D01*
X150141190Y-104861904D01*
X150188809Y-104766666D01*
X150236428Y-104576190D01*
X150284047Y-104480952D01*
X150331666Y-104433333D01*
X150426904Y-104385714D01*
X150522142Y-104385714D01*
X150617380Y-104433333D01*
X150665000Y-104480952D01*
X150712619Y-104576190D01*
X150712619Y-104814285D01*
X150665000Y-104957142D01*
X149712619Y-105385714D02*
X150712619Y-105385714D01*
X150712619Y-105623809D01*
X150665000Y-105766666D01*
X150569761Y-105861904D01*
X150474523Y-105909523D01*
X150284047Y-105957142D01*
X150141190Y-105957142D01*
X149950714Y-105909523D01*
X149855476Y-105861904D01*
X149760238Y-105766666D01*
X149712619Y-105623809D01*
X149712619Y-105385714D01*
X149998333Y-106338095D02*
X149998333Y-106814285D01*
X149712619Y-106242857D02*
X150712619Y-106576190D01*
X149712619Y-106909523D01*
X148102619Y-104980952D02*
X148578809Y-104647619D01*
X148102619Y-104409523D02*
X149102619Y-104409523D01*
X149102619Y-104790476D01*
X149055000Y-104885714D01*
X149007380Y-104933333D01*
X148912142Y-104980952D01*
X148769285Y-104980952D01*
X148674047Y-104933333D01*
X148626428Y-104885714D01*
X148578809Y-104790476D01*
X148578809Y-104409523D01*
X148626428Y-105409523D02*
X148626428Y-105742857D01*
X148102619Y-105885714D02*
X148102619Y-105409523D01*
X149102619Y-105409523D01*
X149102619Y-105885714D01*
X148150238Y-106266666D02*
X148102619Y-106409523D01*
X148102619Y-106647619D01*
X148150238Y-106742857D01*
X148197857Y-106790476D01*
X148293095Y-106838095D01*
X148388333Y-106838095D01*
X148483571Y-106790476D01*
X148531190Y-106742857D01*
X148578809Y-106647619D01*
X148626428Y-106457142D01*
X148674047Y-106361904D01*
X148721666Y-106314285D01*
X148816904Y-106266666D01*
X148912142Y-106266666D01*
X149007380Y-106314285D01*
X149055000Y-106361904D01*
X149102619Y-106457142D01*
X149102619Y-106695238D01*
X149055000Y-106838095D01*
X147445000Y-104361904D02*
X147492619Y-104266666D01*
X147492619Y-104123809D01*
X147445000Y-103980952D01*
X147349761Y-103885714D01*
X147254523Y-103838095D01*
X147064047Y-103790476D01*
X146921190Y-103790476D01*
X146730714Y-103838095D01*
X146635476Y-103885714D01*
X146540238Y-103980952D01*
X146492619Y-104123809D01*
X146492619Y-104219047D01*
X146540238Y-104361904D01*
X146587857Y-104409523D01*
X146921190Y-104409523D01*
X146921190Y-104219047D01*
X146492619Y-104838095D02*
X147492619Y-104838095D01*
X146492619Y-105409523D01*
X147492619Y-105409523D01*
X146492619Y-105885714D02*
X147492619Y-105885714D01*
X147492619Y-106123809D01*
X147445000Y-106266666D01*
X147349761Y-106361904D01*
X147254523Y-106409523D01*
X147064047Y-106457142D01*
X146921190Y-106457142D01*
X146730714Y-106409523D01*
X146635476Y-106361904D01*
X146540238Y-106266666D01*
X146492619Y-106123809D01*
X146492619Y-105885714D01*
X147159285Y-107314285D02*
X146492619Y-107314285D01*
X147540238Y-107076190D02*
X146825952Y-106838095D01*
X146825952Y-107457142D01*
D10*
X141542631Y-91771428D02*
X142304536Y-91771428D01*
X141923584Y-92152380D02*
X141923584Y-91390476D01*
X151847619Y-79927619D02*
X151895238Y-79880000D01*
X151990476Y-79832380D01*
X152228571Y-79832380D01*
X152323809Y-79880000D01*
X152371428Y-79927619D01*
X152419047Y-80022857D01*
X152419047Y-80118095D01*
X152371428Y-80260952D01*
X151800000Y-80832380D01*
X152419047Y-80832380D01*
X152847619Y-80832380D02*
X152847619Y-79832380D01*
X153419047Y-80832380D02*
X152990476Y-80260952D01*
X153419047Y-79832380D02*
X152847619Y-80403809D01*
X153847619Y-80308571D02*
X154609523Y-80308571D01*
X154609523Y-80594285D02*
X153847619Y-80594285D01*
X155561904Y-79832380D02*
X155085714Y-79832380D01*
X155038095Y-80308571D01*
X155085714Y-80260952D01*
X155180952Y-80213333D01*
X155419047Y-80213333D01*
X155514285Y-80260952D01*
X155561904Y-80308571D01*
X155609523Y-80403809D01*
X155609523Y-80641904D01*
X155561904Y-80737142D01*
X155514285Y-80784761D01*
X155419047Y-80832380D01*
X155180952Y-80832380D01*
X155085714Y-80784761D01*
X155038095Y-80737142D01*
X156228571Y-79832380D02*
X156323809Y-79832380D01*
X156419047Y-79880000D01*
X156466666Y-79927619D01*
X156514285Y-80022857D01*
X156561904Y-80213333D01*
X156561904Y-80451428D01*
X156514285Y-80641904D01*
X156466666Y-80737142D01*
X156419047Y-80784761D01*
X156323809Y-80832380D01*
X156228571Y-80832380D01*
X156133333Y-80784761D01*
X156085714Y-80737142D01*
X156038095Y-80641904D01*
X155990476Y-80451428D01*
X155990476Y-80213333D01*
X156038095Y-80022857D01*
X156085714Y-79927619D01*
X156133333Y-79880000D01*
X156228571Y-79832380D01*
X157180952Y-79832380D02*
X157276190Y-79832380D01*
X157371428Y-79880000D01*
X157419047Y-79927619D01*
X157466666Y-80022857D01*
X157514285Y-80213333D01*
X157514285Y-80451428D01*
X157466666Y-80641904D01*
X157419047Y-80737142D01*
X157371428Y-80784761D01*
X157276190Y-80832380D01*
X157180952Y-80832380D01*
X157085714Y-80784761D01*
X157038095Y-80737142D01*
X156990476Y-80641904D01*
X156942857Y-80451428D01*
X156942857Y-80213333D01*
X156990476Y-80022857D01*
X157038095Y-79927619D01*
X157085714Y-79880000D01*
X157180952Y-79832380D01*
X157942857Y-80832380D02*
X157942857Y-80165714D01*
X157942857Y-80260952D02*
X157990476Y-80213333D01*
X158085714Y-80165714D01*
X158228571Y-80165714D01*
X158323809Y-80213333D01*
X158371428Y-80308571D01*
X158371428Y-80832380D01*
X158371428Y-80308571D02*
X158419047Y-80213333D01*
X158514285Y-80165714D01*
X158657142Y-80165714D01*
X158752380Y-80213333D01*
X158800000Y-80308571D01*
X158800000Y-80832380D01*
X159704761Y-80832380D02*
X159704761Y-80308571D01*
X159657142Y-80213333D01*
X159561904Y-80165714D01*
X159371428Y-80165714D01*
X159276190Y-80213333D01*
X159704761Y-80784761D02*
X159609523Y-80832380D01*
X159371428Y-80832380D01*
X159276190Y-80784761D01*
X159228571Y-80689523D01*
X159228571Y-80594285D01*
X159276190Y-80499047D01*
X159371428Y-80451428D01*
X159609523Y-80451428D01*
X159704761Y-80403809D01*
X151133333Y-81537619D02*
X151180952Y-81490000D01*
X151276190Y-81442380D01*
X151514285Y-81442380D01*
X151609523Y-81490000D01*
X151657142Y-81537619D01*
X151704761Y-81632857D01*
X151704761Y-81728095D01*
X151657142Y-81870952D01*
X151085714Y-82442380D01*
X151704761Y-82442380D01*
X152133333Y-82347142D02*
X152180952Y-82394761D01*
X152133333Y-82442380D01*
X152085714Y-82394761D01*
X152133333Y-82347142D01*
X152133333Y-82442380D01*
X153085714Y-81442380D02*
X152609523Y-81442380D01*
X152561904Y-81918571D01*
X152609523Y-81870952D01*
X152704761Y-81823333D01*
X152942857Y-81823333D01*
X153038095Y-81870952D01*
X153085714Y-81918571D01*
X153133333Y-82013809D01*
X153133333Y-82251904D01*
X153085714Y-82347142D01*
X153038095Y-82394761D01*
X152942857Y-82442380D01*
X152704761Y-82442380D01*
X152609523Y-82394761D01*
X152561904Y-82347142D01*
X153561904Y-82442380D02*
X153561904Y-81442380D01*
X154133333Y-82442380D02*
X153704761Y-81870952D01*
X154133333Y-81442380D02*
X153561904Y-82013809D01*
X154561904Y-81918571D02*
X155323809Y-81918571D01*
X155323809Y-82204285D02*
X154561904Y-82204285D01*
X156228571Y-81775714D02*
X156228571Y-82442380D01*
X155990476Y-81394761D02*
X155752380Y-82109047D01*
X156371428Y-82109047D01*
X156942857Y-81442380D02*
X157038095Y-81442380D01*
X157133333Y-81490000D01*
X157180952Y-81537619D01*
X157228571Y-81632857D01*
X157276190Y-81823333D01*
X157276190Y-82061428D01*
X157228571Y-82251904D01*
X157180952Y-82347142D01*
X157133333Y-82394761D01*
X157038095Y-82442380D01*
X156942857Y-82442380D01*
X156847619Y-82394761D01*
X156800000Y-82347142D01*
X156752380Y-82251904D01*
X156704761Y-82061428D01*
X156704761Y-81823333D01*
X156752380Y-81632857D01*
X156800000Y-81537619D01*
X156847619Y-81490000D01*
X156942857Y-81442380D01*
X157895238Y-81442380D02*
X157990476Y-81442380D01*
X158085714Y-81490000D01*
X158133333Y-81537619D01*
X158180952Y-81632857D01*
X158228571Y-81823333D01*
X158228571Y-82061428D01*
X158180952Y-82251904D01*
X158133333Y-82347142D01*
X158085714Y-82394761D01*
X157990476Y-82442380D01*
X157895238Y-82442380D01*
X157800000Y-82394761D01*
X157752380Y-82347142D01*
X157704761Y-82251904D01*
X157657142Y-82061428D01*
X157657142Y-81823333D01*
X157704761Y-81632857D01*
X157752380Y-81537619D01*
X157800000Y-81490000D01*
X157895238Y-81442380D01*
X158657142Y-82442380D02*
X158657142Y-81775714D01*
X158657142Y-81870952D02*
X158704761Y-81823333D01*
X158800000Y-81775714D01*
X158942857Y-81775714D01*
X159038095Y-81823333D01*
X159085714Y-81918571D01*
X159085714Y-82442380D01*
X159085714Y-81918571D02*
X159133333Y-81823333D01*
X159228571Y-81775714D01*
X159371428Y-81775714D01*
X159466666Y-81823333D01*
X159514285Y-81918571D01*
X159514285Y-82442380D01*
X160419047Y-82442380D02*
X160419047Y-81918571D01*
X160371428Y-81823333D01*
X160276190Y-81775714D01*
X160085714Y-81775714D01*
X159990476Y-81823333D01*
X160419047Y-82394761D02*
X160323809Y-82442380D01*
X160085714Y-82442380D01*
X159990476Y-82394761D01*
X159942857Y-82299523D01*
X159942857Y-82204285D01*
X159990476Y-82109047D01*
X160085714Y-82061428D01*
X160323809Y-82061428D01*
X160419047Y-82013809D01*
X150609523Y-83052380D02*
X151228571Y-83052380D01*
X150895238Y-83433333D01*
X151038095Y-83433333D01*
X151133333Y-83480952D01*
X151180952Y-83528571D01*
X151228571Y-83623809D01*
X151228571Y-83861904D01*
X151180952Y-83957142D01*
X151133333Y-84004761D01*
X151038095Y-84052380D01*
X150752380Y-84052380D01*
X150657142Y-84004761D01*
X150609523Y-83957142D01*
X151657142Y-83957142D02*
X151704761Y-84004761D01*
X151657142Y-84052380D01*
X151609523Y-84004761D01*
X151657142Y-83957142D01*
X151657142Y-84052380D01*
X152038095Y-83052380D02*
X152657142Y-83052380D01*
X152323809Y-83433333D01*
X152466666Y-83433333D01*
X152561904Y-83480952D01*
X152609523Y-83528571D01*
X152657142Y-83623809D01*
X152657142Y-83861904D01*
X152609523Y-83957142D01*
X152561904Y-84004761D01*
X152466666Y-84052380D01*
X152180952Y-84052380D01*
X152085714Y-84004761D01*
X152038095Y-83957142D01*
X152990476Y-83052380D02*
X153609523Y-83052380D01*
X153276190Y-83433333D01*
X153419047Y-83433333D01*
X153514285Y-83480952D01*
X153561904Y-83528571D01*
X153609523Y-83623809D01*
X153609523Y-83861904D01*
X153561904Y-83957142D01*
X153514285Y-84004761D01*
X153419047Y-84052380D01*
X153133333Y-84052380D01*
X153038095Y-84004761D01*
X152990476Y-83957142D01*
X154038095Y-84052380D02*
X154038095Y-83052380D01*
X154609523Y-84052380D02*
X154180952Y-83480952D01*
X154609523Y-83052380D02*
X154038095Y-83623809D01*
X155038095Y-83528571D02*
X155800000Y-83528571D01*
X155800000Y-83814285D02*
X155038095Y-83814285D01*
X156180952Y-83052380D02*
X156800000Y-83052380D01*
X156466666Y-83433333D01*
X156609523Y-83433333D01*
X156704761Y-83480952D01*
X156752380Y-83528571D01*
X156800000Y-83623809D01*
X156800000Y-83861904D01*
X156752380Y-83957142D01*
X156704761Y-84004761D01*
X156609523Y-84052380D01*
X156323809Y-84052380D01*
X156228571Y-84004761D01*
X156180952Y-83957142D01*
X157419047Y-83052380D02*
X157514285Y-83052380D01*
X157609523Y-83100000D01*
X157657142Y-83147619D01*
X157704761Y-83242857D01*
X157752380Y-83433333D01*
X157752380Y-83671428D01*
X157704761Y-83861904D01*
X157657142Y-83957142D01*
X157609523Y-84004761D01*
X157514285Y-84052380D01*
X157419047Y-84052380D01*
X157323809Y-84004761D01*
X157276190Y-83957142D01*
X157228571Y-83861904D01*
X157180952Y-83671428D01*
X157180952Y-83433333D01*
X157228571Y-83242857D01*
X157276190Y-83147619D01*
X157323809Y-83100000D01*
X157419047Y-83052380D01*
X158371428Y-83052380D02*
X158466666Y-83052380D01*
X158561904Y-83100000D01*
X158609523Y-83147619D01*
X158657142Y-83242857D01*
X158704761Y-83433333D01*
X158704761Y-83671428D01*
X158657142Y-83861904D01*
X158609523Y-83957142D01*
X158561904Y-84004761D01*
X158466666Y-84052380D01*
X158371428Y-84052380D01*
X158276190Y-84004761D01*
X158228571Y-83957142D01*
X158180952Y-83861904D01*
X158133333Y-83671428D01*
X158133333Y-83433333D01*
X158180952Y-83242857D01*
X158228571Y-83147619D01*
X158276190Y-83100000D01*
X158371428Y-83052380D01*
X159133333Y-84052380D02*
X159133333Y-83385714D01*
X159133333Y-83480952D02*
X159180952Y-83433333D01*
X159276190Y-83385714D01*
X159419047Y-83385714D01*
X159514285Y-83433333D01*
X159561904Y-83528571D01*
X159561904Y-84052380D01*
X159561904Y-83528571D02*
X159609523Y-83433333D01*
X159704761Y-83385714D01*
X159847619Y-83385714D01*
X159942857Y-83433333D01*
X159990476Y-83528571D01*
X159990476Y-84052380D01*
X160895238Y-84052380D02*
X160895238Y-83528571D01*
X160847619Y-83433333D01*
X160752380Y-83385714D01*
X160561904Y-83385714D01*
X160466666Y-83433333D01*
X160895238Y-84004761D02*
X160800000Y-84052380D01*
X160561904Y-84052380D01*
X160466666Y-84004761D01*
X160419047Y-83909523D01*
X160419047Y-83814285D01*
X160466666Y-83719047D01*
X160561904Y-83671428D01*
X160800000Y-83671428D01*
X160895238Y-83623809D01*
X152371428Y-84662380D02*
X151895238Y-84662380D01*
X151847619Y-85138571D01*
X151895238Y-85090952D01*
X151990476Y-85043333D01*
X152228571Y-85043333D01*
X152323809Y-85090952D01*
X152371428Y-85138571D01*
X152419047Y-85233809D01*
X152419047Y-85471904D01*
X152371428Y-85567142D01*
X152323809Y-85614761D01*
X152228571Y-85662380D01*
X151990476Y-85662380D01*
X151895238Y-85614761D01*
X151847619Y-85567142D01*
X152847619Y-85662380D02*
X152847619Y-84662380D01*
X153419047Y-85662380D02*
X152990476Y-85090952D01*
X153419047Y-84662380D02*
X152847619Y-85233809D01*
X153847619Y-85138571D02*
X154609523Y-85138571D01*
X154609523Y-85424285D02*
X153847619Y-85424285D01*
X155038095Y-84757619D02*
X155085714Y-84710000D01*
X155180952Y-84662380D01*
X155419047Y-84662380D01*
X155514285Y-84710000D01*
X155561904Y-84757619D01*
X155609523Y-84852857D01*
X155609523Y-84948095D01*
X155561904Y-85090952D01*
X154990476Y-85662380D01*
X155609523Y-85662380D01*
X156228571Y-84662380D02*
X156323809Y-84662380D01*
X156419047Y-84710000D01*
X156466666Y-84757619D01*
X156514285Y-84852857D01*
X156561904Y-85043333D01*
X156561904Y-85281428D01*
X156514285Y-85471904D01*
X156466666Y-85567142D01*
X156419047Y-85614761D01*
X156323809Y-85662380D01*
X156228571Y-85662380D01*
X156133333Y-85614761D01*
X156085714Y-85567142D01*
X156038095Y-85471904D01*
X155990476Y-85281428D01*
X155990476Y-85043333D01*
X156038095Y-84852857D01*
X156085714Y-84757619D01*
X156133333Y-84710000D01*
X156228571Y-84662380D01*
X157180952Y-84662380D02*
X157276190Y-84662380D01*
X157371428Y-84710000D01*
X157419047Y-84757619D01*
X157466666Y-84852857D01*
X157514285Y-85043333D01*
X157514285Y-85281428D01*
X157466666Y-85471904D01*
X157419047Y-85567142D01*
X157371428Y-85614761D01*
X157276190Y-85662380D01*
X157180952Y-85662380D01*
X157085714Y-85614761D01*
X157038095Y-85567142D01*
X156990476Y-85471904D01*
X156942857Y-85281428D01*
X156942857Y-85043333D01*
X156990476Y-84852857D01*
X157038095Y-84757619D01*
X157085714Y-84710000D01*
X157180952Y-84662380D01*
X157942857Y-85662380D02*
X157942857Y-84995714D01*
X157942857Y-85090952D02*
X157990476Y-85043333D01*
X158085714Y-84995714D01*
X158228571Y-84995714D01*
X158323809Y-85043333D01*
X158371428Y-85138571D01*
X158371428Y-85662380D01*
X158371428Y-85138571D02*
X158419047Y-85043333D01*
X158514285Y-84995714D01*
X158657142Y-84995714D01*
X158752380Y-85043333D01*
X158800000Y-85138571D01*
X158800000Y-85662380D01*
X159704761Y-85662380D02*
X159704761Y-85138571D01*
X159657142Y-85043333D01*
X159561904Y-84995714D01*
X159371428Y-84995714D01*
X159276190Y-85043333D01*
X159704761Y-85614761D02*
X159609523Y-85662380D01*
X159371428Y-85662380D01*
X159276190Y-85614761D01*
X159228571Y-85519523D01*
X159228571Y-85424285D01*
X159276190Y-85329047D01*
X159371428Y-85281428D01*
X159609523Y-85281428D01*
X159704761Y-85233809D01*
X151942857Y-87272380D02*
X151371428Y-87272380D01*
X151657142Y-87272380D02*
X151657142Y-86272380D01*
X151561904Y-86415238D01*
X151466666Y-86510476D01*
X151371428Y-86558095D01*
X152561904Y-86272380D02*
X152657142Y-86272380D01*
X152752380Y-86320000D01*
X152800000Y-86367619D01*
X152847619Y-86462857D01*
X152895238Y-86653333D01*
X152895238Y-86891428D01*
X152847619Y-87081904D01*
X152800000Y-87177142D01*
X152752380Y-87224761D01*
X152657142Y-87272380D01*
X152561904Y-87272380D01*
X152466666Y-87224761D01*
X152419047Y-87177142D01*
X152371428Y-87081904D01*
X152323809Y-86891428D01*
X152323809Y-86653333D01*
X152371428Y-86462857D01*
X152419047Y-86367619D01*
X152466666Y-86320000D01*
X152561904Y-86272380D01*
X153323809Y-87272380D02*
X153323809Y-86272380D01*
X153895238Y-87272380D02*
X153466666Y-86700952D01*
X153895238Y-86272380D02*
X153323809Y-86843809D01*
X154323809Y-86748571D02*
X155085714Y-86748571D01*
X155085714Y-87034285D02*
X154323809Y-87034285D01*
X156085714Y-87272380D02*
X155514285Y-87272380D01*
X155800000Y-87272380D02*
X155800000Y-86272380D01*
X155704761Y-86415238D01*
X155609523Y-86510476D01*
X155514285Y-86558095D01*
X156704761Y-86272380D02*
X156800000Y-86272380D01*
X156895238Y-86320000D01*
X156942857Y-86367619D01*
X156990476Y-86462857D01*
X157038095Y-86653333D01*
X157038095Y-86891428D01*
X156990476Y-87081904D01*
X156942857Y-87177142D01*
X156895238Y-87224761D01*
X156800000Y-87272380D01*
X156704761Y-87272380D01*
X156609523Y-87224761D01*
X156561904Y-87177142D01*
X156514285Y-87081904D01*
X156466666Y-86891428D01*
X156466666Y-86653333D01*
X156514285Y-86462857D01*
X156561904Y-86367619D01*
X156609523Y-86320000D01*
X156704761Y-86272380D01*
X157657142Y-86272380D02*
X157752380Y-86272380D01*
X157847619Y-86320000D01*
X157895238Y-86367619D01*
X157942857Y-86462857D01*
X157990476Y-86653333D01*
X157990476Y-86891428D01*
X157942857Y-87081904D01*
X157895238Y-87177142D01*
X157847619Y-87224761D01*
X157752380Y-87272380D01*
X157657142Y-87272380D01*
X157561904Y-87224761D01*
X157514285Y-87177142D01*
X157466666Y-87081904D01*
X157419047Y-86891428D01*
X157419047Y-86653333D01*
X157466666Y-86462857D01*
X157514285Y-86367619D01*
X157561904Y-86320000D01*
X157657142Y-86272380D01*
X158419047Y-87272380D02*
X158419047Y-86605714D01*
X158419047Y-86700952D02*
X158466666Y-86653333D01*
X158561904Y-86605714D01*
X158704761Y-86605714D01*
X158800000Y-86653333D01*
X158847619Y-86748571D01*
X158847619Y-87272380D01*
X158847619Y-86748571D02*
X158895238Y-86653333D01*
X158990476Y-86605714D01*
X159133333Y-86605714D01*
X159228571Y-86653333D01*
X159276190Y-86748571D01*
X159276190Y-87272380D01*
X160180952Y-87272380D02*
X160180952Y-86748571D01*
X160133333Y-86653333D01*
X160038095Y-86605714D01*
X159847619Y-86605714D01*
X159752380Y-86653333D01*
X160180952Y-87224761D02*
X160085714Y-87272380D01*
X159847619Y-87272380D01*
X159752380Y-87224761D01*
X159704761Y-87129523D01*
X159704761Y-87034285D01*
X159752380Y-86939047D01*
X159847619Y-86891428D01*
X160085714Y-86891428D01*
X160180952Y-86843809D01*
%TO.C,SDA*%
X144485714Y-82204761D02*
X144628571Y-82252380D01*
X144866666Y-82252380D01*
X144961904Y-82204761D01*
X145009523Y-82157142D01*
X145057142Y-82061904D01*
X145057142Y-81966666D01*
X145009523Y-81871428D01*
X144961904Y-81823809D01*
X144866666Y-81776190D01*
X144676190Y-81728571D01*
X144580952Y-81680952D01*
X144533333Y-81633333D01*
X144485714Y-81538095D01*
X144485714Y-81442857D01*
X144533333Y-81347619D01*
X144580952Y-81300000D01*
X144676190Y-81252380D01*
X144914285Y-81252380D01*
X145057142Y-81300000D01*
X145485714Y-82252380D02*
X145485714Y-81252380D01*
X145723809Y-81252380D01*
X145866666Y-81300000D01*
X145961904Y-81395238D01*
X146009523Y-81490476D01*
X146057142Y-81680952D01*
X146057142Y-81823809D01*
X146009523Y-82014285D01*
X145961904Y-82109523D01*
X145866666Y-82204761D01*
X145723809Y-82252380D01*
X145485714Y-82252380D01*
X146438095Y-81966666D02*
X146914285Y-81966666D01*
X146342857Y-82252380D02*
X146676190Y-81252380D01*
X147009523Y-82252380D01*
%TO.C,HES3*%
X149309523Y-74652380D02*
X149309523Y-73652380D01*
X149309523Y-74128571D02*
X149880952Y-74128571D01*
X149880952Y-74652380D02*
X149880952Y-73652380D01*
X150357142Y-74128571D02*
X150690476Y-74128571D01*
X150833333Y-74652380D02*
X150357142Y-74652380D01*
X150357142Y-73652380D01*
X150833333Y-73652380D01*
X151214285Y-74604761D02*
X151357142Y-74652380D01*
X151595238Y-74652380D01*
X151690476Y-74604761D01*
X151738095Y-74557142D01*
X151785714Y-74461904D01*
X151785714Y-74366666D01*
X151738095Y-74271428D01*
X151690476Y-74223809D01*
X151595238Y-74176190D01*
X151404761Y-74128571D01*
X151309523Y-74080952D01*
X151261904Y-74033333D01*
X151214285Y-73938095D01*
X151214285Y-73842857D01*
X151261904Y-73747619D01*
X151309523Y-73700000D01*
X151404761Y-73652380D01*
X151642857Y-73652380D01*
X151785714Y-73700000D01*
X152119047Y-73652380D02*
X152738095Y-73652380D01*
X152404761Y-74033333D01*
X152547619Y-74033333D01*
X152642857Y-74080952D01*
X152690476Y-74128571D01*
X152738095Y-74223809D01*
X152738095Y-74461904D01*
X152690476Y-74557142D01*
X152642857Y-74604761D01*
X152547619Y-74652380D01*
X152261904Y-74652380D01*
X152166666Y-74604761D01*
X152119047Y-74557142D01*
%TO.C,GAIN*%
X141271428Y-95300000D02*
X141176190Y-95252380D01*
X141033333Y-95252380D01*
X140890476Y-95300000D01*
X140795238Y-95395238D01*
X140747619Y-95490476D01*
X140700000Y-95680952D01*
X140700000Y-95823809D01*
X140747619Y-96014285D01*
X140795238Y-96109523D01*
X140890476Y-96204761D01*
X141033333Y-96252380D01*
X141128571Y-96252380D01*
X141271428Y-96204761D01*
X141319047Y-96157142D01*
X141319047Y-95823809D01*
X141128571Y-95823809D01*
X141700000Y-95966666D02*
X142176190Y-95966666D01*
X141604761Y-96252380D02*
X141938095Y-95252380D01*
X142271428Y-96252380D01*
X142604761Y-96252380D02*
X142604761Y-95252380D01*
X143080952Y-96252380D02*
X143080952Y-95252380D01*
X143652380Y-96252380D01*
X143652380Y-95252380D01*
%TO.C,BCLK*%
X148566666Y-90928571D02*
X148709523Y-90976190D01*
X148757142Y-91023809D01*
X148804761Y-91119047D01*
X148804761Y-91261904D01*
X148757142Y-91357142D01*
X148709523Y-91404761D01*
X148614285Y-91452380D01*
X148233333Y-91452380D01*
X148233333Y-90452380D01*
X148566666Y-90452380D01*
X148661904Y-90500000D01*
X148709523Y-90547619D01*
X148757142Y-90642857D01*
X148757142Y-90738095D01*
X148709523Y-90833333D01*
X148661904Y-90880952D01*
X148566666Y-90928571D01*
X148233333Y-90928571D01*
X149804761Y-91357142D02*
X149757142Y-91404761D01*
X149614285Y-91452380D01*
X149519047Y-91452380D01*
X149376190Y-91404761D01*
X149280952Y-91309523D01*
X149233333Y-91214285D01*
X149185714Y-91023809D01*
X149185714Y-90880952D01*
X149233333Y-90690476D01*
X149280952Y-90595238D01*
X149376190Y-90500000D01*
X149519047Y-90452380D01*
X149614285Y-90452380D01*
X149757142Y-90500000D01*
X149804761Y-90547619D01*
X150709523Y-91452380D02*
X150233333Y-91452380D01*
X150233333Y-90452380D01*
X151042857Y-91452380D02*
X151042857Y-90452380D01*
X151614285Y-91452380D02*
X151185714Y-90880952D01*
X151614285Y-90452380D02*
X151042857Y-91023809D01*
%TO.C,35*%
X152090476Y-92252380D02*
X152709523Y-92252380D01*
X152376190Y-92633333D01*
X152519047Y-92633333D01*
X152614285Y-92680952D01*
X152661904Y-92728571D01*
X152709523Y-92823809D01*
X152709523Y-93061904D01*
X152661904Y-93157142D01*
X152614285Y-93204761D01*
X152519047Y-93252380D01*
X152233333Y-93252380D01*
X152138095Y-93204761D01*
X152090476Y-93157142D01*
X153614285Y-92252380D02*
X153138095Y-92252380D01*
X153090476Y-92728571D01*
X153138095Y-92680952D01*
X153233333Y-92633333D01*
X153471428Y-92633333D01*
X153566666Y-92680952D01*
X153614285Y-92728571D01*
X153661904Y-92823809D01*
X153661904Y-93061904D01*
X153614285Y-93157142D01*
X153566666Y-93204761D01*
X153471428Y-93252380D01*
X153233333Y-93252380D01*
X153138095Y-93204761D01*
X153090476Y-93157142D01*
%TO.C,HES2*%
X153509523Y-74652380D02*
X153509523Y-73652380D01*
X153509523Y-74128571D02*
X154080952Y-74128571D01*
X154080952Y-74652380D02*
X154080952Y-73652380D01*
X154557142Y-74128571D02*
X154890476Y-74128571D01*
X155033333Y-74652380D02*
X154557142Y-74652380D01*
X154557142Y-73652380D01*
X155033333Y-73652380D01*
X155414285Y-74604761D02*
X155557142Y-74652380D01*
X155795238Y-74652380D01*
X155890476Y-74604761D01*
X155938095Y-74557142D01*
X155985714Y-74461904D01*
X155985714Y-74366666D01*
X155938095Y-74271428D01*
X155890476Y-74223809D01*
X155795238Y-74176190D01*
X155604761Y-74128571D01*
X155509523Y-74080952D01*
X155461904Y-74033333D01*
X155414285Y-73938095D01*
X155414285Y-73842857D01*
X155461904Y-73747619D01*
X155509523Y-73700000D01*
X155604761Y-73652380D01*
X155842857Y-73652380D01*
X155985714Y-73700000D01*
X156366666Y-73747619D02*
X156414285Y-73700000D01*
X156509523Y-73652380D01*
X156747619Y-73652380D01*
X156842857Y-73700000D01*
X156890476Y-73747619D01*
X156938095Y-73842857D01*
X156938095Y-73938095D01*
X156890476Y-74080952D01*
X156319047Y-74652380D01*
X156938095Y-74652380D01*
%TO.C,38*%
X152090476Y-94552380D02*
X152709523Y-94552380D01*
X152376190Y-94933333D01*
X152519047Y-94933333D01*
X152614285Y-94980952D01*
X152661904Y-95028571D01*
X152709523Y-95123809D01*
X152709523Y-95361904D01*
X152661904Y-95457142D01*
X152614285Y-95504761D01*
X152519047Y-95552380D01*
X152233333Y-95552380D01*
X152138095Y-95504761D01*
X152090476Y-95457142D01*
X153280952Y-94980952D02*
X153185714Y-94933333D01*
X153138095Y-94885714D01*
X153090476Y-94790476D01*
X153090476Y-94742857D01*
X153138095Y-94647619D01*
X153185714Y-94600000D01*
X153280952Y-94552380D01*
X153471428Y-94552380D01*
X153566666Y-94600000D01*
X153614285Y-94647619D01*
X153661904Y-94742857D01*
X153661904Y-94790476D01*
X153614285Y-94885714D01*
X153566666Y-94933333D01*
X153471428Y-94980952D01*
X153280952Y-94980952D01*
X153185714Y-95028571D01*
X153138095Y-95076190D01*
X153090476Y-95171428D01*
X153090476Y-95361904D01*
X153138095Y-95457142D01*
X153185714Y-95504761D01*
X153280952Y-95552380D01*
X153471428Y-95552380D01*
X153566666Y-95504761D01*
X153614285Y-95457142D01*
X153661904Y-95361904D01*
X153661904Y-95171428D01*
X153614285Y-95076190D01*
X153566666Y-95028571D01*
X153471428Y-94980952D01*
%TO.C,39*%
X154090476Y-94552380D02*
X154709523Y-94552380D01*
X154376190Y-94933333D01*
X154519047Y-94933333D01*
X154614285Y-94980952D01*
X154661904Y-95028571D01*
X154709523Y-95123809D01*
X154709523Y-95361904D01*
X154661904Y-95457142D01*
X154614285Y-95504761D01*
X154519047Y-95552380D01*
X154233333Y-95552380D01*
X154138095Y-95504761D01*
X154090476Y-95457142D01*
X155185714Y-95552380D02*
X155376190Y-95552380D01*
X155471428Y-95504761D01*
X155519047Y-95457142D01*
X155614285Y-95314285D01*
X155661904Y-95123809D01*
X155661904Y-94742857D01*
X155614285Y-94647619D01*
X155566666Y-94600000D01*
X155471428Y-94552380D01*
X155280952Y-94552380D01*
X155185714Y-94600000D01*
X155138095Y-94647619D01*
X155090476Y-94742857D01*
X155090476Y-94980952D01*
X155138095Y-95076190D01*
X155185714Y-95123809D01*
X155280952Y-95171428D01*
X155471428Y-95171428D01*
X155566666Y-95123809D01*
X155614285Y-95076190D01*
X155661904Y-94980952D01*
%TO.C,IN+*%
X166557142Y-92052380D02*
X166557142Y-91052380D01*
X167033333Y-92052380D02*
X167033333Y-91052380D01*
X167604761Y-92052380D01*
X167604761Y-91052380D01*
X168080952Y-91671428D02*
X168842857Y-91671428D01*
X168461904Y-92052380D02*
X168461904Y-91290476D01*
%TO.C,46*%
X164114285Y-100085714D02*
X164114285Y-100752380D01*
X163876190Y-99704761D02*
X163638095Y-100419047D01*
X164257142Y-100419047D01*
X165066666Y-99752380D02*
X164876190Y-99752380D01*
X164780952Y-99800000D01*
X164733333Y-99847619D01*
X164638095Y-99990476D01*
X164590476Y-100180952D01*
X164590476Y-100561904D01*
X164638095Y-100657142D01*
X164685714Y-100704761D01*
X164780952Y-100752380D01*
X164971428Y-100752380D01*
X165066666Y-100704761D01*
X165114285Y-100657142D01*
X165161904Y-100561904D01*
X165161904Y-100323809D01*
X165114285Y-100228571D01*
X165066666Y-100180952D01*
X164971428Y-100133333D01*
X164780952Y-100133333D01*
X164685714Y-100180952D01*
X164638095Y-100228571D01*
X164590476Y-100323809D01*
%TO.C,IO0*%
X144800000Y-101152380D02*
X144800000Y-100152380D01*
X145466666Y-100152380D02*
X145657142Y-100152380D01*
X145752380Y-100200000D01*
X145847619Y-100295238D01*
X145895238Y-100485714D01*
X145895238Y-100819047D01*
X145847619Y-101009523D01*
X145752380Y-101104761D01*
X145657142Y-101152380D01*
X145466666Y-101152380D01*
X145371428Y-101104761D01*
X145276190Y-101009523D01*
X145228571Y-100819047D01*
X145228571Y-100485714D01*
X145276190Y-100295238D01*
X145371428Y-100200000D01*
X145466666Y-100152380D01*
X146514285Y-100152380D02*
X146609523Y-100152380D01*
X146704761Y-100200000D01*
X146752380Y-100247619D01*
X146800000Y-100342857D01*
X146847619Y-100533333D01*
X146847619Y-100771428D01*
X146800000Y-100961904D01*
X146752380Y-101057142D01*
X146704761Y-101104761D01*
X146609523Y-101152380D01*
X146514285Y-101152380D01*
X146419047Y-101104761D01*
X146371428Y-101057142D01*
X146323809Y-100961904D01*
X146276190Y-100771428D01*
X146276190Y-100533333D01*
X146323809Y-100342857D01*
X146371428Y-100247619D01*
X146419047Y-100200000D01*
X146514285Y-100152380D01*
%TO.C,SD*%
X143614285Y-99204761D02*
X143757142Y-99252380D01*
X143995238Y-99252380D01*
X144090476Y-99204761D01*
X144138095Y-99157142D01*
X144185714Y-99061904D01*
X144185714Y-98966666D01*
X144138095Y-98871428D01*
X144090476Y-98823809D01*
X143995238Y-98776190D01*
X143804761Y-98728571D01*
X143709523Y-98680952D01*
X143661904Y-98633333D01*
X143614285Y-98538095D01*
X143614285Y-98442857D01*
X143661904Y-98347619D01*
X143709523Y-98300000D01*
X143804761Y-98252380D01*
X144042857Y-98252380D01*
X144185714Y-98300000D01*
X144614285Y-99252380D02*
X144614285Y-98252380D01*
X144852380Y-98252380D01*
X144995238Y-98300000D01*
X145090476Y-98395238D01*
X145138095Y-98490476D01*
X145185714Y-98680952D01*
X145185714Y-98823809D01*
X145138095Y-99014285D01*
X145090476Y-99109523D01*
X144995238Y-99204761D01*
X144852380Y-99252380D01*
X144614285Y-99252380D01*
%TO.C,37*%
X150090476Y-94552380D02*
X150709523Y-94552380D01*
X150376190Y-94933333D01*
X150519047Y-94933333D01*
X150614285Y-94980952D01*
X150661904Y-95028571D01*
X150709523Y-95123809D01*
X150709523Y-95361904D01*
X150661904Y-95457142D01*
X150614285Y-95504761D01*
X150519047Y-95552380D01*
X150233333Y-95552380D01*
X150138095Y-95504761D01*
X150090476Y-95457142D01*
X151042857Y-94552380D02*
X151709523Y-94552380D01*
X151280952Y-95552380D01*
%TO.C,48*%
X160914285Y-88385714D02*
X160914285Y-89052380D01*
X160676190Y-88004761D02*
X160438095Y-88719047D01*
X161057142Y-88719047D01*
X161580952Y-88480952D02*
X161485714Y-88433333D01*
X161438095Y-88385714D01*
X161390476Y-88290476D01*
X161390476Y-88242857D01*
X161438095Y-88147619D01*
X161485714Y-88100000D01*
X161580952Y-88052380D01*
X161771428Y-88052380D01*
X161866666Y-88100000D01*
X161914285Y-88147619D01*
X161961904Y-88242857D01*
X161961904Y-88290476D01*
X161914285Y-88385714D01*
X161866666Y-88433333D01*
X161771428Y-88480952D01*
X161580952Y-88480952D01*
X161485714Y-88528571D01*
X161438095Y-88576190D01*
X161390476Y-88671428D01*
X161390476Y-88861904D01*
X161438095Y-88957142D01*
X161485714Y-89004761D01*
X161580952Y-89052380D01*
X161771428Y-89052380D01*
X161866666Y-89004761D01*
X161914285Y-88957142D01*
X161961904Y-88861904D01*
X161961904Y-88671428D01*
X161914285Y-88576190D01*
X161866666Y-88528571D01*
X161771428Y-88480952D01*
%TO.C,HES1*%
X157909523Y-74652380D02*
X157909523Y-73652380D01*
X157909523Y-74128571D02*
X158480952Y-74128571D01*
X158480952Y-74652380D02*
X158480952Y-73652380D01*
X158957142Y-74128571D02*
X159290476Y-74128571D01*
X159433333Y-74652380D02*
X158957142Y-74652380D01*
X158957142Y-73652380D01*
X159433333Y-73652380D01*
X159814285Y-74604761D02*
X159957142Y-74652380D01*
X160195238Y-74652380D01*
X160290476Y-74604761D01*
X160338095Y-74557142D01*
X160385714Y-74461904D01*
X160385714Y-74366666D01*
X160338095Y-74271428D01*
X160290476Y-74223809D01*
X160195238Y-74176190D01*
X160004761Y-74128571D01*
X159909523Y-74080952D01*
X159861904Y-74033333D01*
X159814285Y-73938095D01*
X159814285Y-73842857D01*
X159861904Y-73747619D01*
X159909523Y-73700000D01*
X160004761Y-73652380D01*
X160242857Y-73652380D01*
X160385714Y-73700000D01*
X161338095Y-74652380D02*
X160766666Y-74652380D01*
X161052380Y-74652380D02*
X161052380Y-73652380D01*
X160957142Y-73795238D01*
X160861904Y-73890476D01*
X160766666Y-73938095D01*
%TO.C,47*%
X156614285Y-88385714D02*
X156614285Y-89052380D01*
X156376190Y-88004761D02*
X156138095Y-88719047D01*
X156757142Y-88719047D01*
X157042857Y-88052380D02*
X157709523Y-88052380D01*
X157280952Y-89052380D01*
%TO.C,42*%
X166014285Y-96285714D02*
X166014285Y-96952380D01*
X165776190Y-95904761D02*
X165538095Y-96619047D01*
X166157142Y-96619047D01*
X166490476Y-96047619D02*
X166538095Y-96000000D01*
X166633333Y-95952380D01*
X166871428Y-95952380D01*
X166966666Y-96000000D01*
X167014285Y-96047619D01*
X167061904Y-96142857D01*
X167061904Y-96238095D01*
X167014285Y-96380952D01*
X166442857Y-96952380D01*
X167061904Y-96952380D01*
%TO.C,36*%
X153990476Y-92252380D02*
X154609523Y-92252380D01*
X154276190Y-92633333D01*
X154419047Y-92633333D01*
X154514285Y-92680952D01*
X154561904Y-92728571D01*
X154609523Y-92823809D01*
X154609523Y-93061904D01*
X154561904Y-93157142D01*
X154514285Y-93204761D01*
X154419047Y-93252380D01*
X154133333Y-93252380D01*
X154038095Y-93204761D01*
X153990476Y-93157142D01*
X155466666Y-92252380D02*
X155276190Y-92252380D01*
X155180952Y-92300000D01*
X155133333Y-92347619D01*
X155038095Y-92490476D01*
X154990476Y-92680952D01*
X154990476Y-93061904D01*
X155038095Y-93157142D01*
X155085714Y-93204761D01*
X155180952Y-93252380D01*
X155371428Y-93252380D01*
X155466666Y-93204761D01*
X155514285Y-93157142D01*
X155561904Y-93061904D01*
X155561904Y-92823809D01*
X155514285Y-92728571D01*
X155466666Y-92680952D01*
X155371428Y-92633333D01*
X155180952Y-92633333D01*
X155085714Y-92680952D01*
X155038095Y-92728571D01*
X154990476Y-92823809D01*
%TO.C,EN*%
X163861904Y-102128571D02*
X164195238Y-102128571D01*
X164338095Y-102652380D02*
X163861904Y-102652380D01*
X163861904Y-101652380D01*
X164338095Y-101652380D01*
X164766666Y-102652380D02*
X164766666Y-101652380D01*
X165338095Y-102652380D01*
X165338095Y-101652380D01*
%TO.C,LRCLK*%
X148704761Y-89552380D02*
X148228571Y-89552380D01*
X148228571Y-88552380D01*
X149609523Y-89552380D02*
X149276190Y-89076190D01*
X149038095Y-89552380D02*
X149038095Y-88552380D01*
X149419047Y-88552380D01*
X149514285Y-88600000D01*
X149561904Y-88647619D01*
X149609523Y-88742857D01*
X149609523Y-88885714D01*
X149561904Y-88980952D01*
X149514285Y-89028571D01*
X149419047Y-89076190D01*
X149038095Y-89076190D01*
X150609523Y-89457142D02*
X150561904Y-89504761D01*
X150419047Y-89552380D01*
X150323809Y-89552380D01*
X150180952Y-89504761D01*
X150085714Y-89409523D01*
X150038095Y-89314285D01*
X149990476Y-89123809D01*
X149990476Y-88980952D01*
X150038095Y-88790476D01*
X150085714Y-88695238D01*
X150180952Y-88600000D01*
X150323809Y-88552380D01*
X150419047Y-88552380D01*
X150561904Y-88600000D01*
X150609523Y-88647619D01*
X151514285Y-89552380D02*
X151038095Y-89552380D01*
X151038095Y-88552380D01*
X151847619Y-89552380D02*
X151847619Y-88552380D01*
X152419047Y-89552380D02*
X151990476Y-88980952D01*
X152419047Y-88552380D02*
X151847619Y-89123809D01*
%TO.C,DIN*%
X144576190Y-95552380D02*
X144576190Y-94552380D01*
X144814285Y-94552380D01*
X144957142Y-94600000D01*
X145052380Y-94695238D01*
X145100000Y-94790476D01*
X145147619Y-94980952D01*
X145147619Y-95123809D01*
X145100000Y-95314285D01*
X145052380Y-95409523D01*
X144957142Y-95504761D01*
X144814285Y-95552380D01*
X144576190Y-95552380D01*
X145576190Y-95552380D02*
X145576190Y-94552380D01*
X146052380Y-95552380D02*
X146052380Y-94552380D01*
X146623809Y-95552380D01*
X146623809Y-94552380D01*
%TO.C,34*%
X158190476Y-88052380D02*
X158809523Y-88052380D01*
X158476190Y-88433333D01*
X158619047Y-88433333D01*
X158714285Y-88480952D01*
X158761904Y-88528571D01*
X158809523Y-88623809D01*
X158809523Y-88861904D01*
X158761904Y-88957142D01*
X158714285Y-89004761D01*
X158619047Y-89052380D01*
X158333333Y-89052380D01*
X158238095Y-89004761D01*
X158190476Y-88957142D01*
X159666666Y-88385714D02*
X159666666Y-89052380D01*
X159428571Y-88004761D02*
X159190476Y-88719047D01*
X159809523Y-88719047D01*
%TO.C,SCL*%
X138409523Y-82004761D02*
X138552380Y-82052380D01*
X138790476Y-82052380D01*
X138885714Y-82004761D01*
X138933333Y-81957142D01*
X138980952Y-81861904D01*
X138980952Y-81766666D01*
X138933333Y-81671428D01*
X138885714Y-81623809D01*
X138790476Y-81576190D01*
X138600000Y-81528571D01*
X138504761Y-81480952D01*
X138457142Y-81433333D01*
X138409523Y-81338095D01*
X138409523Y-81242857D01*
X138457142Y-81147619D01*
X138504761Y-81100000D01*
X138600000Y-81052380D01*
X138838095Y-81052380D01*
X138980952Y-81100000D01*
X139980952Y-81957142D02*
X139933333Y-82004761D01*
X139790476Y-82052380D01*
X139695238Y-82052380D01*
X139552380Y-82004761D01*
X139457142Y-81909523D01*
X139409523Y-81814285D01*
X139361904Y-81623809D01*
X139361904Y-81480952D01*
X139409523Y-81290476D01*
X139457142Y-81195238D01*
X139552380Y-81100000D01*
X139695238Y-81052380D01*
X139790476Y-81052380D01*
X139933333Y-81100000D01*
X139980952Y-81147619D01*
X140885714Y-82052380D02*
X140409523Y-82052380D01*
X140409523Y-81052380D01*
%TO.C,33*%
X150090476Y-92252380D02*
X150709523Y-92252380D01*
X150376190Y-92633333D01*
X150519047Y-92633333D01*
X150614285Y-92680952D01*
X150661904Y-92728571D01*
X150709523Y-92823809D01*
X150709523Y-93061904D01*
X150661904Y-93157142D01*
X150614285Y-93204761D01*
X150519047Y-93252380D01*
X150233333Y-93252380D01*
X150138095Y-93204761D01*
X150090476Y-93157142D01*
X151042857Y-92252380D02*
X151661904Y-92252380D01*
X151328571Y-92633333D01*
X151471428Y-92633333D01*
X151566666Y-92680952D01*
X151614285Y-92728571D01*
X151661904Y-92823809D01*
X151661904Y-93061904D01*
X151614285Y-93157142D01*
X151566666Y-93204761D01*
X151471428Y-93252380D01*
X151185714Y-93252380D01*
X151090476Y-93204761D01*
X151042857Y-93157142D01*
%TO.C,41*%
X156614285Y-96985714D02*
X156614285Y-97652380D01*
X156376190Y-96604761D02*
X156138095Y-97319047D01*
X156757142Y-97319047D01*
X157661904Y-97652380D02*
X157090476Y-97652380D01*
X157376190Y-97652380D02*
X157376190Y-96652380D01*
X157280952Y-96795238D01*
X157185714Y-96890476D01*
X157090476Y-96938095D01*
%TO.C,40*%
X154514285Y-96985714D02*
X154514285Y-97652380D01*
X154276190Y-96604761D02*
X154038095Y-97319047D01*
X154657142Y-97319047D01*
X155228571Y-96652380D02*
X155323809Y-96652380D01*
X155419047Y-96700000D01*
X155466666Y-96747619D01*
X155514285Y-96842857D01*
X155561904Y-97033333D01*
X155561904Y-97271428D01*
X155514285Y-97461904D01*
X155466666Y-97557142D01*
X155419047Y-97604761D01*
X155323809Y-97652380D01*
X155228571Y-97652380D01*
X155133333Y-97604761D01*
X155085714Y-97557142D01*
X155038095Y-97461904D01*
X154990476Y-97271428D01*
X154990476Y-97033333D01*
X155038095Y-96842857D01*
X155085714Y-96747619D01*
X155133333Y-96700000D01*
X155228571Y-96652380D01*
%TO.C,PSU*%
X170738095Y-82552380D02*
X170738095Y-81552380D01*
X171119047Y-81552380D01*
X171214285Y-81600000D01*
X171261904Y-81647619D01*
X171309523Y-81742857D01*
X171309523Y-81885714D01*
X171261904Y-81980952D01*
X171214285Y-82028571D01*
X171119047Y-82076190D01*
X170738095Y-82076190D01*
X171690476Y-82504761D02*
X171833333Y-82552380D01*
X172071428Y-82552380D01*
X172166666Y-82504761D01*
X172214285Y-82457142D01*
X172261904Y-82361904D01*
X172261904Y-82266666D01*
X172214285Y-82171428D01*
X172166666Y-82123809D01*
X172071428Y-82076190D01*
X171880952Y-82028571D01*
X171785714Y-81980952D01*
X171738095Y-81933333D01*
X171690476Y-81838095D01*
X171690476Y-81742857D01*
X171738095Y-81647619D01*
X171785714Y-81600000D01*
X171880952Y-81552380D01*
X172119047Y-81552380D01*
X172261904Y-81600000D01*
X172690476Y-81552380D02*
X172690476Y-82361904D01*
X172738095Y-82457142D01*
X172785714Y-82504761D01*
X172880952Y-82552380D01*
X173071428Y-82552380D01*
X173166666Y-82504761D01*
X173214285Y-82457142D01*
X173261904Y-82361904D01*
X173261904Y-81552380D01*
%TO.C,J2*%
X158366666Y-98652380D02*
X158366666Y-99366666D01*
X158319047Y-99509523D01*
X158223809Y-99604761D01*
X158080952Y-99652380D01*
X157985714Y-99652380D01*
X158795238Y-98747619D02*
X158842857Y-98700000D01*
X158938095Y-98652380D01*
X159176190Y-98652380D01*
X159271428Y-98700000D01*
X159319047Y-98747619D01*
X159366666Y-98842857D01*
X159366666Y-98938095D01*
X159319047Y-99080952D01*
X158747619Y-99652380D01*
X159366666Y-99652380D01*
D13*
%TO.C,SDA*%
X147350000Y-82250000D02*
X147350000Y-79350000D01*
X147350000Y-79350000D02*
X150250000Y-79350000D01*
X150250000Y-82250000D02*
X147350000Y-82250000D01*
X150250000Y-79350000D02*
X150250000Y-82250000D01*
%TO.C,HES3*%
X153250000Y-77850000D02*
X150350000Y-77850000D01*
X153250000Y-74950000D02*
X153250000Y-77850000D01*
X150350000Y-74950000D02*
X153250000Y-74950000D01*
X150350000Y-77850000D02*
X150350000Y-74950000D01*
%TO.C,GAIN*%
X137550000Y-97250000D02*
X137550000Y-94350000D01*
X140450000Y-94350000D02*
X140450000Y-97250000D01*
X140450000Y-97250000D02*
X137550000Y-97250000D01*
X137550000Y-94350000D02*
X140450000Y-94350000D01*
%TO.C,BCLK*%
X144950000Y-93450000D02*
X144950000Y-90550000D01*
X147850000Y-93450000D02*
X144950000Y-93450000D01*
X147850000Y-90550000D02*
X147850000Y-93450000D01*
X144950000Y-90550000D02*
X147850000Y-90550000D01*
%TO.C,35*%
X159950000Y-91850000D02*
X159950000Y-93750000D01*
X158050000Y-93750000D02*
X158050000Y-91850000D01*
X158050000Y-91850000D02*
X159950000Y-91850000D01*
X159950000Y-93750000D02*
X158050000Y-93750000D01*
%TO.C,HES2*%
X153750000Y-74950000D02*
X156650000Y-74950000D01*
X156650000Y-74950000D02*
X156650000Y-77850000D01*
X156650000Y-77850000D02*
X153750000Y-77850000D01*
X153750000Y-77850000D02*
X153750000Y-74950000D01*
%TO.C,38*%
X158050000Y-94150000D02*
X159950000Y-94150000D01*
X158050000Y-96050000D02*
X158050000Y-94150000D01*
X159950000Y-96050000D02*
X158050000Y-96050000D01*
X159950000Y-94150000D02*
X159950000Y-96050000D01*
%TO.C,39*%
X160250000Y-96050000D02*
X160250000Y-94150000D01*
X160250000Y-94150000D02*
X162150000Y-94150000D01*
X162150000Y-94150000D02*
X162150000Y-96050000D01*
X162150000Y-96050000D02*
X160250000Y-96050000D01*
%TO.C,IN+*%
X166050000Y-90150000D02*
X166050000Y-93050000D01*
X166050000Y-93050000D02*
X163150000Y-93050000D01*
X163150000Y-90150000D02*
X166050000Y-90150000D01*
X163150000Y-93050000D02*
X163150000Y-90150000D01*
%TO.C,46*%
X161450000Y-98850000D02*
X163350000Y-98850000D01*
X163350000Y-100750000D02*
X161450000Y-100750000D01*
X163350000Y-98850000D02*
X163350000Y-100750000D01*
X161450000Y-100750000D02*
X161450000Y-98850000D01*
%TO.C,IO0*%
X142750000Y-104450000D02*
X142750000Y-101550000D01*
X145650000Y-101550000D02*
X145650000Y-104450000D01*
X145650000Y-104450000D02*
X142750000Y-104450000D01*
X142750000Y-101550000D02*
X145650000Y-101550000D01*
%TO.C,SD*%
X143250000Y-100250000D02*
X140350000Y-100250000D01*
X143250000Y-97350000D02*
X143250000Y-100250000D01*
X140350000Y-97350000D02*
X143250000Y-97350000D01*
X140350000Y-100250000D02*
X140350000Y-97350000D01*
%TO.C,37*%
X157750000Y-94150000D02*
X157750000Y-96050000D01*
X155850000Y-94150000D02*
X157750000Y-94150000D01*
X155850000Y-96050000D02*
X155850000Y-94150000D01*
X157750000Y-96050000D02*
X155850000Y-96050000D01*
%TO.C,48*%
X162150000Y-91350000D02*
X160250000Y-91350000D01*
X160250000Y-89450000D02*
X162150000Y-89450000D01*
X162150000Y-89450000D02*
X162150000Y-91350000D01*
X160250000Y-91350000D02*
X160250000Y-89450000D01*
%TO.C,HES1*%
X157150000Y-74950000D02*
X160050000Y-74950000D01*
X157150000Y-77850000D02*
X157150000Y-74950000D01*
X160050000Y-74950000D02*
X160050000Y-77850000D01*
X160050000Y-77850000D02*
X157150000Y-77850000D01*
%TO.C,REF\u002A\u002A*%
G36*
X146984726Y-78290086D02*
G01*
X147007135Y-78238600D01*
X147042124Y-78198443D01*
X147069375Y-78177861D01*
X147118907Y-78155625D01*
X147176316Y-78145304D01*
X147229682Y-78148067D01*
X147259543Y-78159212D01*
X147271261Y-78162383D01*
X147279037Y-78150557D01*
X147284465Y-78118866D01*
X147288571Y-78070593D01*
X147293067Y-78016829D01*
X147299313Y-77984482D01*
X147310676Y-77965985D01*
X147330528Y-77953770D01*
X147343000Y-77948362D01*
X147390171Y-77928601D01*
X147390117Y-78265358D01*
X147389933Y-78373837D01*
X147389219Y-78457287D01*
X147387675Y-78519704D01*
X147385001Y-78565085D01*
X147380894Y-78597429D01*
X147375055Y-78620733D01*
X147367182Y-78638995D01*
X147361221Y-78649418D01*
X147311855Y-78705945D01*
X147249264Y-78741377D01*
X147180013Y-78754090D01*
X147110668Y-78742463D01*
X147069375Y-78721568D01*
X147026025Y-78685422D01*
X146996481Y-78641276D01*
X146978655Y-78583462D01*
X146970463Y-78506313D01*
X146969302Y-78449714D01*
X146969458Y-78445647D01*
X147070857Y-78445647D01*
X147071476Y-78510550D01*
X147074314Y-78553514D01*
X147080840Y-78581622D01*
X147092523Y-78601953D01*
X147106483Y-78617288D01*
X147153365Y-78646890D01*
X147203701Y-78649419D01*
X147251276Y-78624705D01*
X147254979Y-78621356D01*
X147270783Y-78603935D01*
X147280693Y-78583209D01*
X147286058Y-78552362D01*
X147288228Y-78504577D01*
X147288571Y-78451748D01*
X147287827Y-78385381D01*
X147284748Y-78341106D01*
X147278061Y-78312009D01*
X147266496Y-78291173D01*
X147257013Y-78280107D01*
X147212960Y-78252198D01*
X147162224Y-78248843D01*
X147113796Y-78270159D01*
X147104450Y-78278073D01*
X147088540Y-78295647D01*
X147078610Y-78316587D01*
X147073278Y-78347782D01*
X147071163Y-78396122D01*
X147070857Y-78445647D01*
X146969458Y-78445647D01*
X146972810Y-78358568D01*
X146984726Y-78290086D01*
G37*
D14*
X146984726Y-78290086D02*
X147007135Y-78238600D01*
X147042124Y-78198443D01*
X147069375Y-78177861D01*
X147118907Y-78155625D01*
X147176316Y-78145304D01*
X147229682Y-78148067D01*
X147259543Y-78159212D01*
X147271261Y-78162383D01*
X147279037Y-78150557D01*
X147284465Y-78118866D01*
X147288571Y-78070593D01*
X147293067Y-78016829D01*
X147299313Y-77984482D01*
X147310676Y-77965985D01*
X147330528Y-77953770D01*
X147343000Y-77948362D01*
X147390171Y-77928601D01*
X147390117Y-78265358D01*
X147389933Y-78373837D01*
X147389219Y-78457287D01*
X147387675Y-78519704D01*
X147385001Y-78565085D01*
X147380894Y-78597429D01*
X147375055Y-78620733D01*
X147367182Y-78638995D01*
X147361221Y-78649418D01*
X147311855Y-78705945D01*
X147249264Y-78741377D01*
X147180013Y-78754090D01*
X147110668Y-78742463D01*
X147069375Y-78721568D01*
X147026025Y-78685422D01*
X146996481Y-78641276D01*
X146978655Y-78583462D01*
X146970463Y-78506313D01*
X146969302Y-78449714D01*
X146969458Y-78445647D01*
X147070857Y-78445647D01*
X147071476Y-78510550D01*
X147074314Y-78553514D01*
X147080840Y-78581622D01*
X147092523Y-78601953D01*
X147106483Y-78617288D01*
X147153365Y-78646890D01*
X147203701Y-78649419D01*
X147251276Y-78624705D01*
X147254979Y-78621356D01*
X147270783Y-78603935D01*
X147280693Y-78583209D01*
X147286058Y-78552362D01*
X147288228Y-78504577D01*
X147288571Y-78451748D01*
X147287827Y-78385381D01*
X147284748Y-78341106D01*
X147278061Y-78312009D01*
X147266496Y-78291173D01*
X147257013Y-78280107D01*
X147212960Y-78252198D01*
X147162224Y-78248843D01*
X147113796Y-78270159D01*
X147104450Y-78278073D01*
X147088540Y-78295647D01*
X147078610Y-78316587D01*
X147073278Y-78347782D01*
X147071163Y-78396122D01*
X147070857Y-78445647D01*
X146969458Y-78445647D01*
X146972810Y-78358568D01*
X146984726Y-78290086D01*
G36*
X144916093Y-78127780D02*
G01*
X144962672Y-78154723D01*
X144995057Y-78181466D01*
X145018742Y-78209484D01*
X145035059Y-78243748D01*
X145045339Y-78289227D01*
X145050914Y-78350892D01*
X145053116Y-78433711D01*
X145053371Y-78493246D01*
X145053371Y-78712391D01*
X144991686Y-78740044D01*
X144930000Y-78767697D01*
X144922743Y-78527670D01*
X144919744Y-78438028D01*
X144916598Y-78372962D01*
X144912701Y-78328026D01*
X144907447Y-78298770D01*
X144900231Y-78280748D01*
X144890450Y-78269511D01*
X144887312Y-78267079D01*
X144839761Y-78248083D01*
X144791697Y-78255600D01*
X144763086Y-78275543D01*
X144751447Y-78289675D01*
X144743391Y-78308220D01*
X144738271Y-78336334D01*
X144735441Y-78379173D01*
X144734256Y-78441895D01*
X144734057Y-78507261D01*
X144734018Y-78589268D01*
X144732614Y-78647316D01*
X144727914Y-78686465D01*
X144717987Y-78711780D01*
X144700903Y-78728323D01*
X144674732Y-78741156D01*
X144639775Y-78754491D01*
X144601596Y-78769007D01*
X144606141Y-78511389D01*
X144607971Y-78418519D01*
X144610112Y-78349889D01*
X144613181Y-78300711D01*
X144617794Y-78266198D01*
X144624568Y-78241562D01*
X144634119Y-78222016D01*
X144645634Y-78204770D01*
X144701190Y-78149680D01*
X144768980Y-78117822D01*
X144842713Y-78110191D01*
X144916093Y-78127780D01*
G37*
X144916093Y-78127780D02*
X144962672Y-78154723D01*
X144995057Y-78181466D01*
X145018742Y-78209484D01*
X145035059Y-78243748D01*
X145045339Y-78289227D01*
X145050914Y-78350892D01*
X145053116Y-78433711D01*
X145053371Y-78493246D01*
X145053371Y-78712391D01*
X144991686Y-78740044D01*
X144930000Y-78767697D01*
X144922743Y-78527670D01*
X144919744Y-78438028D01*
X144916598Y-78372962D01*
X144912701Y-78328026D01*
X144907447Y-78298770D01*
X144900231Y-78280748D01*
X144890450Y-78269511D01*
X144887312Y-78267079D01*
X144839761Y-78248083D01*
X144791697Y-78255600D01*
X144763086Y-78275543D01*
X144751447Y-78289675D01*
X144743391Y-78308220D01*
X144738271Y-78336334D01*
X144735441Y-78379173D01*
X144734256Y-78441895D01*
X144734057Y-78507261D01*
X144734018Y-78589268D01*
X144732614Y-78647316D01*
X144727914Y-78686465D01*
X144717987Y-78711780D01*
X144700903Y-78728323D01*
X144674732Y-78741156D01*
X144639775Y-78754491D01*
X144601596Y-78769007D01*
X144606141Y-78511389D01*
X144607971Y-78418519D01*
X144610112Y-78349889D01*
X144613181Y-78300711D01*
X144617794Y-78266198D01*
X144624568Y-78241562D01*
X144634119Y-78222016D01*
X144645634Y-78204770D01*
X144701190Y-78149680D01*
X144768980Y-78117822D01*
X144842713Y-78110191D01*
X144916093Y-78127780D01*
G36*
X149068196Y-78295384D02*
G01*
X149081884Y-78246695D01*
X149104096Y-78210849D01*
X149136574Y-78182513D01*
X149150733Y-78173355D01*
X149215053Y-78149507D01*
X149285473Y-78148006D01*
X149353595Y-78166966D01*
X149411021Y-78204497D01*
X149438719Y-78238096D01*
X149460662Y-78299064D01*
X149462405Y-78347308D01*
X149458457Y-78411816D01*
X149309686Y-78476934D01*
X149237349Y-78510202D01*
X149190084Y-78536964D01*
X149165507Y-78560144D01*
X149161237Y-78582667D01*
X149174889Y-78607455D01*
X149189943Y-78623886D01*
X149233746Y-78650235D01*
X149281389Y-78652081D01*
X149325145Y-78631546D01*
X149357289Y-78590752D01*
X149363038Y-78576347D01*
X149390576Y-78531356D01*
X149422258Y-78512182D01*
X149465714Y-78495779D01*
X149465714Y-78557966D01*
X149461872Y-78600283D01*
X149446823Y-78635969D01*
X149415280Y-78676943D01*
X149410592Y-78682267D01*
X149375506Y-78718720D01*
X149345347Y-78738283D01*
X149307615Y-78747283D01*
X149276335Y-78750230D01*
X149220385Y-78750965D01*
X149180555Y-78741660D01*
X149155708Y-78727846D01*
X149116656Y-78697467D01*
X149089625Y-78664613D01*
X149072517Y-78623294D01*
X149063238Y-78567521D01*
X149059693Y-78491305D01*
X149059410Y-78452622D01*
X149060372Y-78406247D01*
X149148007Y-78406247D01*
X149149023Y-78431126D01*
X149151556Y-78435200D01*
X149168274Y-78429665D01*
X149204249Y-78415017D01*
X149252331Y-78394190D01*
X149262386Y-78389714D01*
X149323152Y-78358814D01*
X149356632Y-78331657D01*
X149363990Y-78306220D01*
X149346391Y-78280481D01*
X149331856Y-78269109D01*
X149279410Y-78246364D01*
X149230322Y-78250122D01*
X149189227Y-78277884D01*
X149160758Y-78327152D01*
X149151631Y-78366257D01*
X149148007Y-78406247D01*
X149060372Y-78406247D01*
X149061285Y-78362249D01*
X149068196Y-78295384D01*
G37*
X149068196Y-78295384D02*
X149081884Y-78246695D01*
X149104096Y-78210849D01*
X149136574Y-78182513D01*
X149150733Y-78173355D01*
X149215053Y-78149507D01*
X149285473Y-78148006D01*
X149353595Y-78166966D01*
X149411021Y-78204497D01*
X149438719Y-78238096D01*
X149460662Y-78299064D01*
X149462405Y-78347308D01*
X149458457Y-78411816D01*
X149309686Y-78476934D01*
X149237349Y-78510202D01*
X149190084Y-78536964D01*
X149165507Y-78560144D01*
X149161237Y-78582667D01*
X149174889Y-78607455D01*
X149189943Y-78623886D01*
X149233746Y-78650235D01*
X149281389Y-78652081D01*
X149325145Y-78631546D01*
X149357289Y-78590752D01*
X149363038Y-78576347D01*
X149390576Y-78531356D01*
X149422258Y-78512182D01*
X149465714Y-78495779D01*
X149465714Y-78557966D01*
X149461872Y-78600283D01*
X149446823Y-78635969D01*
X149415280Y-78676943D01*
X149410592Y-78682267D01*
X149375506Y-78718720D01*
X149345347Y-78738283D01*
X149307615Y-78747283D01*
X149276335Y-78750230D01*
X149220385Y-78750965D01*
X149180555Y-78741660D01*
X149155708Y-78727846D01*
X149116656Y-78697467D01*
X149089625Y-78664613D01*
X149072517Y-78623294D01*
X149063238Y-78567521D01*
X149059693Y-78491305D01*
X149059410Y-78452622D01*
X149060372Y-78406247D01*
X149148007Y-78406247D01*
X149149023Y-78431126D01*
X149151556Y-78435200D01*
X149168274Y-78429665D01*
X149204249Y-78415017D01*
X149252331Y-78394190D01*
X149262386Y-78389714D01*
X149323152Y-78358814D01*
X149356632Y-78331657D01*
X149363990Y-78306220D01*
X149346391Y-78280481D01*
X149331856Y-78269109D01*
X149279410Y-78246364D01*
X149230322Y-78250122D01*
X149189227Y-78277884D01*
X149160758Y-78327152D01*
X149151631Y-78366257D01*
X149148007Y-78406247D01*
X149060372Y-78406247D01*
X149061285Y-78362249D01*
X149068196Y-78295384D01*
G36*
X146729926Y-78149755D02*
G01*
X146795858Y-78174084D01*
X146849273Y-78217117D01*
X146870164Y-78247409D01*
X146892939Y-78302994D01*
X146892466Y-78343186D01*
X146868562Y-78370217D01*
X146859717Y-78374813D01*
X146821530Y-78389144D01*
X146802028Y-78385472D01*
X146795422Y-78361407D01*
X146795086Y-78348114D01*
X146782992Y-78299210D01*
X146751471Y-78264999D01*
X146707659Y-78248476D01*
X146658695Y-78252634D01*
X146618894Y-78274227D01*
X146605450Y-78286544D01*
X146595921Y-78301487D01*
X146589485Y-78324075D01*
X146585317Y-78359328D01*
X146582597Y-78412266D01*
X146580502Y-78487907D01*
X146579960Y-78511857D01*
X146577981Y-78593790D01*
X146575731Y-78651455D01*
X146572357Y-78689608D01*
X146567006Y-78713004D01*
X146558824Y-78726398D01*
X146546959Y-78734545D01*
X146539362Y-78738144D01*
X146507102Y-78750452D01*
X146488111Y-78754514D01*
X146481836Y-78740948D01*
X146478006Y-78699934D01*
X146476600Y-78630999D01*
X146477598Y-78533669D01*
X146477908Y-78518657D01*
X146480101Y-78429859D01*
X146482693Y-78365019D01*
X146486382Y-78319067D01*
X146491864Y-78286935D01*
X146499835Y-78263553D01*
X146510993Y-78243852D01*
X146516830Y-78235410D01*
X146550296Y-78198057D01*
X146587727Y-78169003D01*
X146592309Y-78166467D01*
X146659426Y-78146443D01*
X146729926Y-78149755D01*
G37*
X146729926Y-78149755D02*
X146795858Y-78174084D01*
X146849273Y-78217117D01*
X146870164Y-78247409D01*
X146892939Y-78302994D01*
X146892466Y-78343186D01*
X146868562Y-78370217D01*
X146859717Y-78374813D01*
X146821530Y-78389144D01*
X146802028Y-78385472D01*
X146795422Y-78361407D01*
X146795086Y-78348114D01*
X146782992Y-78299210D01*
X146751471Y-78264999D01*
X146707659Y-78248476D01*
X146658695Y-78252634D01*
X146618894Y-78274227D01*
X146605450Y-78286544D01*
X146595921Y-78301487D01*
X146589485Y-78324075D01*
X146585317Y-78359328D01*
X146582597Y-78412266D01*
X146580502Y-78487907D01*
X146579960Y-78511857D01*
X146577981Y-78593790D01*
X146575731Y-78651455D01*
X146572357Y-78689608D01*
X146567006Y-78713004D01*
X146558824Y-78726398D01*
X146546959Y-78734545D01*
X146539362Y-78738144D01*
X146507102Y-78750452D01*
X146488111Y-78754514D01*
X146481836Y-78740948D01*
X146478006Y-78699934D01*
X146476600Y-78630999D01*
X146477598Y-78533669D01*
X146477908Y-78518657D01*
X146480101Y-78429859D01*
X146482693Y-78365019D01*
X146486382Y-78319067D01*
X146491864Y-78286935D01*
X146499835Y-78263553D01*
X146510993Y-78243852D01*
X146516830Y-78235410D01*
X146550296Y-78198057D01*
X146587727Y-78169003D01*
X146592309Y-78166467D01*
X146659426Y-78146443D01*
X146729926Y-78149755D01*
G36*
X148344876Y-78156335D02*
G01*
X148386667Y-78175344D01*
X148419469Y-78198378D01*
X148443503Y-78224133D01*
X148460097Y-78257358D01*
X148470577Y-78302800D01*
X148476271Y-78365207D01*
X148478507Y-78449327D01*
X148478743Y-78504721D01*
X148478743Y-78720826D01*
X148441774Y-78737670D01*
X148412656Y-78749981D01*
X148398231Y-78754514D01*
X148395472Y-78741025D01*
X148393282Y-78704653D01*
X148391942Y-78651542D01*
X148391657Y-78609372D01*
X148390434Y-78548447D01*
X148387136Y-78500115D01*
X148382321Y-78470518D01*
X148378496Y-78464229D01*
X148352783Y-78470652D01*
X148312418Y-78487125D01*
X148265679Y-78509458D01*
X148220845Y-78533457D01*
X148186193Y-78554930D01*
X148170002Y-78569685D01*
X148169938Y-78569845D01*
X148171330Y-78597152D01*
X148183818Y-78623219D01*
X148205743Y-78644392D01*
X148237743Y-78651474D01*
X148265092Y-78650649D01*
X148303826Y-78650042D01*
X148324158Y-78659116D01*
X148336369Y-78683092D01*
X148337909Y-78687613D01*
X148343203Y-78721806D01*
X148329047Y-78742568D01*
X148292148Y-78752462D01*
X148252289Y-78754292D01*
X148180562Y-78740727D01*
X148143432Y-78721355D01*
X148097576Y-78675845D01*
X148073256Y-78619983D01*
X148071073Y-78560957D01*
X148091629Y-78505953D01*
X148122549Y-78471486D01*
X148153420Y-78452189D01*
X148201942Y-78427759D01*
X148258485Y-78402985D01*
X148267910Y-78399199D01*
X148330019Y-78371791D01*
X148365822Y-78347634D01*
X148377337Y-78323619D01*
X148366580Y-78296635D01*
X148348114Y-78275543D01*
X148304469Y-78249572D01*
X148256446Y-78247624D01*
X148212406Y-78267637D01*
X148180709Y-78307551D01*
X148176549Y-78317848D01*
X148152327Y-78355724D01*
X148116965Y-78383842D01*
X148072343Y-78406917D01*
X148072343Y-78341485D01*
X148074969Y-78301506D01*
X148086230Y-78269997D01*
X148111199Y-78236378D01*
X148135169Y-78210484D01*
X148172441Y-78173817D01*
X148201401Y-78154121D01*
X148232505Y-78146220D01*
X148267713Y-78144914D01*
X148344876Y-78156335D01*
G37*
X148344876Y-78156335D02*
X148386667Y-78175344D01*
X148419469Y-78198378D01*
X148443503Y-78224133D01*
X148460097Y-78257358D01*
X148470577Y-78302800D01*
X148476271Y-78365207D01*
X148478507Y-78449327D01*
X148478743Y-78504721D01*
X148478743Y-78720826D01*
X148441774Y-78737670D01*
X148412656Y-78749981D01*
X148398231Y-78754514D01*
X148395472Y-78741025D01*
X148393282Y-78704653D01*
X148391942Y-78651542D01*
X148391657Y-78609372D01*
X148390434Y-78548447D01*
X148387136Y-78500115D01*
X148382321Y-78470518D01*
X148378496Y-78464229D01*
X148352783Y-78470652D01*
X148312418Y-78487125D01*
X148265679Y-78509458D01*
X148220845Y-78533457D01*
X148186193Y-78554930D01*
X148170002Y-78569685D01*
X148169938Y-78569845D01*
X148171330Y-78597152D01*
X148183818Y-78623219D01*
X148205743Y-78644392D01*
X148237743Y-78651474D01*
X148265092Y-78650649D01*
X148303826Y-78650042D01*
X148324158Y-78659116D01*
X148336369Y-78683092D01*
X148337909Y-78687613D01*
X148343203Y-78721806D01*
X148329047Y-78742568D01*
X148292148Y-78752462D01*
X148252289Y-78754292D01*
X148180562Y-78740727D01*
X148143432Y-78721355D01*
X148097576Y-78675845D01*
X148073256Y-78619983D01*
X148071073Y-78560957D01*
X148091629Y-78505953D01*
X148122549Y-78471486D01*
X148153420Y-78452189D01*
X148201942Y-78427759D01*
X148258485Y-78402985D01*
X148267910Y-78399199D01*
X148330019Y-78371791D01*
X148365822Y-78347634D01*
X148377337Y-78323619D01*
X148366580Y-78296635D01*
X148348114Y-78275543D01*
X148304469Y-78249572D01*
X148256446Y-78247624D01*
X148212406Y-78267637D01*
X148180709Y-78307551D01*
X148176549Y-78317848D01*
X148152327Y-78355724D01*
X148116965Y-78383842D01*
X148072343Y-78406917D01*
X148072343Y-78341485D01*
X148074969Y-78301506D01*
X148086230Y-78269997D01*
X148111199Y-78236378D01*
X148135169Y-78210484D01*
X148172441Y-78173817D01*
X148201401Y-78154121D01*
X148232505Y-78146220D01*
X148267713Y-78144914D01*
X148344876Y-78156335D01*
G36*
X145575886Y-78051289D02*
G01*
X145580139Y-78110613D01*
X145585025Y-78145572D01*
X145591795Y-78160820D01*
X145601702Y-78161015D01*
X145604914Y-78159195D01*
X145647644Y-78146015D01*
X145703227Y-78146785D01*
X145759737Y-78160333D01*
X145795082Y-78177861D01*
X145831321Y-78205861D01*
X145857813Y-78237549D01*
X145875999Y-78277813D01*
X145887322Y-78331543D01*
X145893222Y-78403626D01*
X145895143Y-78498951D01*
X145895177Y-78517237D01*
X145895200Y-78722646D01*
X145849491Y-78738580D01*
X145817027Y-78749420D01*
X145799215Y-78754468D01*
X145798691Y-78754514D01*
X145796937Y-78740828D01*
X145795444Y-78703076D01*
X145794326Y-78646224D01*
X145793697Y-78575234D01*
X145793600Y-78532073D01*
X145793398Y-78446973D01*
X145792358Y-78385981D01*
X145789831Y-78344177D01*
X145785164Y-78316642D01*
X145777707Y-78298456D01*
X145766811Y-78284698D01*
X145760007Y-78278073D01*
X145713272Y-78251375D01*
X145662272Y-78249375D01*
X145616001Y-78271955D01*
X145607444Y-78280107D01*
X145594893Y-78295436D01*
X145586188Y-78313618D01*
X145580631Y-78339909D01*
X145577526Y-78379562D01*
X145576176Y-78437832D01*
X145575886Y-78518173D01*
X145575886Y-78722646D01*
X145530177Y-78738580D01*
X145497713Y-78749420D01*
X145479901Y-78754468D01*
X145479377Y-78754514D01*
X145478037Y-78740623D01*
X145476828Y-78701439D01*
X145475801Y-78640700D01*
X145475002Y-78562141D01*
X145474481Y-78469498D01*
X145474286Y-78366509D01*
X145474286Y-77969342D01*
X145521457Y-77949444D01*
X145568629Y-77929547D01*
X145575886Y-78051289D01*
G37*
X145575886Y-78051289D02*
X145580139Y-78110613D01*
X145585025Y-78145572D01*
X145591795Y-78160820D01*
X145601702Y-78161015D01*
X145604914Y-78159195D01*
X145647644Y-78146015D01*
X145703227Y-78146785D01*
X145759737Y-78160333D01*
X145795082Y-78177861D01*
X145831321Y-78205861D01*
X145857813Y-78237549D01*
X145875999Y-78277813D01*
X145887322Y-78331543D01*
X145893222Y-78403626D01*
X145895143Y-78498951D01*
X145895177Y-78517237D01*
X145895200Y-78722646D01*
X145849491Y-78738580D01*
X145817027Y-78749420D01*
X145799215Y-78754468D01*
X145798691Y-78754514D01*
X145796937Y-78740828D01*
X145795444Y-78703076D01*
X145794326Y-78646224D01*
X145793697Y-78575234D01*
X145793600Y-78532073D01*
X145793398Y-78446973D01*
X145792358Y-78385981D01*
X145789831Y-78344177D01*
X145785164Y-78316642D01*
X145777707Y-78298456D01*
X145766811Y-78284698D01*
X145760007Y-78278073D01*
X145713272Y-78251375D01*
X145662272Y-78249375D01*
X145616001Y-78271955D01*
X145607444Y-78280107D01*
X145594893Y-78295436D01*
X145586188Y-78313618D01*
X145580631Y-78339909D01*
X145577526Y-78379562D01*
X145576176Y-78437832D01*
X145575886Y-78518173D01*
X145575886Y-78722646D01*
X145530177Y-78738580D01*
X145497713Y-78749420D01*
X145479901Y-78754468D01*
X145479377Y-78754514D01*
X145478037Y-78740623D01*
X145476828Y-78701439D01*
X145475801Y-78640700D01*
X145475002Y-78562141D01*
X145474481Y-78469498D01*
X145474286Y-78366509D01*
X145474286Y-77969342D01*
X145521457Y-77949444D01*
X145568629Y-77929547D01*
X145575886Y-78051289D01*
G36*
X147979833Y-78158663D02*
G01*
X147982048Y-78196850D01*
X147983784Y-78254886D01*
X147984899Y-78328180D01*
X147985257Y-78405055D01*
X147985257Y-78665196D01*
X147939326Y-78711127D01*
X147907675Y-78739429D01*
X147879890Y-78750893D01*
X147841915Y-78750168D01*
X147826840Y-78748321D01*
X147779726Y-78742948D01*
X147740756Y-78739869D01*
X147731257Y-78739585D01*
X147699233Y-78741445D01*
X147653432Y-78746114D01*
X147635674Y-78748321D01*
X147592057Y-78751735D01*
X147562745Y-78744320D01*
X147533680Y-78721427D01*
X147523188Y-78711127D01*
X147477257Y-78665196D01*
X147477257Y-78178602D01*
X147514226Y-78161758D01*
X147546059Y-78149282D01*
X147564683Y-78144914D01*
X147569458Y-78158718D01*
X147573921Y-78197286D01*
X147577775Y-78256356D01*
X147580722Y-78331663D01*
X147582143Y-78395286D01*
X147586114Y-78645657D01*
X147620759Y-78650556D01*
X147652268Y-78647131D01*
X147667708Y-78636041D01*
X147672023Y-78615308D01*
X147675708Y-78571145D01*
X147678469Y-78509146D01*
X147680012Y-78434909D01*
X147680235Y-78396706D01*
X147680457Y-78176783D01*
X147726166Y-78160849D01*
X147758518Y-78150015D01*
X147776115Y-78144962D01*
X147776623Y-78144914D01*
X147778388Y-78158648D01*
X147780329Y-78196730D01*
X147782282Y-78254482D01*
X147784084Y-78327227D01*
X147785343Y-78395286D01*
X147789314Y-78645657D01*
X147876400Y-78645657D01*
X147880396Y-78417240D01*
X147884392Y-78188822D01*
X147926847Y-78166868D01*
X147958192Y-78151793D01*
X147976744Y-78144951D01*
X147977279Y-78144914D01*
X147979833Y-78158663D01*
G37*
X147979833Y-78158663D02*
X147982048Y-78196850D01*
X147983784Y-78254886D01*
X147984899Y-78328180D01*
X147985257Y-78405055D01*
X147985257Y-78665196D01*
X147939326Y-78711127D01*
X147907675Y-78739429D01*
X147879890Y-78750893D01*
X147841915Y-78750168D01*
X147826840Y-78748321D01*
X147779726Y-78742948D01*
X147740756Y-78739869D01*
X147731257Y-78739585D01*
X147699233Y-78741445D01*
X147653432Y-78746114D01*
X147635674Y-78748321D01*
X147592057Y-78751735D01*
X147562745Y-78744320D01*
X147533680Y-78721427D01*
X147523188Y-78711127D01*
X147477257Y-78665196D01*
X147477257Y-78178602D01*
X147514226Y-78161758D01*
X147546059Y-78149282D01*
X147564683Y-78144914D01*
X147569458Y-78158718D01*
X147573921Y-78197286D01*
X147577775Y-78256356D01*
X147580722Y-78331663D01*
X147582143Y-78395286D01*
X147586114Y-78645657D01*
X147620759Y-78650556D01*
X147652268Y-78647131D01*
X147667708Y-78636041D01*
X147672023Y-78615308D01*
X147675708Y-78571145D01*
X147678469Y-78509146D01*
X147680012Y-78434909D01*
X147680235Y-78396706D01*
X147680457Y-78176783D01*
X147726166Y-78160849D01*
X147758518Y-78150015D01*
X147776115Y-78144962D01*
X147776623Y-78144914D01*
X147778388Y-78158648D01*
X147780329Y-78196730D01*
X147782282Y-78254482D01*
X147784084Y-78327227D01*
X147785343Y-78395286D01*
X147789314Y-78645657D01*
X147876400Y-78645657D01*
X147880396Y-78417240D01*
X147884392Y-78188822D01*
X147926847Y-78166868D01*
X147958192Y-78151793D01*
X147976744Y-78144951D01*
X147977279Y-78144914D01*
X147979833Y-78158663D01*
G36*
X142937096Y-78308159D02*
G01*
X142942068Y-78271949D01*
X142950713Y-78245299D01*
X142964005Y-78221722D01*
X142966943Y-78217338D01*
X143016313Y-78158249D01*
X143070109Y-78123947D01*
X143135602Y-78110331D01*
X143157842Y-78109665D01*
X143241115Y-78121962D01*
X143309145Y-78157733D01*
X143359351Y-78215301D01*
X143377185Y-78252312D01*
X143391063Y-78307882D01*
X143398167Y-78378096D01*
X143398840Y-78454727D01*
X143393427Y-78529552D01*
X143382270Y-78594342D01*
X143365714Y-78640873D01*
X143360626Y-78648887D01*
X143300355Y-78708707D01*
X143228769Y-78744535D01*
X143151092Y-78755020D01*
X143072548Y-78738810D01*
X143050689Y-78729092D01*
X143008122Y-78699143D01*
X142970763Y-78659433D01*
X142967232Y-78654397D01*
X142952881Y-78630124D01*
X142943394Y-78604178D01*
X142937790Y-78570022D01*
X142935086Y-78521119D01*
X142934299Y-78450935D01*
X142934286Y-78435200D01*
X142934322Y-78430192D01*
X143079429Y-78430192D01*
X143080273Y-78496430D01*
X143083596Y-78540386D01*
X143090583Y-78568779D01*
X143102416Y-78588325D01*
X143108457Y-78594857D01*
X143143186Y-78619680D01*
X143176903Y-78618548D01*
X143210995Y-78597016D01*
X143231329Y-78574029D01*
X143243371Y-78540478D01*
X143250134Y-78487569D01*
X143250598Y-78481399D01*
X143251752Y-78385513D01*
X143239688Y-78314299D01*
X143214570Y-78268194D01*
X143176560Y-78247635D01*
X143162992Y-78246514D01*
X143127364Y-78252152D01*
X143102994Y-78271686D01*
X143088093Y-78309042D01*
X143080875Y-78368150D01*
X143079429Y-78430192D01*
X142934322Y-78430192D01*
X142934826Y-78360413D01*
X142937096Y-78308159D01*
G37*
X142937096Y-78308159D02*
X142942068Y-78271949D01*
X142950713Y-78245299D01*
X142964005Y-78221722D01*
X142966943Y-78217338D01*
X143016313Y-78158249D01*
X143070109Y-78123947D01*
X143135602Y-78110331D01*
X143157842Y-78109665D01*
X143241115Y-78121962D01*
X143309145Y-78157733D01*
X143359351Y-78215301D01*
X143377185Y-78252312D01*
X143391063Y-78307882D01*
X143398167Y-78378096D01*
X143398840Y-78454727D01*
X143393427Y-78529552D01*
X143382270Y-78594342D01*
X143365714Y-78640873D01*
X143360626Y-78648887D01*
X143300355Y-78708707D01*
X143228769Y-78744535D01*
X143151092Y-78755020D01*
X143072548Y-78738810D01*
X143050689Y-78729092D01*
X143008122Y-78699143D01*
X142970763Y-78659433D01*
X142967232Y-78654397D01*
X142952881Y-78630124D01*
X142943394Y-78604178D01*
X142937790Y-78570022D01*
X142935086Y-78521119D01*
X142934299Y-78450935D01*
X142934286Y-78435200D01*
X142934322Y-78430192D01*
X143079429Y-78430192D01*
X143080273Y-78496430D01*
X143083596Y-78540386D01*
X143090583Y-78568779D01*
X143102416Y-78588325D01*
X143108457Y-78594857D01*
X143143186Y-78619680D01*
X143176903Y-78618548D01*
X143210995Y-78597016D01*
X143231329Y-78574029D01*
X143243371Y-78540478D01*
X143250134Y-78487569D01*
X143250598Y-78481399D01*
X143251752Y-78385513D01*
X143239688Y-78314299D01*
X143214570Y-78268194D01*
X143176560Y-78247635D01*
X143162992Y-78246514D01*
X143127364Y-78252152D01*
X143102994Y-78271686D01*
X143088093Y-78309042D01*
X143080875Y-78368150D01*
X143079429Y-78430192D01*
X142934322Y-78430192D01*
X142934826Y-78360413D01*
X142937096Y-78308159D01*
G36*
X148852600Y-78158752D02*
G01*
X148869948Y-78166334D01*
X148911356Y-78199128D01*
X148946765Y-78246547D01*
X148968664Y-78297151D01*
X148972229Y-78322098D01*
X148960279Y-78356927D01*
X148934067Y-78375357D01*
X148905964Y-78386516D01*
X148893095Y-78388572D01*
X148886829Y-78373649D01*
X148874456Y-78341175D01*
X148869028Y-78326502D01*
X148838590Y-78275744D01*
X148794520Y-78250427D01*
X148738010Y-78251206D01*
X148733825Y-78252203D01*
X148703655Y-78266507D01*
X148681476Y-78294393D01*
X148666327Y-78339287D01*
X148657250Y-78404615D01*
X148653286Y-78493804D01*
X148652914Y-78541261D01*
X148652730Y-78616071D01*
X148651522Y-78667069D01*
X148648309Y-78699471D01*
X148642109Y-78718495D01*
X148631940Y-78729356D01*
X148616819Y-78737272D01*
X148615946Y-78737670D01*
X148586828Y-78749981D01*
X148572403Y-78754514D01*
X148570186Y-78740809D01*
X148568289Y-78702925D01*
X148566847Y-78645715D01*
X148565998Y-78574027D01*
X148565829Y-78521565D01*
X148566692Y-78420047D01*
X148570070Y-78343032D01*
X148577142Y-78286023D01*
X148589088Y-78244526D01*
X148607090Y-78214043D01*
X148632327Y-78190080D01*
X148657247Y-78173355D01*
X148717171Y-78151097D01*
X148786911Y-78146076D01*
X148852600Y-78158752D01*
G37*
X148852600Y-78158752D02*
X148869948Y-78166334D01*
X148911356Y-78199128D01*
X148946765Y-78246547D01*
X148968664Y-78297151D01*
X148972229Y-78322098D01*
X148960279Y-78356927D01*
X148934067Y-78375357D01*
X148905964Y-78386516D01*
X148893095Y-78388572D01*
X148886829Y-78373649D01*
X148874456Y-78341175D01*
X148869028Y-78326502D01*
X148838590Y-78275744D01*
X148794520Y-78250427D01*
X148738010Y-78251206D01*
X148733825Y-78252203D01*
X148703655Y-78266507D01*
X148681476Y-78294393D01*
X148666327Y-78339287D01*
X148657250Y-78404615D01*
X148653286Y-78493804D01*
X148652914Y-78541261D01*
X148652730Y-78616071D01*
X148651522Y-78667069D01*
X148648309Y-78699471D01*
X148642109Y-78718495D01*
X148631940Y-78729356D01*
X148616819Y-78737272D01*
X148615946Y-78737670D01*
X148586828Y-78749981D01*
X148572403Y-78754514D01*
X148570186Y-78740809D01*
X148568289Y-78702925D01*
X148566847Y-78645715D01*
X148565998Y-78574027D01*
X148565829Y-78521565D01*
X148566692Y-78420047D01*
X148570070Y-78343032D01*
X148577142Y-78286023D01*
X148589088Y-78244526D01*
X148607090Y-78214043D01*
X148632327Y-78190080D01*
X148657247Y-78173355D01*
X148717171Y-78151097D01*
X148786911Y-78146076D01*
X148852600Y-78158752D01*
G36*
X143493677Y-78350333D02*
G01*
X143496450Y-78302958D01*
X143500388Y-78269290D01*
X143505849Y-78245498D01*
X143513192Y-78227753D01*
X143522777Y-78212224D01*
X143526887Y-78206381D01*
X143581405Y-78151185D01*
X143650336Y-78119890D01*
X143730072Y-78111165D01*
X143799744Y-78119918D01*
X143855201Y-78147568D01*
X143904148Y-78198480D01*
X143917629Y-78217338D01*
X143932314Y-78242015D01*
X143941842Y-78268816D01*
X143947293Y-78304587D01*
X143949747Y-78356169D01*
X143950286Y-78424267D01*
X143947852Y-78517588D01*
X143939394Y-78587657D01*
X143923174Y-78639931D01*
X143897454Y-78679869D01*
X143860497Y-78712929D01*
X143857782Y-78714886D01*
X143821360Y-78734908D01*
X143777502Y-78744815D01*
X143721724Y-78747257D01*
X143631048Y-78747257D01*
X143631010Y-78835283D01*
X143630166Y-78884308D01*
X143625024Y-78913065D01*
X143611587Y-78930311D01*
X143585858Y-78944808D01*
X143579679Y-78947769D01*
X143550764Y-78961648D01*
X143528376Y-78970414D01*
X143511729Y-78971171D01*
X143500036Y-78961023D01*
X143492510Y-78937073D01*
X143488366Y-78896426D01*
X143486815Y-78836186D01*
X143487071Y-78753455D01*
X143488349Y-78645339D01*
X143488748Y-78613000D01*
X143490185Y-78501524D01*
X143491472Y-78428603D01*
X143630971Y-78428603D01*
X143631755Y-78490499D01*
X143635240Y-78530997D01*
X143643124Y-78557708D01*
X143657105Y-78578244D01*
X143666597Y-78588260D01*
X143705404Y-78617567D01*
X143739763Y-78619952D01*
X143775216Y-78595750D01*
X143776114Y-78594857D01*
X143790539Y-78576153D01*
X143799313Y-78550732D01*
X143803739Y-78511584D01*
X143805118Y-78451697D01*
X143805143Y-78438430D01*
X143801812Y-78355901D01*
X143790969Y-78298691D01*
X143771340Y-78263766D01*
X143741650Y-78248094D01*
X143724491Y-78246514D01*
X143683766Y-78253926D01*
X143655832Y-78278330D01*
X143639017Y-78322980D01*
X143631650Y-78391130D01*
X143630971Y-78428603D01*
X143491472Y-78428603D01*
X143491708Y-78415245D01*
X143493677Y-78350333D01*
G37*
X143493677Y-78350333D02*
X143496450Y-78302958D01*
X143500388Y-78269290D01*
X143505849Y-78245498D01*
X143513192Y-78227753D01*
X143522777Y-78212224D01*
X143526887Y-78206381D01*
X143581405Y-78151185D01*
X143650336Y-78119890D01*
X143730072Y-78111165D01*
X143799744Y-78119918D01*
X143855201Y-78147568D01*
X143904148Y-78198480D01*
X143917629Y-78217338D01*
X143932314Y-78242015D01*
X143941842Y-78268816D01*
X143947293Y-78304587D01*
X143949747Y-78356169D01*
X143950286Y-78424267D01*
X143947852Y-78517588D01*
X143939394Y-78587657D01*
X143923174Y-78639931D01*
X143897454Y-78679869D01*
X143860497Y-78712929D01*
X143857782Y-78714886D01*
X143821360Y-78734908D01*
X143777502Y-78744815D01*
X143721724Y-78747257D01*
X143631048Y-78747257D01*
X143631010Y-78835283D01*
X143630166Y-78884308D01*
X143625024Y-78913065D01*
X143611587Y-78930311D01*
X143585858Y-78944808D01*
X143579679Y-78947769D01*
X143550764Y-78961648D01*
X143528376Y-78970414D01*
X143511729Y-78971171D01*
X143500036Y-78961023D01*
X143492510Y-78937073D01*
X143488366Y-78896426D01*
X143486815Y-78836186D01*
X143487071Y-78753455D01*
X143488349Y-78645339D01*
X143488748Y-78613000D01*
X143490185Y-78501524D01*
X143491472Y-78428603D01*
X143630971Y-78428603D01*
X143631755Y-78490499D01*
X143635240Y-78530997D01*
X143643124Y-78557708D01*
X143657105Y-78578244D01*
X143666597Y-78588260D01*
X143705404Y-78617567D01*
X143739763Y-78619952D01*
X143775216Y-78595750D01*
X143776114Y-78594857D01*
X143790539Y-78576153D01*
X143799313Y-78550732D01*
X143803739Y-78511584D01*
X143805118Y-78451697D01*
X143805143Y-78438430D01*
X143801812Y-78355901D01*
X143790969Y-78298691D01*
X143771340Y-78263766D01*
X143741650Y-78248094D01*
X143724491Y-78246514D01*
X143683766Y-78253926D01*
X143655832Y-78278330D01*
X143639017Y-78322980D01*
X143631650Y-78391130D01*
X143630971Y-78428603D01*
X143491472Y-78428603D01*
X143491708Y-78415245D01*
X143493677Y-78350333D01*
G36*
X146239744Y-78150968D02*
G01*
X146296616Y-78172087D01*
X146297267Y-78172493D01*
X146332440Y-78198380D01*
X146358407Y-78228633D01*
X146376670Y-78268058D01*
X146388732Y-78321462D01*
X146396096Y-78393651D01*
X146400264Y-78489432D01*
X146400629Y-78503078D01*
X146405876Y-78708842D01*
X146361716Y-78731678D01*
X146329763Y-78747110D01*
X146310470Y-78754423D01*
X146309578Y-78754514D01*
X146306239Y-78741022D01*
X146303587Y-78704626D01*
X146301956Y-78651452D01*
X146301600Y-78608393D01*
X146301592Y-78538641D01*
X146298403Y-78494837D01*
X146287288Y-78473944D01*
X146263501Y-78472925D01*
X146222296Y-78488741D01*
X146160086Y-78517815D01*
X146114341Y-78541963D01*
X146090813Y-78562913D01*
X146083896Y-78585747D01*
X146083886Y-78586877D01*
X146095299Y-78626212D01*
X146129092Y-78647462D01*
X146180809Y-78650539D01*
X146218061Y-78650006D01*
X146237703Y-78660735D01*
X146249952Y-78686505D01*
X146257002Y-78719337D01*
X146246842Y-78737966D01*
X146243017Y-78740632D01*
X146207001Y-78751340D01*
X146156566Y-78752856D01*
X146104626Y-78745759D01*
X146067822Y-78732788D01*
X146016938Y-78689585D01*
X145988014Y-78629446D01*
X145982286Y-78582462D01*
X145986657Y-78540082D01*
X146002475Y-78505488D01*
X146033797Y-78474763D01*
X146084678Y-78443990D01*
X146159176Y-78409252D01*
X146163714Y-78407288D01*
X146230821Y-78376287D01*
X146272232Y-78350862D01*
X146289981Y-78328014D01*
X146286107Y-78304745D01*
X146262643Y-78278056D01*
X146255627Y-78271914D01*
X146208630Y-78248100D01*
X146159933Y-78249103D01*
X146117522Y-78272451D01*
X146089384Y-78315675D01*
X146086769Y-78324160D01*
X146061308Y-78365308D01*
X146029001Y-78385128D01*
X145982286Y-78404770D01*
X145982286Y-78353950D01*
X145996496Y-78280082D01*
X146038675Y-78212327D01*
X146060624Y-78189661D01*
X146110517Y-78160569D01*
X146173967Y-78147400D01*
X146239744Y-78150968D01*
G37*
X146239744Y-78150968D02*
X146296616Y-78172087D01*
X146297267Y-78172493D01*
X146332440Y-78198380D01*
X146358407Y-78228633D01*
X146376670Y-78268058D01*
X146388732Y-78321462D01*
X146396096Y-78393651D01*
X146400264Y-78489432D01*
X146400629Y-78503078D01*
X146405876Y-78708842D01*
X146361716Y-78731678D01*
X146329763Y-78747110D01*
X146310470Y-78754423D01*
X146309578Y-78754514D01*
X146306239Y-78741022D01*
X146303587Y-78704626D01*
X146301956Y-78651452D01*
X146301600Y-78608393D01*
X146301592Y-78538641D01*
X146298403Y-78494837D01*
X146287288Y-78473944D01*
X146263501Y-78472925D01*
X146222296Y-78488741D01*
X146160086Y-78517815D01*
X146114341Y-78541963D01*
X146090813Y-78562913D01*
X146083896Y-78585747D01*
X146083886Y-78586877D01*
X146095299Y-78626212D01*
X146129092Y-78647462D01*
X146180809Y-78650539D01*
X146218061Y-78650006D01*
X146237703Y-78660735D01*
X146249952Y-78686505D01*
X146257002Y-78719337D01*
X146246842Y-78737966D01*
X146243017Y-78740632D01*
X146207001Y-78751340D01*
X146156566Y-78752856D01*
X146104626Y-78745759D01*
X146067822Y-78732788D01*
X146016938Y-78689585D01*
X145988014Y-78629446D01*
X145982286Y-78582462D01*
X145986657Y-78540082D01*
X146002475Y-78505488D01*
X146033797Y-78474763D01*
X146084678Y-78443990D01*
X146159176Y-78409252D01*
X146163714Y-78407288D01*
X146230821Y-78376287D01*
X146272232Y-78350862D01*
X146289981Y-78328014D01*
X146286107Y-78304745D01*
X146262643Y-78278056D01*
X146255627Y-78271914D01*
X146208630Y-78248100D01*
X146159933Y-78249103D01*
X146117522Y-78272451D01*
X146089384Y-78315675D01*
X146086769Y-78324160D01*
X146061308Y-78365308D01*
X146029001Y-78385128D01*
X145982286Y-78404770D01*
X145982286Y-78353950D01*
X145996496Y-78280082D01*
X146038675Y-78212327D01*
X146060624Y-78189661D01*
X146110517Y-78160569D01*
X146173967Y-78147400D01*
X146239744Y-78150968D01*
G36*
X146303910Y-73442348D02*
G01*
X146382454Y-73442778D01*
X146439298Y-73443942D01*
X146478105Y-73446207D01*
X146502538Y-73449940D01*
X146516262Y-73455506D01*
X146522940Y-73463273D01*
X146526236Y-73473605D01*
X146526556Y-73474943D01*
X146531562Y-73499079D01*
X146540829Y-73546701D01*
X146553392Y-73612741D01*
X146568287Y-73692128D01*
X146584551Y-73779796D01*
X146585119Y-73782875D01*
X146601410Y-73868789D01*
X146616652Y-73944696D01*
X146629861Y-74006045D01*
X146640054Y-74048282D01*
X146646248Y-74066855D01*
X146646543Y-74067184D01*
X146664788Y-74076253D01*
X146702405Y-74091367D01*
X146751271Y-74109262D01*
X146751543Y-74109358D01*
X146813093Y-74132493D01*
X146885657Y-74161965D01*
X146954057Y-74191597D01*
X146957294Y-74193062D01*
X147068702Y-74243626D01*
X147315399Y-74075160D01*
X147391077Y-74023803D01*
X147459631Y-73977889D01*
X147517088Y-73940030D01*
X147559476Y-73912837D01*
X147582825Y-73898921D01*
X147585042Y-73897889D01*
X147602010Y-73902484D01*
X147633701Y-73924655D01*
X147681352Y-73965447D01*
X147746198Y-74025905D01*
X147812397Y-74090227D01*
X147876214Y-74153612D01*
X147933329Y-74211451D01*
X147980305Y-74260175D01*
X148013703Y-74296210D01*
X148030085Y-74315984D01*
X148030694Y-74317002D01*
X148032505Y-74330572D01*
X148025683Y-74352733D01*
X148008540Y-74386478D01*
X147979393Y-74434800D01*
X147936555Y-74500692D01*
X147879448Y-74585517D01*
X147828766Y-74660177D01*
X147783461Y-74727140D01*
X147746150Y-74782516D01*
X147719452Y-74822420D01*
X147705985Y-74842962D01*
X147705137Y-74844356D01*
X147706781Y-74864038D01*
X147719245Y-74902293D01*
X147740048Y-74951889D01*
X147747462Y-74967728D01*
X147779814Y-75038290D01*
X147814328Y-75118353D01*
X147842365Y-75187629D01*
X147862568Y-75239045D01*
X147878615Y-75278119D01*
X147887888Y-75298541D01*
X147889041Y-75300114D01*
X147906096Y-75302721D01*
X147946298Y-75309863D01*
X148004302Y-75320523D01*
X148074763Y-75333685D01*
X148152335Y-75348333D01*
X148231672Y-75363449D01*
X148307431Y-75378018D01*
X148374264Y-75391022D01*
X148426828Y-75401445D01*
X148459776Y-75408270D01*
X148467857Y-75410199D01*
X148476205Y-75414962D01*
X148482506Y-75425718D01*
X148487045Y-75446098D01*
X148490104Y-75479734D01*
X148491967Y-75530255D01*
X148492918Y-75601292D01*
X148493240Y-75696476D01*
X148493257Y-75735492D01*
X148493257Y-76052799D01*
X148417057Y-76067839D01*
X148374663Y-76075995D01*
X148311400Y-76087899D01*
X148234962Y-76102116D01*
X148153043Y-76117210D01*
X148130400Y-76121355D01*
X148054806Y-76136053D01*
X147988953Y-76150505D01*
X147938366Y-76163375D01*
X147908574Y-76173322D01*
X147903612Y-76176287D01*
X147891426Y-76197283D01*
X147873953Y-76237967D01*
X147854577Y-76290322D01*
X147850734Y-76301600D01*
X147825339Y-76371523D01*
X147793817Y-76450418D01*
X147762969Y-76521266D01*
X147762817Y-76521595D01*
X147711447Y-76632733D01*
X147880399Y-76881253D01*
X148049352Y-77129772D01*
X147832429Y-77347058D01*
X147766819Y-77411726D01*
X147706979Y-77468733D01*
X147656267Y-77515033D01*
X147618046Y-77547584D01*
X147595675Y-77563343D01*
X147592466Y-77564343D01*
X147573626Y-77556469D01*
X147535180Y-77534578D01*
X147481330Y-77501267D01*
X147416276Y-77459131D01*
X147345940Y-77411943D01*
X147274555Y-77363810D01*
X147210908Y-77321928D01*
X147159041Y-77288871D01*
X147122995Y-77267218D01*
X147106867Y-77259543D01*
X147087189Y-77266037D01*
X147049875Y-77283150D01*
X147002621Y-77307326D01*
X146997612Y-77310013D01*
X146933977Y-77341927D01*
X146890341Y-77357579D01*
X146863202Y-77357745D01*
X146849057Y-77343204D01*
X146848975Y-77343000D01*
X146841905Y-77325779D01*
X146825042Y-77284899D01*
X146799695Y-77223525D01*
X146767171Y-77144819D01*
X146728778Y-77051947D01*
X146685822Y-76948072D01*
X146644222Y-76847502D01*
X146598504Y-76736516D01*
X146556526Y-76633703D01*
X146519548Y-76542215D01*
X146488827Y-76465201D01*
X146465622Y-76405815D01*
X146451190Y-76367209D01*
X146446743Y-76352800D01*
X146457896Y-76336272D01*
X146487069Y-76309930D01*
X146525971Y-76280887D01*
X146636757Y-76189039D01*
X146723351Y-76083759D01*
X146784716Y-75967266D01*
X146819815Y-75841776D01*
X146827608Y-75709507D01*
X146821943Y-75648457D01*
X146791078Y-75521795D01*
X146737920Y-75409941D01*
X146665767Y-75314001D01*
X146577917Y-75235076D01*
X146477665Y-75174270D01*
X146368310Y-75132687D01*
X146253147Y-75111428D01*
X146135475Y-75111599D01*
X146018590Y-75134301D01*
X145905789Y-75180638D01*
X145800369Y-75251713D01*
X145756368Y-75291911D01*
X145671979Y-75395129D01*
X145613222Y-75507925D01*
X145579704Y-75627010D01*
X145571035Y-75749095D01*
X145586823Y-75870893D01*
X145626678Y-75989116D01*
X145690207Y-76100475D01*
X145777021Y-76201684D01*
X145874029Y-76280887D01*
X145914437Y-76311162D01*
X145942982Y-76337219D01*
X145953257Y-76352825D01*
X145947877Y-76369843D01*
X145932575Y-76410500D01*
X145908612Y-76471642D01*
X145877244Y-76550119D01*
X145839732Y-76642780D01*
X145797333Y-76746472D01*
X145755663Y-76847526D01*
X145709690Y-76958607D01*
X145667107Y-77061541D01*
X145629221Y-77153165D01*
X145597340Y-77230316D01*
X145572771Y-77289831D01*
X145556820Y-77328544D01*
X145550910Y-77343000D01*
X145536948Y-77357685D01*
X145509940Y-77357642D01*
X145466413Y-77342099D01*
X145402890Y-77310284D01*
X145402388Y-77310013D01*
X145354560Y-77285323D01*
X145315897Y-77267338D01*
X145294095Y-77259614D01*
X145293133Y-77259543D01*
X145276721Y-77267378D01*
X145240487Y-77289165D01*
X145188474Y-77322328D01*
X145124725Y-77364291D01*
X145054060Y-77411943D01*
X144982116Y-77460191D01*
X144917274Y-77502151D01*
X144863735Y-77535227D01*
X144825697Y-77556821D01*
X144807533Y-77564343D01*
X144790808Y-77554457D01*
X144757180Y-77526826D01*
X144710010Y-77484495D01*
X144652658Y-77430505D01*
X144588484Y-77367899D01*
X144567497Y-77346983D01*
X144350499Y-77129623D01*
X144515668Y-76887220D01*
X144565864Y-76812781D01*
X144609919Y-76745972D01*
X144645362Y-76690665D01*
X144669719Y-76650729D01*
X144680522Y-76630036D01*
X144680838Y-76628563D01*
X144675143Y-76609058D01*
X144659826Y-76569822D01*
X144637537Y-76517430D01*
X144621893Y-76482355D01*
X144592641Y-76415201D01*
X144565094Y-76347358D01*
X144543737Y-76290034D01*
X144537935Y-76272572D01*
X144521452Y-76225938D01*
X144505340Y-76189905D01*
X144496490Y-76176287D01*
X144476960Y-76167952D01*
X144434334Y-76156137D01*
X144374145Y-76142181D01*
X144301922Y-76127422D01*
X144269600Y-76121355D01*
X144187522Y-76106273D01*
X144108795Y-76091669D01*
X144041109Y-76078980D01*
X143992160Y-76069642D01*
X143982943Y-76067839D01*
X143906743Y-76052799D01*
X143906743Y-75735492D01*
X143906914Y-75631154D01*
X143907616Y-75552213D01*
X143909134Y-75495038D01*
X143911749Y-75455999D01*
X143915746Y-75431465D01*
X143921409Y-75417805D01*
X143929020Y-75411389D01*
X143932143Y-75410199D01*
X143950978Y-75405980D01*
X143992588Y-75397562D01*
X144051630Y-75385961D01*
X144122757Y-75372195D01*
X144200625Y-75357280D01*
X144279887Y-75342232D01*
X144355198Y-75328069D01*
X144421213Y-75315806D01*
X144472587Y-75306461D01*
X144503975Y-75301050D01*
X144510959Y-75300114D01*
X144517285Y-75287596D01*
X144531290Y-75254246D01*
X144550355Y-75206377D01*
X144557634Y-75187629D01*
X144586996Y-75115195D01*
X144621571Y-75035170D01*
X144652537Y-74967728D01*
X144675323Y-74916159D01*
X144690482Y-74873785D01*
X144695542Y-74847834D01*
X144694736Y-74844356D01*
X144684041Y-74827936D01*
X144659620Y-74791417D01*
X144624095Y-74738687D01*
X144580087Y-74673635D01*
X144530217Y-74600151D01*
X144520356Y-74585645D01*
X144462492Y-74499704D01*
X144419956Y-74434261D01*
X144391054Y-74386304D01*
X144374090Y-74352820D01*
X144367367Y-74330795D01*
X144369190Y-74317217D01*
X144369236Y-74317131D01*
X144383586Y-74299297D01*
X144415323Y-74264817D01*
X144461010Y-74217268D01*
X144517204Y-74160222D01*
X144580468Y-74097255D01*
X144587602Y-74090227D01*
X144667330Y-74013020D01*
X144728857Y-73956330D01*
X144773421Y-73919110D01*
X144802257Y-73900315D01*
X144814958Y-73897889D01*
X144833494Y-73908471D01*
X144871961Y-73932916D01*
X144926386Y-73968612D01*
X144992798Y-74012947D01*
X145067225Y-74063311D01*
X145084601Y-74075160D01*
X145331297Y-74243626D01*
X145442706Y-74193062D01*
X145510457Y-74163595D01*
X145583183Y-74133959D01*
X145645703Y-74110330D01*
X145648457Y-74109358D01*
X145697360Y-74091457D01*
X145735057Y-74076320D01*
X145753425Y-74067210D01*
X145753456Y-74067184D01*
X145759285Y-74050717D01*
X145769192Y-74010219D01*
X145782195Y-73950242D01*
X145797309Y-73875340D01*
X145813552Y-73790064D01*
X145814881Y-73782875D01*
X145831175Y-73695014D01*
X145846133Y-73615260D01*
X145858791Y-73548681D01*
X145868186Y-73500347D01*
X145873354Y-73475325D01*
X145873444Y-73474943D01*
X145876589Y-73464299D01*
X145882704Y-73456262D01*
X145895453Y-73450467D01*
X145918500Y-73446547D01*
X145955509Y-73444135D01*
X146010144Y-73442865D01*
X146086067Y-73442371D01*
X146186944Y-73442286D01*
X146200000Y-73442286D01*
X146303910Y-73442348D01*
G37*
X146303910Y-73442348D02*
X146382454Y-73442778D01*
X146439298Y-73443942D01*
X146478105Y-73446207D01*
X146502538Y-73449940D01*
X146516262Y-73455506D01*
X146522940Y-73463273D01*
X146526236Y-73473605D01*
X146526556Y-73474943D01*
X146531562Y-73499079D01*
X146540829Y-73546701D01*
X146553392Y-73612741D01*
X146568287Y-73692128D01*
X146584551Y-73779796D01*
X146585119Y-73782875D01*
X146601410Y-73868789D01*
X146616652Y-73944696D01*
X146629861Y-74006045D01*
X146640054Y-74048282D01*
X146646248Y-74066855D01*
X146646543Y-74067184D01*
X146664788Y-74076253D01*
X146702405Y-74091367D01*
X146751271Y-74109262D01*
X146751543Y-74109358D01*
X146813093Y-74132493D01*
X146885657Y-74161965D01*
X146954057Y-74191597D01*
X146957294Y-74193062D01*
X147068702Y-74243626D01*
X147315399Y-74075160D01*
X147391077Y-74023803D01*
X147459631Y-73977889D01*
X147517088Y-73940030D01*
X147559476Y-73912837D01*
X147582825Y-73898921D01*
X147585042Y-73897889D01*
X147602010Y-73902484D01*
X147633701Y-73924655D01*
X147681352Y-73965447D01*
X147746198Y-74025905D01*
X147812397Y-74090227D01*
X147876214Y-74153612D01*
X147933329Y-74211451D01*
X147980305Y-74260175D01*
X148013703Y-74296210D01*
X148030085Y-74315984D01*
X148030694Y-74317002D01*
X148032505Y-74330572D01*
X148025683Y-74352733D01*
X148008540Y-74386478D01*
X147979393Y-74434800D01*
X147936555Y-74500692D01*
X147879448Y-74585517D01*
X147828766Y-74660177D01*
X147783461Y-74727140D01*
X147746150Y-74782516D01*
X147719452Y-74822420D01*
X147705985Y-74842962D01*
X147705137Y-74844356D01*
X147706781Y-74864038D01*
X147719245Y-74902293D01*
X147740048Y-74951889D01*
X147747462Y-74967728D01*
X147779814Y-75038290D01*
X147814328Y-75118353D01*
X147842365Y-75187629D01*
X147862568Y-75239045D01*
X147878615Y-75278119D01*
X147887888Y-75298541D01*
X147889041Y-75300114D01*
X147906096Y-75302721D01*
X147946298Y-75309863D01*
X148004302Y-75320523D01*
X148074763Y-75333685D01*
X148152335Y-75348333D01*
X148231672Y-75363449D01*
X148307431Y-75378018D01*
X148374264Y-75391022D01*
X148426828Y-75401445D01*
X148459776Y-75408270D01*
X148467857Y-75410199D01*
X148476205Y-75414962D01*
X148482506Y-75425718D01*
X148487045Y-75446098D01*
X148490104Y-75479734D01*
X148491967Y-75530255D01*
X148492918Y-75601292D01*
X148493240Y-75696476D01*
X148493257Y-75735492D01*
X148493257Y-76052799D01*
X148417057Y-76067839D01*
X148374663Y-76075995D01*
X148311400Y-76087899D01*
X148234962Y-76102116D01*
X148153043Y-76117210D01*
X148130400Y-76121355D01*
X148054806Y-76136053D01*
X147988953Y-76150505D01*
X147938366Y-76163375D01*
X147908574Y-76173322D01*
X147903612Y-76176287D01*
X147891426Y-76197283D01*
X147873953Y-76237967D01*
X147854577Y-76290322D01*
X147850734Y-76301600D01*
X147825339Y-76371523D01*
X147793817Y-76450418D01*
X147762969Y-76521266D01*
X147762817Y-76521595D01*
X147711447Y-76632733D01*
X147880399Y-76881253D01*
X148049352Y-77129772D01*
X147832429Y-77347058D01*
X147766819Y-77411726D01*
X147706979Y-77468733D01*
X147656267Y-77515033D01*
X147618046Y-77547584D01*
X147595675Y-77563343D01*
X147592466Y-77564343D01*
X147573626Y-77556469D01*
X147535180Y-77534578D01*
X147481330Y-77501267D01*
X147416276Y-77459131D01*
X147345940Y-77411943D01*
X147274555Y-77363810D01*
X147210908Y-77321928D01*
X147159041Y-77288871D01*
X147122995Y-77267218D01*
X147106867Y-77259543D01*
X147087189Y-77266037D01*
X147049875Y-77283150D01*
X147002621Y-77307326D01*
X146997612Y-77310013D01*
X146933977Y-77341927D01*
X146890341Y-77357579D01*
X146863202Y-77357745D01*
X146849057Y-77343204D01*
X146848975Y-77343000D01*
X146841905Y-77325779D01*
X146825042Y-77284899D01*
X146799695Y-77223525D01*
X146767171Y-77144819D01*
X146728778Y-77051947D01*
X146685822Y-76948072D01*
X146644222Y-76847502D01*
X146598504Y-76736516D01*
X146556526Y-76633703D01*
X146519548Y-76542215D01*
X146488827Y-76465201D01*
X146465622Y-76405815D01*
X146451190Y-76367209D01*
X146446743Y-76352800D01*
X146457896Y-76336272D01*
X146487069Y-76309930D01*
X146525971Y-76280887D01*
X146636757Y-76189039D01*
X146723351Y-76083759D01*
X146784716Y-75967266D01*
X146819815Y-75841776D01*
X146827608Y-75709507D01*
X146821943Y-75648457D01*
X146791078Y-75521795D01*
X146737920Y-75409941D01*
X146665767Y-75314001D01*
X146577917Y-75235076D01*
X146477665Y-75174270D01*
X146368310Y-75132687D01*
X146253147Y-75111428D01*
X146135475Y-75111599D01*
X146018590Y-75134301D01*
X145905789Y-75180638D01*
X145800369Y-75251713D01*
X145756368Y-75291911D01*
X145671979Y-75395129D01*
X145613222Y-75507925D01*
X145579704Y-75627010D01*
X145571035Y-75749095D01*
X145586823Y-75870893D01*
X145626678Y-75989116D01*
X145690207Y-76100475D01*
X145777021Y-76201684D01*
X145874029Y-76280887D01*
X145914437Y-76311162D01*
X145942982Y-76337219D01*
X145953257Y-76352825D01*
X145947877Y-76369843D01*
X145932575Y-76410500D01*
X145908612Y-76471642D01*
X145877244Y-76550119D01*
X145839732Y-76642780D01*
X145797333Y-76746472D01*
X145755663Y-76847526D01*
X145709690Y-76958607D01*
X145667107Y-77061541D01*
X145629221Y-77153165D01*
X145597340Y-77230316D01*
X145572771Y-77289831D01*
X145556820Y-77328544D01*
X145550910Y-77343000D01*
X145536948Y-77357685D01*
X145509940Y-77357642D01*
X145466413Y-77342099D01*
X145402890Y-77310284D01*
X145402388Y-77310013D01*
X145354560Y-77285323D01*
X145315897Y-77267338D01*
X145294095Y-77259614D01*
X145293133Y-77259543D01*
X145276721Y-77267378D01*
X145240487Y-77289165D01*
X145188474Y-77322328D01*
X145124725Y-77364291D01*
X145054060Y-77411943D01*
X144982116Y-77460191D01*
X144917274Y-77502151D01*
X144863735Y-77535227D01*
X144825697Y-77556821D01*
X144807533Y-77564343D01*
X144790808Y-77554457D01*
X144757180Y-77526826D01*
X144710010Y-77484495D01*
X144652658Y-77430505D01*
X144588484Y-77367899D01*
X144567497Y-77346983D01*
X144350499Y-77129623D01*
X144515668Y-76887220D01*
X144565864Y-76812781D01*
X144609919Y-76745972D01*
X144645362Y-76690665D01*
X144669719Y-76650729D01*
X144680522Y-76630036D01*
X144680838Y-76628563D01*
X144675143Y-76609058D01*
X144659826Y-76569822D01*
X144637537Y-76517430D01*
X144621893Y-76482355D01*
X144592641Y-76415201D01*
X144565094Y-76347358D01*
X144543737Y-76290034D01*
X144537935Y-76272572D01*
X144521452Y-76225938D01*
X144505340Y-76189905D01*
X144496490Y-76176287D01*
X144476960Y-76167952D01*
X144434334Y-76156137D01*
X144374145Y-76142181D01*
X144301922Y-76127422D01*
X144269600Y-76121355D01*
X144187522Y-76106273D01*
X144108795Y-76091669D01*
X144041109Y-76078980D01*
X143992160Y-76069642D01*
X143982943Y-76067839D01*
X143906743Y-76052799D01*
X143906743Y-75735492D01*
X143906914Y-75631154D01*
X143907616Y-75552213D01*
X143909134Y-75495038D01*
X143911749Y-75455999D01*
X143915746Y-75431465D01*
X143921409Y-75417805D01*
X143929020Y-75411389D01*
X143932143Y-75410199D01*
X143950978Y-75405980D01*
X143992588Y-75397562D01*
X144051630Y-75385961D01*
X144122757Y-75372195D01*
X144200625Y-75357280D01*
X144279887Y-75342232D01*
X144355198Y-75328069D01*
X144421213Y-75315806D01*
X144472587Y-75306461D01*
X144503975Y-75301050D01*
X144510959Y-75300114D01*
X144517285Y-75287596D01*
X144531290Y-75254246D01*
X144550355Y-75206377D01*
X144557634Y-75187629D01*
X144586996Y-75115195D01*
X144621571Y-75035170D01*
X144652537Y-74967728D01*
X144675323Y-74916159D01*
X144690482Y-74873785D01*
X144695542Y-74847834D01*
X144694736Y-74844356D01*
X144684041Y-74827936D01*
X144659620Y-74791417D01*
X144624095Y-74738687D01*
X144580087Y-74673635D01*
X144530217Y-74600151D01*
X144520356Y-74585645D01*
X144462492Y-74499704D01*
X144419956Y-74434261D01*
X144391054Y-74386304D01*
X144374090Y-74352820D01*
X144367367Y-74330795D01*
X144369190Y-74317217D01*
X144369236Y-74317131D01*
X144383586Y-74299297D01*
X144415323Y-74264817D01*
X144461010Y-74217268D01*
X144517204Y-74160222D01*
X144580468Y-74097255D01*
X144587602Y-74090227D01*
X144667330Y-74013020D01*
X144728857Y-73956330D01*
X144773421Y-73919110D01*
X144802257Y-73900315D01*
X144814958Y-73897889D01*
X144833494Y-73908471D01*
X144871961Y-73932916D01*
X144926386Y-73968612D01*
X144992798Y-74012947D01*
X145067225Y-74063311D01*
X145084601Y-74075160D01*
X145331297Y-74243626D01*
X145442706Y-74193062D01*
X145510457Y-74163595D01*
X145583183Y-74133959D01*
X145645703Y-74110330D01*
X145648457Y-74109358D01*
X145697360Y-74091457D01*
X145735057Y-74076320D01*
X145753425Y-74067210D01*
X145753456Y-74067184D01*
X145759285Y-74050717D01*
X145769192Y-74010219D01*
X145782195Y-73950242D01*
X145797309Y-73875340D01*
X145813552Y-73790064D01*
X145814881Y-73782875D01*
X145831175Y-73695014D01*
X145846133Y-73615260D01*
X145858791Y-73548681D01*
X145868186Y-73500347D01*
X145873354Y-73475325D01*
X145873444Y-73474943D01*
X145876589Y-73464299D01*
X145882704Y-73456262D01*
X145895453Y-73450467D01*
X145918500Y-73446547D01*
X145955509Y-73444135D01*
X146010144Y-73442865D01*
X146086067Y-73442371D01*
X146186944Y-73442286D01*
X146200000Y-73442286D01*
X146303910Y-73442348D01*
G36*
X144071550Y-78236212D02*
G01*
X144105456Y-78187302D01*
X144166653Y-78137878D01*
X144234063Y-78113359D01*
X144302880Y-78111797D01*
X144368303Y-78131239D01*
X144425527Y-78169735D01*
X144469749Y-78225335D01*
X144496167Y-78296086D01*
X144501510Y-78348162D01*
X144500903Y-78369893D01*
X144495822Y-78386531D01*
X144481855Y-78401437D01*
X144454589Y-78417973D01*
X144409612Y-78439498D01*
X144342511Y-78469374D01*
X144342171Y-78469524D01*
X144280407Y-78497813D01*
X144229759Y-78522933D01*
X144195404Y-78542179D01*
X144182518Y-78552848D01*
X144182514Y-78552934D01*
X144193872Y-78576166D01*
X144220431Y-78601774D01*
X144250923Y-78620221D01*
X144266370Y-78623886D01*
X144308515Y-78611212D01*
X144344808Y-78579471D01*
X144362517Y-78544572D01*
X144379552Y-78518845D01*
X144412922Y-78489546D01*
X144452149Y-78464235D01*
X144486756Y-78450471D01*
X144493993Y-78449714D01*
X144502139Y-78462160D01*
X144502630Y-78493972D01*
X144496643Y-78536866D01*
X144485357Y-78582558D01*
X144469950Y-78622761D01*
X144469171Y-78624322D01*
X144422804Y-78689062D01*
X144362711Y-78733097D01*
X144294465Y-78754711D01*
X144223638Y-78752185D01*
X144155804Y-78723804D01*
X144152788Y-78721808D01*
X144099427Y-78673448D01*
X144064340Y-78610352D01*
X144044922Y-78527387D01*
X144042316Y-78504078D01*
X144037701Y-78394055D01*
X144043233Y-78342748D01*
X144182514Y-78342748D01*
X144184324Y-78374753D01*
X144194222Y-78384093D01*
X144218898Y-78377105D01*
X144257795Y-78360587D01*
X144301275Y-78339881D01*
X144302356Y-78339333D01*
X144339209Y-78319949D01*
X144354000Y-78307013D01*
X144350353Y-78293451D01*
X144334995Y-78275632D01*
X144295923Y-78249845D01*
X144253846Y-78247950D01*
X144216103Y-78266717D01*
X144190034Y-78302915D01*
X144182514Y-78342748D01*
X144043233Y-78342748D01*
X144047194Y-78306027D01*
X144071550Y-78236212D01*
G37*
X144071550Y-78236212D02*
X144105456Y-78187302D01*
X144166653Y-78137878D01*
X144234063Y-78113359D01*
X144302880Y-78111797D01*
X144368303Y-78131239D01*
X144425527Y-78169735D01*
X144469749Y-78225335D01*
X144496167Y-78296086D01*
X144501510Y-78348162D01*
X144500903Y-78369893D01*
X144495822Y-78386531D01*
X144481855Y-78401437D01*
X144454589Y-78417973D01*
X144409612Y-78439498D01*
X144342511Y-78469374D01*
X144342171Y-78469524D01*
X144280407Y-78497813D01*
X144229759Y-78522933D01*
X144195404Y-78542179D01*
X144182518Y-78552848D01*
X144182514Y-78552934D01*
X144193872Y-78576166D01*
X144220431Y-78601774D01*
X144250923Y-78620221D01*
X144266370Y-78623886D01*
X144308515Y-78611212D01*
X144344808Y-78579471D01*
X144362517Y-78544572D01*
X144379552Y-78518845D01*
X144412922Y-78489546D01*
X144452149Y-78464235D01*
X144486756Y-78450471D01*
X144493993Y-78449714D01*
X144502139Y-78462160D01*
X144502630Y-78493972D01*
X144496643Y-78536866D01*
X144485357Y-78582558D01*
X144469950Y-78622761D01*
X144469171Y-78624322D01*
X144422804Y-78689062D01*
X144362711Y-78733097D01*
X144294465Y-78754711D01*
X144223638Y-78752185D01*
X144155804Y-78723804D01*
X144152788Y-78721808D01*
X144099427Y-78673448D01*
X144064340Y-78610352D01*
X144044922Y-78527387D01*
X144042316Y-78504078D01*
X144037701Y-78394055D01*
X144043233Y-78342748D01*
X144182514Y-78342748D01*
X144184324Y-78374753D01*
X144194222Y-78384093D01*
X144218898Y-78377105D01*
X144257795Y-78360587D01*
X144301275Y-78339881D01*
X144302356Y-78339333D01*
X144339209Y-78319949D01*
X144354000Y-78307013D01*
X144350353Y-78293451D01*
X144334995Y-78275632D01*
X144295923Y-78249845D01*
X144253846Y-78247950D01*
X144216103Y-78266717D01*
X144190034Y-78302915D01*
X144182514Y-78342748D01*
X144043233Y-78342748D01*
X144047194Y-78306027D01*
X144071550Y-78236212D01*
D13*
%TO.C,47*%
X157750000Y-89450000D02*
X157750000Y-91350000D01*
X155850000Y-89450000D02*
X157750000Y-89450000D01*
X157750000Y-91350000D02*
X155850000Y-91350000D01*
X155850000Y-91350000D02*
X155850000Y-89450000D01*
%TO.C,42*%
X165150000Y-96350000D02*
X163250000Y-96350000D01*
X163250000Y-94450000D02*
X165150000Y-94450000D01*
X165150000Y-94450000D02*
X165150000Y-96350000D01*
X163250000Y-96350000D02*
X163250000Y-94450000D01*
%TO.C,36*%
X160250000Y-91850000D02*
X162150000Y-91850000D01*
X162150000Y-93750000D02*
X160250000Y-93750000D01*
X162150000Y-91850000D02*
X162150000Y-93750000D01*
X160250000Y-93750000D02*
X160250000Y-91850000D01*
%TO.C,EN*%
X163250000Y-100750000D02*
X163250000Y-103650000D01*
X160350000Y-100750000D02*
X163250000Y-100750000D01*
X163250000Y-103650000D02*
X160350000Y-103650000D01*
X160350000Y-103650000D02*
X160350000Y-100750000D01*
%TO.C,LRCLK*%
X144950000Y-87550000D02*
X147850000Y-87550000D01*
X147850000Y-87550000D02*
X147850000Y-90450000D01*
X147850000Y-90450000D02*
X144950000Y-90450000D01*
X144950000Y-90450000D02*
X144950000Y-87550000D01*
%TO.C,DIN*%
X149850000Y-96450000D02*
X146950000Y-96450000D01*
X146950000Y-96450000D02*
X146950000Y-93550000D01*
X146950000Y-93550000D02*
X149850000Y-93550000D01*
X149850000Y-93550000D02*
X149850000Y-96450000D01*
%TO.C,34*%
X159950000Y-89450000D02*
X159950000Y-91350000D01*
X158050000Y-89450000D02*
X159950000Y-89450000D01*
X158050000Y-91350000D02*
X158050000Y-89450000D01*
X159950000Y-91350000D02*
X158050000Y-91350000D01*
%TO.C,SCL*%
X141150000Y-79350000D02*
X144050000Y-79350000D01*
X141150000Y-82250000D02*
X141150000Y-79350000D01*
X144050000Y-82250000D02*
X141150000Y-82250000D01*
X144050000Y-79350000D02*
X144050000Y-82250000D01*
%TO.C,33*%
X157750000Y-91850000D02*
X157750000Y-93750000D01*
X155850000Y-93750000D02*
X155850000Y-91850000D01*
X157750000Y-93750000D02*
X155850000Y-93750000D01*
X155850000Y-91850000D02*
X157750000Y-91850000D01*
%TO.C,41*%
X162150000Y-98150000D02*
X160250000Y-98150000D01*
X160250000Y-96250000D02*
X162150000Y-96250000D01*
X162150000Y-96250000D02*
X162150000Y-98150000D01*
X160250000Y-98150000D02*
X160250000Y-96250000D01*
%TO.C,40*%
X158050000Y-96250000D02*
X159950000Y-96250000D01*
X159950000Y-98150000D02*
X158050000Y-98150000D01*
X159950000Y-96250000D02*
X159950000Y-98150000D01*
X158050000Y-98150000D02*
X158050000Y-96250000D01*
%TO.C,PSU*%
X167550000Y-80350000D02*
X170450000Y-80350000D01*
X170450000Y-80350000D02*
X170450000Y-83250000D01*
X167550000Y-83250000D02*
X167550000Y-80350000D01*
X170450000Y-83250000D02*
X167550000Y-83250000D01*
%TD*%
M02*
