%TF.GenerationSoftware,KiCad,Pcbnew,(6.0.5-0)*%
%TF.CreationDate,2022-09-09T19:09:32+08:00*%
%TF.ProjectId,Nebula,4e656275-6c61-42e6-9b69-6361645f7063,rev?*%
%TF.SameCoordinates,Original*%
%TF.FileFunction,Soldermask,Top*%
%TF.FilePolarity,Negative*%
%FSLAX46Y46*%
G04 Gerber Fmt 4.6, Leading zero omitted, Abs format (unit mm)*
G04 Created by KiCad (PCBNEW (6.0.5-0)) date 2022-09-09 19:09:32*
%MOMM*%
%LPD*%
G01*
G04 APERTURE LIST*
G04 Aperture macros list*
%AMRoundRect*
0 Rectangle with rounded corners*
0 $1 Rounding radius*
0 $2 $3 $4 $5 $6 $7 $8 $9 X,Y pos of 4 corners*
0 Add a 4 corners polygon primitive as box body*
4,1,4,$2,$3,$4,$5,$6,$7,$8,$9,$2,$3,0*
0 Add four circle primitives for the rounded corners*
1,1,$1+$1,$2,$3*
1,1,$1+$1,$4,$5*
1,1,$1+$1,$6,$7*
1,1,$1+$1,$8,$9*
0 Add four rect primitives between the rounded corners*
20,1,$1+$1,$2,$3,$4,$5,0*
20,1,$1+$1,$4,$5,$6,$7,0*
20,1,$1+$1,$6,$7,$8,$9,0*
20,1,$1+$1,$8,$9,$2,$3,0*%
G04 Aperture macros list end*
%ADD10R,2.500000X2.500000*%
%ADD11R,1.500000X1.500000*%
%ADD12RoundRect,0.087500X0.087500X-1.162500X0.087500X1.162500X-0.087500X1.162500X-0.087500X-1.162500X0*%
%ADD13C,0.600000*%
%ADD14RoundRect,0.381000X-0.381000X0.762000X-0.381000X-0.762000X0.381000X-0.762000X0.381000X0.762000X0*%
%ADD15C,1.560000*%
%ADD16O,2.200000X1.100000*%
%ADD17O,2.600000X1.300000*%
G04 APERTURE END LIST*
D10*
%TO.C,SDA*%
X148800000Y-80800000D03*
%TD*%
%TO.C,HES3*%
X151800000Y-76400000D03*
%TD*%
%TO.C,GAIN*%
X139000000Y-95800000D03*
%TD*%
%TO.C,BCLK*%
X146400000Y-92000000D03*
%TD*%
D11*
%TO.C,35*%
X159000000Y-92800000D03*
%TD*%
D10*
%TO.C,HES2*%
X155200000Y-76400000D03*
%TD*%
D11*
%TO.C,38*%
X159000000Y-95100000D03*
%TD*%
%TO.C,39*%
X161200000Y-95100000D03*
%TD*%
D10*
%TO.C,IN+*%
X164600000Y-91600000D03*
%TD*%
D11*
%TO.C,46*%
X162400000Y-99800000D03*
%TD*%
D10*
%TO.C,IO0*%
X144200000Y-103000000D03*
%TD*%
%TO.C,SD*%
X141800000Y-98800000D03*
%TD*%
D11*
%TO.C,37*%
X156800000Y-95100000D03*
%TD*%
%TO.C,48*%
X161200000Y-90400000D03*
%TD*%
D10*
%TO.C,HES1*%
X158600000Y-76400000D03*
%TD*%
D11*
%TO.C,47*%
X156800000Y-90400000D03*
%TD*%
%TO.C,42*%
X164200000Y-95400000D03*
%TD*%
%TO.C,36*%
X161200000Y-92800000D03*
%TD*%
D10*
%TO.C,EN*%
X161800000Y-102200000D03*
%TD*%
%TO.C,LRCLK*%
X146400000Y-89000000D03*
%TD*%
%TO.C,DIN*%
X148400000Y-95000000D03*
%TD*%
D11*
%TO.C,34*%
X159000000Y-90400000D03*
%TD*%
D10*
%TO.C,SCL*%
X142600000Y-80800000D03*
%TD*%
D11*
%TO.C,33*%
X156800000Y-92800000D03*
%TD*%
%TO.C,41*%
X161200000Y-97200000D03*
%TD*%
%TO.C,40*%
X159000000Y-97200000D03*
%TD*%
D10*
%TO.C,PSU*%
X169000000Y-81800000D03*
%TD*%
D12*
%TO.C,J2*%
X159119000Y-101500000D03*
X158400000Y-101500000D03*
X157700000Y-101500000D03*
X157000000Y-101500000D03*
X156300000Y-101500000D03*
X155600000Y-101500000D03*
X154900000Y-101500000D03*
X154200000Y-101500000D03*
X153500000Y-101500000D03*
X152800000Y-101500000D03*
X152100000Y-101500000D03*
X151400000Y-101500000D03*
%TD*%
D13*
%TO.C,U7*%
X163723586Y-83850003D03*
X162223586Y-83850003D03*
X162973586Y-84350003D03*
X162223586Y-84850003D03*
X163723586Y-84850003D03*
%TD*%
D14*
%TO.C,LS1*%
X140578584Y-88250000D03*
X140578584Y-91750000D03*
%TD*%
D15*
%TO.C,U11*%
X167011273Y-75131533D03*
%TD*%
D16*
%TO.C,J1*%
X167740000Y-85680000D03*
X167740000Y-94320000D03*
D17*
X173100000Y-84350000D03*
X173100000Y-95650000D03*
%TD*%
M02*
