M48
; DRILL file {KiCad (6.0.5-0)} date Friday, 09 September 2022 at 07:09:35 pm
; FORMAT={-:-/ absolute / inch / decimal}
; #@! TF.CreationDate,2022-09-09T19:09:35+08:00
; #@! TF.GenerationSoftware,Kicad,Pcbnew,(6.0.5-0)
; #@! TF.FileFunction,Plated,1,2,PTH
FMAT,2
INCH
; #@! TA.AperFunction,Plated,PTH,ViaDrill
T1C0.0118
; #@! TA.AperFunction,Plated,PTH,ComponentDrill
T2C0.0118
; #@! TA.AperFunction,Plated,PTH,ComponentDrill
T3C0.0236
; #@! TA.AperFunction,Plated,PTH,ComponentDrill
T4C0.0378
%
G90
G05
T1
X5.4882Y-3.6969
X5.4961Y-3.1811
X5.5551Y-3.685
X5.5827Y-3.3189
X5.5984Y-4.0394
X5.6014Y-3.6663
X5.6142Y-3.0354
X5.6181Y-3.7795
X5.6195Y-3.6482
X5.6378Y-3.5433
X5.685Y-3.6142
X5.689Y-3.0591
X5.6969Y-3.315
X5.6985Y-2.9826
X5.7008Y-4.0157
X5.7244Y-3.0197
X5.7441Y-3.3071
X5.7477Y-3.7933
X5.7677Y-3.7598
X5.7696Y-3.2677
X5.779Y-3.3706
X5.7795Y-3.6929
X5.7835Y-2.8898
X5.7854Y-3.7264
X5.7957Y-4.0428
X5.815Y-3.8268
X5.8177Y-3.9027
X5.8199Y-3.9281
X5.8799Y-3.628
X5.8819Y-3.5591
X5.8819Y-3.5945
X5.8819Y-3.6614
X5.8858Y-3.5315
X5.8898Y-3.9921
X5.8976Y-2.9882
X5.9134Y-3.5197
X5.9134Y-3.9409
X5.9564Y-2.9412
X5.9882Y-3.5709
X5.9882Y-3.6024
X5.9882Y-3.9291
X6.0354Y-2.7953
X6.0354Y-3.5591
X6.06Y-2.9321
X6.126Y-3.5197
X6.1309Y-3.436
X6.1575Y-3.8898
X6.1614Y-3.4567
X6.1969Y-3.6181
X6.2165Y-2.7874
X6.2323Y-3.6998
X6.2362Y-2.937
X6.248Y-3.8976
X6.2598Y-3.5039
X6.2795Y-3.7087
X6.2835Y-3.6181
X6.2835Y-3.7913
X6.2992Y-3.9921
X6.3071Y-3.9528
X6.315Y-2.9724
X6.3268Y-3.5055
X6.3307Y-3.7087
X6.3465Y-3.5236
X6.3465Y-3.6053
X6.3524Y-3.2325
X6.3543Y-3.937
X6.37Y-3.7913
X6.4291Y-3.7598
X6.4321Y-4.0
X6.4409Y-3.811
X6.4528Y-3.9173
X6.4528Y-4.1142
X6.4587Y-3.6831
X6.4796Y-3.4912
X6.4803Y-4.0669
X6.4843Y-3.9961
X6.4921Y-3.0984
X6.4921Y-3.9213
X6.505Y-3.4026
X6.5079Y-3.2717
X6.5118Y-3.7756
X6.5157Y-3.8425
X6.5197Y-4.1811
X6.5276Y-3.0315
X6.5335Y-3.7539
X6.5472Y-3.4685
X6.5479Y-3.6345
X6.5551Y-3.0039
X6.5698Y-3.5289
X6.5748Y-4.0394
X6.5858Y-3.5551
X6.5945Y-4.0669
X6.5984Y-3.8031
X6.6063Y-3.9134
X6.6142Y-3.315
X6.6181Y-4.0906
X6.6246Y-3.52
X6.6378Y-3.4665
X6.7227Y-3.9196
X6.7717Y-3.9173
T2
X6.3868Y-3.3012
X6.3868Y-3.3406
X6.4163Y-3.3209
X6.4458Y-3.3012
X6.4458Y-3.3406
T4
X6.5752Y-2.9579
T3
G00X6.6236Y-3.3732
M15
G01X6.5843Y-3.3732
M16
G05
G00X6.6236Y-3.7134
M15
G01X6.5843Y-3.7134
M16
G05
G00X6.8445Y-3.3209
M15
G01X6.7854Y-3.3209
M16
G05
G00X6.8445Y-3.7657
M15
G01X6.7854Y-3.7657
M16
G05
T0
M30
