%TF.GenerationSoftware,KiCad,Pcbnew,(6.0.5-0)*%
%TF.CreationDate,2022-09-09T19:09:32+08:00*%
%TF.ProjectId,Nebula,4e656275-6c61-42e6-9b69-6361645f7063,rev?*%
%TF.SameCoordinates,Original*%
%TF.FileFunction,Legend,Bot*%
%TF.FilePolarity,Positive*%
%FSLAX46Y46*%
G04 Gerber Fmt 4.6, Leading zero omitted, Abs format (unit mm)*
G04 Created by KiCad (PCBNEW (6.0.5-0)) date 2022-09-09 19:09:32*
%MOMM*%
%LPD*%
G01*
G04 APERTURE LIST*
%ADD10C,0.150000*%
%ADD11C,0.125000*%
%ADD12C,0.120000*%
%ADD13C,0.127000*%
%ADD14C,0.300000*%
%ADD15C,0.200000*%
G04 APERTURE END LIST*
D10*
X144823584Y-77500000D02*
X144823584Y-75500000D01*
X168019047Y-104466428D02*
X168780952Y-104466428D01*
X168400000Y-104847380D02*
X168400000Y-104085476D01*
%TO.C,R1*%
X161266666Y-96652380D02*
X161600000Y-96176190D01*
X161838095Y-96652380D02*
X161838095Y-95652380D01*
X161457142Y-95652380D01*
X161361904Y-95700000D01*
X161314285Y-95747619D01*
X161266666Y-95842857D01*
X161266666Y-95985714D01*
X161314285Y-96080952D01*
X161361904Y-96128571D01*
X161457142Y-96176190D01*
X161838095Y-96176190D01*
X160314285Y-96652380D02*
X160885714Y-96652380D01*
X160600000Y-96652380D02*
X160600000Y-95652380D01*
X160695238Y-95795238D01*
X160790476Y-95890476D01*
X160885714Y-95938095D01*
%TO.C,R9*%
X167366666Y-84652380D02*
X167700000Y-84176190D01*
X167938095Y-84652380D02*
X167938095Y-83652380D01*
X167557142Y-83652380D01*
X167461904Y-83700000D01*
X167414285Y-83747619D01*
X167366666Y-83842857D01*
X167366666Y-83985714D01*
X167414285Y-84080952D01*
X167461904Y-84128571D01*
X167557142Y-84176190D01*
X167938095Y-84176190D01*
X166890476Y-84652380D02*
X166700000Y-84652380D01*
X166604761Y-84604761D01*
X166557142Y-84557142D01*
X166461904Y-84414285D01*
X166414285Y-84223809D01*
X166414285Y-83842857D01*
X166461904Y-83747619D01*
X166509523Y-83700000D01*
X166604761Y-83652380D01*
X166795238Y-83652380D01*
X166890476Y-83700000D01*
X166938095Y-83747619D01*
X166985714Y-83842857D01*
X166985714Y-84080952D01*
X166938095Y-84176190D01*
X166890476Y-84223809D01*
X166795238Y-84271428D01*
X166604761Y-84271428D01*
X166509523Y-84223809D01*
X166461904Y-84176190D01*
X166414285Y-84080952D01*
%TO.C,C22*%
X139642857Y-94357142D02*
X139690476Y-94404761D01*
X139833333Y-94452380D01*
X139928571Y-94452380D01*
X140071428Y-94404761D01*
X140166666Y-94309523D01*
X140214285Y-94214285D01*
X140261904Y-94023809D01*
X140261904Y-93880952D01*
X140214285Y-93690476D01*
X140166666Y-93595238D01*
X140071428Y-93500000D01*
X139928571Y-93452380D01*
X139833333Y-93452380D01*
X139690476Y-93500000D01*
X139642857Y-93547619D01*
X139261904Y-93547619D02*
X139214285Y-93500000D01*
X139119047Y-93452380D01*
X138880952Y-93452380D01*
X138785714Y-93500000D01*
X138738095Y-93547619D01*
X138690476Y-93642857D01*
X138690476Y-93738095D01*
X138738095Y-93880952D01*
X139309523Y-94452380D01*
X138690476Y-94452380D01*
X138309523Y-93547619D02*
X138261904Y-93500000D01*
X138166666Y-93452380D01*
X137928571Y-93452380D01*
X137833333Y-93500000D01*
X137785714Y-93547619D01*
X137738095Y-93642857D01*
X137738095Y-93738095D01*
X137785714Y-93880952D01*
X138357142Y-94452380D01*
X137738095Y-94452380D01*
%TO.C,C20*%
X147342857Y-92157142D02*
X147390476Y-92204761D01*
X147533333Y-92252380D01*
X147628571Y-92252380D01*
X147771428Y-92204761D01*
X147866666Y-92109523D01*
X147914285Y-92014285D01*
X147961904Y-91823809D01*
X147961904Y-91680952D01*
X147914285Y-91490476D01*
X147866666Y-91395238D01*
X147771428Y-91300000D01*
X147628571Y-91252380D01*
X147533333Y-91252380D01*
X147390476Y-91300000D01*
X147342857Y-91347619D01*
X146961904Y-91347619D02*
X146914285Y-91300000D01*
X146819047Y-91252380D01*
X146580952Y-91252380D01*
X146485714Y-91300000D01*
X146438095Y-91347619D01*
X146390476Y-91442857D01*
X146390476Y-91538095D01*
X146438095Y-91680952D01*
X147009523Y-92252380D01*
X146390476Y-92252380D01*
X145771428Y-91252380D02*
X145676190Y-91252380D01*
X145580952Y-91300000D01*
X145533333Y-91347619D01*
X145485714Y-91442857D01*
X145438095Y-91633333D01*
X145438095Y-91871428D01*
X145485714Y-92061904D01*
X145533333Y-92157142D01*
X145580952Y-92204761D01*
X145676190Y-92252380D01*
X145771428Y-92252380D01*
X145866666Y-92204761D01*
X145914285Y-92157142D01*
X145961904Y-92061904D01*
X146009523Y-91871428D01*
X146009523Y-91633333D01*
X145961904Y-91442857D01*
X145914285Y-91347619D01*
X145866666Y-91300000D01*
X145771428Y-91252380D01*
%TO.C,C15*%
X158342857Y-90657142D02*
X158390476Y-90704761D01*
X158533333Y-90752380D01*
X158628571Y-90752380D01*
X158771428Y-90704761D01*
X158866666Y-90609523D01*
X158914285Y-90514285D01*
X158961904Y-90323809D01*
X158961904Y-90180952D01*
X158914285Y-89990476D01*
X158866666Y-89895238D01*
X158771428Y-89800000D01*
X158628571Y-89752380D01*
X158533333Y-89752380D01*
X158390476Y-89800000D01*
X158342857Y-89847619D01*
X157390476Y-90752380D02*
X157961904Y-90752380D01*
X157676190Y-90752380D02*
X157676190Y-89752380D01*
X157771428Y-89895238D01*
X157866666Y-89990476D01*
X157961904Y-90038095D01*
X156485714Y-89752380D02*
X156961904Y-89752380D01*
X157009523Y-90228571D01*
X156961904Y-90180952D01*
X156866666Y-90133333D01*
X156628571Y-90133333D01*
X156533333Y-90180952D01*
X156485714Y-90228571D01*
X156438095Y-90323809D01*
X156438095Y-90561904D01*
X156485714Y-90657142D01*
X156533333Y-90704761D01*
X156628571Y-90752380D01*
X156866666Y-90752380D01*
X156961904Y-90704761D01*
X157009523Y-90657142D01*
%TO.C,C21*%
X139666441Y-95657142D02*
X139714060Y-95704761D01*
X139856917Y-95752380D01*
X139952155Y-95752380D01*
X140095012Y-95704761D01*
X140190250Y-95609523D01*
X140237869Y-95514285D01*
X140285488Y-95323809D01*
X140285488Y-95180952D01*
X140237869Y-94990476D01*
X140190250Y-94895238D01*
X140095012Y-94800000D01*
X139952155Y-94752380D01*
X139856917Y-94752380D01*
X139714060Y-94800000D01*
X139666441Y-94847619D01*
X139285488Y-94847619D02*
X139237869Y-94800000D01*
X139142631Y-94752380D01*
X138904536Y-94752380D01*
X138809298Y-94800000D01*
X138761679Y-94847619D01*
X138714060Y-94942857D01*
X138714060Y-95038095D01*
X138761679Y-95180952D01*
X139333107Y-95752380D01*
X138714060Y-95752380D01*
X137761679Y-95752380D02*
X138333107Y-95752380D01*
X138047393Y-95752380D02*
X138047393Y-94752380D01*
X138142631Y-94895238D01*
X138237869Y-94990476D01*
X138333107Y-95038095D01*
%TO.C,R12*%
X146866441Y-106152380D02*
X147199774Y-105676190D01*
X147437869Y-106152380D02*
X147437869Y-105152380D01*
X147056917Y-105152380D01*
X146961679Y-105200000D01*
X146914060Y-105247619D01*
X146866441Y-105342857D01*
X146866441Y-105485714D01*
X146914060Y-105580952D01*
X146961679Y-105628571D01*
X147056917Y-105676190D01*
X147437869Y-105676190D01*
X145914060Y-106152380D02*
X146485488Y-106152380D01*
X146199774Y-106152380D02*
X146199774Y-105152380D01*
X146295012Y-105295238D01*
X146390250Y-105390476D01*
X146485488Y-105438095D01*
X145533107Y-105247619D02*
X145485488Y-105200000D01*
X145390250Y-105152380D01*
X145152155Y-105152380D01*
X145056917Y-105200000D01*
X145009298Y-105247619D01*
X144961679Y-105342857D01*
X144961679Y-105438095D01*
X145009298Y-105580952D01*
X145580726Y-106152380D01*
X144961679Y-106152380D01*
%TO.C,Q3*%
X151918822Y-78247619D02*
X152014060Y-78200000D01*
X152109298Y-78104761D01*
X152252155Y-77961904D01*
X152347393Y-77914285D01*
X152442631Y-77914285D01*
X152395012Y-78152380D02*
X152490250Y-78104761D01*
X152585488Y-78009523D01*
X152633107Y-77819047D01*
X152633107Y-77485714D01*
X152585488Y-77295238D01*
X152490250Y-77200000D01*
X152395012Y-77152380D01*
X152204536Y-77152380D01*
X152109298Y-77200000D01*
X152014060Y-77295238D01*
X151966441Y-77485714D01*
X151966441Y-77819047D01*
X152014060Y-78009523D01*
X152109298Y-78104761D01*
X152204536Y-78152380D01*
X152395012Y-78152380D01*
X151633107Y-77152380D02*
X151014060Y-77152380D01*
X151347393Y-77533333D01*
X151204536Y-77533333D01*
X151109298Y-77580952D01*
X151061679Y-77628571D01*
X151014060Y-77723809D01*
X151014060Y-77961904D01*
X151061679Y-78057142D01*
X151109298Y-78104761D01*
X151204536Y-78152380D01*
X151490250Y-78152380D01*
X151585488Y-78104761D01*
X151633107Y-78057142D01*
%TO.C,C5*%
X142366666Y-103457142D02*
X142414285Y-103504761D01*
X142557142Y-103552380D01*
X142652380Y-103552380D01*
X142795238Y-103504761D01*
X142890476Y-103409523D01*
X142938095Y-103314285D01*
X142985714Y-103123809D01*
X142985714Y-102980952D01*
X142938095Y-102790476D01*
X142890476Y-102695238D01*
X142795238Y-102600000D01*
X142652380Y-102552380D01*
X142557142Y-102552380D01*
X142414285Y-102600000D01*
X142366666Y-102647619D01*
X141461904Y-102552380D02*
X141938095Y-102552380D01*
X141985714Y-103028571D01*
X141938095Y-102980952D01*
X141842857Y-102933333D01*
X141604761Y-102933333D01*
X141509523Y-102980952D01*
X141461904Y-103028571D01*
X141414285Y-103123809D01*
X141414285Y-103361904D01*
X141461904Y-103457142D01*
X141509523Y-103504761D01*
X141604761Y-103552380D01*
X141842857Y-103552380D01*
X141938095Y-103504761D01*
X141985714Y-103457142D01*
%TO.C,C19*%
X141957142Y-87557142D02*
X142004761Y-87509523D01*
X142052380Y-87366666D01*
X142052380Y-87271428D01*
X142004761Y-87128571D01*
X141909523Y-87033333D01*
X141814285Y-86985714D01*
X141623809Y-86938095D01*
X141480952Y-86938095D01*
X141290476Y-86985714D01*
X141195238Y-87033333D01*
X141100000Y-87128571D01*
X141052380Y-87271428D01*
X141052380Y-87366666D01*
X141100000Y-87509523D01*
X141147619Y-87557142D01*
X142052380Y-88509523D02*
X142052380Y-87938095D01*
X142052380Y-88223809D02*
X141052380Y-88223809D01*
X141195238Y-88128571D01*
X141290476Y-88033333D01*
X141338095Y-87938095D01*
X142052380Y-88985714D02*
X142052380Y-89176190D01*
X142004761Y-89271428D01*
X141957142Y-89319047D01*
X141814285Y-89414285D01*
X141623809Y-89461904D01*
X141242857Y-89461904D01*
X141147619Y-89414285D01*
X141100000Y-89366666D01*
X141052380Y-89271428D01*
X141052380Y-89080952D01*
X141100000Y-88985714D01*
X141147619Y-88938095D01*
X141242857Y-88890476D01*
X141480952Y-88890476D01*
X141576190Y-88938095D01*
X141623809Y-88985714D01*
X141671428Y-89080952D01*
X141671428Y-89271428D01*
X141623809Y-89366666D01*
X141576190Y-89414285D01*
X141480952Y-89461904D01*
%TO.C,R17*%
X161242857Y-90252380D02*
X161576190Y-89776190D01*
X161814285Y-90252380D02*
X161814285Y-89252380D01*
X161433333Y-89252380D01*
X161338095Y-89300000D01*
X161290476Y-89347619D01*
X161242857Y-89442857D01*
X161242857Y-89585714D01*
X161290476Y-89680952D01*
X161338095Y-89728571D01*
X161433333Y-89776190D01*
X161814285Y-89776190D01*
X160290476Y-90252380D02*
X160861904Y-90252380D01*
X160576190Y-90252380D02*
X160576190Y-89252380D01*
X160671428Y-89395238D01*
X160766666Y-89490476D01*
X160861904Y-89538095D01*
X159957142Y-89252380D02*
X159290476Y-89252380D01*
X159719047Y-90252380D01*
%TO.C,R15*%
X156542857Y-86352380D02*
X156876190Y-85876190D01*
X157114285Y-86352380D02*
X157114285Y-85352380D01*
X156733333Y-85352380D01*
X156638095Y-85400000D01*
X156590476Y-85447619D01*
X156542857Y-85542857D01*
X156542857Y-85685714D01*
X156590476Y-85780952D01*
X156638095Y-85828571D01*
X156733333Y-85876190D01*
X157114285Y-85876190D01*
X155590476Y-86352380D02*
X156161904Y-86352380D01*
X155876190Y-86352380D02*
X155876190Y-85352380D01*
X155971428Y-85495238D01*
X156066666Y-85590476D01*
X156161904Y-85638095D01*
X154685714Y-85352380D02*
X155161904Y-85352380D01*
X155209523Y-85828571D01*
X155161904Y-85780952D01*
X155066666Y-85733333D01*
X154828571Y-85733333D01*
X154733333Y-85780952D01*
X154685714Y-85828571D01*
X154638095Y-85923809D01*
X154638095Y-86161904D01*
X154685714Y-86257142D01*
X154733333Y-86304761D01*
X154828571Y-86352380D01*
X155066666Y-86352380D01*
X155161904Y-86304761D01*
X155209523Y-86257142D01*
%TO.C,C9*%
X144366666Y-98257142D02*
X144414285Y-98304761D01*
X144557142Y-98352380D01*
X144652380Y-98352380D01*
X144795238Y-98304761D01*
X144890476Y-98209523D01*
X144938095Y-98114285D01*
X144985714Y-97923809D01*
X144985714Y-97780952D01*
X144938095Y-97590476D01*
X144890476Y-97495238D01*
X144795238Y-97400000D01*
X144652380Y-97352380D01*
X144557142Y-97352380D01*
X144414285Y-97400000D01*
X144366666Y-97447619D01*
X143890476Y-98352380D02*
X143700000Y-98352380D01*
X143604761Y-98304761D01*
X143557142Y-98257142D01*
X143461904Y-98114285D01*
X143414285Y-97923809D01*
X143414285Y-97542857D01*
X143461904Y-97447619D01*
X143509523Y-97400000D01*
X143604761Y-97352380D01*
X143795238Y-97352380D01*
X143890476Y-97400000D01*
X143938095Y-97447619D01*
X143985714Y-97542857D01*
X143985714Y-97780952D01*
X143938095Y-97876190D01*
X143890476Y-97923809D01*
X143795238Y-97971428D01*
X143604761Y-97971428D01*
X143509523Y-97923809D01*
X143461904Y-97876190D01*
X143414285Y-97780952D01*
%TO.C,C1*%
X164166666Y-73457142D02*
X164214285Y-73504761D01*
X164357142Y-73552380D01*
X164452380Y-73552380D01*
X164595238Y-73504761D01*
X164690476Y-73409523D01*
X164738095Y-73314285D01*
X164785714Y-73123809D01*
X164785714Y-72980952D01*
X164738095Y-72790476D01*
X164690476Y-72695238D01*
X164595238Y-72600000D01*
X164452380Y-72552380D01*
X164357142Y-72552380D01*
X164214285Y-72600000D01*
X164166666Y-72647619D01*
X163214285Y-73552380D02*
X163785714Y-73552380D01*
X163500000Y-73552380D02*
X163500000Y-72552380D01*
X163595238Y-72695238D01*
X163690476Y-72790476D01*
X163785714Y-72838095D01*
%TO.C,R13*%
X161242857Y-94852380D02*
X161576190Y-94376190D01*
X161814285Y-94852380D02*
X161814285Y-93852380D01*
X161433333Y-93852380D01*
X161338095Y-93900000D01*
X161290476Y-93947619D01*
X161242857Y-94042857D01*
X161242857Y-94185714D01*
X161290476Y-94280952D01*
X161338095Y-94328571D01*
X161433333Y-94376190D01*
X161814285Y-94376190D01*
X160290476Y-94852380D02*
X160861904Y-94852380D01*
X160576190Y-94852380D02*
X160576190Y-93852380D01*
X160671428Y-93995238D01*
X160766666Y-94090476D01*
X160861904Y-94138095D01*
X159957142Y-93852380D02*
X159338095Y-93852380D01*
X159671428Y-94233333D01*
X159528571Y-94233333D01*
X159433333Y-94280952D01*
X159385714Y-94328571D01*
X159338095Y-94423809D01*
X159338095Y-94661904D01*
X159385714Y-94757142D01*
X159433333Y-94804761D01*
X159528571Y-94852380D01*
X159814285Y-94852380D01*
X159909523Y-94804761D01*
X159957142Y-94757142D01*
%TO.C,C16*%
X140980726Y-84057142D02*
X141028345Y-84009523D01*
X141075964Y-83866666D01*
X141075964Y-83771428D01*
X141028345Y-83628571D01*
X140933107Y-83533333D01*
X140837869Y-83485714D01*
X140647393Y-83438095D01*
X140504536Y-83438095D01*
X140314060Y-83485714D01*
X140218822Y-83533333D01*
X140123584Y-83628571D01*
X140075964Y-83771428D01*
X140075964Y-83866666D01*
X140123584Y-84009523D01*
X140171203Y-84057142D01*
X141075964Y-85009523D02*
X141075964Y-84438095D01*
X141075964Y-84723809D02*
X140075964Y-84723809D01*
X140218822Y-84628571D01*
X140314060Y-84533333D01*
X140361679Y-84438095D01*
X140075964Y-85866666D02*
X140075964Y-85676190D01*
X140123584Y-85580952D01*
X140171203Y-85533333D01*
X140314060Y-85438095D01*
X140504536Y-85390476D01*
X140885488Y-85390476D01*
X140980726Y-85438095D01*
X141028345Y-85485714D01*
X141075964Y-85580952D01*
X141075964Y-85771428D01*
X141028345Y-85866666D01*
X140980726Y-85914285D01*
X140885488Y-85961904D01*
X140647393Y-85961904D01*
X140552155Y-85914285D01*
X140504536Y-85866666D01*
X140456917Y-85771428D01*
X140456917Y-85580952D01*
X140504536Y-85485714D01*
X140552155Y-85438095D01*
X140647393Y-85390476D01*
%TO.C,C2*%
X158066666Y-74957142D02*
X158114285Y-75004761D01*
X158257142Y-75052380D01*
X158352380Y-75052380D01*
X158495238Y-75004761D01*
X158590476Y-74909523D01*
X158638095Y-74814285D01*
X158685714Y-74623809D01*
X158685714Y-74480952D01*
X158638095Y-74290476D01*
X158590476Y-74195238D01*
X158495238Y-74100000D01*
X158352380Y-74052380D01*
X158257142Y-74052380D01*
X158114285Y-74100000D01*
X158066666Y-74147619D01*
X157685714Y-74147619D02*
X157638095Y-74100000D01*
X157542857Y-74052380D01*
X157304761Y-74052380D01*
X157209523Y-74100000D01*
X157161904Y-74147619D01*
X157114285Y-74242857D01*
X157114285Y-74338095D01*
X157161904Y-74480952D01*
X157733333Y-75052380D01*
X157114285Y-75052380D01*
%TO.C,C17*%
X161542857Y-80557142D02*
X161590476Y-80604761D01*
X161733333Y-80652380D01*
X161828571Y-80652380D01*
X161971428Y-80604761D01*
X162066666Y-80509523D01*
X162114285Y-80414285D01*
X162161904Y-80223809D01*
X162161904Y-80080952D01*
X162114285Y-79890476D01*
X162066666Y-79795238D01*
X161971428Y-79700000D01*
X161828571Y-79652380D01*
X161733333Y-79652380D01*
X161590476Y-79700000D01*
X161542857Y-79747619D01*
X160590476Y-80652380D02*
X161161904Y-80652380D01*
X160876190Y-80652380D02*
X160876190Y-79652380D01*
X160971428Y-79795238D01*
X161066666Y-79890476D01*
X161161904Y-79938095D01*
X160257142Y-79652380D02*
X159590476Y-79652380D01*
X160019047Y-80652380D01*
%TO.C,Q1*%
X143618822Y-104847619D02*
X143714060Y-104800000D01*
X143809298Y-104704761D01*
X143952155Y-104561904D01*
X144047393Y-104514285D01*
X144142631Y-104514285D01*
X144095012Y-104752380D02*
X144190250Y-104704761D01*
X144285488Y-104609523D01*
X144333107Y-104419047D01*
X144333107Y-104085714D01*
X144285488Y-103895238D01*
X144190250Y-103800000D01*
X144095012Y-103752380D01*
X143904536Y-103752380D01*
X143809298Y-103800000D01*
X143714060Y-103895238D01*
X143666441Y-104085714D01*
X143666441Y-104419047D01*
X143714060Y-104609523D01*
X143809298Y-104704761D01*
X143904536Y-104752380D01*
X144095012Y-104752380D01*
X142714060Y-104752380D02*
X143285488Y-104752380D01*
X142999774Y-104752380D02*
X142999774Y-103752380D01*
X143095012Y-103895238D01*
X143190250Y-103990476D01*
X143285488Y-104038095D01*
D11*
%TO.C,C4*%
X161166666Y-101357142D02*
X161214285Y-101404761D01*
X161357142Y-101452380D01*
X161452380Y-101452380D01*
X161595238Y-101404761D01*
X161690476Y-101309523D01*
X161738095Y-101214285D01*
X161785714Y-101023809D01*
X161785714Y-100880952D01*
X161738095Y-100690476D01*
X161690476Y-100595238D01*
X161595238Y-100500000D01*
X161452380Y-100452380D01*
X161357142Y-100452380D01*
X161214285Y-100500000D01*
X161166666Y-100547619D01*
X160309523Y-100785714D02*
X160309523Y-101452380D01*
X160547619Y-100404761D02*
X160785714Y-101119047D01*
X160166666Y-101119047D01*
%TO.C,R7*%
X161066666Y-99052380D02*
X161400000Y-98576190D01*
X161638095Y-99052380D02*
X161638095Y-98052380D01*
X161257142Y-98052380D01*
X161161904Y-98100000D01*
X161114285Y-98147619D01*
X161066666Y-98242857D01*
X161066666Y-98385714D01*
X161114285Y-98480952D01*
X161161904Y-98528571D01*
X161257142Y-98576190D01*
X161638095Y-98576190D01*
X160733333Y-98052380D02*
X160066666Y-98052380D01*
X160495238Y-99052380D01*
D10*
%TO.C,C13*%
X148542857Y-75057142D02*
X148590476Y-75104761D01*
X148733333Y-75152380D01*
X148828571Y-75152380D01*
X148971428Y-75104761D01*
X149066666Y-75009523D01*
X149114285Y-74914285D01*
X149161904Y-74723809D01*
X149161904Y-74580952D01*
X149114285Y-74390476D01*
X149066666Y-74295238D01*
X148971428Y-74200000D01*
X148828571Y-74152380D01*
X148733333Y-74152380D01*
X148590476Y-74200000D01*
X148542857Y-74247619D01*
X147590476Y-75152380D02*
X148161904Y-75152380D01*
X147876190Y-75152380D02*
X147876190Y-74152380D01*
X147971428Y-74295238D01*
X148066666Y-74390476D01*
X148161904Y-74438095D01*
X147257142Y-74152380D02*
X146638095Y-74152380D01*
X146971428Y-74533333D01*
X146828571Y-74533333D01*
X146733333Y-74580952D01*
X146685714Y-74628571D01*
X146638095Y-74723809D01*
X146638095Y-74961904D01*
X146685714Y-75057142D01*
X146733333Y-75104761D01*
X146828571Y-75152380D01*
X147114285Y-75152380D01*
X147209523Y-75104761D01*
X147257142Y-75057142D01*
%TO.C,R16*%
X161242857Y-91552380D02*
X161576190Y-91076190D01*
X161814285Y-91552380D02*
X161814285Y-90552380D01*
X161433333Y-90552380D01*
X161338095Y-90600000D01*
X161290476Y-90647619D01*
X161242857Y-90742857D01*
X161242857Y-90885714D01*
X161290476Y-90980952D01*
X161338095Y-91028571D01*
X161433333Y-91076190D01*
X161814285Y-91076190D01*
X160290476Y-91552380D02*
X160861904Y-91552380D01*
X160576190Y-91552380D02*
X160576190Y-90552380D01*
X160671428Y-90695238D01*
X160766666Y-90790476D01*
X160861904Y-90838095D01*
X159433333Y-90552380D02*
X159623809Y-90552380D01*
X159719047Y-90600000D01*
X159766666Y-90647619D01*
X159861904Y-90790476D01*
X159909523Y-90980952D01*
X159909523Y-91361904D01*
X159861904Y-91457142D01*
X159814285Y-91504761D01*
X159719047Y-91552380D01*
X159528571Y-91552380D01*
X159433333Y-91504761D01*
X159385714Y-91457142D01*
X159338095Y-91361904D01*
X159338095Y-91123809D01*
X159385714Y-91028571D01*
X159433333Y-90980952D01*
X159528571Y-90933333D01*
X159719047Y-90933333D01*
X159814285Y-90980952D01*
X159861904Y-91028571D01*
X159909523Y-91123809D01*
%TO.C,R11*%
X152842857Y-79652380D02*
X153176190Y-79176190D01*
X153414285Y-79652380D02*
X153414285Y-78652380D01*
X153033333Y-78652380D01*
X152938095Y-78700000D01*
X152890476Y-78747619D01*
X152842857Y-78842857D01*
X152842857Y-78985714D01*
X152890476Y-79080952D01*
X152938095Y-79128571D01*
X153033333Y-79176190D01*
X153414285Y-79176190D01*
X151890476Y-79652380D02*
X152461904Y-79652380D01*
X152176190Y-79652380D02*
X152176190Y-78652380D01*
X152271428Y-78795238D01*
X152366666Y-78890476D01*
X152461904Y-78938095D01*
X150938095Y-79652380D02*
X151509523Y-79652380D01*
X151223809Y-79652380D02*
X151223809Y-78652380D01*
X151319047Y-78795238D01*
X151414285Y-78890476D01*
X151509523Y-78938095D01*
%TO.C,C3*%
X153466666Y-75757142D02*
X153514285Y-75804761D01*
X153657142Y-75852380D01*
X153752380Y-75852380D01*
X153895238Y-75804761D01*
X153990476Y-75709523D01*
X154038095Y-75614285D01*
X154085714Y-75423809D01*
X154085714Y-75280952D01*
X154038095Y-75090476D01*
X153990476Y-74995238D01*
X153895238Y-74900000D01*
X153752380Y-74852380D01*
X153657142Y-74852380D01*
X153514285Y-74900000D01*
X153466666Y-74947619D01*
X153133333Y-74852380D02*
X152514285Y-74852380D01*
X152847619Y-75233333D01*
X152704761Y-75233333D01*
X152609523Y-75280952D01*
X152561904Y-75328571D01*
X152514285Y-75423809D01*
X152514285Y-75661904D01*
X152561904Y-75757142D01*
X152609523Y-75804761D01*
X152704761Y-75852380D01*
X152990476Y-75852380D01*
X153085714Y-75804761D01*
X153133333Y-75757142D01*
%TO.C,D3*%
X153961679Y-87552380D02*
X153961679Y-86552380D01*
X153723584Y-86552380D01*
X153580726Y-86600000D01*
X153485488Y-86695238D01*
X153437869Y-86790476D01*
X153390250Y-86980952D01*
X153390250Y-87123809D01*
X153437869Y-87314285D01*
X153485488Y-87409523D01*
X153580726Y-87504761D01*
X153723584Y-87552380D01*
X153961679Y-87552380D01*
X153056917Y-86552380D02*
X152437869Y-86552380D01*
X152771203Y-86933333D01*
X152628345Y-86933333D01*
X152533107Y-86980952D01*
X152485488Y-87028571D01*
X152437869Y-87123809D01*
X152437869Y-87361904D01*
X152485488Y-87457142D01*
X152533107Y-87504761D01*
X152628345Y-87552380D01*
X152914060Y-87552380D01*
X153009298Y-87504761D01*
X153056917Y-87457142D01*
%TO.C,U9*%
X142961904Y-96952380D02*
X142961904Y-97761904D01*
X142914285Y-97857142D01*
X142866666Y-97904761D01*
X142771428Y-97952380D01*
X142580952Y-97952380D01*
X142485714Y-97904761D01*
X142438095Y-97857142D01*
X142390476Y-97761904D01*
X142390476Y-96952380D01*
X141866666Y-97952380D02*
X141676190Y-97952380D01*
X141580952Y-97904761D01*
X141533333Y-97857142D01*
X141438095Y-97714285D01*
X141390476Y-97523809D01*
X141390476Y-97142857D01*
X141438095Y-97047619D01*
X141485714Y-97000000D01*
X141580952Y-96952380D01*
X141771428Y-96952380D01*
X141866666Y-97000000D01*
X141914285Y-97047619D01*
X141961904Y-97142857D01*
X141961904Y-97380952D01*
X141914285Y-97476190D01*
X141866666Y-97523809D01*
X141771428Y-97571428D01*
X141580952Y-97571428D01*
X141485714Y-97523809D01*
X141438095Y-97476190D01*
X141390476Y-97380952D01*
%TO.C,C14*%
X158042857Y-82557142D02*
X158090476Y-82604761D01*
X158233333Y-82652380D01*
X158328571Y-82652380D01*
X158471428Y-82604761D01*
X158566666Y-82509523D01*
X158614285Y-82414285D01*
X158661904Y-82223809D01*
X158661904Y-82080952D01*
X158614285Y-81890476D01*
X158566666Y-81795238D01*
X158471428Y-81700000D01*
X158328571Y-81652380D01*
X158233333Y-81652380D01*
X158090476Y-81700000D01*
X158042857Y-81747619D01*
X157090476Y-82652380D02*
X157661904Y-82652380D01*
X157376190Y-82652380D02*
X157376190Y-81652380D01*
X157471428Y-81795238D01*
X157566666Y-81890476D01*
X157661904Y-81938095D01*
X156233333Y-81985714D02*
X156233333Y-82652380D01*
X156471428Y-81604761D02*
X156709523Y-82319047D01*
X156090476Y-82319047D01*
%TO.C,C10*%
X147142857Y-98257142D02*
X147190476Y-98304761D01*
X147333333Y-98352380D01*
X147428571Y-98352380D01*
X147571428Y-98304761D01*
X147666666Y-98209523D01*
X147714285Y-98114285D01*
X147761904Y-97923809D01*
X147761904Y-97780952D01*
X147714285Y-97590476D01*
X147666666Y-97495238D01*
X147571428Y-97400000D01*
X147428571Y-97352380D01*
X147333333Y-97352380D01*
X147190476Y-97400000D01*
X147142857Y-97447619D01*
X146190476Y-98352380D02*
X146761904Y-98352380D01*
X146476190Y-98352380D02*
X146476190Y-97352380D01*
X146571428Y-97495238D01*
X146666666Y-97590476D01*
X146761904Y-97638095D01*
X145571428Y-97352380D02*
X145476190Y-97352380D01*
X145380952Y-97400000D01*
X145333333Y-97447619D01*
X145285714Y-97542857D01*
X145238095Y-97733333D01*
X145238095Y-97971428D01*
X145285714Y-98161904D01*
X145333333Y-98257142D01*
X145380952Y-98304761D01*
X145476190Y-98352380D01*
X145571428Y-98352380D01*
X145666666Y-98304761D01*
X145714285Y-98257142D01*
X145761904Y-98161904D01*
X145809523Y-97971428D01*
X145809523Y-97733333D01*
X145761904Y-97542857D01*
X145714285Y-97447619D01*
X145666666Y-97400000D01*
X145571428Y-97352380D01*
%TO.C,LS1*%
X141900012Y-91369047D02*
X141900012Y-92130952D01*
X142280964Y-91750000D02*
X141519060Y-91750000D01*
%TO.C,C12*%
X145766441Y-75057142D02*
X145814060Y-75104761D01*
X145956917Y-75152380D01*
X146052155Y-75152380D01*
X146195012Y-75104761D01*
X146290250Y-75009523D01*
X146337869Y-74914285D01*
X146385488Y-74723809D01*
X146385488Y-74580952D01*
X146337869Y-74390476D01*
X146290250Y-74295238D01*
X146195012Y-74200000D01*
X146052155Y-74152380D01*
X145956917Y-74152380D01*
X145814060Y-74200000D01*
X145766441Y-74247619D01*
X144814060Y-75152380D02*
X145385488Y-75152380D01*
X145099774Y-75152380D02*
X145099774Y-74152380D01*
X145195012Y-74295238D01*
X145290250Y-74390476D01*
X145385488Y-74438095D01*
X144433107Y-74247619D02*
X144385488Y-74200000D01*
X144290250Y-74152380D01*
X144052155Y-74152380D01*
X143956917Y-74200000D01*
X143909298Y-74247619D01*
X143861679Y-74342857D01*
X143861679Y-74438095D01*
X143909298Y-74580952D01*
X144480726Y-75152380D01*
X143861679Y-75152380D01*
%TO.C,C7*%
X138266666Y-85557141D02*
X138314285Y-85604760D01*
X138457142Y-85652379D01*
X138552380Y-85652379D01*
X138695238Y-85604760D01*
X138790476Y-85509522D01*
X138838095Y-85414284D01*
X138885714Y-85223808D01*
X138885714Y-85080951D01*
X138838095Y-84890475D01*
X138790476Y-84795237D01*
X138695238Y-84699999D01*
X138552380Y-84652379D01*
X138457142Y-84652379D01*
X138314285Y-84699999D01*
X138266666Y-84747618D01*
X137933333Y-84652379D02*
X137266666Y-84652379D01*
X137695238Y-85652379D01*
%TO.C,R10*%
X144742857Y-99852380D02*
X145076190Y-99376190D01*
X145314285Y-99852380D02*
X145314285Y-98852380D01*
X144933333Y-98852380D01*
X144838095Y-98900000D01*
X144790476Y-98947619D01*
X144742857Y-99042857D01*
X144742857Y-99185714D01*
X144790476Y-99280952D01*
X144838095Y-99328571D01*
X144933333Y-99376190D01*
X145314285Y-99376190D01*
X143790476Y-99852380D02*
X144361904Y-99852380D01*
X144076190Y-99852380D02*
X144076190Y-98852380D01*
X144171428Y-98995238D01*
X144266666Y-99090476D01*
X144361904Y-99138095D01*
X143171428Y-98852380D02*
X143076190Y-98852380D01*
X142980952Y-98900000D01*
X142933333Y-98947619D01*
X142885714Y-99042857D01*
X142838095Y-99233333D01*
X142838095Y-99471428D01*
X142885714Y-99661904D01*
X142933333Y-99757142D01*
X142980952Y-99804761D01*
X143076190Y-99852380D01*
X143171428Y-99852380D01*
X143266666Y-99804761D01*
X143314285Y-99757142D01*
X143361904Y-99661904D01*
X143409523Y-99471428D01*
X143409523Y-99233333D01*
X143361904Y-99042857D01*
X143314285Y-98947619D01*
X143266666Y-98900000D01*
X143171428Y-98852380D01*
%TO.C,U10*%
X150261679Y-85952380D02*
X150261679Y-86761904D01*
X150214060Y-86857142D01*
X150166441Y-86904761D01*
X150071203Y-86952380D01*
X149880726Y-86952380D01*
X149785488Y-86904761D01*
X149737869Y-86857142D01*
X149690250Y-86761904D01*
X149690250Y-85952380D01*
X148690250Y-86952380D02*
X149261679Y-86952380D01*
X148975964Y-86952380D02*
X148975964Y-85952380D01*
X149071203Y-86095238D01*
X149166441Y-86190476D01*
X149261679Y-86238095D01*
X148071203Y-85952380D02*
X147975964Y-85952380D01*
X147880726Y-86000000D01*
X147833107Y-86047619D01*
X147785488Y-86142857D01*
X147737869Y-86333333D01*
X147737869Y-86571428D01*
X147785488Y-86761904D01*
X147833107Y-86857142D01*
X147880726Y-86904761D01*
X147975964Y-86952380D01*
X148071203Y-86952380D01*
X148166441Y-86904761D01*
X148214060Y-86857142D01*
X148261679Y-86761904D01*
X148309298Y-86571428D01*
X148309298Y-86333333D01*
X148261679Y-86142857D01*
X148214060Y-86047619D01*
X148166441Y-86000000D01*
X148071203Y-85952380D01*
%TO.C,R22*%
X149742857Y-77752380D02*
X150076190Y-77276190D01*
X150314285Y-77752380D02*
X150314285Y-76752380D01*
X149933333Y-76752380D01*
X149838095Y-76800000D01*
X149790476Y-76847619D01*
X149742857Y-76942857D01*
X149742857Y-77085714D01*
X149790476Y-77180952D01*
X149838095Y-77228571D01*
X149933333Y-77276190D01*
X150314285Y-77276190D01*
X149361904Y-76847619D02*
X149314285Y-76800000D01*
X149219047Y-76752380D01*
X148980952Y-76752380D01*
X148885714Y-76800000D01*
X148838095Y-76847619D01*
X148790476Y-76942857D01*
X148790476Y-77038095D01*
X148838095Y-77180952D01*
X149409523Y-77752380D01*
X148790476Y-77752380D01*
X148409523Y-76847619D02*
X148361904Y-76800000D01*
X148266666Y-76752380D01*
X148028571Y-76752380D01*
X147933333Y-76800000D01*
X147885714Y-76847619D01*
X147838095Y-76942857D01*
X147838095Y-77038095D01*
X147885714Y-77180952D01*
X148457142Y-77752380D01*
X147838095Y-77752380D01*
%TO.C,R8*%
X167366666Y-83352380D02*
X167700000Y-82876190D01*
X167938095Y-83352380D02*
X167938095Y-82352380D01*
X167557142Y-82352380D01*
X167461904Y-82400000D01*
X167414285Y-82447619D01*
X167366666Y-82542857D01*
X167366666Y-82685714D01*
X167414285Y-82780952D01*
X167461904Y-82828571D01*
X167557142Y-82876190D01*
X167938095Y-82876190D01*
X166795238Y-82780952D02*
X166890476Y-82733333D01*
X166938095Y-82685714D01*
X166985714Y-82590476D01*
X166985714Y-82542857D01*
X166938095Y-82447619D01*
X166890476Y-82400000D01*
X166795238Y-82352380D01*
X166604761Y-82352380D01*
X166509523Y-82400000D01*
X166461904Y-82447619D01*
X166414285Y-82542857D01*
X166414285Y-82590476D01*
X166461904Y-82685714D01*
X166509523Y-82733333D01*
X166604761Y-82780952D01*
X166795238Y-82780952D01*
X166890476Y-82828571D01*
X166938095Y-82876190D01*
X166985714Y-82971428D01*
X166985714Y-83161904D01*
X166938095Y-83257142D01*
X166890476Y-83304761D01*
X166795238Y-83352380D01*
X166604761Y-83352380D01*
X166509523Y-83304761D01*
X166461904Y-83257142D01*
X166414285Y-83161904D01*
X166414285Y-82971428D01*
X166461904Y-82876190D01*
X166509523Y-82828571D01*
X166604761Y-82780952D01*
%TO.C,D2*%
X161838095Y-92952380D02*
X161838095Y-91952380D01*
X161600000Y-91952380D01*
X161457142Y-92000000D01*
X161361904Y-92095238D01*
X161314285Y-92190476D01*
X161266666Y-92380952D01*
X161266666Y-92523809D01*
X161314285Y-92714285D01*
X161361904Y-92809523D01*
X161457142Y-92904761D01*
X161600000Y-92952380D01*
X161838095Y-92952380D01*
X160885714Y-92047619D02*
X160838095Y-92000000D01*
X160742857Y-91952380D01*
X160504761Y-91952380D01*
X160409523Y-92000000D01*
X160361904Y-92047619D01*
X160314285Y-92142857D01*
X160314285Y-92238095D01*
X160361904Y-92380952D01*
X160933333Y-92952380D01*
X160314285Y-92952380D01*
%TO.C,L1*%
X167866666Y-80452380D02*
X168342857Y-80452380D01*
X168342857Y-79452380D01*
X167009523Y-80452380D02*
X167580952Y-80452380D01*
X167295238Y-80452380D02*
X167295238Y-79452380D01*
X167390476Y-79595238D01*
X167485714Y-79690476D01*
X167580952Y-79738095D01*
%TO.C,C11*%
X168842857Y-81857142D02*
X168890476Y-81904761D01*
X169033333Y-81952380D01*
X169128571Y-81952380D01*
X169271428Y-81904761D01*
X169366666Y-81809523D01*
X169414285Y-81714285D01*
X169461904Y-81523809D01*
X169461904Y-81380952D01*
X169414285Y-81190476D01*
X169366666Y-81095238D01*
X169271428Y-81000000D01*
X169128571Y-80952380D01*
X169033333Y-80952380D01*
X168890476Y-81000000D01*
X168842857Y-81047619D01*
X167890476Y-81952380D02*
X168461904Y-81952380D01*
X168176190Y-81952380D02*
X168176190Y-80952380D01*
X168271428Y-81095238D01*
X168366666Y-81190476D01*
X168461904Y-81238095D01*
X166938095Y-81952380D02*
X167509523Y-81952380D01*
X167223809Y-81952380D02*
X167223809Y-80952380D01*
X167319047Y-81095238D01*
X167414285Y-81190476D01*
X167509523Y-81238095D01*
D11*
%TO.C,R5*%
X168566666Y-100752380D02*
X168900000Y-100276190D01*
X169138095Y-100752380D02*
X169138095Y-99752380D01*
X168757142Y-99752380D01*
X168661904Y-99800000D01*
X168614285Y-99847619D01*
X168566666Y-99942857D01*
X168566666Y-100085714D01*
X168614285Y-100180952D01*
X168661904Y-100228571D01*
X168757142Y-100276190D01*
X169138095Y-100276190D01*
X167661904Y-99752380D02*
X168138095Y-99752380D01*
X168185714Y-100228571D01*
X168138095Y-100180952D01*
X168042857Y-100133333D01*
X167804761Y-100133333D01*
X167709523Y-100180952D01*
X167661904Y-100228571D01*
X167614285Y-100323809D01*
X167614285Y-100561904D01*
X167661904Y-100657142D01*
X167709523Y-100704761D01*
X167804761Y-100752380D01*
X168042857Y-100752380D01*
X168138095Y-100704761D01*
X168185714Y-100657142D01*
D10*
%TO.C,U11*%
X170038095Y-77452380D02*
X170038095Y-78261904D01*
X169990476Y-78357142D01*
X169942857Y-78404761D01*
X169847619Y-78452380D01*
X169657142Y-78452380D01*
X169561904Y-78404761D01*
X169514285Y-78357142D01*
X169466666Y-78261904D01*
X169466666Y-77452380D01*
X168466666Y-78452380D02*
X169038095Y-78452380D01*
X168752380Y-78452380D02*
X168752380Y-77452380D01*
X168847619Y-77595238D01*
X168942857Y-77690476D01*
X169038095Y-77738095D01*
X167514285Y-78452380D02*
X168085714Y-78452380D01*
X167800000Y-78452380D02*
X167800000Y-77452380D01*
X167895238Y-77595238D01*
X167990476Y-77690476D01*
X168085714Y-77738095D01*
%TO.C,C6*%
X164350000Y-104121428D02*
X164392857Y-104164285D01*
X164521428Y-104207142D01*
X164607142Y-104207142D01*
X164735714Y-104164285D01*
X164821428Y-104078571D01*
X164864285Y-103992857D01*
X164907142Y-103821428D01*
X164907142Y-103692857D01*
X164864285Y-103521428D01*
X164821428Y-103435714D01*
X164735714Y-103350000D01*
X164607142Y-103307142D01*
X164521428Y-103307142D01*
X164392857Y-103350000D01*
X164350000Y-103392857D01*
X163578571Y-103307142D02*
X163750000Y-103307142D01*
X163835714Y-103350000D01*
X163878571Y-103392857D01*
X163964285Y-103521428D01*
X164007142Y-103692857D01*
X164007142Y-104035714D01*
X163964285Y-104121428D01*
X163921428Y-104164285D01*
X163835714Y-104207142D01*
X163664285Y-104207142D01*
X163578571Y-104164285D01*
X163535714Y-104121428D01*
X163492857Y-104035714D01*
X163492857Y-103821428D01*
X163535714Y-103735714D01*
X163578571Y-103692857D01*
X163664285Y-103650000D01*
X163835714Y-103650000D01*
X163921428Y-103692857D01*
X163964285Y-103735714D01*
X164007142Y-103821428D01*
%TO.C,R14*%
X155342857Y-85052380D02*
X155676190Y-84576190D01*
X155914285Y-85052380D02*
X155914285Y-84052380D01*
X155533333Y-84052380D01*
X155438095Y-84100000D01*
X155390476Y-84147619D01*
X155342857Y-84242857D01*
X155342857Y-84385714D01*
X155390476Y-84480952D01*
X155438095Y-84528571D01*
X155533333Y-84576190D01*
X155914285Y-84576190D01*
X154390476Y-85052380D02*
X154961904Y-85052380D01*
X154676190Y-85052380D02*
X154676190Y-84052380D01*
X154771428Y-84195238D01*
X154866666Y-84290476D01*
X154961904Y-84338095D01*
X153533333Y-84385714D02*
X153533333Y-85052380D01*
X153771428Y-84004761D02*
X154009523Y-84719047D01*
X153390476Y-84719047D01*
%TO.C,R6*%
X170966666Y-99152380D02*
X171300000Y-98676190D01*
X171538095Y-99152380D02*
X171538095Y-98152380D01*
X171157142Y-98152380D01*
X171061904Y-98200000D01*
X171014285Y-98247619D01*
X170966666Y-98342857D01*
X170966666Y-98485714D01*
X171014285Y-98580952D01*
X171061904Y-98628571D01*
X171157142Y-98676190D01*
X171538095Y-98676190D01*
X170109523Y-98152380D02*
X170300000Y-98152380D01*
X170395238Y-98200000D01*
X170442857Y-98247619D01*
X170538095Y-98390476D01*
X170585714Y-98580952D01*
X170585714Y-98961904D01*
X170538095Y-99057142D01*
X170490476Y-99104761D01*
X170395238Y-99152380D01*
X170204761Y-99152380D01*
X170109523Y-99104761D01*
X170061904Y-99057142D01*
X170014285Y-98961904D01*
X170014285Y-98723809D01*
X170061904Y-98628571D01*
X170109523Y-98580952D01*
X170204761Y-98533333D01*
X170395238Y-98533333D01*
X170490476Y-98580952D01*
X170538095Y-98628571D01*
X170585714Y-98723809D01*
%TO.C,R21*%
X149742857Y-76452380D02*
X150076190Y-75976190D01*
X150314285Y-76452380D02*
X150314285Y-75452380D01*
X149933333Y-75452380D01*
X149838095Y-75500000D01*
X149790476Y-75547619D01*
X149742857Y-75642857D01*
X149742857Y-75785714D01*
X149790476Y-75880952D01*
X149838095Y-75928571D01*
X149933333Y-75976190D01*
X150314285Y-75976190D01*
X149361904Y-75547619D02*
X149314285Y-75500000D01*
X149219047Y-75452380D01*
X148980952Y-75452380D01*
X148885714Y-75500000D01*
X148838095Y-75547619D01*
X148790476Y-75642857D01*
X148790476Y-75738095D01*
X148838095Y-75880952D01*
X149409523Y-76452380D01*
X148790476Y-76452380D01*
X147838095Y-76452380D02*
X148409523Y-76452380D01*
X148123809Y-76452380D02*
X148123809Y-75452380D01*
X148219047Y-75595238D01*
X148314285Y-75690476D01*
X148409523Y-75738095D01*
%TO.C,R20*%
X159142857Y-101452380D02*
X159476190Y-100976190D01*
X159714285Y-101452380D02*
X159714285Y-100452380D01*
X159333333Y-100452380D01*
X159238095Y-100500000D01*
X159190476Y-100547619D01*
X159142857Y-100642857D01*
X159142857Y-100785714D01*
X159190476Y-100880952D01*
X159238095Y-100928571D01*
X159333333Y-100976190D01*
X159714285Y-100976190D01*
X158761904Y-100547619D02*
X158714285Y-100500000D01*
X158619047Y-100452380D01*
X158380952Y-100452380D01*
X158285714Y-100500000D01*
X158238095Y-100547619D01*
X158190476Y-100642857D01*
X158190476Y-100738095D01*
X158238095Y-100880952D01*
X158809523Y-101452380D01*
X158190476Y-101452380D01*
X157571428Y-100452380D02*
X157476190Y-100452380D01*
X157380952Y-100500000D01*
X157333333Y-100547619D01*
X157285714Y-100642857D01*
X157238095Y-100833333D01*
X157238095Y-101071428D01*
X157285714Y-101261904D01*
X157333333Y-101357142D01*
X157380952Y-101404761D01*
X157476190Y-101452380D01*
X157571428Y-101452380D01*
X157666666Y-101404761D01*
X157714285Y-101357142D01*
X157761904Y-101261904D01*
X157809523Y-101071428D01*
X157809523Y-100833333D01*
X157761904Y-100642857D01*
X157714285Y-100547619D01*
X157666666Y-100500000D01*
X157571428Y-100452380D01*
%TO.C,C8*%
X161266666Y-75557142D02*
X161314285Y-75604761D01*
X161457142Y-75652380D01*
X161552380Y-75652380D01*
X161695238Y-75604761D01*
X161790476Y-75509523D01*
X161838095Y-75414285D01*
X161885714Y-75223809D01*
X161885714Y-75080952D01*
X161838095Y-74890476D01*
X161790476Y-74795238D01*
X161695238Y-74700000D01*
X161552380Y-74652380D01*
X161457142Y-74652380D01*
X161314285Y-74700000D01*
X161266666Y-74747619D01*
X160695238Y-75080952D02*
X160790476Y-75033333D01*
X160838095Y-74985714D01*
X160885714Y-74890476D01*
X160885714Y-74842857D01*
X160838095Y-74747619D01*
X160790476Y-74700000D01*
X160695238Y-74652380D01*
X160504761Y-74652380D01*
X160409523Y-74700000D01*
X160361904Y-74747619D01*
X160314285Y-74842857D01*
X160314285Y-74890476D01*
X160361904Y-74985714D01*
X160409523Y-75033333D01*
X160504761Y-75080952D01*
X160695238Y-75080952D01*
X160790476Y-75128571D01*
X160838095Y-75176190D01*
X160885714Y-75271428D01*
X160885714Y-75461904D01*
X160838095Y-75557142D01*
X160790476Y-75604761D01*
X160695238Y-75652380D01*
X160504761Y-75652380D01*
X160409523Y-75604761D01*
X160361904Y-75557142D01*
X160314285Y-75461904D01*
X160314285Y-75271428D01*
X160361904Y-75176190D01*
X160409523Y-75128571D01*
X160504761Y-75080952D01*
%TO.C,C18*%
X142142857Y-90957142D02*
X142190476Y-91004761D01*
X142333333Y-91052380D01*
X142428571Y-91052380D01*
X142571428Y-91004761D01*
X142666666Y-90909523D01*
X142714285Y-90814285D01*
X142761904Y-90623809D01*
X142761904Y-90480952D01*
X142714285Y-90290476D01*
X142666666Y-90195238D01*
X142571428Y-90100000D01*
X142428571Y-90052380D01*
X142333333Y-90052380D01*
X142190476Y-90100000D01*
X142142857Y-90147619D01*
X141190476Y-91052380D02*
X141761904Y-91052380D01*
X141476190Y-91052380D02*
X141476190Y-90052380D01*
X141571428Y-90195238D01*
X141666666Y-90290476D01*
X141761904Y-90338095D01*
X140619047Y-90480952D02*
X140714285Y-90433333D01*
X140761904Y-90385714D01*
X140809523Y-90290476D01*
X140809523Y-90242857D01*
X140761904Y-90147619D01*
X140714285Y-90100000D01*
X140619047Y-90052380D01*
X140428571Y-90052380D01*
X140333333Y-90100000D01*
X140285714Y-90147619D01*
X140238095Y-90242857D01*
X140238095Y-90290476D01*
X140285714Y-90385714D01*
X140333333Y-90433333D01*
X140428571Y-90480952D01*
X140619047Y-90480952D01*
X140714285Y-90528571D01*
X140761904Y-90576190D01*
X140809523Y-90671428D01*
X140809523Y-90861904D01*
X140761904Y-90957142D01*
X140714285Y-91004761D01*
X140619047Y-91052380D01*
X140428571Y-91052380D01*
X140333333Y-91004761D01*
X140285714Y-90957142D01*
X140238095Y-90861904D01*
X140238095Y-90671428D01*
X140285714Y-90576190D01*
X140333333Y-90528571D01*
X140428571Y-90480952D01*
D12*
%TO.C,R1*%
X164520000Y-96046359D02*
X164520000Y-96353641D01*
X165280000Y-96046359D02*
X165280000Y-96353641D01*
%TO.C,U2*%
X154113584Y-71950000D02*
X154113584Y-71300000D01*
X154113584Y-71950000D02*
X154113584Y-72600000D01*
X157233584Y-71950000D02*
X157233584Y-73625000D01*
X157233584Y-71950000D02*
X157233584Y-71300000D01*
%TO.C,R9*%
X164434943Y-87620000D02*
X164742225Y-87620000D01*
X164434943Y-88380000D02*
X164742225Y-88380000D01*
%TO.C,U7*%
X161348586Y-82725003D02*
X161348586Y-83700003D01*
X164598586Y-82725003D02*
X164373586Y-82725003D01*
X164598586Y-85000003D02*
X164598586Y-85975003D01*
X161348586Y-85000003D02*
X161348586Y-85975003D01*
X161573586Y-85975003D02*
X161348586Y-85975003D01*
X164373586Y-85975003D02*
X164598586Y-85975003D01*
X164598586Y-82725003D02*
X164598586Y-83700003D01*
%TO.C,C22*%
X141595277Y-95530810D02*
X141442774Y-95378307D01*
X142104394Y-95021693D02*
X141951891Y-94869190D01*
%TO.C,C20*%
X146431420Y-90960000D02*
X146215748Y-90960000D01*
X146431420Y-90240000D02*
X146215748Y-90240000D01*
%TO.C,C15*%
X164360000Y-89907836D02*
X164360000Y-89692164D01*
X163640000Y-89907836D02*
X163640000Y-89692164D01*
%TO.C,C21*%
X141454394Y-95671693D02*
X141301891Y-95519190D01*
X140945277Y-96180810D02*
X140792774Y-96028307D01*
%TO.C,R12*%
X147553584Y-104153641D02*
X147553584Y-103846359D01*
X146793584Y-104153641D02*
X146793584Y-103846359D01*
%TO.C,Q3*%
X150683584Y-79800000D02*
X150683584Y-80450000D01*
X147563584Y-79800000D02*
X147563584Y-80450000D01*
X150683584Y-79800000D02*
X150683584Y-79150000D01*
X147563584Y-79800000D02*
X147563584Y-78125000D01*
%TO.C,C5*%
X141336973Y-101634313D02*
X141150195Y-101742149D01*
X141696973Y-102257851D02*
X141510195Y-102365687D01*
%TO.C,C19*%
X142133584Y-85907836D02*
X142133584Y-85692164D01*
X141413584Y-85907836D02*
X141413584Y-85692164D01*
%TO.C,R17*%
X165606359Y-88760000D02*
X165913641Y-88760000D01*
X165606359Y-89520000D02*
X165913641Y-89520000D01*
%TO.C,R15*%
X161569944Y-86619995D02*
X161877226Y-86619995D01*
X161569944Y-87379995D02*
X161877226Y-87379995D01*
%TO.C,C9*%
X146460000Y-99992164D02*
X146460000Y-100207836D01*
X145740000Y-99992164D02*
X145740000Y-100207836D01*
%TO.C,C1*%
X162213584Y-73107836D02*
X162213584Y-72892164D01*
X162933584Y-73107836D02*
X162933584Y-72892164D01*
%TO.C,R13*%
X165280000Y-94553641D02*
X165280000Y-94246359D01*
X164520000Y-94553641D02*
X164520000Y-94246359D01*
%TO.C,U6*%
X142302873Y-78526346D02*
X143858508Y-76970711D01*
X140902802Y-76815147D02*
X142295802Y-75422147D01*
%TO.C,C16*%
X142183584Y-83107836D02*
X142183584Y-82892164D01*
X141463584Y-83107836D02*
X141463584Y-82892164D01*
%TO.C,C2*%
X157563584Y-72507836D02*
X157563584Y-72292164D01*
X158283584Y-72507836D02*
X158283584Y-72292164D01*
%TO.C,C17*%
X161415748Y-81340000D02*
X161631420Y-81340000D01*
X161415748Y-82060000D02*
X161631420Y-82060000D01*
%TO.C,Q1*%
X146483584Y-103000000D02*
X146483584Y-103650000D01*
X143363584Y-103000000D02*
X143363584Y-101325000D01*
X146483584Y-103000000D02*
X146483584Y-102350000D01*
X143363584Y-103000000D02*
X143363584Y-103650000D01*
%TO.C,C4*%
X164840000Y-101107836D02*
X164840000Y-100892164D01*
X165560000Y-101107836D02*
X165560000Y-100892164D01*
%TO.C,Q2*%
X163700000Y-91500000D02*
X163700000Y-92100000D01*
X165100000Y-91300000D02*
X165100000Y-92500000D01*
X165100000Y-92500000D02*
X165100000Y-92500000D01*
%TO.C,R7*%
X164346359Y-98980000D02*
X164653641Y-98980000D01*
X164346359Y-98220000D02*
X164653641Y-98220000D01*
%TO.C,Y1*%
X144551084Y-78925000D02*
X145901084Y-78925000D01*
X144551084Y-80675000D02*
X145901084Y-80675000D01*
%TO.C,C13*%
X146231420Y-78460000D02*
X146015748Y-78460000D01*
X146231420Y-77740000D02*
X146015748Y-77740000D01*
%TO.C,R16*%
X165596359Y-90490000D02*
X165903641Y-90490000D01*
X165596359Y-89730000D02*
X165903641Y-89730000D01*
D13*
%TO.C,SW2*%
X141427779Y-99048163D02*
X140693779Y-97776837D01*
X138182305Y-99226837D02*
X138916305Y-100498163D01*
D14*
X142758897Y-101208781D02*
G75*
G03*
X142758897Y-101208781I-141419J0D01*
G01*
D12*
%TO.C,R11*%
X151653584Y-80903641D02*
X151653584Y-80596359D01*
X150893584Y-80903641D02*
X150893584Y-80596359D01*
%TO.C,C3*%
X153683584Y-73107836D02*
X153683584Y-72892164D01*
X152963584Y-73107836D02*
X152963584Y-72892164D01*
%TO.C,D3*%
X150688584Y-87385000D02*
X150688584Y-85100000D01*
X152158584Y-85100000D02*
X152158584Y-87385000D01*
X152158584Y-87385000D02*
X150688584Y-87385000D01*
D13*
%TO.C,U9*%
X144473584Y-92078680D02*
X144264987Y-92287276D01*
X144473584Y-96321320D02*
X144264987Y-96112724D01*
X146594904Y-94200000D02*
X146386308Y-93991403D01*
X144473584Y-96321320D02*
X144682181Y-96112724D01*
X144473584Y-92078680D02*
X144682181Y-92287276D01*
X142352264Y-94200000D02*
X142560860Y-94408597D01*
X142352264Y-94200000D02*
X142560860Y-93991403D01*
X146594904Y-94200000D02*
X146386308Y-94408597D01*
D15*
X146854002Y-95419759D02*
G75*
G03*
X146854002Y-95419759I-99999J0D01*
G01*
D13*
%TO.C,U4*%
X147923584Y-108275000D02*
X163323584Y-108275000D01*
X163323584Y-108275000D02*
X163323584Y-103225000D01*
X163323584Y-87775000D02*
X147923584Y-87775000D01*
X147923584Y-103225000D02*
X147923584Y-108275000D01*
D15*
X147273584Y-101450000D02*
G75*
G03*
X147273584Y-101450000I-100000J0D01*
G01*
D12*
%TO.C,C14*%
X160633584Y-82257836D02*
X160633584Y-82042164D01*
X159913584Y-82257836D02*
X159913584Y-82042164D01*
%TO.C,C10*%
X146740000Y-99992164D02*
X146740000Y-100207836D01*
X147460000Y-99992164D02*
X147460000Y-100207836D01*
%TO.C,LS1*%
X135828584Y-87000000D02*
X139828584Y-87000000D01*
X139828584Y-87000000D02*
X139828584Y-93000000D01*
X139828584Y-93000000D02*
X135828584Y-93000000D01*
X135828584Y-93000000D02*
X135828584Y-87000000D01*
%TO.C,C12*%
X144433920Y-78460000D02*
X144218248Y-78460000D01*
X144433920Y-77740000D02*
X144218248Y-77740000D01*
%TO.C,D1*%
X163665000Y-107585000D02*
X163665000Y-105300000D01*
X165135000Y-107585000D02*
X163665000Y-107585000D01*
X165135000Y-105300000D02*
X165135000Y-107585000D01*
D13*
%TO.C,U8*%
X142923584Y-80950000D02*
X146023584Y-80950000D01*
X142923584Y-80950000D02*
X142923584Y-81155000D01*
X146023584Y-84050000D02*
X142923584Y-84050000D01*
X142923584Y-84050000D02*
X142923584Y-83845000D01*
X146023584Y-80950000D02*
X146023584Y-81155000D01*
X146023584Y-84050000D02*
X146023584Y-83845000D01*
D15*
X146923584Y-81300000D02*
G75*
G03*
X146923584Y-81300000I-100000J0D01*
G01*
D12*
%TO.C,C7*%
X138446973Y-83392149D02*
X138260195Y-83284313D01*
X138086973Y-84015687D02*
X137900195Y-83907851D01*
%TO.C,R10*%
X144577225Y-100120000D02*
X144269943Y-100120000D01*
X144577225Y-100880000D02*
X144269943Y-100880000D01*
D13*
%TO.C,SW1*%
X172393737Y-100501228D02*
X173127737Y-99229902D01*
D14*
X173246418Y-96369284D02*
G75*
G03*
X173246418Y-96369284I-141418J0D01*
G01*
D12*
%TO.C,U5*%
X167500000Y-99160000D02*
X166700000Y-99160000D01*
X167500000Y-99160000D02*
X168300000Y-99160000D01*
X167500000Y-96040000D02*
X166700000Y-96040000D01*
X167500000Y-96040000D02*
X169300000Y-96040000D01*
%TO.C,U3*%
X152583584Y-72550000D02*
X152583584Y-71900000D01*
X149463584Y-72550000D02*
X149463584Y-71900000D01*
X152583584Y-72550000D02*
X152583584Y-74225000D01*
X149463584Y-72550000D02*
X149463584Y-73200000D01*
%TO.C,U10*%
X146458584Y-89660000D02*
X146933584Y-89660000D01*
X142713584Y-85440000D02*
X142713584Y-85915000D01*
X146933584Y-89660000D02*
X146933584Y-89185000D01*
X142713584Y-89660000D02*
X142713584Y-89185000D01*
X143188584Y-89660000D02*
X142713584Y-89660000D01*
X146458584Y-85440000D02*
X146933584Y-85440000D01*
X143188584Y-85440000D02*
X142713584Y-85440000D01*
%TO.C,R22*%
X146877225Y-77080000D02*
X146569943Y-77080000D01*
X146877225Y-76320000D02*
X146569943Y-76320000D01*
%TO.C,R8*%
X164727225Y-87380000D02*
X164419943Y-87380000D01*
X164727225Y-86620000D02*
X164419943Y-86620000D01*
%TO.C,D2*%
X165065000Y-90715000D02*
X166535000Y-90715000D01*
X166535000Y-90715000D02*
X166535000Y-93000000D01*
X165065000Y-93000000D02*
X165065000Y-90715000D01*
D13*
%TO.C,SW3*%
X140690189Y-82214317D02*
X141424189Y-80942991D01*
X138912715Y-79492991D02*
X138178715Y-80764317D01*
D14*
X139555306Y-84324935D02*
G75*
G03*
X139555306Y-84324935I-141418J0D01*
G01*
D12*
%TO.C,L1*%
X164837339Y-79689997D02*
X164314835Y-79689997D01*
X164837339Y-81909997D02*
X164314835Y-81909997D01*
%TO.C,C11*%
X166033584Y-85392164D02*
X166033584Y-85607836D01*
X165313584Y-85392164D02*
X165313584Y-85607836D01*
%TO.C,R5*%
X166446359Y-100620000D02*
X166753641Y-100620000D01*
X166446359Y-101380000D02*
X166753641Y-101380000D01*
D13*
%TO.C,M1*%
X150098584Y-82350000D02*
X151093584Y-82350000D01*
X150098584Y-84350000D02*
X151093584Y-84350000D01*
X151093584Y-84350000D02*
X152398584Y-84350000D01*
X151093584Y-84350000D02*
X151093584Y-82350000D01*
X151093584Y-82350000D02*
X152398584Y-82350000D01*
D15*
X148923584Y-84950000D02*
G75*
G03*
X148923584Y-84950000I-100000J0D01*
G01*
D13*
X159293584Y-83350000D02*
G75*
G03*
X159293584Y-83350000I-3500000J0D01*
G01*
D12*
%TO.C,U1*%
X158763584Y-72550000D02*
X158763584Y-71900000D01*
X161883584Y-72550000D02*
X161883584Y-71900000D01*
X158763584Y-72550000D02*
X158763584Y-73200000D01*
X161883584Y-72550000D02*
X161883584Y-74225000D01*
%TO.C,C6*%
X164807836Y-102140000D02*
X164592164Y-102140000D01*
X164807836Y-102860000D02*
X164592164Y-102860000D01*
D15*
%TO.C,J1*%
X166200000Y-87000000D02*
G75*
G03*
X166200000Y-87000000I-100000J0D01*
G01*
D12*
%TO.C,R14*%
X160603584Y-86396359D02*
X160603584Y-86703641D01*
X159843584Y-86396359D02*
X159843584Y-86703641D01*
%TO.C,R6*%
X166753641Y-100380000D02*
X166446359Y-100380000D01*
X166753641Y-99620000D02*
X166446359Y-99620000D01*
%TO.C,R21*%
X146877225Y-76180000D02*
X146569943Y-76180000D01*
X146877225Y-75420000D02*
X146569943Y-75420000D01*
%TO.C,R20*%
X163820000Y-100846359D02*
X163820000Y-101153641D01*
X164580000Y-100846359D02*
X164580000Y-101153641D01*
%TO.C,C8*%
X162742774Y-74621693D02*
X162895277Y-74469190D01*
X163251891Y-75130810D02*
X163404394Y-74978307D01*
%TO.C,C18*%
X144481420Y-90240000D02*
X144265748Y-90240000D01*
X144481420Y-90960000D02*
X144265748Y-90960000D01*
%TD*%
M02*
