%TF.GenerationSoftware,KiCad,Pcbnew,(6.0.5-0)*%
%TF.CreationDate,2022-09-09T19:09:33+08:00*%
%TF.ProjectId,Nebula,4e656275-6c61-42e6-9b69-6361645f7063,rev?*%
%TF.SameCoordinates,Original*%
%TF.FileFunction,Soldermask,Bot*%
%TF.FilePolarity,Negative*%
%FSLAX46Y46*%
G04 Gerber Fmt 4.6, Leading zero omitted, Abs format (unit mm)*
G04 Created by KiCad (PCBNEW (6.0.5-0)) date 2022-09-09 19:09:33*
%MOMM*%
%LPD*%
G01*
G04 APERTURE LIST*
G04 Aperture macros list*
%AMRoundRect*
0 Rectangle with rounded corners*
0 $1 Rounding radius*
0 $2 $3 $4 $5 $6 $7 $8 $9 X,Y pos of 4 corners*
0 Add a 4 corners polygon primitive as box body*
4,1,4,$2,$3,$4,$5,$6,$7,$8,$9,$2,$3,0*
0 Add four circle primitives for the rounded corners*
1,1,$1+$1,$2,$3*
1,1,$1+$1,$4,$5*
1,1,$1+$1,$6,$7*
1,1,$1+$1,$8,$9*
0 Add four rect primitives between the rounded corners*
20,1,$1+$1,$2,$3,$4,$5,0*
20,1,$1+$1,$4,$5,$6,$7,0*
20,1,$1+$1,$6,$7,$8,$9,0*
20,1,$1+$1,$8,$9,$2,$3,0*%
%AMRotRect*
0 Rectangle, with rotation*
0 The origin of the aperture is its center*
0 $1 length*
0 $2 width*
0 $3 Rotation angle, in degrees counterclockwise*
0 Add horizontal line*
21,1,$1,$2,0,0,$3*%
G04 Aperture macros list end*
%ADD10C,0.010000*%
%ADD11RoundRect,0.135000X-0.185000X0.135000X-0.185000X-0.135000X0.185000X-0.135000X0.185000X0.135000X0*%
%ADD12RoundRect,0.150000X0.150000X-0.587500X0.150000X0.587500X-0.150000X0.587500X-0.150000X-0.587500X0*%
%ADD13RoundRect,0.135000X-0.135000X-0.185000X0.135000X-0.185000X0.135000X0.185000X-0.135000X0.185000X0*%
%ADD14RoundRect,0.070000X-0.140000X0.140000X-0.140000X-0.140000X0.140000X-0.140000X0.140000X0.140000X0*%
%ADD15O,0.420000X0.990000*%
%ADD16C,0.600000*%
%ADD17R,2.400000X1.650000*%
%ADD18R,0.700000X0.280000*%
%ADD19R,0.500000X0.260000*%
%ADD20R,1.050000X0.680000*%
%ADD21RoundRect,0.140000X0.219203X0.021213X0.021213X0.219203X-0.219203X-0.021213X-0.021213X-0.219203X0*%
%ADD22RoundRect,0.140000X0.140000X0.170000X-0.140000X0.170000X-0.140000X-0.170000X0.140000X-0.170000X0*%
%ADD23RoundRect,0.140000X0.170000X-0.140000X0.170000X0.140000X-0.170000X0.140000X-0.170000X-0.140000X0*%
%ADD24RoundRect,0.135000X0.185000X-0.135000X0.185000X0.135000X-0.185000X0.135000X-0.185000X-0.135000X0*%
%ADD25RoundRect,0.150000X-0.150000X0.587500X-0.150000X-0.587500X0.150000X-0.587500X0.150000X0.587500X0*%
%ADD26RoundRect,0.140000X0.036244X0.217224X-0.206244X0.077224X-0.036244X-0.217224X0.206244X-0.077224X0*%
%ADD27RoundRect,0.140000X-0.170000X0.140000X-0.170000X-0.140000X0.170000X-0.140000X0.170000X0.140000X0*%
%ADD28RoundRect,0.075000X-0.123744X-0.229810X0.229810X0.123744X0.123744X0.229810X-0.229810X-0.123744X0*%
%ADD29RoundRect,0.140000X-0.140000X-0.170000X0.140000X-0.170000X0.140000X0.170000X-0.140000X0.170000X0*%
%ADD30R,0.400000X0.450000*%
%ADD31R,0.500000X0.450000*%
%ADD32R,1.000000X1.800000*%
%ADD33RotRect,1.400000X1.050000X120.000000*%
%ADD34RoundRect,0.218750X0.256250X-0.218750X0.256250X0.218750X-0.256250X0.218750X-0.256250X-0.218750X0*%
%ADD35RoundRect,0.008100X0.380989X-0.201525X-0.201525X0.380989X-0.380989X0.201525X0.201525X-0.380989X0*%
%ADD36RoundRect,0.008100X-0.201525X-0.380989X0.380989X0.201525X0.201525X0.380989X-0.380989X-0.201525X0*%
%ADD37RotRect,1.100000X1.100000X135.000000*%
%ADD38R,0.800000X0.400000*%
%ADD39R,0.400000X0.800000*%
%ADD40R,1.200000X1.200000*%
%ADD41R,0.800000X0.800000*%
%ADD42RoundRect,0.440500X0.823390X-0.295982X-0.148505X0.862278X-0.823390X0.295982X0.148505X-0.862278X0*%
%ADD43R,0.860000X0.260000*%
%ADD44R,1.575000X2.450000*%
%ADD45RoundRect,0.140000X0.206244X0.077224X-0.036244X0.217224X-0.206244X-0.077224X0.036244X-0.217224X0*%
%ADD46RoundRect,0.135000X0.135000X0.185000X-0.135000X0.185000X-0.135000X-0.185000X0.135000X-0.185000X0*%
%ADD47RotRect,1.400000X1.050000X240.000000*%
%ADD48RoundRect,0.150000X0.512500X0.150000X-0.512500X0.150000X-0.512500X-0.150000X0.512500X-0.150000X0*%
%ADD49RoundRect,0.062500X0.350000X0.062500X-0.350000X0.062500X-0.350000X-0.062500X0.350000X-0.062500X0*%
%ADD50RoundRect,0.062500X0.062500X0.350000X-0.062500X0.350000X-0.062500X-0.350000X0.062500X-0.350000X0*%
%ADD51R,2.600000X2.600000*%
%ADD52RoundRect,0.218750X-0.256250X0.218750X-0.256250X-0.218750X0.256250X-0.218750X0.256250X0.218750X0*%
%ADD53RotRect,1.400000X1.050000X60.000000*%
%ADD54RoundRect,0.250001X0.462499X0.849999X-0.462499X0.849999X-0.462499X-0.849999X0.462499X-0.849999X0*%
%ADD55RoundRect,0.144400X0.825600X0.235600X-0.825600X0.235600X-0.825600X-0.235600X0.825600X-0.235600X0*%
%ADD56RoundRect,0.100000X0.070711X-0.212132X0.212132X-0.070711X-0.070711X0.212132X-0.212132X0.070711X0*%
%ADD57C,1.560000*%
%ADD58R,0.700000X0.300000*%
%ADD59R,0.700000X1.000000*%
%ADD60O,2.200000X1.100000*%
%ADD61O,2.600000X1.300000*%
%ADD62RoundRect,0.140000X0.021213X-0.219203X0.219203X-0.021213X-0.021213X0.219203X-0.219203X0.021213X0*%
G04 APERTURE END LIST*
%TO.C,U4*%
G36*
X154673584Y-97850000D02*
G01*
X153923584Y-97850000D01*
X153273584Y-97200000D01*
X153273584Y-96450000D01*
X154673584Y-96450000D01*
X154673584Y-97850000D01*
G37*
D10*
X154673584Y-97850000D02*
X153923584Y-97850000D01*
X153273584Y-97200000D01*
X153273584Y-96450000D01*
X154673584Y-96450000D01*
X154673584Y-97850000D01*
%TD*%
D11*
%TO.C,R1*%
X164900000Y-95690000D03*
X164900000Y-96710000D03*
%TD*%
D12*
%TO.C,U2*%
X156623584Y-72887500D03*
X154723584Y-72887500D03*
X155673584Y-71012500D03*
%TD*%
D13*
%TO.C,R9*%
X164078584Y-88000000D03*
X165098584Y-88000000D03*
%TD*%
D14*
%TO.C,U7*%
X161973586Y-82590003D03*
D15*
X161973586Y-82875003D03*
X162473586Y-82875003D03*
D14*
X162473586Y-82590003D03*
X162973586Y-82590003D03*
D15*
X162973586Y-82875003D03*
X163473586Y-82875003D03*
D14*
X163473586Y-82590003D03*
X163973586Y-82590003D03*
D15*
X163973586Y-82875003D03*
X163973586Y-85825003D03*
D14*
X163973586Y-86110003D03*
D15*
X163473586Y-85825003D03*
D14*
X163473586Y-86110003D03*
X162973586Y-86110003D03*
D15*
X162973586Y-85825003D03*
X162473586Y-85825003D03*
D14*
X162473586Y-86110003D03*
D15*
X161973586Y-85825003D03*
D14*
X161973586Y-86110003D03*
D16*
X163723586Y-83850003D03*
D17*
X162973586Y-84350003D03*
D18*
X164523586Y-84100003D03*
X164523586Y-84600003D03*
D19*
X161343586Y-84100003D03*
D18*
X161423586Y-84100003D03*
D20*
X162338586Y-84800003D03*
D19*
X164603586Y-84100003D03*
D20*
X163608586Y-83900003D03*
D18*
X161423586Y-84600003D03*
D16*
X162223586Y-83850003D03*
D20*
X162338586Y-83900003D03*
D16*
X162973586Y-84350003D03*
D19*
X161343586Y-84600003D03*
D16*
X162223586Y-84850003D03*
D19*
X164603586Y-84600003D03*
D16*
X163723586Y-84850003D03*
D20*
X163608586Y-84800003D03*
%TD*%
D21*
%TO.C,C22*%
X142112995Y-95539411D03*
X141434173Y-94860589D03*
%TD*%
D22*
%TO.C,C20*%
X146803584Y-90600000D03*
X145843584Y-90600000D03*
%TD*%
D23*
%TO.C,C15*%
X164000000Y-90280000D03*
X164000000Y-89320000D03*
%TD*%
D21*
%TO.C,C21*%
X141462995Y-96189411D03*
X140784173Y-95510589D03*
%TD*%
D24*
%TO.C,R12*%
X147173584Y-104510000D03*
X147173584Y-103490000D03*
%TD*%
D25*
%TO.C,Q3*%
X148173584Y-78862500D03*
X150073584Y-78862500D03*
X149123584Y-80737500D03*
%TD*%
D26*
%TO.C,C5*%
X141839276Y-101760000D03*
X141007892Y-102240000D03*
%TD*%
D23*
%TO.C,C19*%
X141773584Y-86280000D03*
X141773584Y-85320000D03*
%TD*%
D13*
%TO.C,R17*%
X165250000Y-89140000D03*
X166270000Y-89140000D03*
%TD*%
%TO.C,R15*%
X161213585Y-86999995D03*
X162233585Y-86999995D03*
%TD*%
D27*
%TO.C,C9*%
X146100000Y-99620000D03*
X146100000Y-100580000D03*
%TD*%
D23*
%TO.C,C1*%
X162573584Y-73480000D03*
X162573584Y-72520000D03*
%TD*%
D24*
%TO.C,R13*%
X164900000Y-94910000D03*
X164900000Y-93890000D03*
%TD*%
D28*
%TO.C,U6*%
X142196807Y-77996016D03*
X141737188Y-77536396D03*
X141277568Y-77076777D03*
X142550361Y-75803984D03*
X143009980Y-76263604D03*
X143469600Y-76723223D03*
%TD*%
D23*
%TO.C,C16*%
X141823584Y-83480000D03*
X141823584Y-82520000D03*
%TD*%
%TO.C,C2*%
X157923584Y-72880000D03*
X157923584Y-71920000D03*
%TD*%
D29*
%TO.C,C17*%
X161043584Y-81700000D03*
X162003584Y-81700000D03*
%TD*%
D25*
%TO.C,Q1*%
X143973584Y-102062500D03*
X145873584Y-102062500D03*
X144923584Y-103937500D03*
%TD*%
D23*
%TO.C,C4*%
X165200000Y-101480000D03*
X165200000Y-100520000D03*
%TD*%
D30*
%TO.C,Q2*%
X164800000Y-92375000D03*
X164000000Y-92375000D03*
D31*
X164400000Y-91225000D03*
%TD*%
D13*
%TO.C,R7*%
X163990000Y-98600000D03*
X165010000Y-98600000D03*
%TD*%
D32*
%TO.C,Y1*%
X146476084Y-79800000D03*
X143976084Y-79800000D03*
%TD*%
D22*
%TO.C,C13*%
X146603584Y-78100000D03*
X145643584Y-78100000D03*
%TD*%
D13*
%TO.C,R16*%
X165240000Y-90110000D03*
X166260000Y-90110000D03*
%TD*%
D33*
%TO.C,SW2*%
X139532910Y-97216154D03*
X141332910Y-100333846D03*
X140077174Y-101058846D03*
X138277174Y-97941154D03*
%TD*%
D24*
%TO.C,R11*%
X151273584Y-81260000D03*
X151273584Y-80240000D03*
%TD*%
D23*
%TO.C,C3*%
X153323584Y-73480000D03*
X153323584Y-72520000D03*
%TD*%
D34*
%TO.C,D3*%
X151423584Y-86687500D03*
X151423584Y-85112500D03*
%TD*%
D35*
%TO.C,U9*%
X146018612Y-94684368D03*
X145665059Y-95037922D03*
X145311506Y-95391475D03*
X144957952Y-95745028D03*
D36*
X143989216Y-95745028D03*
X143635662Y-95391475D03*
X143282109Y-95037922D03*
X142928556Y-94684368D03*
D35*
X142928556Y-93715632D03*
X143282109Y-93362078D03*
X143635662Y-93008525D03*
X143989216Y-92654972D03*
D36*
X144957952Y-92654972D03*
X145311506Y-93008525D03*
X145665059Y-93362078D03*
X146018612Y-93715632D03*
D37*
X144473584Y-94200000D03*
%TD*%
D38*
%TO.C,U4*%
X148623584Y-101450000D03*
X148623584Y-100600000D03*
X148623584Y-99750000D03*
X148623584Y-98900000D03*
X148623584Y-98050000D03*
X148623584Y-97200000D03*
X148623584Y-96350000D03*
X148623584Y-95500000D03*
X148623584Y-94650000D03*
X148623584Y-93800000D03*
X148623584Y-92950000D03*
X148623584Y-92100000D03*
X148623584Y-91250000D03*
X148623584Y-90400000D03*
X148623584Y-89550000D03*
D39*
X149673584Y-88500000D03*
X150523584Y-88500000D03*
X151373584Y-88500000D03*
X152223584Y-88500000D03*
X153073584Y-88500000D03*
X153923584Y-88500000D03*
X154773584Y-88500000D03*
X155623584Y-88500000D03*
X156473584Y-88500000D03*
X157323584Y-88500000D03*
X158173584Y-88500000D03*
X159023584Y-88500000D03*
X159873584Y-88500000D03*
X160723584Y-88500000D03*
X161573584Y-88500000D03*
D38*
X162623584Y-89550000D03*
X162623584Y-90400000D03*
X162623584Y-91250000D03*
X162623584Y-92100000D03*
X162623584Y-92950000D03*
X162623584Y-93800000D03*
X162623584Y-94650000D03*
X162623584Y-95500000D03*
X162623584Y-96350000D03*
X162623584Y-97200000D03*
X162623584Y-98050000D03*
X162623584Y-98900000D03*
X162623584Y-99750000D03*
X162623584Y-100600000D03*
X162623584Y-101450000D03*
D39*
X161573584Y-102500000D03*
X160723584Y-102500000D03*
X159873584Y-102500000D03*
X159023584Y-102500000D03*
X158173584Y-102500000D03*
X157323584Y-102500000D03*
X156473584Y-102500000D03*
X155623584Y-102500000D03*
X154773584Y-102500000D03*
X153923584Y-102500000D03*
X153073584Y-102500000D03*
X152223584Y-102500000D03*
X151373584Y-102500000D03*
X150523584Y-102500000D03*
X149673584Y-102500000D03*
D40*
X155623584Y-95500000D03*
X155623584Y-97150000D03*
X157273584Y-97150000D03*
X157273584Y-95500000D03*
X157273584Y-93850000D03*
X155623584Y-93850000D03*
X153973584Y-93850000D03*
X153973584Y-95500000D03*
D41*
X148623584Y-102500000D03*
X148623584Y-88500000D03*
X162623584Y-88500000D03*
X162623584Y-102500000D03*
%TD*%
D23*
%TO.C,C14*%
X160273584Y-82630000D03*
X160273584Y-81670000D03*
%TD*%
D27*
%TO.C,C10*%
X147100000Y-99620000D03*
X147100000Y-100580000D03*
%TD*%
D22*
%TO.C,C12*%
X144806084Y-78100000D03*
X143846084Y-78100000D03*
%TD*%
D42*
%TO.C,BT1*%
X168632783Y-102370496D03*
X166334649Y-104298859D03*
%TD*%
D34*
%TO.C,D1*%
X164400000Y-106887500D03*
X164400000Y-105312500D03*
%TD*%
D43*
%TO.C,U8*%
X145908584Y-81500000D03*
X145908584Y-82000000D03*
X145908584Y-82500000D03*
X145908584Y-83000000D03*
X145908584Y-83500000D03*
X143038584Y-83500000D03*
X143038584Y-83000000D03*
X143038584Y-82500000D03*
X143038584Y-82000000D03*
X143038584Y-81500000D03*
D44*
X144473584Y-82500000D03*
%TD*%
D45*
%TO.C,C7*%
X138589276Y-83890000D03*
X137757892Y-83410000D03*
%TD*%
D46*
%TO.C,R10*%
X144933584Y-100500000D03*
X143913584Y-100500000D03*
%TD*%
D47*
%TO.C,SW1*%
X169977132Y-100336911D03*
X171777132Y-97219219D03*
X173032868Y-97944219D03*
X171232868Y-101061911D03*
%TD*%
D48*
%TO.C,U5*%
X168637500Y-96650000D03*
X168637500Y-97600000D03*
X168637500Y-98550000D03*
X166362500Y-98550000D03*
X166362500Y-96650000D03*
%TD*%
D12*
%TO.C,U3*%
X151973584Y-73487500D03*
X150073584Y-73487500D03*
X151023584Y-71612500D03*
%TD*%
D49*
%TO.C,U10*%
X146761084Y-86300000D03*
X146761084Y-86800000D03*
X146761084Y-87300000D03*
X146761084Y-87800000D03*
X146761084Y-88300000D03*
X146761084Y-88800000D03*
D50*
X146073584Y-89487500D03*
X145573584Y-89487500D03*
X145073584Y-89487500D03*
X144573584Y-89487500D03*
X144073584Y-89487500D03*
X143573584Y-89487500D03*
D49*
X142886084Y-88800000D03*
X142886084Y-88300000D03*
X142886084Y-87800000D03*
X142886084Y-87300000D03*
X142886084Y-86800000D03*
X142886084Y-86300000D03*
D50*
X143573584Y-85612500D03*
X144073584Y-85612500D03*
X144573584Y-85612500D03*
X145073584Y-85612500D03*
X145573584Y-85612500D03*
X146073584Y-85612500D03*
D51*
X144823584Y-87550000D03*
%TD*%
D46*
%TO.C,R22*%
X147233584Y-76700000D03*
X146213584Y-76700000D03*
%TD*%
%TO.C,R8*%
X165083584Y-87000000D03*
X164063584Y-87000000D03*
%TD*%
D52*
%TO.C,D2*%
X165800000Y-91412500D03*
X165800000Y-92987500D03*
%TD*%
D53*
%TO.C,SW3*%
X139529320Y-82775000D03*
X141329320Y-79657308D03*
X140073584Y-78932308D03*
X138273584Y-82050000D03*
%TD*%
D54*
%TO.C,L1*%
X165738587Y-80799997D03*
X163413587Y-80799997D03*
%TD*%
D27*
%TO.C,C11*%
X165673584Y-85020000D03*
X165673584Y-85980000D03*
%TD*%
D13*
%TO.C,R5*%
X166090000Y-101000000D03*
X167110000Y-101000000D03*
%TD*%
D55*
%TO.C,M1*%
X148803584Y-83950000D03*
X148803584Y-82750000D03*
%TD*%
D12*
%TO.C,U1*%
X161273584Y-73487500D03*
X159373584Y-73487500D03*
X160323584Y-71612500D03*
%TD*%
D56*
%TO.C,U11*%
X165717268Y-78292300D03*
X166459730Y-77549838D03*
X167202192Y-76807376D03*
X167944654Y-76064914D03*
D57*
X167011273Y-75131533D03*
D56*
X166063750Y-74184010D03*
X165321288Y-74926472D03*
X164578826Y-75668934D03*
X163836364Y-76411396D03*
%TD*%
D22*
%TO.C,C6*%
X165180000Y-102500000D03*
X164220000Y-102500000D03*
%TD*%
D58*
%TO.C,J1*%
X167330000Y-87000000D03*
X167330000Y-87500000D03*
X167330000Y-88000000D03*
X167330000Y-88500000D03*
X167330000Y-89000000D03*
X167330000Y-89500000D03*
X167330000Y-90500000D03*
X167330000Y-91500000D03*
X167330000Y-92000000D03*
X167330000Y-92500000D03*
X167330000Y-93000000D03*
D59*
X168630000Y-93100000D03*
D58*
X168630000Y-92250000D03*
X168630000Y-91250000D03*
X168630000Y-90750000D03*
X168630000Y-90250000D03*
X168630000Y-89750000D03*
X168630000Y-88750000D03*
D59*
X168630000Y-86900000D03*
D60*
X167740000Y-85680000D03*
X167740000Y-94320000D03*
D61*
X173100000Y-84350000D03*
X173100000Y-95650000D03*
%TD*%
D11*
%TO.C,R14*%
X160223584Y-86040000D03*
X160223584Y-87060000D03*
%TD*%
D46*
%TO.C,R6*%
X167110000Y-100000000D03*
X166090000Y-100000000D03*
%TD*%
%TO.C,R21*%
X147233584Y-75800000D03*
X146213584Y-75800000D03*
%TD*%
D11*
%TO.C,R20*%
X164200000Y-100490000D03*
X164200000Y-101510000D03*
%TD*%
D62*
%TO.C,C8*%
X162734173Y-75139411D03*
X163412995Y-74460589D03*
%TD*%
D22*
%TO.C,C18*%
X144853584Y-90600000D03*
X143893584Y-90600000D03*
%TD*%
M02*
